<?xml version="1.0" encoding="utf-8"?>
<!-- Generator: Adobe Illustrator 21.1.0, SVG Export Plug-In . SVG Version: 6.00 Build 0)  -->
<svg version="1.1" id="Layer_1" xmlns="http://www.w3.org/2000/svg" xmlns:xlink="http://www.w3.org/1999/xlink" x="0px" y="0px"
	 viewBox="0 0 55.3 40.7" style="enable-background:new 0 0 55.3 40.7;" xml:space="preserve">
<style type="text/css">
	.st0{fill:none;stroke:#AD7D45;stroke-width:2;}
	.st1{fill:none;stroke:#AD7D45;stroke-width:2;stroke-linejoin:bevel;}
</style>
<g>
	<path class="st0" d="M47.3,37.6c-1.7,1.3-3.8,2-6.1,2c-5.6,0-10.1-4.5-10.1-10.1c0-5.6,4.5-10.1,10.1-10.1c3.2,0,6,1.4,7.9,3.7"/>
	<path class="st0" d="M44.4,24.8c0,0-4.2-1-6.6,1.3c-2.9,2.7-2.3,7,0.4,7.8c2.7,0.8,3.7-1.3,4-2.2C42.6,30.8,44.4,24.8,44.4,24.8z"
		/>
	<path class="st0" d="M44.1,25.8c0,0-1.8,6.3-0.5,7.4c3.6,3.3,12-5.3,3.8-11.7"/>
	<polyline class="st0" points="29.3,35.4 1,35.4 1,1 54.3,1 54.3,35.4 50.8,35.4 	"/>
	<path class="st1" d="M25.1,19.1c1.6,1.4,4.1,1.4,5.7,0L54.3,1.4V1.1H1.2L25.1,19.1z"/>
	<line class="st1" x1="19.1" y1="19.9" x2="5.1" y2="31.2"/>
	<line class="st0" x1="28.5" y1="3.6" x2="28.5" y2="5.3"/>
	<line class="st0" x1="28.5" y1="7" x2="28.5" y2="8.7"/>
	<line class="st0" x1="28.5" y1="10.4" x2="28.5" y2="12.2"/>
</g>
</svg>
