<?xml version="1.0" encoding="utf-8"?>
<!-- Generator: Adobe Illustrator 21.1.0, SVG Export Plug-In . SVG Version: 6.00 Build 0)  -->
<svg version="1.1" id="Layer_1" xmlns="http://www.w3.org/2000/svg" xmlns:xlink="http://www.w3.org/1999/xlink" x="0px" y="0px"
	 viewBox="0 0 168.3 206" style="enable-background:new 0 0 168.3 206;" xml:space="preserve">
<style type="text/css">
	.st0{opacity:9.000000e-02;}
	.st1{fill:#164750;}
</style>
<g class="st0">
	<path class="st1" d="M60.9,62.7c0.1,0.2,0.1,0.2,0.2,0.2c0-0.1,0-0.2,0-0.3C61,62.6,60.9,62.7,60.9,62.7 M77.6,116.9
		c0,0.1,0,0.1,0.1,0.1c-0.2-0.2-0.1-0.7-0.5-0.7c0,0.4,0.3,0.6,0,0.8C77.4,117.2,77.4,117,77.6,116.9 M83,134.8
		c0,0.2-0.1,0.3-0.1,0.5c0.3-0.1,0.2,0.2,0.5,0.2c0-0.5-0.1-0.3,0-0.7H83z M79.6,133c-0.1,0-0.1,0-0.1-0.1c0.2,0,0.2-0.2,0.2-0.4
		C79.1,132.4,79.3,133.2,79.6,133 M61.2,71.3c0,0,0.1,0,0.1,0c0-0.2,0.1-0.3,0.1-0.4c-0.1-0.1-0.2-0.1-0.3,0
		C61.2,71,61.2,71.1,61.2,71.3 M61.5,67.7c0.4-0.1,0.3-0.4,0.4-0.7c-0.1,0-0.2,0-0.3-0.1c-0.2,0.1-0.3,0.2-0.1,0.3
		c-0.2,0.4-0.2-0.3-0.5-0.1c0-0.2,0.1-0.3,0.2-0.3c0,0-0.1-0.1-0.1-0.1c0,0,0,0,0-0.1c-0.1,0-0.1-0.1-0.1-0.2
		c-0.3,0.2-0.4,0.2-0.6,0.1c0.1,0.4,0.1,0.8,0.2,1.2c0.1,0,0.3,0,0.4,0c0,0.2-0.2,0.3-0.4,0.3c0.1,0.4,0.2,0.9,0.2,1.4
		c0.2,0,0.4,0,0.6,0.1c0-0.2-0.1-0.7-0.1-1.3h0.5C61.8,67.9,61.4,68,61.5,67.7 M165.8,96.7c-0.1-0.2-0.4-0.1-0.1-0.4
		c-0.5,0.4-1.4,0.5-2.2,0.6c0.5-0.2,0.5-0.4,0.4-1c0.2-0.1,0.3-0.1,0.4-0.2c0-0.1,0.1-0.2,0.2-0.3c0.1,0,0.2,0,0.2,0.1
		c0.5-0.3,0.7-0.7,0.6-1.6c0.2,0,0.2,0.1,0.4,0.1c0.2-0.9-1.1-1.5-1.2-0.5c-0.8,0.1-1.4,0.4-1.7-0.6c0-0.4,0.4-0.4,0.6-0.6
		c-0.1-0.8,0-0.9,0.1-1.3c0.8,0.1,0.4-0.6,1.1-0.8c0,0,0,0,0,0c-0.1,0-0.2,0.1-0.4,0.1c0.3-0.8,0.4-1.4-0.6-1.7
		c-0.1,0-0.1,0.2-0.1,0.4c-1.2-0.5-0.4-1.3,0.1-1.8c0.8,0.2,0.7,0.5,1.5,0.6c0,0.1,0,0.3,0,0.4c0.2-0.4,0.6-1,0.7-1.3
		c0.7,0.5,1.1-0.6,1.6-0.4c0.3-0.1-0.3-0.2-0.1-0.6c-0.5,0.1-0.7-0.3-0.8-0.6c0.2,0,0.3,0,0.4-0.1c0.3,0,0.1,0.3,0.4,0.4
		c0.4-0.4,0.6-0.2,1.1-0.4c-0.3-0.1-0.2-0.6,0-0.8c0,0,0,0,0,0c0-0.2,0-0.3,0-0.5c-0.6-0.2-1-0.7-1.4-1.2c0.4-0.2,0.8-0.2,1.2-0.2
		c-2.3-13.3-16-14.7-16-14.7c-15.5-1.2-27,5.1-35.5,14c0,0.4,0.2,0.3-0.1,0.5c0.1,0.4,0.3,0.2,0.6,0.1c-0.1,0.6,0.4,0.5,0.2,1.2
		c-0.3,0-0.4,0.2-0.7,0.1c-0.1-0.1,0-0.4-0.4-0.4c-0.1-0.4,0.1-0.6,0.2-0.8c0-0.3-0.3,0.1-0.6,0c-3.8,4.2-7,8.8-9.6,13.5
		c0,0.1,0,0.2-0.1,0.2c0,0,0,0.1-0.1,0.1c0.1,0.1,0,0.2-0.1,0.4c0,0-0.1-0.1-0.1-0.1c-2.8,5.3-5,10.5-6.6,15.1h0c0,0,0,0,0,0
		c0,0.1,0,0.1-0.1,0.2c0.1,0.1,0.4,0,0.3,0.3h-0.4c-2.1,6.1-3.2,11-3.6,12.9h11.2c1.3-2.8,2.7-5.5,4-7.9c0-0.4,0.2-0.5,0.2-0.7
		c0.1,0,0.1,0,0.1,0c23.6-42.2,44.1-16.9,49.3-9.3c0,0,0.1-0.1,0.1-0.2c0.3,0.2,0.2,0.6,0.6,0.8c0,0.1-0.1,0.1-0.2,0.1
		c0.5,0.7,0.7,1.2,0.7,1.2c2-4,3.5-7.7,4.6-11c-0.1,0-0.1,0-0.2,0c0.1-0.1,0.2-0.2,0.3-0.3c0.1-0.3,0.2-0.5,0.2-0.8c0,0,0,0,0,0
		c0,0,0,0,0.1,0c0.1-0.5,0.3-1,0.4-1.4C166.3,95.8,166.7,96.8,165.8,96.7 M165.1,75.7c-0.1,0.2-0.3,0.3-0.2,0.6
		c-0.2,0-0.2-0.6-0.4-0.2C164.2,75.9,164.9,75.7,165.1,75.7 M164.5,85.5c0.2,0.2,0.2,0,0.5,0c0.1,0.4-0.4,0.2-0.5,0.4
		c0.3,0.4,0.3,0.2,0,0.6C164,86.3,164.3,85.6,164.5,85.5 M163.9,80.7c0.3,0-0.1,0.7,0.4,0.5c0,0.7-1,0.3-1,1
		C163.1,81.5,163.3,80.9,163.9,80.7 M102.5,119.7c0-0.5,0.5-0.6,0.7-0.2C103.2,119.7,102.8,119.7,102.5,119.7 M103.1,112.7h0.5
		C103.7,113.1,103,113.1,103.1,112.7 M105.2,109.4c-0.4,0-0.6-0.4-0.4-0.7C105.1,108.8,105.2,109,105.2,109.4 M106.2,104.9
		c0.2-0.3-0.3-0.9,0.5-0.8C106.7,104.5,106.8,105.1,106.2,104.9 M106.5,96.7v-0.5c0.2,0.2,0.5,0.3,0.5,0.6
		C106.9,96.7,106.7,96.7,106.5,96.7 M109.1,109.5c0,0.3,0.1,0.8-0.1,1c-0.5-0.6,0.1-1.4,0.5-2.1c0.3,0,0.5,0.2,0.5,0.5
		C109.1,108.7,109.8,109.5,109.1,109.5 M111,108.2c-0.4,0-0.4-0.5-0.6-0.7c0.3,0.1,0.3-0.2,0.6-0.1
		C111.1,107.9,111.1,107.6,111,108.2 M112.8,92.5c-0.1-0.6,0.2-0.9,0.5-1.2c0.5,0.3,0.6,0.8,0.5,1.3c0.2,0.3,0.4,0.4,0.7,0.2v0.5
		c0.2,0,0.3-0.1,0.4-0.2c0.3,0.2-0.3,0.5-0.2,0.8c-0.4,0-0.5-0.2-1-0.1c0.4-0.7-0.2-0.2,0-1C113.5,92.7,113.3,92.4,112.8,92.5
		 M113.5,107.3c0-0.6,0.8-0.8,0.8-0.1C114.1,107.3,113.7,107.6,113.5,107.3 M114,98c0.6-0.2,0.7,0,1.1,0.2
		C114.8,98.7,113.9,99.1,114,98 M132.2,85.3c-0.1,0.1-0.1,0.2-0.1,0.4c-0.3,0-0.5-0.2-0.5-0.5C131.9,85.2,132.1,85.2,132.2,85.3
		 M123.9,89.9c-0.1,0.2-0.3,0.2-0.2,0.6c-0.4-0.1-0.5-0.4-1-0.4c-0.1-0.7,0-1,0.1-1.3C123.4,88.9,123.3,89.5,123.9,89.9 M123,81.2
		c0.1-0.1,0.3-0.1,0.5-0.1c0.2,0.2,0.2,0.6,0,0.7C123.1,81.8,123,81.6,123,81.2 M117.4,102.5c-0.2,0-0.2-0.3-0.5-0.2
		c0.1-0.2,0.2-0.4,0.5-0.4V102.5z M117.3,85.7c0.3-0.1,0.6-0.2,0.6,0.2C117.7,85.9,117.2,86.1,117.3,85.7 M120,87.6
		c-0.1,0.1-0.3,0.2-0.6,0.1c0,0.3,0.2,0.3,0.1,0.6c-0.3,0.3-0.3-0.1-0.7,0c0.4-0.2,0.4-0.4,0.2-0.8c0.3,0.3,0.4-0.1,0.6,0.1
		c0-0.1,0-0.2,0.1-0.2c0-0.2-0.5-0.1-0.4-0.5c0.1,0.1,0.3,0.1,0.5,0.1C119.8,87.4,120,87.3,120,87.6 M120.9,99.7
		c-0.7,0.1-0.7-0.8-0.1-0.8C120.9,99.1,121.1,99.5,120.9,99.7 M120.5,90.9c0.5-0.1,0.6,0.5,0.4,0.7
		C120.5,91.4,120.7,91.3,120.5,90.9 M120.5,84.1c0.4,0,0.4,0.2,0.6,0.4C121,84.8,120.4,84.5,120.5,84.1 M122.5,88.4
		c-0.1,0-0.2-0.1-0.3-0.1c0.1-0.4,0.5-0.6,1-0.6c-0.1,0.1-0.1,0.4-0.1,0.7c0,0-0.1,0-0.1,0c0,0.1,0,0.2-0.1,0.2
		c-0.2,0-0.2-0.1-0.4-0.1C122.5,88.5,122.5,88.5,122.5,88.4 M123.4,96.3c0.1-0.6-0.7-0.5-0.7-1c0.5,0.3,1.5,0.2,1.6,1
		C123.7,96.3,123.8,96.3,123.4,96.3 M125.7,84.9c-0.5-0.4-0.3,0.5-0.7,0.1c-0.1,0.5,0.6,0.3,0.4,1c-0.3,0.3-0.6,0.2-1,0v-0.6
		c0.2,0.2,0.2,0,0.5,0c-0.3-0.3-0.3-0.9-0.4-1.5c0.2-0.1,0.3-0.2,0.4-0.4C125.4,83.6,125.8,84,125.7,84.9 M126.1,80.1
		c0.7,0.7,1.1,1,1.7,1.8c-0.4,0.8-0.9,0.7-1.8,0.5C125.8,81.7,125.2,80.5,126.1,80.1 M126.3,93.6V93c0.4,0,0.4,0.3,0.8,0.1
		C127.2,93.6,126.5,93.4,126.3,93.6 M127.5,90.7c0.1-0.2,0.2-0.4,0.6-0.4C128.1,90.6,127.8,90.6,127.5,90.7 M128.4,85.2
		c-0.4,0.1-0.3-0.2-0.5-0.2c0.1-0.2,0.3-0.3,0.6-0.2C128.6,85,128.4,85.1,128.4,85.2 M129.6,94c-0.1-0.4,0.3-0.3,0.4-0.6
		C130.2,93.5,129.9,94.1,129.6,94 M131.5,87.8c0-0.6-1.1-0.3-0.4-0.6c-0.3-0.2-0.7-0.2-0.6-0.7c0.4,0.1,0.3,0,0.7,0
		c0.1-0.3-0.2-0.3-0.1-0.6c0.2-0.2,0.3,0.1,0.7,0c0.1,0.1,0.1,0.3,0.2,0.4c0,0.2-0.2,0.3-0.4,0.5c0.3,0.4,0.4-0.4,0.8-0.2
		c-0.1,0.4-0.4,0.6-0.5,1.1c0.2,0,0.2-0.1,0.2-0.2C132.9,88,131.8,87.4,131.5,87.8 M132.2,93v-0.4c0.5,0,0.2,0.5,0.7,0.2
		C132.8,93.5,132.6,92.9,132.2,93 M135,90.7c0.3,0,0.5,0.1,0.7,0.2C135.7,91.3,134.9,91.1,135,90.7 M135.7,75.6
		c-0.4-0.1-0.5-0.4-0.8-0.6c0-0.2,0.2-0.1,0.2,0c0.5-0.2,0.4-0.9,1-1c-0.2,0.2-0.1,0.4,0.1,0.5C136,74.8,135.6,74.9,135.7,75.6
		 M136.6,73.7c0-0.2,0.1-0.2,0.2-0.2c0-0.2-0.1-0.3-0.1-0.5c0.1-0.2,0.3,0.5,0.5,0.6C137.2,73.9,136.8,73.7,136.6,73.7 M137.2,91.3
		c0.2-0.4,0.3,0.3,0.6,0.2c0,0.2-0.2,0.3-0.5,0.2C137.3,91.5,137.3,91.3,137.2,91.3 M137.4,92.5c0-0.3,0.1-0.5,0.2-0.7
		c0.2,0,0.1,0.3,0.1,0.5c0.1,0,0.1,0,0.1-0.1C138.1,92.2,137.8,92.6,137.4,92.5 M150.6,73.1c-0.1,0.4,0.3,0.5,0.2,0.8
		c-0.5-0.1-0.6-0.5-0.8-0.8H150.6z M149.8,81.4c0.4,0.2,0.7,0.3,0.8,0.7c-0.7,0-0.7-0.1-1.5-0.2C148.8,81.7,150,82,149.8,81.4
		 M148.9,80.6c0.4-0.2,0.2,0.6,0.4,0.8c-0.1-0.1-0.1-0.3-0.4-0.2C148.9,81,149.3,80.7,148.9,80.6 M149.3,74.5
		c0.2,0.2-0.1,0.7-0.6,0.6C148.8,74.8,148.8,74.5,149.3,74.5 M142.9,68.7c0.3,0,0.6,0.1,0.7,0.2c0.1,0.4-0.4,0.2-0.4,0.5
		C143,69.3,142.8,69.1,142.9,68.7 M139.6,78c0.6-0.1,1-0.9,1.5-0.7C140.6,77.8,140.2,77.9,139.6,78 M142.1,89.6
		c-0.4-0.1-0.1-0.7,0.2-0.6C142.4,89.4,142.2,89.3,142.1,89.6 M141.9,75.2c0-0.3,0.3-0.3,0.6-0.2c0.1,0.3-0.1,0.3-0.1,0.5
		C142.2,75.4,142.3,75.1,141.9,75.2 M142.7,85.5c0-0.2-0.1-0.3-0.2-0.4c0-0.3,0.3-0.3,0.6-0.2c0.2,0.1,0,0.5,0.2,0.5
		C143.1,85.6,143,85.2,142.7,85.5 M144.4,77.4c-0.1,0-0.2,0-0.2,0.1c-0.1-0.2-0.6-0.9-0.6-0.4c-0.4-0.2,0.3-0.4,0.1-0.8
		c0.3,0,0.6,0,0.7,0.1C144.1,76.7,144.4,77,144.4,77.4 M143.7,69.9c-0.1-0.2,0.1-0.6-0.1-0.6c0.1-0.3,0.5-0.4,1-0.5
		C144.7,69.3,144.1,69.7,143.7,69.9 M144.8,76.6h0.5C145.4,77.2,144.6,77.3,144.8,76.6 M146.1,76.9c-0.5-0.2-0.2,0.3-0.6,0.2
		c0.2-0.6-0.5-0.4-0.4-1C145.4,76.4,146.2,76.2,146.1,76.9 M147.1,87c-0.5-0.4-0.5,0.4-0.8,0.1c0-0.3,0.4-0.3,0.6-0.5
		c0.1,0,0.1,0.1,0.2,0.1V87z M148.1,75.8c-0.4-0.1-0.5-0.4-0.5-0.8c0.1,0,0.1,0.2,0.1,0.4c0.3,0,0.6,0,0.6-0.4
		c0.2,0.1,0.4,0.2,0.4,0.5C148.5,75.2,148,75.3,148.1,75.8 M148.2,79.3c0.2-0.2,0.3-0.2,0.2-0.8c0.2,0.2,0.2,0.6,0.5,0.7
		C148.9,79.4,148.4,79.2,148.2,79.3 M148.6,83.6c0.1-0.1,0.3-0.1,0.2-0.4c0.4,0.2-0.2,0.5,0,0.8C148.2,84.2,149,83.6,148.6,83.6
		 M149.4,84.9h-0.6c0.1-0.3,0.4-0.7,0.7-0.4C149.5,84.7,149.4,84.8,149.4,84.9 M148.9,83.1c-0.2,0-0.2-0.7-0.4-0.2
		c-0.2-0.1,0.3-0.5,0.4-0.7c0.2,0.3,0.4,0.2,0.7,0.1C149.6,82.8,149.1,82.8,148.9,83.1 M150,82.2c0.4,0,0.4,0.3,0.7,0.2
		c-0.1,0.2-0.4,0.2-0.6,0.2C150.1,82.5,150,82.4,150,82.2 M151.6,88.7c-0.5-0.2-0.3,0.3-0.5,0.5c-0.2,0-0.1-0.4-0.4-0.4
		c-0.3,0.1,0.2,0.3-0.1,0.5c-0.4-0.1-0.2-0.4-0.4-0.5c0.2-0.1,0.8-0.6,0.5-0.8c0,0,0,0-0.1,0c0,0,0,0,0,0c0,0,0,0-0.1,0
		c-0.1-0.6,0.8-0.4,0.7-1C152,87.4,151,88.2,151.6,88.7 M152.1,89.3c-0.3-0.1-0.4-0.6-0.2-0.7C152.1,88.6,152.3,89,152.1,89.3
		 M153.2,85.2c0.3,0,0.4,0.2,0.5-0.1c0.2,0,0.3,0.2,0.2,0.5c-0.5,0.1-0.8-0.4-0.6,0.2C152.9,85.9,153.1,85.3,153.2,85.2 M154.1,89.9
		c-0.3,0.1-0.4-0.7-0.1-0.7C154.6,89.2,154,89.6,154.1,89.9 M154.7,73.1c-0.2-0.1-0.5-0.1-0.5-0.5c0.3,0.1,0.2-0.2,0.4-0.4
		C154.8,72.5,154.9,72.9,154.7,73.1 M159.5,85.9c-0.1,0.6,0.7,0.4,0.6,1c-0.8,0.4-1.2-0.9-1.8-0.7C158.7,85.8,159,86.1,159.5,85.9
		 M156.5,83.3c-0.2-0.2-0.8-0.2-0.8,0.1c-0.4-0.5,0.5-0.8,1.1-0.6C156.7,83,156.4,83,156.5,83.3 M158.5,104.1
		c-0.5-0.1-0.9-0.9-0.1-1C158.4,103.4,158.5,103.7,158.5,104.1 M158.4,89.3c0-0.2,0.1-0.3,0.1-0.5c0.3,0,0.1,0.5,0.5,0.4
		C159.1,89.5,158.6,89.3,158.4,89.3 M159.3,94.9c0.1-0.7,0.7,0,1-0.1C160.2,95,159.6,94.8,159.3,94.9 M160.4,84.3
		c-0.3,0.1-0.5,0.3-1,0.2c0.3-0.4,0.1-0.8,0.5-1.3c0.5,0.1-0.1,0.6,0.5,0.7V84.3z M162.6,94c-0.3,0-0.3-0.4-0.5-0.5
		C162.3,93.2,163,93.8,162.6,94 M162.2,94.9c0.3,0.1,0.6,0.2,0.6,0.5h-0.7C162.2,95.3,162.2,95.1,162.2,94.9 M161.6,84.8
		c-0.3,0.3,0.1,0.8-0.1,1h-0.4C161.2,85.3,161.2,84.9,161.6,84.8 M160.6,86.8c0-0.1,0-0.2-0.1-0.2c0.1-0.2,0.4-0.2,0.7-0.2v0.5
		C161,86.6,160.9,86.8,160.6,86.8 M161,93.7c-0.1-0.7,0.4-0.7,0.1-1.3c0.2,0.1,0.3,0.3,0.7,0.2c-0.3,0.2-0.3,0.5,0.1,0.6
		c-0.5,0-0.6,0.3-0.1,0.7C161.5,94.3,161.5,93.6,161,93.7 M162.2,106H162c0-0.1,0-0.1-0.1-0.1v-0.2c0.1,0,0.2,0,0.2-0.1
		C162.4,105.6,162.2,105.7,162.2,106 M162.5,103.5c0.1,0,0.2,0,0.2-0.1c0.5,0.2,0,0.5,0.5,0.6C163.1,104.4,162.5,103.9,162.5,103.5
		 M164.1,104c-0.2-0.3-0.5-0.7-0.1-1c-0.3,0.1-0.5,0.1-0.8,0c-0.1-0.3,0.2-0.3,0.1-0.6C163.9,102.6,164.3,103.2,164.1,104
		 M60.5,61.4c-0.2,0-0.1,0.5-0.5,0.4c0-0.1-0.1-0.1-0.1-0.1c0,0.8,0,1.7,0.1,2.6c0,0,0.1,0.7,0.3,1.9c0.1,0,0.2,0.1,0.3,0.2
		c0.2-0.2,0.2-0.7,0.4-1.1c0.2,0,0,0.4,0.2,0.4c-0.1-0.6,0.7-0.9,0.8-1.6c0.1-0.4-0.6-0.1-0.6-0.4c-0.1,0.1,0,0.5-0.5,0.5
		c-0.1-0.1-0.2-0.3-0.3-0.4c0,0,0,0,0,0c0,0,0,0,0-0.1c-0.2-0.4-0.3-0.8-0.3-1.3c0.4-0.1,0.7-0.4,0.7-0.8
		C61,61.2,60.7,61.7,60.5,61.4 M77.1,108.3c0,0-0.1,0-0.3,0c0.2,0.4,0.5,0.4,0.9,0.6c0-0.1,0-0.3,0-0.4
		C77.7,108.3,77.4,108.3,77.1,108.3C77.1,108.3,77.1,108.3,77.1,108.3 M84.6,171.9c0.3,0,0.4,0.2,0.7,0.1
		C85.5,171.6,84.6,171.7,84.6,171.9 M85.9,171.3h-0.3c-0.1,0.2-0.4,0.5,0,0.6c0-0.1,0-0.3,0.1-0.4c0.1,0,0.3,0.2,0.4,0
		C86.1,171.5,86,171.4,85.9,171.3 M77.5,108.2c0.1-0.1,0.2-0.1,0.2-0.2c-0.1-0.1-0.2-0.3-0.2-0.4c-0.1,0-0.1,0.1-0.2,0.1
		C77.5,107.8,77.7,107.9,77.5,108.2 M85.6,170.9c0,0.1,0,0.2,0.1,0.3C85.7,171.1,85.6,171,85.6,170.9 M61.1,70.1c0,0-0.1,0-0.1-0.1
		c0,0.1,0,0.2,0.1,0.3C61.1,70.3,61.1,70.2,61.1,70.1 M91.4,193c0.3,0.3,0.9-0.2,0.6-0.5C91.6,192.6,91.5,192.8,91.4,193 M78.6,93.9
		c-0.9-0.1-0.8,0-1.3-0.2c0.2,0.5,0.7,0.6,1.2,0.8C78.4,94.2,78.7,94.2,78.6,93.9 M78.5,95.6C78.3,96,77,96.4,78,96.7
		C77.7,96.2,78.9,96.3,78.5,95.6 M79.1,89.5C79.1,89.4,79.1,89.4,79.1,89.5c-0.1,0.1-0.3,0.1-0.6,0.1c0,0.1,0,0.1,0.1,0.2
		C78.9,89.8,79,89.6,79.1,89.5 M77.6,89.6c0-0.3,0-0.6-0.2-0.7C77.2,89.2,77.2,89.4,77.6,89.6 M60.6,59.8c0.2,0,0.3,0.1,0.5,0.1
		c0.2-0.2,0-0.8,0.6-0.7c0-0.5-0.5-0.4-0.4-1c0.2,0.1,0.5,0.4,0.6,0c0.2,0.1,0,0.2,0,0.4c0.4-0.2,0.8-0.7,0.5-1.2
		c0.6,0.2-0.1,1,0.2,1.3c-0.5,0.2-0.8,0.6-1.3,0.8c0.1,0.3,0.2,0.4-0.1,0.6c0.1,0.4,0.3,0,0.5,0.2c0,0.4-0.7,0.1-0.7,0.5
		c0.1,0,0.2,0,0.4,0.1c0.1-0.1,0.2-0.2,0.5-0.3c0,0.1,0,0.3,0,0.4C62,61,62.2,61,62.4,61c-0.1,0.2-0.4,0.3-0.5,0.4
		c0,0.1-0.1,0.3-0.1,0.4c0,0.1,0.1,0.2,0.2,0.2c-0.2,0.1-0.2,0-0.3-0.1c-0.1,0.1-0.2,0.1-0.4,0.1c-0.1,0.1-0.1,0.3-0.2,0.4
		c0.3,0,0.2,0.2,0.4,0.2c0,0.1-0.1,0.1-0.2,0.1c-0.2,0.2,0.1,0.5,0.1,0.7c0.3,0,0.4-0.1,0.5-0.3c-0.1-0.2-0.1-0.6-0.1-0.9
		c0.1,0.1,0.2,0.3,0.2,0.5c0.1-0.1,0.2-0.2,0.6-0.2c0.1,0.2,0.4,0.1,0.1,0.4c0.5-0.4,1.4-0.5,2.2-0.6c-0.5,0.2-0.5,0.4-0.4,1
		c-1.1,0.4-1.6,0.6-1.5,1.9c-0.2,0-0.2-0.1-0.4-0.1c-0.2,0.9,1.1,1.5,1.2,0.5c0.8-0.1,1.4-0.4,1.7,0.6c0,0.4-0.4,0.4-0.6,0.6
		c0.1,0.8,0,0.9-0.1,1.3c-0.8-0.1-0.4,0.6-1.1,0.8c0,0.1,0,0.1,0,0.2c0.2-0.1,0.4-0.2,0.7-0.2c-0.2,0.2-0.4,0.3-0.6,0.4
		c0.1,0.3,0.1,0.5-0.3,0.5c-0.1-0.3,0.1-0.3,0.1-0.4c-0.1,0.1-0.2,0.1-0.3,0.1c0.1,0.2,0.3,0.7-0.1,0.6c0.8,0.1-0.4,1.4-0.6,2.1
		c-0.5-0.3-0.8,0.1-1.1,0.3c0.1,0.3,0.1,0.5,0.2,0.8c0.2,0.1,0.2,0.3,0.3,0.5c-0.1,0-0.2,0-0.2,0c0.3,1.3,0.6,2.7,1,4.2
		c0-0.4,0.1-1.1,0.2-1.4c0-0.2-0.3-0.1-0.5-0.1c0.3-0.4,0-1.1-0.4-1.2c0-0.2,0.4-0.1,0.4-0.4c0,0.3,0.6,0.5,0.4,0.7
		c0.3-0.3,0.9,0,1.2,0.1c-0.4,0.4-0.1,0.9-0.1,1.3h-0.6c-0.1,0.1-0.2,0.2-0.2,0.4c0.5,0.1,0.8,0.5,1.3,0.6c0-0.2,0-0.3-0.2-0.2
		c0-0.7,1-0.3,1-1c0.1,0.3,0.1,0.6,0,0.9c0.4-0.1,1,0.4,1.4,0.3c-0.3,0.5-1.3,0.4-1.4-0.2c-0.1,0.1-0.1,0.2-0.3,0.3
		c-0.1,0.9-0.1,0.7,0.1,1.8c-0.2,0-0.3,0-0.4,0.1c-0.4-0.4,0.1-0.8-0.5-1c-0.3,0-0.3,0.3-0.5,0.5c-0.3-0.4-0.1-1.1-0.8-1.3
		c1.3,5.1,3.2,11.2,5.9,18.2c0,0,4.2,11.3,6.7,20.6c0,0,0-0.1,0.1-0.1c0.1,0.2,0.4,0.1,0.6,0.2c0.1-0.3,0.2-0.6-0.3-0.5
		c0.2-0.2,0.2-0.6,0.7-0.5c0-0.4-0.6-0.2-0.5-0.7c0.2,0,0.3,0.1,0.5,0.1c0.2,0,0.3-0.2,0.2-0.5c0-0.3-0.3,0.2-0.6,0
		c-0.1-0.3,0.2-0.2,0.2-0.5c0.4,0,0.3,0.3,0.7,0.1c-0.1-0.2-0.2-0.5-0.4-0.7c-0.3,0.3-0.5,0.2-0.6,0c-0.1,0-0.1,0-0.2,0
		c0.1,0,0.1-0.1,0.1-0.2c-0.1-0.2-0.3-0.4-0.5-0.5c0.5-0.3,0.2-0.7,0.1-1.2c0-0.2,0.4-0.1,0.5-0.2c-0.2-0.5-0.2-0.9,0-1.5
		c0.3,0.2,0.7,0.2,0.7,0.6c0.3-0.3,0.9-0.2,1.2,0c-0.1,0.6,0,0.6-0.2,1c-0.2-0.2-0.6-0.2-0.7,0c0.4,0.1,0.6,0.4,0.7,0.8
		c0,0.3-0.2,0.4-0.4,0.5c0,0,0,0,0,0.1c0,0,0,0,0.1,0c0,0,0,0,0,0c0.1,0.3,0.2,0.7,0.7,0.7c-0.1,0.6-0.3,1-0.6,1.3
		c0,0.2,0.4,0.1,0.5,0.2c-0.2,0.1-0.4,0.9,0,1c0,0.3-0.5,0.1-0.4,0.5c0,0.1,0.1,0.1,0.1,0c0.2,0,0.1,0.3,0.1,0.5
		c0.5-0.3,0.8,0.2,1.2,0c0,0.3-0.1,0.5-0.2,0.7c-0.1,0-0.1-0.2-0.1-0.4c-0.6,0.1-0.4,0.4-0.4,1c0.5,0,0.1-0.4,0.1-0.6
		c0.2,0.1,0.1,0.4,0.5,0.2c0,0.3-0.2,0.3-0.1,0.6c-0.3,0-0.2-0.2-0.5,0c0.3,0.2,0.4,0.2,0.2,0.7c-0.2-0.1-0.7-0.5-0.4-0.8
		c-0.1-0.1-0.7,0.1-0.5-0.6c-0.2,0.4-1.1,0.3-1-0.4c-0.3,0.1-0.5,0.3-0.6,0.6c-0.7-0.3,0.9-1.3-0.1-1.5c0.1,0.1,0.1,0.2,0.1,0.4
		c-0.3-0.3-0.5-0.2-0.8-0.1c0.2,0.6,0.3,1.1,0.4,1.7c0.3,0.1,0.5,0.2,0.7,0.4c-0.1,0.2-0.5,0.1-0.7-0.1c0.5,2,0.9,3.8,1.1,5.3
		c0.3,0,0.6,0,0.9,0.1h0.1c0.3-0.3,0.9,0,1.4-0.1c0,0,0,0.1,0,0.1h0.1c0,0,0.1-0.1,0.2,0c0-0.1-0.2-0.1-0.1-0.3
		c0.2,0.1,0.3,0,0.5-0.1c0-0.1-0.1-0.4,0.1-0.5c0.3,0,0,0.1,0.1,0.2c0.4-0.1,0.9-0.4,1.4-0.2c0.1,0-0.1-0.2,0.1-0.3
		c0.3,0,0.5,0,0.5,0.2c0.2-0.1,0.2-0.1,0.1-0.3c0.2,0,0.2,0.1,0.5,0.1c0.1,0.1,0,0.1-0.1,0.3c0.2,0.2,0.3,0.1,0.5,0.4
		c0.2,0,0-0.3,0.1-0.3c0.2,0,0.2,0.3,0.3,0.5c-0.2-0.2-0.2,0.2-0.5,0.1c0,0,0,0.1,0,0.1h0.3c0,0,0.1-0.1,0.1-0.1
		c0.2,0,0.2,0,0.2,0.1h6.7c0.8-3.2,4.7-19.2,8.4-28.2c0,0,8.5-19.1,8.8-34.9c0,0,0.5-6.1-1.5-15.9c0,0-0.1,0-0.1,0
		c0,0.4,0.4,0.7,0.1,1c-0.3,0.1-0.2-0.2-0.4-0.4c-0.4-0.1,0,0.6-0.5,0.5c0-0.3,0.2-0.4,0.2-0.6c0.2,0,0.2,0.1,0.4,0.1
		c0-0.7-0.3-1-0.5-1.3c0.1-0.2,0.3-0.3,0.5-0.5c-2.5-11.4-8.4-27.6-22-45.1c0,0-4.4,4.6-9.4,12.6c0.2,0.1,0.3,0.2,0.2,0.5
		c-0.1-0.1-0.2-0.2-0.3-0.2c-1.1,1.8-2.2,3.7-3.3,5.7c0,0.1,0,0.1,0,0.2c0,0-0.1,0-0.1,0c-2.2,4.1-4.4,8.8-6.3,14
		c0,0.2,0.1,0.3,0.2,0.6c-0.2,0-0.3,0-0.4-0.1c-2.9,8.3-4.9,17.7-4.7,27.9C60.1,60.7,60.4,60.2,60.6,59.8 M64.9,84.1h-0.4
		c0.1-0.2,0-0.5,0.4-0.5V84.1z M105.7,48.2c0.1-0.1,0.3-0.2,0.6-0.1c-0.1,0.3-0.1,0.6,0,1c-0.3,0.3-0.3,0.1-0.7,0.2
		C106,48.9,105.7,48.8,105.7,48.2 M66.5,77.5c-0.3,0-0.3-0.4-0.5-0.6c0.1-0.1,0.3-0.1,0.5-0.1C66.6,76.9,66.6,77.3,66.5,77.5
		 M66.7,79.3c0.1,0.2,0.5,0,0.5,0.2c-0.1-0.2,0.4-0.7,0.8-0.4c-0.1,0.3-0.3,0.4-0.4,0.6c0.1,0.3,0.7,0.1,0.6-0.1
		c0.3,0.2-0.4,0.4-0.4,0.6c-0.6-0.5-1.1,0.2-1.7,0.1c0.1-0.1,0.1-0.2,0.1-0.4c0-0.1-0.1-0.1-0.2-0.1C66.4,79.7,66.7,79.7,66.7,79.3
		 M67,73.6h0.4c0,0.5-0.1,0.9-0.5,1C67.2,74.3,66.8,73.7,67,73.6 M68.1,75.4V75c0.3-0.1,0.5-0.3,1-0.2c-0.3,0.4-0.1,0.8-0.5,1.3
		C68,76,68.6,75.5,68.1,75.4 M65.3,80.8c-0.2-0.5,0.3-0.7,0.2-1.5c0.7,0,0,0.7,0.4,1C65.9,80.6,65.3,80.4,65.3,80.8 M67,81.7
		c-0.3,0.3-0.8,0.3-1.1-0.1c0-0.1,0.1-0.1,0.1,0c0.8-0.3,0.7-1,1.6-1.1c-0.1,0.3-0.3,0.6-0.6,0.6c0.1,0.4,0.3-0.1,0.5,0
		c0,0.3-0.2,0.4,0.2,0.4c0,0.2-0.4,0.1-0.5,0.2c0,0.4,0.7,0.1,0.6,0.6h-0.6C67.1,82.2,67.1,81.9,67,81.7 M68.3,89.7
		c-0.5-0.1-0.1-0.5-0.1-0.8C68.5,89,68.6,89.5,68.3,89.7 M67.8,86.9c0.2,0.3,0.2,0.4,0,0.8c-0.8-0.1,0.4-1.1-0.4-1.2
		c0.3-0.5,0.6,0.4,1.1-0.1c-0.1,0.7,0.4,0,0.6,0.4C68.8,87.2,68.3,87.2,67.8,86.9 M68.9,86.2c-0.3-0.2-0.4-0.6-0.5-1
		c0.2-0.1,0.6,0,0.7-0.2c0.1,0,0.1,0.1,0,0.1c0.3,0.2,0,0.4,0.2,0.6C69.3,85.9,68.9,85.9,68.9,86.2 M69.7,62.7
		c-0.2,0-0.1-0.5-0.5-0.4c0.1-0.3,0.1-0.7,0.6-0.6c0,0.6-0.4,0.3,0.1,0.6C70.1,62.6,69.8,62.6,69.7,62.7 M70.2,74.7
		c0.3-0.3,0.7,0,1,0.1C71.1,75,70.1,75.1,70.2,74.7 M70.8,77.4C70.7,78.3,69.9,77.4,70.8,77.4 M70.7,82.3H71
		c-0.2,0.2-0.1,0.3,0.2,0.2c-0.1,0.4-0.5,0.6-0.1,1.1C70.6,83.9,70.5,83,70.7,82.3 M70.7,95.1c0.3-0.1,0.2-0.5,0.6-0.5
		C71.7,95,71.1,95.5,70.7,95.1 M71.6,75.2c-0.4-0.1,0.1-0.5,0.1-0.6c-0.2-0.1-1.2,0.2-1-0.6c0.3-0.3,0.7,0,1.2-0.2
		c-0.1-0.1-0.2-0.2-0.4-0.2c0.1-0.4,0.3,0.2,0.7-0.2c-0.1,0.1-0.1,0.2,0.1,0.2c0.1,0.3-0.2,0.2-0.2,0.4c0,0.1,0.4,0.4,0.4,0.1
		c0.3,0.2-0.3,0.5-0.6,0.5c0,0.2-0.1,0.5,0.1,0.5C72.1,75.4,71.6,75,71.6,75.2 M71.8,69.9c0.3-0.1,0.4-0.2,0.7,0
		c-0.2,0.5-0.4,1.8-1.3,1.5C71.3,70.8,72,70.4,71.8,69.9 M74.3,69.9c0.1-0.1,0.1-0.3,0.1-0.4c0.3-0.1,0.4,0.7,0.1,0.7c0,0,0,0-0.1,0
		c-0.3,0.2-0.6,0.3-0.3,0.8c-0.4,0-0.3-0.3-0.7-0.1c-0.3-1-0.4-1.5,0.8-1.6C74.1,69.5,74.1,69.7,74.3,69.9 M74.4,53.2
		c0.3-0.1,0.3,0.1,0.5,0.1c0-0.2-0.1-0.3-0.1-0.5c0.2,0.4,0.4,0,0.8,0c0,0.4-0.5,0.5-0.6,0.8c-0.2-0.3-0.5,0.2-0.7-0.1
		C74.4,53.5,74.4,53.4,74.4,53.2 M74.3,38.4c0-0.3,0.4-0.6,0.6-0.4C74.8,38.3,74.7,38.5,74.3,38.4 M74.7,63.8c0.3-0.3,0-0.5,0-0.8
		c0.5,0.1,0.3,0.5,0.6,1C74.9,64,74.9,63.8,74.7,63.8c0.8,0.4,0.3,1.7,1.3,1.9c-0.1,0.1-0.1,0.2,0,0.2c-0.1,0.4-0.2-0.3-0.5-0.1
		c-0.2,0-0.1,0.3-0.1,0.5c1.4-0.2,0.1,1.3,1,1.8c-0.2,0.3-0.5,0.5-0.5,1c-0.2-0.4-0.5-0.5-0.6-1c-0.2,0.2-0.3,0-0.6,0
		c0.7-0.8,0.4-1.5,0.5-2.3c-0.2,0-0.2,0.1-0.2,0.2c-0.3-0.3,0.1-1,0.2-1.2c-0.1-0.6-1-0.4-0.8-1.2C74.4,63.7,74.6,63.8,74.7,63.8
		 M77.1,60.8C77.1,60.9,77,61,77,61.2c-0.6-0.1-0.3-0.3-0.8,0C76,61,76,60.7,75.8,60.7c0-0.2,0.3-0.1,0.5-0.1c0,0.1,0,0.1-0.1,0.1
		C76.4,61.2,76.7,60.5,77.1,60.8 M78.2,57.9c0.6,0.7,0.7,1.6,0.6,2.9H78c-0.1-0.6-0.3-0.5-0.1-1.1c0.3,0,0.4,0.2,0.6,0
		C78.3,58.9,77.9,58.4,78.2,57.9 M81.5,68.7c0,0.2-0.3,0.1-0.5,0.1c0-0.4-0.5-0.3-0.6-0.6c-0.2,0-0.2,0.1-0.4,0.1
		c0,0.1,0.2,0.1,0.4,0.1c-0.1,0.4-0.6,0.1-0.7-0.1c0-0.7,0.7-0.9,0.6-1.3c0.4,0.1,0.3,0.8,0.8,0.7C80.9,68.2,81.1,68.4,81.5,68.7
		 M82.2,85.9c-0.1,0.1-0.2,0.3,0,0.4c-0.1,0.1-0.9-0.2-1.2-0.2C81.1,85.5,81.9,85.7,82.2,85.9 M81.9,51.6c0.1-0.3,0.3-0.6,0.6-0.7
		C82.5,51.4,82.4,51.6,81.9,51.6 M82.3,89.8c-0.1,0.4-0.4-0.1-0.6,0c-0.1-0.4,0.2-0.4,0.2-0.6C82.2,89.3,82,89.9,82.3,89.8
		 M78.2,86.3c0,0.2,0.2,0.2,0.2,0.4c0.4-0.2,0.7-0.3,0.7,0.4c-0.1,0.1-0.3,0.1-0.4,0.1v0.1c-0.1,0-0.1,0-0.1-0.1
		c-0.1,0-0.2,0-0.2,0.1c-0.1,0.1-0.2,0.1-0.3,0.1c0,0-0.1,0-0.1,0.1c0,0,0,0,0,0c-0.4,0-0.7,0-0.6,0.2c-0.1,0.2-0.2,0-0.4,0
		c0-0.6,0.8-0.5,1-1c0,0,0,0,0.1,0c0,0,0,0,0,0c-0.1-0.2-0.2,0-0.4,0c0.3-0.5,0.1-1,0.3-1.6c-0.4,0-0.7,0.5-1-0.1
		c-0.4,0-0.1,0.6,0.2,0.6c-0.2,0.2-0.2,0.6-0.7,0.5c0.3-0.5-0.8-2.3,0.2-2.7c-0.2-0.2,0-1-0.4-1.1c0.2-0.3,1.1,0.4,0.5,0.5
		c0.3,0.1,0.2,0.6,0.7,0.5c-0.3,0.5,0.1,0.5,0.1,1.1c0.1,0.1,0.2,0.2,0.4,0.2c0-0.1,0.1-0.2,0.2-0.3c-0.2-0.3-0.2-0.9-0.6-1
		c0.3-0.3,0.4-0.9,0.4-1.6c0.2,0,0.2-0.1,0.4-0.1c1.2,0.7,1.2,1,1.5,2.1c-0.2,0.1-0.4,0-0.6,0c0,0.2-0.1,0.5-0.1,0.8
		c-0.4,0.1-0.6,0.3-0.6,0.5c0.2,0.1,0.2,0.1,0.2-0.3c0.1,0.1,0.2,0.1,0.2,0.2c-0.1,0.3-0.3,0.4-0.1,0.5c0.2-0.1,0.6,0.5,0.8,0.1
		c0.2,0.1,0.2,0.3,0.2,0.5c-0.5,0.1-0.6-0.1-1-0.1c0-0.1,0-0.1,0-0.2C78.6,85.9,78.6,86.3,78.2,86.3 M78.6,88.2
		c-0.5,0.1-0.3-0.3-0.7-0.2c0.3-0.2,0.5-0.3,1-0.5C78.7,87.8,78.5,87.9,78.6,88.2 M75.5,78.8c0.1-0.3-0.4-0.8-0.5-1
		c-0.1-0.3,0.3-0.2,0.4-0.4c0-0.3-0.2-0.3-0.1-0.6c-0.5,0.1-0.8,0.4-1.3,0.2c0.4-0.4,0.3-0.8,0.8-1.5c0.1,0.2,0.3,0.3,0.4,0.6
		c-0.2,0-0.5-0.1-0.5,0.1c0.4,0.2,0.7,0.4,1.2,0.2c0,0.4,0.1,0.7,0.4,0.8c0.1-0.1,0.1-0.2,0.2-0.3c-0.1-0.2-0.3-0.4-0.4-0.7
		c0.3,0,0.3-0.2,0.6-0.1c0.1,0.2,0.1,0.4,0.1,0.5c0,0,0,0,0,0c0-0.2,0-0.3-0.1-0.4c0.1-0.2,0.2-0.1,0.3-0.1c0-0.1,0.1-0.2,0.2-0.3
		c0-0.1,0-0.3,0-0.4c0.1,0,0.2,0,0.2-0.1c0.2,0.1,0.3,0.3,0.4,0.4c0,0,0,0,0,0c0,0,0,0,0,0c0.2,0.2,0.4,0.2,0.8,0.1
		c-0.1,0.2-0.3,0.4-0.5,0.6c0.2,0.1,0.5,0.1,0.7,0.2c0.2-0.3,0.5-0.3,0.6-0.6c0.2,0,0.2,0.7,0.4,0.2c0.2,0.1-0.3,0.5-0.4,0.7
		c-0.2-0.3-0.4-0.2-0.7-0.1c0,0,0,0,0-0.1c-0.1,0.1-0.2,0.1-0.2,0.3c0.2,0,0.4,0.1,0.7,0.1c0.4,0.3-0.9-0.1-0.6,0.5
		c-0.2-0.1-0.4-0.2-0.5-0.3c0.1,0.2,0.2,0.4,0,0.7c0.2,0.2,0.4-0.1,0.6,0.2c0,0.3-0.9,0.3-0.8,0c-0.4,0-0.3,0.8,0.1,0.7
		c-0.2,0.2-0.3,0.6-0.6,0.6c0-0.5-0.2-1.1-0.4-1.9c-0.2,0.3-0.2,0.5-0.4,1C76.3,78.8,76,78.8,75.5,78.8 M75.7,87.3
		c0,0.2-0.2,0.3-0.5,0.2c-0.1-0.3,0.1-0.3,0.1-0.5C75.5,87.1,75.5,87.2,75.7,87.3 M73.6,90.1c0.5,0,0.1-0.8,0.7-0.7
		c-0.1,0.7-0.3,1.4-0.6,2.1c-0.2,0-0.2-0.2-0.4-0.2C73.5,90.6,74.1,90.6,73.6,90.1 M74.3,88.4c0-0.2,0.5-0.1,0.5-0.4
		c0.2,0,0.3,0.2,0.2,0.5C74.7,88.5,74.7,88.3,74.3,88.4 M74.5,71.3c0.2-0.2,0.4-0.7,0.8-0.4c0.1,0.2-0.5,0.3-0.1,0.4
		c-0.1,0.3-0.6,0.4-1,0.5C74.2,71.6,75.1,71.4,74.5,71.3 M75.5,75.4h0.6c0.1,0.4,0.1,0.4,0,0.7C76,76,75.7,76,75.4,76
		C75.4,75.7,75.6,75.8,75.5,75.4 M76.9,70.7c0.5,0.2,0.3-0.3,0.5-0.5c0.2,0,0.1,0.4,0.4,0.4c0.3-0.1-0.2-0.3,0.1-0.5
		c0.4,0.1,0.2,0.4,0.4,0.5c-0.2,0.1-1,0.7-0.4,0.8c0.1,0.6-0.8,0.4-0.7,1C76.4,71.9,77.5,71.1,76.9,70.7 M76.8,74.9
		c0.3,0.2,0.4-0.4,0.1-0.4c0-0.3,0.3,0.2,0.5-0.1c-0.3-0.1-0.2-0.7-0.2-1.1c0.8,0.1,0.4,0.8,0.6,1.2c-0.7,0.2-0.3,0.9-0.8,1.1
		C77,75.3,76.7,75.3,76.8,74.9 M77.2,73c-0.3,0.1-0.3,0.6-0.7,0.5c0.1-0.3,0.2-0.5-0.1-0.6c0.1-0.2,0.3-0.2,0.5-0.2
		c-0.1,0.1-0.2,0.3-0.1,0.6c0.1,0,0.1-0.1,0.1-0.2H77.2z M76.1,72.2c0.1-0.2,0.2-0.3,0.2-0.5c0.2,0,0.3,0.1,0.5,0.1
		C76.7,72.2,76.4,72.3,76.1,72.2 M76.6,70.8c-0.3-0.1-0.5-0.5-0.2-0.7C76.7,70.2,76.8,70.6,76.6,70.8 M76.5,69.3
		c-0.3,0-0.4-0.2-0.4-0.5C76.4,68.7,76.5,69,76.5,69.3 M79.9,75.8c-0.1,0.1-0.3,0.1-0.2,0.4c-0.4-0.2,0.2-0.5,0-0.8
		C80.3,75.2,79.5,75.7,79.9,75.8 M78.9,74.8c0.1-0.1,0.1-0.2,0.1-0.4h0.6C79.6,74.7,79.3,75.1,78.9,74.8 M79.4,68.2
		c-0.1-0.1-0.3-0.2-0.6-0.1c0-0.2,0.4-0.1,0.4-0.4C79.4,67.7,79.5,67.9,79.4,68.2 M79.5,78.8c-0.4,0.2-0.2-0.6-0.4-0.8
		c0.1,0.1,0.1,0.3,0.4,0.2C79.6,78.4,79.2,78.7,79.5,78.8 M79.2,84.8c-0.2-0.2,0.1-0.7,0.6-0.6C79.7,84.6,79.7,84.9,79.2,84.8
		 M79.5,80.2c0-0.3,0.5-0.1,0.7-0.1C80.1,80.3,80,80.3,80,81C79.8,80.8,79.8,80.4,79.5,80.2 M80.4,83.6c0.4,0.1,0.5,0.4,0.5,0.8
		c-0.1,0-0.1-0.2-0.1-0.4c-0.3,0-0.6,0-0.6,0.4c-0.2-0.1-0.4-0.2-0.4-0.5C80,84.2,80.5,84.1,80.4,83.6 M79.9,62.6
		c-0.1,0-0.1-0.1-0.1-0.2c-0.1,0-0.3,0.2-0.1,0.2c-0.2,0.3-0.7-0.1-0.6-0.4c0.2,0,0.2-0.1,0.2-0.2h0.5
		C79.8,62.2,79.9,62.3,79.9,62.6 M79.2,67.1C79.2,67,79.1,67,78.9,67c0.4-0.3,0-0.6-0.2-0.7c0-0.2,0.3-0.2,0.4-0.5
		C79.4,66,79.3,66.8,79.2,67.1 M77.6,51.5c0-0.3,0-0.5-0.2-0.5c0-0.3,0.5-0.1,0.6,0C78,51.3,77.9,51.5,77.6,51.5 M77.7,52.8
		c-0.2,0.7,0,1.2-0.2,1.7c-0.7-0.5-0.2-0.9-0.2-1.8C77.4,52.7,77.4,52.9,77.7,52.8 M77.2,60.3C77,60,77,60.5,76.6,60.4
		c0-0.1,0-0.2-0.1-0.2c0-0.1,0.1-0.1,0.1,0C76.8,60.2,77.3,59.8,77.2,60.3 M73.8,54.6c-0.3,0-0.3-0.4-0.6-0.4c0.3-0.3-0.1-0.6,0-1.1
		c0.4,0.2,0.4-0.2,1-0.1C74.4,54.1,73.6,53.9,73.8,54.6 M73.4,98.3c0,0.1,0,0.2,0.1,0.2c0,0.2-0.4,0-0.4,0.2
		c-0.1-0.3-0.5-0.3-0.5-0.6C73,98.1,73,98.4,73.4,98.3 M73,82.2c-0.3-0.1-0.3,0.2-0.6,0.1C72.2,81.7,73.1,81.7,73,82.2 M71.8,105
		c0.1-0.4,0.4,0.1,0.7,0c0,0.3-0.1,0.8,0.4,0.6C72.7,106.1,71.9,105.4,71.8,105 M73,100c0.2-0.2,0.8-0.1,1.1-0.2
		c-0.3,0.3-0.1,0.5-0.2,0.7C73.4,100.5,73.6,99.9,73,100 M74.3,106.4c-0.1,0-0.1,0.2-0.1,0.4c-0.3-0.1-0.4-0.3-0.8-0.2
		c-0.1-0.3,0.1-0.3,0.1-0.5c0.5,0.2,0.6,0.1,1,0.4C74.4,106.5,74.3,106.4,74.3,106.4 M78,110.7c0,0.1,0,0.1,0.1,0.1
		c-0.2,0.3-0.7-0.7-0.4-1c0.1,0.1,0.2,0.1,0.4,0.1c0,0.3-0.3,0.5,0.1,0.6C78.3,110.7,78.1,110.7,78,110.7 M79.1,117.7
		c-0.3,0-0.5,0-0.5-0.4c0.1,0,0.1,0,0.1-0.1C79.1,117.2,79.2,117.4,79.1,117.7 M79,112.3v0.5C78.5,112.9,78.5,112.2,79,112.3
		 M80.1,111.5c0-0.3,0.1-0.7,0.2-0.8C80.9,110.7,80.5,111.5,80.1,111.5 M79.7,107.4c0-0.4,0.4-0.3,0.6-0.4
		C80.4,107.4,80.1,107.4,79.7,107.4 M80.8,99.6c-0.5,0.2-0.5,0.6-1,1c0.2,0.6,0.6,0,1,0c0.2,0.8-0.6,0.2-0.5,0.6
		c-0.3-0.1-0.8,0-0.7-0.5c-0.2,0.6,0.3,0.3-0.1,1.1c-0.2,0-0.3-0.1-0.5-0.1c-0.2,0.1-0.4,0.4-0.2,0.6c0.3,0,0.1-0.5,0.5-0.4
		c-0.5,0.7-0.8,1.4-1.5,1.9c0,0.3,0.1,0.4,0.4,0.4c-0.3,0.2-0.3,0.7-0.8,0.6c0.1,0.3,0.1,0.7,0.4,0.7c-0.2,0.1-0.3,0.2-0.3,0.3
		c-0.1,0.5,0.3,0.4,0.2,0.7c-0.1,0-0.2,0.1-0.2,0.1c0,0.2,0,0.4-0.1,0.7c0.1,0,0.2,0,0.3,0c0.1-0.3,0.5-0.6,0.5-0.9
		c0.6,0,0.5,0.6,0.8,0.8c0.2-0.2,0.1-0.8,0.6-0.7c0,0.2-0.2,0.3-0.4,0.5c0.4,0.1,0.6,0.6,0.7,1.1c0.1,0,0.2-0.1,0.2-0.1
		c-0.4,0.6,0.2,0.8,0.1,1.5c-0.4,0-0.6-0.2-0.8-0.4c-0.1,0.1-0.1,0.2-0.1,0.4c-0.3-0.4-0.2-0.8-1-0.5c0,0.3,0.6-0.1,0.4,0.4
		c-0.5,0-0.4,0.4-1,0.4c0-0.1,0-0.2,0-0.4c0,0-0.1,0-0.2,0c0,0.3,0.2,0.3,0.1,0.6c-0.5-0.3-0.4,0.1-1,0.1c0-0.1-0.1-0.1-0.2-0.1
		c0.1-0.4-0.2-1-0.5-0.6c-0.5-0.2,0.3-0.2,0.2-0.4c-0.8-0.7,0-1.2-0.5-1.9c0.2-0.2,0.3-0.4,0.6-0.5c0-0.3-0.5,0-0.6-0.2
		c0.1-0.3,0.1-0.7,0.6-0.6c-0.7-0.2-1-0.4-1.5-1.3c0.4-0.6,0.7-1.4,1.2-1.8c-0.2-1.1,0.1-1.8,0-2.7c-0.2,0,0,0.6-0.5,0.4
		c0.7-1.2,0.2-1.1,0.6-2.3c0-0.3-0.3-0.3-0.6-0.2c-0.2-1.5-0.8-2.3,0-3.4c-0.1-0.4-0.9-0.5-0.5-1c-0.6-0.1-0.8-0.7-1-1.2
		c0.1-0.1,0.1-0.3,0.4-0.2c-0.5-0.2-0.3-0.4-0.5-1c0.5-0.1,0.4-0.1,0.8,0c-0.2-0.4-0.1-0.7,0-1.1c0.4,0.1,0.4-0.2,0.6-0.2
		c-0.4-0.7,1.1-1,1.1-1.6c0.2,0.1,0.1,0.6,0.6,0.5c0-0.3-0.1-0.4-0.4-0.4c0-0.2,0.3-0.4,0.2,0c0.3,0,0.3-0.2,0.6-0.1
		c0,0.4,0.4,1,1,1.2c0,0,0,0.1,0,0.1c0.1-0.1,0.3-0.1,0.4,0c0-0.1-0.1-0.3,0-0.5c0.1,0,0.2,0,0.2-0.1c0.4-0.1,0.1,0.6,0.4,0.6
		c-0.1,0.1-0.2,0.2-0.4,0.2c0.2,0.2,0.6,0.3,0.8,0.5c-0.8,0.8-0.1,2.3,0,3.3c-0.2,0-0.4,0-0.4-0.2c-0.6,0.2-0.5,0.5-0.4,1
		c0.2-0.3,0-0.3,0.2-0.6c0.2,0,0.4,0.5,0.5,0.1c0.4,0.4-0.1,0.8-0.2,1.1c-0.2-0.2-0.6-0.2-0.6,0.1c0,0.2,0.2,0,0.2-0.1
		c0.2,0.5,0,0.9,0.2,1.5c-0.3,0-0.1-0.3-0.4-0.4c-0.4,0.3,0.3,0.5,0.2,0.8c-0.4,0.2-1.1,0.1-1.2,0.5c0.1,0.3,0.6,0.1,0.5-0.2
		c0.3,0.1,0.3,0.3,0.7,0.2c-0.1,0.4,0.3,0.5,0.2,0.8c0.4-0.1,0.6,0.1,0.8,0.2c-0.1,0.4-0.2-0.1-0.4-0.1c-0.4,0.6,0.5,0.3,0.7,0.7
		c0.1,0.5-0.3,0.4-0.4,0.7c0.4,0.1,0.4-0.2,0.7-0.1c0.2,0.3,0.1,1-0.4,1C81,99.9,81,99.7,80.8,99.6 M81.4,93.8
		c0.4,0,0.3,0.7-0.1,0.6C81.3,94.1,81.3,93.9,81.4,93.8 M81.6,109c-0.4,0-0.3-0.2-0.2-0.5C81.8,108.6,81.7,108.7,81.6,109 M81.8,92
		c-0.1,0-0.1-0.1-0.2-0.1c0,0-0.1,0-0.1,0c0-0.1,0-0.1,0-0.1c-0.1-0.2-0.2-0.4-0.2-0.7c-0.4-0.1-0.2,0.3-0.6,0.2
		c-0.3-0.3,0.1-0.3,0-0.7c0.2-0.1,0.4,0.4,0.5,0c0.2,0.1,0.2,0.5,0.6,0.4c0,0,0,0,0,0c-0.1-0.3-0.5-0.5-0.4-1.1
		c0.4,0.1,0.6,0.7,0.4,1.1c0,0,0,0,0,0c0,0,0,0,0,0c0,0-0.1,0.1-0.1,0.1c0,0.1,0.3,0.5,0.4,0.2c0.1,0.1-0.1,0.6,0.1,0.8
		c-0.1,0-0.1,0-0.2,0c0,0,0,0,0,0.1C81.9,92.1,81.9,92,81.8,92 M81.9,92.2c0.4,0.1,0.2,0.7,0.6,0.7C82.2,93.3,81.8,92.7,81.9,92.2
		 M82.5,49.6c-0.4-0.2,0.3-0.4,0.6-0.4C83.1,49.8,82.5,49.5,82.5,49.6 M82.9,50.6C83,50.5,83,50.3,83,50
		C83.4,50.1,83.5,50.7,82.9,50.6 M83.1,23.9h0.5v0.5C83.4,24.3,83,24.4,83.1,23.9 M84.4,107.2c-0.3,0-0.3-0.3-0.2-0.6
		c0.2,0,0.3-0.1,0.4-0.2c0.1,0,0.4,0.3,0.1,0.4c0.1,0.1,0.3,0.1,0.2,0.4C84.7,107.1,84.4,107,84.4,107.2 M85.2,117.3
		c-0.3-0.3-0.4-0.7-0.4-1.2c0.2,0,0.3,0,0.4-0.1c0.3,0.2,0.5,0.5,0.6,0.8C85.4,116.6,85.1,116.7,85.2,117.3 M84.6,107.7
		c0.1-0.2,0.5-0.2,0.5-0.5C85.6,107.3,84.9,108.1,84.6,107.7 M84.6,119.3v-0.8c0.5,0.1,0.4-0.8,0.8-0.4
		C84.8,118.1,85.3,119.4,84.6,119.3 M84.8,117.7c0.4-0.5,0.9-1.2,1.5-0.6C86.2,117.7,85.3,117.9,84.8,117.7 M87.3,125.1
		c-0.2,0-0.2-0.1-0.4-0.1c0-0.3,0.2-0.5,0.6-0.5C87.4,124.6,87.2,124.7,87.3,125.1 M88.7,64.7c-0.1-0.2-0.2,0-0.4,0
		c0.1,0.4,0.2,0.6-0.1,1c-0.8-0.7,1-2.5,1.3-1c-0.2,0-0.2-0.2-0.4-0.2c0.3,0.6,0.2,1.6-0.6,1.7C88.6,65.3,88.8,65.1,88.7,64.7
		 M89.7,85.8c-0.3,0.1-0.3-0.1-0.5-0.1c0.1-0.1,0.1-0.2,0.1-0.4C89.5,85.4,89.7,85.5,89.7,85.8 M89.3,113.3
		c-0.4-0.1-0.2-0.6-0.1-0.8C89.7,112.5,89.7,113,89.3,113.3 M89.4,103c0-0.1,0-0.2-0.1-0.2c0-0.1,0.2-0.1,0.4-0.1v-0.4
		C90,102.4,89.9,103,89.4,103 M91.6,115.4c0.3-0.9-0.3-0.8-0.7-1.1c0.3-0.3-0.1-0.5-0.1-0.8c0.5,0.1,0.4,0,1,0
		c-0.1,0.1-0.1,0.3-0.1,0.5c-0.2-0.1-0.3-0.1-0.5,0C91.6,113.8,93,115.3,91.6,115.4 M92.5,60.2c-0.1,0-0.2,0-0.2-0.1v-0.2
		c0.3,0.1,0.3-0.2,0.6-0.1C93,60.2,92.3,59.7,92.5,60.2 M92.3,61.2c0.6-0.2,0.4,0.6,1.1,0.6c-0.3,0.5-0.8,0.5-0.7,1.1
		c-0.2,0-0.2-0.1-0.4-0.1c0-0.5,0.2-0.8-0.4-0.8C92,61.6,92.3,61.5,92.3,61.2 M93.4,72.2c0.1-0.2,0.5,0.2,0.5,0.5
		c-0.4,0.1-0.7,0.1-1,0.2c-0.2-0.4-0.4-0.8-0.5-1.3c0.4,0.1,0.8,0.4,0.7,1C93.4,72.6,93.7,72.2,93.4,72.2 M93,76.3
		c0.3,0,0.2-0.2,0.5,0c0,0.1-0.1,0.1-0.2,0.1c0.1,0.1,0.2,0.2,0.4,0.2c0,0.3-0.3,0.3-0.6,0.2C93.2,76.7,93,76.6,93,76.3 M93.4,78.8
		c0.1,0.1,0.2,0.1,0.4,0.1c0.1,0.5,0,0.9-0.5,1.1c0-0.2,0.1-0.2,0.2-0.2C93.3,79.2,93.8,79.2,93.4,78.8 M92.6,75.6
		c0.1-0.8,0.5,0.1,0.8,0.1c0.3-0.1-0.1-0.2,0.1-0.4c0.3,0,0.4,0.2,0.4,0.5C93.4,76.1,93.2,75.6,92.6,75.6 M92,60.3
		c-0.3,0-0.2-0.4-0.7-0.2c0.1-0.2,0.3-0.3,0.6-0.2C91.9,60.1,92.2,60.1,92,60.3 M91.9,60.7c-0.1,0.1-0.1,0.2-0.1,0.4
		c-0.4,0.1-0.2-0.3-0.6-0.2C91.3,60.6,91.7,60.5,91.9,60.7 M91.2,91.1c0.5,0,0.2,0.8-0.2,0.6C91.1,91.6,91.1,91.3,91.2,91.1
		 M92.6,87.9c-0.2,0-0.3,0.1-0.5,0.1v-0.7C92.4,87.3,92.7,87.4,92.6,87.9 M92.2,77.7c0.1-0.3,0.5-0.2,0.2-0.6
		c0.5-0.1,0.5,0.3,0.8,0.4c-0.2,0.3-1.1,0-0.5,0.4C92.7,78.2,92.4,77.8,92.2,77.7 M92.8,97.1c0.2-0.5,0.8-1.1,1.5-0.7
		C94.3,97.2,93.5,97.3,92.8,97.1 M93.9,98c0.1,0,0.1,0.1,0,0.1c0,0.2,0.3,0.2,0.2,0.5c-0.5,0.1-0.3-0.5-0.6-0.5
		C93.5,97.7,93.9,98.4,93.9,98 M93.5,103.2c0-0.6,0.5-0.3,0.7-0.5c0,0.5,0.3,0.3,0.4,1C94.1,103.7,93.9,103.4,93.5,103.2 M94.5,92.6
		c0.1-0.4-0.2-0.4-0.4-0.5c-0.4,0.1-0.1,0.2-0.1,0.5c-0.3-0.3-0.3-0.1-0.8-0.1c0.1-0.7,0.8-0.2,1.2-0.7c-0.6-0.6-1.2-0.1-1.5,0.2
		c-0.2-0.4,0.5-0.8,0.8-1.1c-0.1,0.6,1.3-0.1,0.8-0.7c0.2,0.3,0.3,0.7,0.6,0.8c-0.2,0.3-0.2,0.9-0.7,0.6c0.1,0.1,0.2,0.3,0.1,0.6
		c0.4-0.1,0.7-0.1,1.2-0.2c0,0.3-0.1,0.5-0.2,0.7C94.9,92.9,94.9,92.4,94.5,92.6 M97,92c-0.2-0.1-0.4-0.3-0.5-0.5
		c-0.1-0.4,0.2-0.4,0.2-0.6c0.2,0.1,0.3,0.2,0.5,0.2C96.6,91.3,97.2,91.7,97,92 M96.6,93.9c0,0.2-0.5,0-0.5,0.4
		c-0.1,0-0.1-0.2-0.1-0.4C96.2,93.8,96.4,93.8,96.6,93.9 M96.7,82.1c-0.5,0,0-0.1-0.1-0.4c-0.4,0.1-0.9,0.2-1.2,0.4
		c0-0.2-0.3-0.2-0.2-0.5c0.7,0.4,0.7-0.5,1.5-0.1C96.6,81.6,96.9,82.1,96.7,82.1 M95.7,95.4c-0.1,0.4-0.3,0.3-0.1,0.8
		c-0.6,0-0.4-0.7-0.6-1C95.3,94.9,95.2,95.5,95.7,95.4 M95.7,98.6c-0.3,0-0.5-0.2-0.5-0.5c0.2-0.3,0.9-0.2,0.6-0.7
		c0.4-0.2,0.1,0.4,0.4,0.4C96,98,95.6,98.1,95.7,98.6 M97,97.1c-0.2-0.3-1.3-0.4-1-1c0.4-0.1,0.2,0.4,0.5,0.4c0.2-0.1,0-0.2,0-0.4
		c-0.1-0.1-0.4,0-0.6-0.2c0-0.2,0.1-0.4,0.2-0.5c0.4,0,0.2,0.7,0.7,0.6c0,0.3,0,0.6-0.1,0.7c0.4-0.2,0.4,0,0.8,0
		C97.6,97,97.1,96.8,97,97.1 M98.2,96.1c-0.1,0.1-0.3,0.1-0.5,0.1c0-0.1,0.1-0.1,0.2-0.1c-0.1-0.5,0.1-0.5-0.4-0.6v-0.2
		c0.3,0,0.5,0,0.6,0.1C98.1,95.8,98.2,95.7,98.2,96.1 M100.6,60.7c-0.2,0-0.2-0.2-0.4-0.2c0-0.2,0.2-0.2,0.2-0.4
		C100.9,60.2,100.7,60.4,100.6,60.7 M102.5,78.5c-0.2-0.1-0.4-0.2-0.4-0.5c0.1,0,0.2,0,0.2,0.1c0.2-0.1,0.3-0.3,0.4-0.6h0.2
		c0,0.1,0,0.1,0.1,0.1C102.8,78.1,102.7,78,102.5,78.5 M105.4,61.5c-0.2-0.1-0.3-0.2-0.5-0.2c0.1,0,0.1-0.6,0-0.2
		c-0.3-0.3,0.1-0.7,0.6-0.6C105.5,60.9,105.5,61.2,105.4,61.5 M104.3,49.4c0.1,0,0.2,0,0.3,0c-0.1-0.2-0.1-0.4,0-0.6
		c0.1,0.1,0.2,0.1,0.4,0.1c-0.1,0.5,0.1,0.8,0.4,0.8c0,0.3-0.5,0.1-0.4,0.5c-0.1-0.2-0.2-0.4-0.3-0.6c-0.1,0.1-0.2,0.2-0.2,0.5
		C104,50.2,104.4,49.9,104.3,49.4 M103.3,53.2c-0.7,0-0.7,0-1.2,0.1c0.1,0.4,0.2,0.7,0.5,0.8c0.1-0.3,0.4-0.4,0.5-0.7
		c0.5,0.1,0.5,0.6,0.8,0.7c-0.3,0.4-0.2,1.2-0.4,1.7c-0.5,0.3-1-0.7-1,0.1c-0.4-0.1-0.6-0.4-1.1-0.5c-0.1-0.8,0-1.3-0.7-1.6
		c-0.2-0.3,0.3-0.9-0.5-0.8c0.1-0.4,0.5-0.4,0.5,0.1c0.6-0.4,0.7,0,1.5,0C102.3,52.6,103.4,52.3,103.3,53.2 M100.2,30.7h0.5
		c-0.2,0.8,0.2,0.9,0,1.8C99.9,32.2,100.2,31.7,100.2,30.7 M100.7,39.7c0.5-0.1,0.4,0.4,0.8,0.2c-0.7,0.2-0.1,0.7,0,1.2
		c-0.3-0.2-0.7-0.4-0.7-1c-0.1,0.1-0.4,0.1-0.7,0.1C100.1,39.5,100.8,40.6,100.7,39.7 M99.5,89.1c0.3,0,0.2,0.4,0.7,0.2
		c-0.2,0.2-0.6,0.1-0.6,0.5C99.2,89.8,99.3,89.2,99.5,89.1 M99.2,94.5c-0.1,0.3-0.5,0-0.7,0c-0.1,0.1,0.3,0.6,0.2,0.7
		c-0.2,0-0.6-0.2-1-0.2c0.2-0.2,0.4-0.4,0.6-0.6c-0.1-0.3-0.5-0.3-0.2-0.6C98.8,93.7,98.5,94.6,99.2,94.5 M98.7,61.7
		c0.3,0,0.1,0.5,0.1,0.7c-0.4,0.1-0.4-0.2-0.6-0.2C98.3,61.9,98.8,62.1,98.7,61.7 M98.2,63.3c0.3-0.1,0.2,0.2,0.5,0.2
		c-0.2,0.1-0.2,0.4-0.5,0.4V63.3z M97.7,74.5c-0.4,0.7,0.4,0.6,0.5,1.2c-0.5,0-0.7-0.3-1,0.1c-0.2,0,0-0.5-0.4-0.5
		c0.4-0.2,0.6-0.3,0.2-0.7C97.5,74.7,97.4,74.4,97.7,74.5 M97.4,31.2c-0.1,0.6-0.1,0.7,0,1.2c-0.2,0-0.3-0.1-0.5-0.1
		c0.1-0.2,0.2-0.3,0.2-0.5c-0.4,0.2-0.6-0.1-0.6-0.6C97,31.4,97,31.2,97.4,31.2 M95.6,24.5c-0.1,0.4,0.2,0.4,0,0.6
		c-0.2,0-0.2-0.1-0.4-0.1C95.3,24.8,95.3,24.5,95.6,24.5 M95.3,30.2c0.3,0.3,0.4-0.1,0.8,0c-0.2,0.5,0.3,0.2,0.2,0.6
		c-0.4-0.1-0.3,0.4-0.7,0.2C95.7,30.6,95.2,30.7,95.3,30.2 M95.7,55.4c-0.2,0-0.1-0.5-0.4-0.5c0.2-0.3,0.5,0.1,0.7,0.1
		C96.1,55.3,95.5,54.9,95.7,55.4 M94.2,68.5c-0.1,0.1-0.1,0.2-0.1,0.4c0.5-0.2,1.5-0.7,1.8-0.4c0-0.3,0.1-0.3,0.5-0.4
		c0-0.2-0.4-0.6-0.1-0.6c0-0.1-0.5-0.1-0.5,0c-0.3-0.3,0.5-0.4,0.5-0.2c0.4-0.6,0.4-0.7,0.4-1.2c0.5,0,0.6,0,0.8,0.1
		c-0.4,0.5,0.1,0.6,0,1.3c-0.4-0.1-0.2,0.3-0.6,0.2c0.2,0.7-0.4,0.5-0.1,1.2c-0.3-0.7-0.5,0.1-0.8-0.1c0,0.1,0,0.2-0.1,0.2
		c0.1,0.3,0.5-0.2,0.7,0.1c-0.4,0.1-0.6,1-1.3,0.7c0,0.5,0.5,0.7-0.1,0.8c0.1,0.4,0.5,0.4,0.5,0.8c-0.7-0.2-1,0.9-1.7,0.4
		c0.2-0.4,0-0.7-0.4-0.8c0.1-0.1,0.1-0.2,0.2-0.2c-0.6-0.6-0.7-1.4-0.4-2.2C93.9,68.9,93.8,68.4,94.2,68.5 M90.8,31.4
		c0.2-0.1,0.7,0.2,0.6-0.2c0.3,0.4,0.7-0.2,0.8-0.8c0.2,0,0.2,0.1,0.2,0.2c0.4-0.2-0.3-0.6,0.1-0.8c0.4,0.1,0,1,0.8,0.7
		c-0.1,0.7-1.2,0.7-1.1,1.3c-0.5-0.4-1,0.7-1.5,0.2c-0.3-0.2,0.1,0.1,0.4,0C91.4,31.6,90.6,32,90.8,31.4 M90.8,58.5
		c0.2,0,0.2,0.4,0,0.4c0,0.1,0.2,0.1,0.2,0.2c0.2-0.1,0.2-0.3,0.2-0.5c-0.1-0.1-0.2-0.2-0.4-0.4c0.2-0.2,0.7,0.3,1.1,0.4
		c0,0.1-0.1,0.1-0.1,0c-0.5,0.6,0.2,0.3-0.2,1H91c0.2-0.5-0.7-0.5-0.5,0C90.2,59.3,90.7,58.8,90.8,58.5 M90.4,91.8
		c-0.2,0.3-0.5,0.5-0.3,0.9c-0.4-0.3-0.8-0.6-0.8-1.3c0,0-0.1,0-0.1-0.1c0,0,0.1-0.1,0.1-0.1c0-0.1,0-0.2,0-0.2c0,0,0.1,0,0.1,0
		c0.1-0.1,0.1-0.2,0.3-0.2c0,0.1,0,0.1,0,0.2c0,0,0.1,0,0.2,0c0.1,0.2,0.2,0.4,0.3,0.5c0-0.1,0-0.3,0.1-0.4
		C90.8,91.2,90.8,91.8,90.4,91.8 M89.2,28.8c-0.1,0.2-0.3,0.3-0.6,0.4c-0.3,0,0.7-0.5,0.2-0.2C88.4,28.7,89.1,28.5,89.2,28.8
		 M88.3,10.6c0.3,0,0.2,0.6-0.1,0.6C88.2,11,88.2,10.8,88.3,10.6 M88.8,13.5c0,0.5-0.7,0.5-0.8,0.2C88.1,13.4,88.4,13.5,88.8,13.5
		 M87.3,29.7c0.5,0.1,0.7-0.1,0.8,0.2c0.2-0.2,0.5-0.3,0.6-0.6c0.3,0.1,0.6,0.1,0.6,0.5C89.2,30,89.1,30,88.8,30v0.5
		c0.6-0.5,0.5,0.2,1.1,0.2c-0.2,0.4,0,0.6,0.2,0.8c-0.2,0.3-0.6,0.5-0.1,0.7c-0.1,0.4-0.7,0.3-0.8,0.6c0,0.4,0.4,0.3,0.5,0.6
		c-0.2,0.3-0.9,0-0.7,0.6c-0.4-0.1-0.5,0.2-1,0.1c0.4-0.5-0.1-0.6-0.6-0.8c0.1-0.2,0.4-0.2,0.5-0.5c-0.5,0.2-0.6-0.1-0.6,0.2
		c-0.4-0.1-0.3-1.6,0.1-1.5C86.9,31.2,87,30.4,87.3,29.7 M87.1,85.3c-0.3,0-0.5,0-0.5-0.4c-0.2,0-0.2,0.6,0.1,0.4
		c0.1,0.3-0.2,0.3-0.1,0.6c-0.6-0.2-0.1-1.4-0.8-1.3c0-0.1,0.1-0.1,0.1-0.2c0.1,0,0.1,0,0.1-0.1c0.1,0.3,0.4,0.3,0.8,0.2
		C86.9,84.9,87.2,84.9,87.1,85.3 M86,49.2c0.2-0.2,0.4-0.4,0.8-0.4C86.8,49.2,86.5,49.3,86,49.2 M86.6,35c-0.2,0.5,0,1.1-0.2,1.7
		c-0.1-0.1-0.2-0.1-0.4-0.1c0.1-0.5-0.1-0.8-0.2-1.1C85.9,35.2,86.2,35.1,86.6,35 M86.4,89.6c0.2,0.3-0.6,0.3-0.2,0.5
		c0,0.2-0.3,0.1-0.5,0.1C85.7,89.6,85.9,89.3,86.4,89.6 M85,31.6c-0.2,0.1-0.3,0.4-0.2,0.7C84.1,32,85,31,84.3,30.9
		c0-0.5,0.2-0.2,0.6-0.2c-0.1,0.7,0.5,1.2,0.4,1.5C84.9,32.2,85.1,31.9,85,31.6 M84.9,22.6c0.2,0,0.3,0.2,0.2,0.5h-0.4
		C84.8,22.8,84.9,22.8,84.9,22.6 M84.8,21.9c0.3-0.3,0.2-0.3,0.1-0.7c0.1-0.1,0.3,0.7,0.5,0.8C85.3,21.9,85.1,21.9,84.8,21.9
		 M85,13.3c0.2,0.2,0,0.8,0,1.5c-0.5-0.5,0-1.3-0.7-1.6C84.6,12.7,84.9,13.6,85,13.3 M84.3,24.1c0.2,0,0.2,0.2,0.4,0.2
		c-0.2,0.2-0.7,0.4-0.6-0.1C84.2,24.2,84.3,24.2,84.3,24.1 M84.4,38.3c0.5,0,0.3-0.6,1-0.5c0,0.6-0.6,0.9-0.1,1.3h-0.5
		c-0.2-0.5,0-0.8-0.6-0.7c0-0.2,0-0.3-0.1-0.4C84.1,37.7,84.5,38,84.4,38.3 M84.1,41.4c0.3,0.1,0,0.7,0.1,1
		C83.9,42.3,84,41.8,84.1,41.4 M83.4,110.2c0.2-0.2,0-0.4,0-0.7c0.5,0,0.3,0,0.2-0.4c0.2,0,0.2,0.1,0.4,0.1
		C83.7,109.8,83.9,110.1,83.4,110.2 M83,18.1c0.4-0.1,0.2,0.5,0.2,0.7C83,18.8,83,18.5,83,18.1 M82.9,19.1c0,0.1,0,0.1,0.1,0.1
		c0,0.2-0.4,0.1-0.5,0.2c0.2,0.3,0.7,0.3,1.1,0.1c-0.1,0.3,0.2,0.9-0.2,0.8c0,0.1,0,0.1,0.1,0.1c-0.1,0.3-0.3-0.3-0.4-0.4
		c-0.2,0.5-0.7,0.1-0.8-0.2c0.1-0.4,0.2-0.7,0.4-1C82.7,19,82.8,19.1,82.9,19.1 M80.7,8.7c0.1,0.1,0.2,0.3,0.1,0.6
		c-0.3,0-0.2-0.4-0.6-0.4C80.2,8.7,80.4,8.7,80.7,8.7 M78.9,16.8c1.1,0.4,1.7,0,2.8,0c-0.2,0.2-0.1,0.5,0.2,0.5
		c-0.3,0.6,0.1,1,0.6,1.1c-0.4,0.4-0.2,1.4-1.1,1.3c0.3-0.3-0.1-0.3,0-0.7c-0.3,0.4-0.6,0.9-1.3,0.8c-0.5-0.5,0.1-0.6,0.1-1.2
		c-0.5-0.2-0.3-0.3-0.2-0.8c-0.3,0-0.1,0.5-0.5,0.4c-0.2-0.4-0.2-0.6-0.6-0.6C78.9,17.1,78.7,17.2,78.9,16.8 M79.1,18.7
		c0.1,0,0.1,0.2,0.1,0.4c-0.2,0.2-0.4,0.2-0.6,0C78.7,18.9,79.2,19.1,79.1,18.7 M79.1,21.4h-0.5C78.5,20.9,79.2,20.9,79.1,21.4
		 M77.8,16.6c0.2,0,0.2,0.3,0.5,0.2v0.5c-0.3,0.1-0.5,0.3-0.8,0.2C77.9,17.3,77.6,17,77.8,16.6 M78,23.5c0.1,0.1,0.1,0.3,0.4,0.2
		c-0.1,0.4-0.3,0.1-0.5,0c-0.1,0-0.1,0.2-0.2,0.2c0.3,0.5,1.2,0.8,0.8,1.6c-0.5-0.2-0.5-0.6-0.8-1.5c-0.5-0.2,0,0.5-0.5,0.4
		c0.2-0.2,0.1-0.5-0.1-0.6C77.4,23.6,77.7,23.8,78,23.5 M74.4,28.8c0.9,0.1,1-0.7,1.2-1.3c0.3,0,0.4-0.2,0.7-0.1
		c-0.6-0.6,0.3-0.6,0.5-1.1c-0.3-0.3-0.8-0.4-1-0.8c0.1-0.3,0.1-0.6,0.2-0.8c0.6,0,0.5-0.1,1,0c0,0.8,0.2,0.8,0.6,1.2
		c0.1,0.4-0.1,0.6-0.2,0.8c0.4,0,0.5-0.1,0.4,0.7c-0.3,0-0.3-0.2-0.6-0.1c0.3,0.7-0.2,1.5-0.7,1.8c0.1-0.3-0.1-0.3-0.1-0.5
		c-0.2,0.1-0.4,0.1-0.5,0.4c-0.3-0.2,0.1-0.7,0.1-0.8c0.3-0.1,0.2,0.2,0.4,0.2c0.1-0.1,0.2-0.1,0.2-0.2c-0.9-0.4-1.5,0.7-1.8,1.3
		c0.1,0.1,0.1,0.2,0.2,0.2c0.1,0,0.3-0.5,0.1-0.5c0.8-0.1,0,1,0.4,1.2c-0.4,0.4-0.9-0.5-1.3,0.1C74.1,29.9,74.5,29.6,74.4,28.8
		 M72.6,37.8c0.3,0.3,0.5,0.5,0.8,0.5c-0.3,0.6-0.8-0.3-1.2-0.1C72.2,37.9,72.6,38.1,72.6,37.8 M71.8,17.7c0.1,0.1,0.2,0.1,0.4,0.1
		c0.1,0.4-0.4,0.3-0.4,0.7C71.3,18.4,71.8,18.2,71.8,17.7 M71.4,26.5c0.4-0.1,0.1,0.4,0.6,0.2c-0.2,0.4-0.5,0.2-0.8,0.1
		C71.2,26.7,71.4,26.7,71.4,26.5 M71.6,31.2c-0.2,0,0-0.5-0.4-0.5C71.6,30.4,72.1,31,71.6,31.2 M71.1,54.6c-0.4,0-0.3-0.4-0.4-0.6
		C71.2,53.9,71.3,54.4,71.1,54.6 M71.9,54.3c0.3-0.1,0.3,0.1,0.5,0.1c0,0.6-0.8,0.4-0.5,1.1c-0.4,0-0.3-0.2-0.2-0.5
		c-0.3,0-0.3,0.2-0.6,0.1c0,0.2,0.1,0.2,0.2,0.2c-0.1,0.2-0.3,0.2-0.5,0.2c-0.1-0.2-0.1-0.5-0.2-0.6C71.4,54.8,71.6,55,71.9,54.3
		 M71.1,57.1c0.1,0.3-0.5,0.1-0.5,0.4C70,57.3,70.9,56.8,71.1,57.1 M70.8,57.7c0,0.3,0,0.5-0.4,0.5c0.1-0.2,0.1-0.3-0.1-0.4
		C70.4,57.6,70.7,57.7,70.8,57.7 M71,58.8c0,0.3-0.4,0.3-0.5,0.5c0,0.2,0.4,0,0.4,0.2c-0.1,0.6-1,0.3-1.3,0.6
		C69.3,59.9,70.3,58.4,71,58.8 M69.9,46.1c-0.3,0.3,0.1,0.3,0,0.7c-0.3,0.1-0.2-0.2-0.5-0.2C69.6,46.5,69.4,46,69.9,46.1 M69.3,55.4
		c0.3,0,0.5,0,0.5,0.4C69.4,55.8,69.2,55.7,69.3,55.4 M68.4,46.5c-0.2,0.4-0.7,0.5-1,0.7c-0.2,0,0.1-0.2-0.1-0.2
		c0.2-0.1,0.7-0.4,0-0.4C67.8,46.3,68,47,68.4,46.5 M67.6,54.2v-0.6c0.4,0.4,0.5,0,0.8-0.2C68.7,53.7,67.9,54,67.6,54.2 M66.9,45.8
		c0.1-0.1,0.1-0.3,0.1-0.5c0-0.1,0-0.1-0.1-0.1c0.2-0.2,0.5,0.4,0.7,0.6c-0.1,0.2-0.3,0.2-0.5,0.2c0-0.1,0-0.1,0.1-0.1
		C67.2,45.8,67,45.8,66.9,45.8 M66.4,29.7c0.2,0,0.3,0.1,0.5,0.1c0,0.8,0.3,1.3,0.8,1.2c-0.5,0.2-0.2,0.5-0.5,1
		c-0.6,0.2-0.6-0.8-0.2-0.5c0-0.3-0.1-0.4-0.4-0.4c0.5-0.3,0.1-0.9-0.4-0.8C66.2,30,66.3,29.8,66.4,29.7 M65.5,60.3
		c-0.3,0.3,0.1,0.3,0,0.7c0.2-0.3,0.3-0.3,0.5,0c0.1,0,0.1-0.2,0.1-0.4c0-0.3-0.6,0.1-0.4-0.4c0.5,0.1,1.1,0.1,1.2-0.5
		c0.6,0.2,1-0.2,1.6,0c-0.2,0.4,0.1,0.5,0.4,0.7c0.1,0,0.1-0.1,0.1-0.2c0.4-0.1,0.2,0.3,0.6,0.2c-0.1,0.2-0.4,0.3-0.4,0.6
		c-0.3,0.1-0.3-0.1-0.5-0.1c-0.1,0.3,0.2,0.3,0.1,0.6c-0.3,0-0.6,0-0.4-0.2c-0.6-0.1-0.2,0.7-0.7,0.6c0.1-0.3-0.2-0.3-0.1-0.6
		c-0.3,0.3-0.3,0.2-0.7,0.1c-0.2,0.1-0.2,0.5-0.4,0.6h-0.4c-0.2-0.3,0.1-0.5-0.1-0.8c-0.8,0.4-1.2-0.4-1.9-0.5
		C64.8,60.6,64.9,60.4,65.5,60.3 M76.2,108.1c0.2,0.3,0.4,0.5,0.6,0.7C76.8,108.5,76.5,107.8,76.2,108.1 M90.1,154.5H77.9
		c-0.1,0.1-0.1,0.2-0.1,0.4c0,0-0.1,0-0.1,0c0,0.2-0.1,0.4-0.1,0.6c0,0,0,0,0,0c0.2-0.1,0.1-0.5,0.6-0.4c-0.2,0.3-0.2,0.8-0.7,0.7
		c0,0,0,0,0,0c0.4,0.4-0.1,0.2,0,0.8c0,0-0.1,0-0.1-0.1c-0.4,2.4-1.1,5.8-2.3,9.7c0.1,0,0.2,0,0.3,0c-0.2,1.1,0.3,1.1,0.5,2.1
		c0.2,0.2,0.7,0.1,0.8,0.4c-0.6-0.1-0.5,0.6-0.3,1.2c0.1,0,0.1-0.1,0.1-0.3H77v0.5c-0.2-0.1-0.3-0.1-0.4-0.1c0,0.1,0,0.1,0.1,0.2
		c0.2,0.4,0.4,0.8,1.1,0.7c-0.4,0.7-0.4,1-0.6,1.7c-0.3,0.1-0.3-0.3-0.4-0.2c0,0,0,0.1,0,0.1c0-0.1,0-0.1,0-0.1
		c0.1-0.3-0.3-0.9-0.4-1.3h-0.1c0,0,0,0,0,0c-0.2,0-0.2-0.1-0.4-0.1c-0.1-0.3,0.2-0.2,0.4-0.2c0-0.1-0.1-0.1-0.1-0.1
		c-0.1,0-0.2,0.1-0.3,0c0,0,0-0.1,0-0.1c-0.1,0.1-0.3,0.4-0.1,0.3c-0.7,0.3-0.6-0.5-1.5-0.4c0-0.5,0.6-0.4,0-0.6
		c0.1-0.2,0.3-0.3,0.6-0.2c-0.1,0.4,0.4,0.3,0.4,0.7c0.5-0.2-0.1-0.9-0.5-1c0.3-0.2,0.3-0.8,0.5-1.2c-0.1-0.1-0.2-0.2-0.4-0.2v-0.3
		c-2.6,8.3-7.2,18-15.1,23c0,0.5,0.9,0.1,1.1,0.1c-0.5,0.8,0.4,0.8,0.1,1.6c-0.2,0.2-0.2-0.1-0.5-0.1c-0.1,0.2,0.1,0.7-0.2,1
		c-0.4-0.3-0.5-0.9-0.6-1.5c0.2,0,0.2,0.2,0.4,0.2c0.1,0,0.1-0.1,0.2-0.1c0-0.2-0.2-0.2-0.2-0.4c-0.3,0.1-0.7,0.2-0.8,0.5
		c-0.1-0.5-0.8,0-0.8-0.5c-0.1,0.1-0.2,0.1-0.3,0.2c0,0.2,0.3,0.2,0.3,0.5c-0.3,0.1-0.3-0.1-0.5-0.1c0-0.1,0.1-0.2,0.1-0.3
		c0,0,0,0,0,0c0,0,0,0,0,0c-1.4,0.7-3,1.3-4.6,1.7c0,0,12.5,4.8,20.3-0.4c-0.5,0-0.2-0.4-0.1-0.6c0.2,0.1,0.3,0.4,0.2,0.6
		c0.5-0.4,1-0.7,1.5-1.2c-0.1-0.3-0.3-0.5-0.3-1c1.4-0.8,2.4,0.5,1.5,1.6c-0.5-0.1-0.5-0.5-1.1-0.2c-0.1,2.4,0,13.6,9.1,13.6
		c0,0,9.2,0.5,8.9-12.2c-0.1,0.1-0.2,0.2-0.3,0.3c-0.8-0.2-0.7-0.5-1.5-0.6c0.1-0.6-0.3-1.2-0.5-1.6c0.2-0.5,0.6-0.9,1.3-1
		c-0.3,0.8-0.4,1.4,0.6,1.7c0.1,0,0.1-0.2,0.1-0.4c0,0,0.1,0,0.1,0c0-0.2,0-0.5-0.1-0.7c0,0,4,3.3,10.2,4c0,0,0-0.1-0.1-0.1
		c0.2-0.1,0.3,0,0.3,0.2c3.2,0.3,7,0,11-1.9C114.3,193.7,94.1,188.8,90.1,154.5 M76.9,165.4c0.1-0.3,0.5-0.3,0.7-0.4
		C77.5,165.5,77.3,165.4,76.9,165.4 M77.2,170.9c0-0.2,0.1-0.3,0.1-0.5h0.4C77.7,170.7,77.5,170.9,77.2,170.9 M61.4,193.6
		c-0.4,0.4-1,0.7-1.5,0.1c0-0.1,0.1-0.1,0.1,0c0.2,0.1,0.5-0.3,0.2-0.4c0.4-0.3,0.3,0.3,0.4,0.6c0.2-0.2,0.5-0.7,0.8-0.4
		C61.5,193.8,61.4,193.7,61.4,193.6 M61.8,192.5h-0.2c-0.1-0.1-0.1-0.2-0.1-0.4c0.2,0,0.3,0,0.4-0.1
		C62.1,192.1,61.7,192.3,61.8,192.5 M88.6,157.6c0.4,0,0.3,0.4,0.2,0.7C88.4,158.5,88.7,157.9,88.6,157.6 M86.9,162.2v0.5
		C86.4,162.8,86.4,162.1,86.9,162.2 M83.9,155.2c0.3,0.2,0.2,0.3,0.6,0.1c-0.1,0.2-0.2,0.4-0.6,0.4
		C83.8,155.5,83.8,155.3,83.9,155.2 M84,163.9c0.2,0,0.2,0.1,0.4,0.1c0.1,0.3-0.2,0.2-0.2,0.5C83.8,164.5,84,164.1,84,163.9
		 M83.5,156.3c0.1,0,0.2,0,0.2,0.1c0-0.1,0-0.3,0.1-0.3c0.1,0.1,0.2,0.1,0.4,0.1c0,0.2-0.1,0.3-0.1,0.5c-0.2,0-0.3-0.1-0.3-0.2
		c0,0.1-0.1,0.3,0,0.3c0,0.1-0.2,0.1-0.4,0.1c0-0.1,0-0.2-0.1-0.2C83.3,156.5,83.5,156.5,83.5,156.3 M82.5,163.3
		c0.2,0,0.2,0.1,0.1,0.1c0.5,0.2-0.1,0.6,0.5,0.4c0,0.2-0.2,0.3-0.5,0.2C82.7,163.7,82.4,163.7,82.5,163.3 M82.6,160
		c0.3,0.1,0.2,0.6,0.4,0.8c-0.2,0.2-0.4-0.1-0.6-0.1C82.3,160.4,82.7,160.5,82.6,160 M82.1,192.2c-0.1,0.2-0.2,0.4-0.6,0.4
		c-0.1-0.4-0.1-0.2,0-0.6C81.7,192,81.7,192.3,82.1,192.2 M81.5,163.1c-0.1,0.1-0.1,0.2,0,0.2c-0.1,0-0.7,0.3-0.6-0.2H81.5z
		 M80.1,160.8c0.4,0.2-0.4,0.7-0.6,0.4C79.5,160.8,80,161,80.1,160.8 M79.1,162.9c0.4-0.2,0.7,0.5,1.2,0.4c0-0.4-0.2-0.3-0.5-0.2
		c0-0.3-0.3-0.4-0.4-0.7c0.2-0.1,0.2,0,0.4,0c0.1-0.5-0.6-0.5-0.2-1c0.4,1,1.1,1.6,1.6,2.4c-0.2,0.2-0.8-0.2-1.1-0.4
		c-0.1,0-0.1,0.1-0.2,0.1c0.4,0.4-0.2,0.8-0.7,1c-0.2-0.4-0.1-0.7-0.2-1c0.1-0.2,0.4-0.2,0.6-0.2C79.4,163.1,79.3,163,79.1,162.9
		 M78.8,181.3c0.1-0.4,0.3,0.1,0.5,0.1c-0.1,0.2-0.4,0.3-0.6,0.1c0-0.1,0.1-0.1,0.2-0.1C79,181.3,78.9,181.3,78.8,181.3 M79.4,173.2
		c0.5,0,0.2,0.7,0.7,0.6c-0.1,0.4-0.7-0.2-0.5,0.4c-0.3,0.4-0.3-0.4-0.6-0.4C79.4,173.7,79.6,173.9,79.4,173.2 M79.2,176.4
		c0-0.1,0.2-0.1,0.4-0.1v-0.5c0.3,0.1,0.4,0.5,0.6,0.6c0,0.1-0.1,0.1-0.1,0C79.7,176.4,79.4,176.7,79.2,176.4 M79.5,169.3
		c-0.1,0.3-0.1,0.6-0.2,0.8C79,170.1,78.9,169.2,79.5,169.3 M79.5,172.5c0.2,0.2,0,0.3,0,0.6c-0.6-0.1-0.6-0.2-1.1-0.2
		c0.1-0.1,0.1-0.2,0.1-0.4C79.1,172.3,79.3,173,79.5,172.5 M78.3,171c0.1,0.2,0.4,0.2,0.4,0.5C78.3,171.6,78.1,171.3,78.3,171
		 M77.3,173.7c0.5,0,0.4,0.6,1,0.6c-0.2,0.5-0.7-0.5-1,0C77.1,174.3,77.3,173.8,77.3,173.7 M74,170.9c0.1,0.2,0.1,0.6,0.5,0.8
		C74.5,172.3,73,171,74,170.9 M73.5,172.2c0.2,0,0.1,0.4,0.2,0.5c0-0.2,0.1-0.4,0-0.6c0.2,0.1,0.3,0.3,0.4,0.5
		c0.2-0.1,0.3-0.1,0.5,0.1c0.3,0,0.3-0.3,0.2-0.6c0.3-0.1,0.2,0.2,0.5,0.2c0,0.4-0.3,0.4-0.2,0.7c-0.4-0.3-0.7,0.2-0.8-0.2
		c-0.1,0.1-0.1,0.2-0.2,0.2c0,0.1,0,0.2,0,0.3c-0.2,0-0.2-0.1-0.4-0.1c0,0,0-0.1,0-0.1c-0.2,0-0.3-0.1-0.5,0
		C72.8,172.4,73.6,172.9,73.5,172.2 M73.6,178c-0.3-0.2-0.4-0.6,0-0.7C74,177.4,73.5,177.7,73.6,178 M66.5,189.9
		c-0.2-0.1-0.5-0.1-0.4-0.5c0.3-0.1,0.3,0.1,0.5,0.1C66.5,189.6,66.5,189.7,66.5,189.9 M69.2,183.4c0.3,0,0.4,0.2,0.6,0.2
		c0,0.3-0.1,0.6-0.5,0.5C69.4,183.7,69.1,183.7,69.2,183.4 M70.4,190.7c-0.3,0.1-0.6,0.2-0.6-0.2C70.2,190.5,70.4,190.2,70.4,190.7
		 M69.3,191.7c0.5-0.1,0.7,0.1,1.2-0.1C70.2,191.8,69.5,192.3,69.3,191.7 M70.2,180.3c0-0.4,0.2-0.6,0.6-0.6
		C70.9,180.2,70.5,180.3,70.2,180.3 M71.5,180.2c0-0.2,0.1-0.3,0.1-0.5c0.3,0,0.1,0.3,0.4,0.4C72,180.3,71.7,180.2,71.5,180.2
		 M72.2,193.5c-0.1-0.1-0.2-0.2-0.2-0.4c0.2-0.2,0.6-0.2,0.7,0C72.6,193.4,72.2,193.2,72.2,193.5 M72.5,176.5
		c0.1-0.4,0.3-0.6,0.4-1.1c0.4,0.4,0.2,0.6,0.2,1.3C72.7,176.8,72.9,176.4,72.5,176.5 M72.9,183c0.3-0.4,0.8,0.2,1.1,0.2
		C73.5,183.7,73.2,183.5,72.9,183 M73.9,177.3c0.1-0.3,0.7,0,1-0.1C74.5,177.6,74.4,177.5,73.9,177.3 M74.8,181.3
		c0-0.3-0.1-0.4-0.4-0.4c0.2-0.5,0.4,0.2,1,0C75.3,181.2,75.1,181.3,74.8,181.3 M75.5,171.4c0.5-0.1,0.5,0.3,0.8,0.4
		c-0.1,0.3-0.2,0.5-0.4,0.7h-0.4C75.5,172.2,75.3,171.6,75.5,171.4 M77,188.8c-0.2,0,0-0.7,0.4-0.6c-0.3-0.4-0.5-0.5-0.5-1
		c-0.3,0.2-0.2,0.3-0.1,0.6c-0.9-0.2,0.3-0.7,0-1.3c0.3,0.3,0.3-0.3,0.7-0.1c0.3,0.2,0.1,0.9,0.6,0.8c-0.1,0.2-0.1,0.5-0.5,0.4
		c0,0.3,0.1,0.6,0.2,0.7c-0.1,0.3-0.3,0.5-0.4,0.8C77.2,189.2,77.3,188.3,77,188.8 M78.3,185.7c0,0.3-0.4,0.1-0.6,0.1
		c-0.1-0.2-0.1-0.5-0.4-0.5c0.1-0.2,0.3-0.2,0.4-0.5c0.7,0,0.3,0.5,0.8,0.5C78.8,185.8,77.9,185.6,78.3,185.7 M78.9,187.4
		c0,0.1-0.2,0.1-0.2,0.2c-0.4-0.3-0.3-0.3-0.4-0.8C78.9,186.6,78.7,187.3,78.9,187.4 M77.9,192.9c-0.2,0-0.4-0.1-0.5-0.2
		c0.4-0.3,0-0.8,0.6-0.8c0-0.1-0.1-0.1-0.1-0.2c-0.2,0-0.2,0.3-0.5,0.2c0-0.1,0.1-0.1,0.2-0.1c-0.1-0.1-0.1-0.2-0.2-0.2
		c0.5-0.6,1.3-0.1,1.8-0.5c0.6,0.4,0.1,1,0.6,1.5C79.4,192.8,77.8,192.3,77.9,192.9 M79.6,190.5c-0.3,0-0.6-0.3-0.4-0.5
		C79.5,190,79.6,190.2,79.6,190.5 M79.5,184.2v-0.5c0.2,0.3,0.5-0.2,0.7,0.1C80,184,79.8,184.1,79.5,184.2 M80.3,187.3h-0.4
		c0.1-0.2,0.1-0.6,0.6-0.5C80.5,187.1,80.2,187,80.3,187.3 M78.7,183.6c0.6-0.2,0.2-0.8,0.7-1c-0.2-0.4-0.6-0.4-1.1-0.4
		c0,0.2-0.2,0.4-0.5,0.4v-0.4c-0.2,0-0.4-0.1-0.6-0.2c0-0.1,0.1-0.2,0.2-0.2c0,0,0-0.1,0-0.1c-0.1-0.1-0.3,0.2-0.6,0.1
		c-0.2-0.3,0-0.2-0.1-0.6c-0.4,0.1-0.6,0.3-1,0.4c-0.3-0.2,0.4-0.2,0.2-0.6c0.4-0.1,0.6,0.1,0.8,0.2c0.1-0.5,0.3-0.4,0.5-0.5
		c0,0,0,0,0,0c0,0,0.1-0.1,0.2-0.1c0,0,0.1-0.1,0.1-0.1c0,0,0,0.1,0.1,0.1c0.2-0.1,0.4-0.2,0.3-0.6c0.2,0.1,0.2,0.5,0.6,0.5
		c0,0.1,0,0.1-0.1,0.1v0.2c-0.3-0.2-0.2-0.3-0.6-0.1c0,0,0,0,0,0c0.2,0.2,0.5,0.2,0.7,0.4c-0.3,0.7,0.5,0.4,0.4,1
		c0.3,0,0.4-0.3,0.5-0.6c0.5,0,0.6-0.2,1,0c-0.3,0.2,0.1,0.4,0.2,0.6c0.1,0,0.1-0.2,0.1-0.4c0.2,0.1,0.4,0.2,0.4,0.6
		c-0.7-0.1-0.4,0.2-0.4,0.6C80.1,182.8,79.8,183.5,78.7,183.6 M81.2,184c0.4-0.1,0.4,0.2,0.6,0.2c0,0.1-0.1,0.1-0.1,0
		c-0.3,0-0.5,0.1-0.6,0.2C80.7,184.3,81.4,184.3,81.2,184 M81.9,201.4c-0.5,0.1-0.2,1-0.5,1.3c-0.5,0.2,0-0.6-0.4-0.6
		c0.7-0.5,0.3-1.8,1.6-1.9c0.1,0.5-0.5,0.3-0.4,0.8c0.1,0.4,0.3-0.1,0.5,0C82.8,201.5,82.2,201.6,81.9,201.4 M83.4,205.8
		c-0.3-0.3-0.4,0.1-0.8,0c-0.1-0.5,0.4-0.4,0.1-0.8c0.1,0,0.2,0,0.2-0.1c0.1,0.3,0.4,0.3,0.4,0.7c0.3,0,0.1-0.5,0.5-0.4
		C83.8,205.6,83.3,205.4,83.4,205.8 M84.8,186.9c-0.3-0.1-0.5-0.3-1-0.2c0-0.4,0.5-0.4,0.7-0.6c-0.2,0.4-0.4,0.5,0.2,0.4V186.9z
		 M85.6,187.7c-0.2-0.1-0.2-0.4-0.2-0.6c0.1,0,0.2,0,0.2-0.1C86,187.1,85.5,187.4,85.6,187.7 M86.7,188.3c0.2-0.4-0.1-0.4,0.1-0.7
		c0.2,0.1,0.2,0.4,0.2,0.7H86.7z M87.3,188.2c0.4-0.1,0.1,0.7,0.4,0.7C87.4,189,87.1,188.6,87.3,188.2 M87.5,185.1
		c0.3,0.3,0,0.9-0.5,0.8c0.1-0.3-0.1-0.3-0.1-0.5c-0.3,0.1-0.4,0.4-0.5,0.6c-0.6,0-0.5-0.1-1,0c-0.1-0.3-0.3-0.5-0.4-0.8
		c0.2,0,0.3-0.1,0.3-0.3c0-0.1,0-0.2,0-0.3c0,0,0,0,0,0c0,0,0-0.1,0-0.1c-0.1-0.3-0.3,0.2-0.6,0.1c0,0,0-0.1,0-0.1
		c-0.1,0-0.1,0-0.2,0c0.4-0.5-0.1-0.8-0.6-0.6c-0.1-0.4,0.3-1.1-0.4-1c0-0.8,0.4-0.5,0.5-1.2c0.4,0.5,1.2,0.6,1.5,1.3
		c0.6,0.1,0.5-0.3,1-0.2c0,0.3,0.8,0.8,1,0.4c0.3,0.4-0.1,0.9,0.1,1.5c-0.4-0.1-0.3,0.3-0.5,0.5c-0.2,0-0.4,0-0.7,0
		c-0.1,0.1-0.1,0.2-0.1,0.4C87,185.5,87,185,87.5,185.1 M85,177.1c0.2-0.2,0.6,0,0.7,0.2C85.6,177.6,84.8,177.5,85,177.1
		 M87.5,172.1c-0.2,0.9,0.4,2.2-0.4,3.4c-0.2,0-0.3-0.1-0.4-0.2c-0.1,0.3-0.5,0.5-0.8,0.2c0,0.1,0,0.2,0.1,0.2
		c-0.1,0.2-0.3-0.1-0.6,0.1c0.1-0.1,0.1-0.3,0.1-0.5c-0.3,0.2-0.2,0.4-0.1,0.7c-0.4,0.2-0.4,0.1-0.8,0.4c0.1-0.6-0.5-0.5-0.5-1
		c-0.4,0.1-0.2,0.8-0.7,0.8c-0.3-0.2,0.3-0.6-0.1-0.8c0.1-0.1,0.2-0.2,0.4-0.2c-0.6-1.1,0-1.7,0-2.5c0.6,0.4,1.1-0.1,1.5,0
		c0-0.3-0.4-0.4-0.4-0.7h-0.6c0.8-0.4,0.3-1.2,0.9-1.8c-0.1-0.1-0.2-0.3-0.2-0.5c0.4-0.3,0.1-0.9,0.6-1.3c0.5,0.5,0.8,1.2,1.5,1.6
		c-0.1,0.4-0.4-0.1-0.6,0.2c0.1,0.1,0.1,0.2,0.1,0.4c0.2,0,0.2-0.3,0.5-0.2c0.1,0.3-0.2,0.3-0.1,0.6c-0.2,0-0.4-0.1-0.5-0.1
		c0,0.2,0.2,0.2,0.5,0.2c0,0.3,0.2,0.3,0.1,0.6c0.1-0.1,0.2-0.2,0.1-0.4c0.5,0,0.3-0.1,0.7,0c0,0.3-0.2,0.4-0.2,0.6
		c0.1,0.1,0.1,0.2,0.3,0.4C87.6,172.3,87.5,172.2,87.5,172.1 M87.9,184.4c0-0.2,0.1-0.3,0.1-0.5c0.2,0.1,0.5,0.2,0.7,0.4
		C88.5,184.5,88.1,184.7,87.9,184.4 M88.5,190c-0.1-0.4,0.2-0.4,0.2-0.6c0.1,0.1,0,0.5,0.4,0.6C89.1,190.3,88.6,190.1,88.5,190
		 M91.9,195.5c-0.3-0.4-0.3-0.2,0-0.6c0.4,0.1,0.2,0.8,0,1c-0.2-0.2-0.2,0-0.5,0C91.3,195.4,91.8,195.6,91.9,195.5 M92.1,185.1
		c0,0.3,0,0.6-0.2,0.7c-0.4,0-0.1-0.7-0.7-0.5C91.3,184.9,91.6,185,92.1,185.1 M91.3,190.4c0.1-0.4,0.2-0.1,0.5-0.1
		c0-0.3-0.3-0.3-0.6-0.2c0.1-0.2-0.1-0.7,0.1-0.7c0.5,0.1,0.2,0.8,0.7,0.8C92.1,190.5,91.5,190.5,91.3,190.4 M91.5,188.6
		c0.1-0.1,0.3-0.1,0.2-0.4c0.3,0,0.5,0.2,0.5,0.5C92,188.5,91.8,188.6,91.5,188.6 M93.1,178.9c-0.7-0.2-1.1-0.8-0.8-1.6
		c0.2,0.3,0.5,0.7,0.1,1c0.3-0.1,0.5-0.1,0.8,0C93.3,178.6,93,178.6,93.1,178.9 M93.1,177.3c0.1-0.5,0.7,0.1,0.7,0.5
		c-0.1,0-0.2,0-0.2,0.1C93.1,177.8,93.5,177.4,93.1,177.3 M93.8,187.2c0.3,0,0.3,0.4,0.5,0.5C94,188.1,93.4,187.5,93.8,187.2
		 M94.1,186.4c-0.3-0.1-0.6-0.2-0.6-0.5h0.7C94.2,186,94.1,186.2,94.1,186.4 M94.3,175.7c-0.4-0.1-0.1-0.2-0.1-0.5h0.2
		c0,0.1,0,0.1,0.1,0.1v0.2C94.4,175.6,94.3,175.7,94.3,175.7 M95.2,188.9c-0.2-0.1-0.3-0.3-0.7-0.2c0.3-0.2,0.3-0.5-0.1-0.6
		c0.5,0,0.6-0.3,0.1-0.7c0.4-0.3,0.4,0.4,0.8,0.2C95.4,188.3,94.9,188.3,95.2,188.9 M96.1,186.5c0.1-0.3,0.7,0,1-0.1
		C96.9,187.1,96.4,186.4,96.1,186.5 M97.8,192.4c-0.3,0-0.1-0.5-0.5-0.4c0-0.3,0.4-0.1,0.6-0.1C97.9,192.2,97.8,192.2,97.8,192.4
		 M109.3,194.2c0.5,0.4,0.5-0.4,0.8-0.1c0,0.3-0.4,0.3-0.6,0.5c-0.1,0-0.1-0.1-0.2-0.1V194.2z M105.3,192.4c0.4,0.2-0.1,0.8,0.4,0.8
		c-0.1,0.4-0.3-0.1-0.5,0c-0.1-0.3,0.4-0.5-0.1-0.5C105.1,192.6,105.3,192.6,105.3,192.4 M96.8,129.8c-0.1,0-0.2,0.1-0.4,0h-8.7
		c0,0.1,0,0.2-0.1,0.2c-0.1-0.1-0.1-0.1-0.2-0.2h-3.1c-0.1,0.1-0.3,0.1-0.6,0.1c0,0,0-0.1,0-0.1h-4.5c0.1,0.4,0,0.7-0.1,1.1
		c-0.3-0.1,0.1-0.8-0.5-0.6v-0.5h-17c-0.2,0-0.4,0-0.6,0c0,0,0,0,0,0.1c-0.1,0-0.1,0-0.2-0.1c-2.3,0.3-4,2-4,4
		c0,2.3,2.2,4.1,4.8,4.1h5.2c-0.1-0.2,0.2-0.6,0.4-0.7c0.4,0.1,0.1,0.5-0.1,0.7h39.1c0.5,0,1-0.1,1.5-0.2c0-0.2,0-0.4,0.1-0.5
		c0.2,0,0.3,0.2,0.4,0.4c1.2-0.5,2.2-1.3,2.6-2.4c-0.1-0.1-0.2-0.1-0.3,0c0-0.2,0.2-0.3,0-0.4c0.2-0.3,0.3-0.2,0.5-0.1
		c0.1-0.3,0.1-0.5,0.1-0.8c-0.1,0-0.1,0-0.2-0.1c0-0.2,0.1-0.4,0.2-0.6c0-0.1,0-0.2-0.1-0.4c0,0-0.1,0-0.1,0c0,0,0,0,0.1-0.1
		c-0.1-0.2-0.2-0.4-0.3-0.7c-0.1,0.1-0.2,0.1-0.4,0.1c0-0.1,0.1-0.2,0.3-0.2c0,0,0,0,0,0c-0.1-0.1-0.2-0.3-0.3-0.4c0,0,0,0,0,0.1
		c-1,0.5-0.9-0.1-0.8-0.9c-0.9-0.6-2-1-3.2-1h-3c0,0.3-0.3,0.1-0.4,0.4c-0.2,0-0.3-0.2-0.2-0.4H96.8z M64.8,133.1
		c-0.4-0.2-0.9-0.4-1-1c0.4,0.1,0.4-0.3,0.4-0.6c0.3,0,0.1,0.3,0.4,0.4c0.2-0.2,0.4-0.4,0.4-0.8C65.6,132,64.3,132.2,64.8,133.1
		 M65.3,134.8c0.1-0.6-0.4-1.2,0.4-1.3c0,0.4-0.4,0.9,0.1,1C65.3,134.4,65.7,134.6,65.3,134.8 M66.1,135.3c0.3-0.3-0.1-0.3,0-0.7
		c0.3,0.1,0.3-0.2,0.6-0.1C66.5,134.7,66.6,135.2,66.1,135.3 M67.6,133.6c-0.2-0.2-0.7-0.1-0.7-0.5C67.2,133.3,67.8,133,67.6,133.6
		 M86.5,131.2c0.2,0,0.2-0.1,0.2-0.2c0.4,0.1,0.1,0.2,0.1,0.6c-0.2,0-0.2-0.1-0.4-0.1V131.2z M69.5,135.1c-0.2,0-0.3-0.2-0.2-0.5
		h0.4C69.7,134.9,69.5,135,69.5,135.1 M71.9,137.8c-0.4-0.1,0.1-0.4,0-0.6c0.3,0,0.5,0.2,0.5,0.5C72.2,137.7,71.9,137.6,71.9,137.8
		 M72.8,133.9c-0.3-0.6-0.9,0.5-1.2-0.1c-0.1,0-0.1,0.2-0.1,0.4c-0.4-0.1-0.4-0.1-0.7,0c0-0.2-0.1-0.2-0.2-0.2
		c0.1-0.5,0.5-0.6,0.1-1c0.4-0.4,0.5-0.5,0.8-0.8c0.3,0.2,0,0.6-0.2,0.6c0,0.1,0.1,0.1,0.1,0.2c0.1-0.3,0.7-0.1,0.7-0.5
		c0.1,0.1,0.3,0.1,0.5,0.1C72,133.3,73,133,72.8,133.9 M75.5,136.5c-0.4,0-0.4-0.3-0.7-0.2c0.3-0.4,0.4-0.3,0.8-0.6
		C75.4,135.9,75.9,136.2,75.5,136.5 M80,133c-0.5,0-0.1,0.9-0.1,1.1c-0.1,0.1-0.3,0.1-0.5,0.1c0.2-0.5-0.1-0.5,0-0.8
		c-0.2-0.3-0.9-0.1-1,0.1c-0.1-0.2,0.1-0.7-0.6-0.6c-0.1-0.4,0.4-0.2,0.5-0.5c0.1,0.1,0.2,0.2,0.2,0.4c0.2-0.4,0.1-1,0.6-1.1
		c0.1-0.4-0.6-0.3-0.2-0.6c0.5-0.1,0.3,0.5,0.6,0.6c0.3,0,0-0.4-0.1-0.4c0.2-0.3,0.4-0.2,0.6,0C79.4,131.8,79.8,132.3,80,133
		 M82.6,136.7c-0.3,0.2-0.2,0-0.6,0.1c-0.1-0.4,0.5-0.2,0.4-0.6c0.2,0.3,0.3,0.6,0.6,0.8C82.7,137.4,82.4,137,82.6,136.7
		 M83.8,137.7c-0.3,0-0.3-0.2-0.6-0.1c0.1-0.7,0.7-0.1,1.3-0.4C84.4,138,83.8,136.9,83.8,137.7 M84.3,136.6
		c-0.6,0.2-0.9,0.6-1.3,0.2c0.1-0.1,0.2-0.2,0.4-0.2c-0.1-0.2-0.4-0.2-0.6-0.2c0-0.5,0.2-0.7,0-1.1c-0.1,0-0.2,0-0.2,0.1
		c-0.1-0.3,0.2-0.5-0.1-1.1c0.4,0,0.4-0.2,0.8-0.4c0.1,0.3,0.4,0.3,0.5,0.6c0,0.2-0.1,0.3-0.2,0.4c0.4-0.2,0.4,0.7,0.6,0.6
		c0.3,0-0.1,0.3-0.2,0.4c0.1,0.1,0.1,0.2,0.1,0.4c0.5,0,0.3-0.1,0.7,0C84.7,136.4,83.9,136.4,84.3,136.6 M84.7,132.6
		c-0.4-0.1-0.2-0.1-0.6,0c0.1-0.4-0.2-0.4-0.1-0.7c0.3,0,0.3,0.4,0.8,0.2C84.8,132.3,84.7,132.4,84.7,132.6 M84,131.2
		c0.1-0.5,0.5-0.7,1-0.8C84.8,130.8,84.4,131,84,131.2 M85.4,134.5c-0.3,0.1-0.2-0.2-0.2-0.4c-0.1,0-0.1,0-0.1,0.1
		c-0.2-0.1,0.2-0.5,0.2-0.7c0.2,0,0.2,0.2,0.4,0.2C85.6,134.1,85.4,134.2,85.4,134.5 M87.4,137.3c-0.2-0.2-0.1-0.7,0.1-0.8
		C88,136.4,87.8,137.5,87.4,137.3 M88.7,135h-0.3c-0.1,0.3-0.4,0.6-0.7,0.7c0,0.1,0,0.2,0.1,0.3c-0.2,0.2-0.6,0.2-0.7,0
		c0.1-0.3,0.1-0.3,0-0.5c-0.1-0.2-0.2-0.4-0.2-0.8c0.2,0,0.3,0,0.4-0.1c-0.1-0.3-0.2-0.5-0.6-0.5c0,0.1,0,0.2,0.1,0.3
		c-0.1-0.1-0.3-0.2-0.6-0.1c0,0.1,0.2,0.1,0.4,0.1c-0.1,0.1-0.2,0.3-0.1,0.6c-0.4-0.1-0.2-0.7-0.6-0.7c0.1-0.5,0.6,0.1,0.6-0.4
		c0.2,0,0.3,0.1,0.3,0.2c0.1-0.1,0.1-0.3,0.1-0.5c0.2,0.2,0.4,0.1,0.5,0c0,0-0.1-0.1-0.1-0.1c0.1-0.1,0.2-0.1,0.3-0.1
		c0,0,0-0.1,0-0.1c0.1,0,0.1,0.1,0.1,0.2c0.1,0,0.1,0.1,0.2,0.1c0.5-0.2-0.1-0.4,0.1-0.8h0.4c-0.3,0.3,0.4,1.2-0.4,1.2
		c0.1,0.1,0.2,0.2,0.3,0.3c0.1,0,0.1,0,0.1-0.1c0.1,0,0.1,0.1,0,0.1C88.3,134.8,88.8,134.6,88.7,135 M89.4,132.1
		c0.3,0.1,0.5,0.2,0.5,0.6C89.5,133.1,88.9,132.4,89.4,132.1 M94.4,133.4c0.4,0.2,0,0.4,0.2,0.7C94.1,134.2,94.3,133.7,94.4,133.4
		 M109.3,135.4c0.4-0.1,0.2,0.3,0.6,0.2c0.1-0.3-0.2-0.2-0.4-0.2c0-0.2,0.4-0.1,0.4-0.4c0.2,0.2-0.2,0.3,0.4,0.1
		c0.1,0.2,0.2,0.6,0.2,0.8c-0.4,0.6-1,0-1.6,0.4C108.7,136.4,109,135.7,109.3,135.4 M108.6,136.1c0.2,0.3,0.3,0.8,0.8,0.5
		c-0.2,0.4-0.2,0.8-0.7,0.8C108.4,136.8,108.4,136.8,108.6,136.1 M98.6,136.5c0-0.3-0.2-0.4-0.1-0.7
		C98.9,135.7,99.3,136.5,98.6,136.5 M139,179.4v-0.2c-2.5,0.3-5.8,0.5-9.4,0.3c0,0.3-0.4,0.5-0.2,1c-0.4,0.2-0.4,0.2-1.1,0.1
		c0.1-0.4-0.2-0.4-0.1-0.7c0.3,0.2,0.3-0.2,0.5-0.5c-4.9-0.5-10.2-2-14.6-5.4c-0.1,0-0.2,0.1-0.5,0.3c0-0.3-0.2-0.7-0.6-1
		c-0.2-0.1,0,0.5,0.1,0.5c-0.3,0.4-0.6-0.3-0.7-0.5c0.2,0.1,0.3-0.1,0.5-0.3c-4-3.8-7-9.6-7.5-18.3H93.9c0.5,2.1,1.7,6.9,4.6,12.1
		c0.1-0.1,0.1-0.1,0.1-0.3c0.2,0.1,0.1,0.3,0,0.5c0.8,1.5,1.8,3,2.9,4.5c0.1,0.1,0.1-0.1,0.4-0.1c-0.1,0.1-0.2,0.2-0.2,0.3
		c4.1,5.3,10.2,10,19.1,11c0-0.3-0.3-0.3-0.3-0.6c0.5-0.3,0.4-0.5,0.7-0.8c0.4,0.2,0.5-0.1,1.1,0c-0.5,0.5,0,0.4,0,0.8
		c0,0.2-0.1,0.5-0.3,0.7c5.8,0.4,12.8-0.7,21.1-4.2c0,0-1.5,0.4-3.8,0.7C139.3,179.3,139.2,179.4,139,179.4 M97.8,160.2
		c-0.5,0.2,0-0.5-0.4-0.5C97.7,159.4,98.1,159.9,97.8,160.2 M96.1,158.3c0.1-0.3,0.3-0.5,0.7-0.6c0.1-0.5-0.3-0.3-0.2-0.7
		c0.4-0.6,0.9-0.3,1.3-0.7C97.7,157.3,96.9,157.8,96.1,158.3 M104.5,165.8c0.3,0.2,0.1,0.7,0.1,1C104.1,166.8,104.4,166,104.5,165.8
		 M101.8,155.7v-0.5h0.7C102.3,155.4,102.3,155.7,101.8,155.7 M103.6,165.5c0.5,0.1,0.3,0.8,0.5,1.1
		C103.5,165.9,102.9,166.2,103.6,165.5 M104.1,167.6c-0.1,0-0.1,0.1-0.1,0.2c-0.4,0.1-0.2-0.3-0.6-0.2c0-0.2,0.5-0.4,0.1-0.5
		c0.2-0.2,0.4,0.1,0.5-0.4c0.4,0.5,0.5,0.2,1,0c0.1,0.7-0.7,0.8-0.2,1.5C104.6,168,104.1,168,104.1,167.6 M104.9,170.7
		c-0.4-0.1-0.3,0.4-0.7,0.2c0.3-0.8,0-1.5,0.6-1.9c-0.1,0.4,0.1,0.5,0.4,0.6C104.8,169.9,105,170.1,104.9,170.7 M106.2,168.5
		c-0.4,0.1-0.1-0.4-0.5-0.2c-0.4,0.1,0.1,0.4,0,0.6h-0.4c0.3-0.5-0.1-0.6-0.2-1c0.6,0.3,0.5-0.2,1.1-0.2c0.3,0,0.1,0.5,0.5,0.5
		C106.7,168.4,106.4,168.4,106.2,168.5 M107,173c0.1-0.3,0.8-0.1,0.8,0.1C107.6,173.5,107.3,172.9,107,173 M109.1,174.9
		c-0.1-0.2-0.4-0.2-0.4-0.5c0.2,0.2,0.8,0,0.7,0.4C109.3,174.6,109.2,174.6,109.1,174.9 M110.6,174.7c0.5-0.2,0.2,0.3,0.6,0.2
		C110.9,175.1,110.3,175.2,110.6,174.7 M113.4,174.5c-0.5-0.1-0.6,0.1-1,0.1c-0.1,0.4,0.1,0.5,0.4,0.6c-0.3,0-0.1,0.5-0.5,0.5
		c0.1-0.6-0.3-0.5-0.6-0.4c-0.2-0.8-0.8-1-1.7-0.8c0.3-0.3-0.2-0.2-0.1-0.6c-0.2,0-0.1,0.4-0.4,0.4c-0.8-0.4-1-1.9-0.1-2.2
		c0,0.3-0.1,0.5-0.4,0.6c0.5,0.4,0.3,1.1,1.2,1.3c0.1,0,0.1-0.2,0.1-0.4c0.4,0.2,0.9,0.3,1,0.8c0.3,0,0.5-0.2,0.5-0.6
		c0.3,0,0.2,0.5,0.5,0.6c0-0.2,0.2-0.6,0.7-0.6c-0.2,0.4,0.1,0.2,0.4,0.1V174.5z M117.6,180.6c-0.4-0.2-0.5,0.1-1.1,0
		c-0.1-0.3-0.2-0.6-0.1-1c0.6,0.1,1-0.7,1.8-0.7C118,179.7,117.9,179.9,117.6,180.6 M128.4,182.4c-0.4,0-0.2-0.6-0.6-0.6
		c-0.3,0,0,0.5,0.1,0.5c-0.2,0.2-0.6-0.3-0.6-0.7c0.5,0.1,0.7-0.2,0.8-0.5C128.5,181.4,128.8,181.9,128.4,182.4 M36.6,86.9
		c0,0.1-0.2,0.1-0.4,0.1v0.5C36.5,87.5,36.8,87,36.6,86.9 M121.2,182.6c0.1,0,0.1,0,0.2,0C121.3,182.5,121.2,182.5,121.2,182.6
		 M110.1,131.2C110.1,131.2,110.1,131.3,110.1,131.2c0,0.2,0.1,0.2,0.2,0.2C110.3,131.4,110.2,131.3,110.1,131.2 M17.7,86.2
		c0,0,0.1,0,0.1,0c0,0,0.1,0,0.1-0.1C17.8,86.2,17.7,86.2,17.7,86.2C17.6,86.2,17.7,86.2,17.7,86.2 M36.5,91.4
		c-0.1,0.1-0.2,0.1-0.3,0.1c0.2,0.1,0.3,0.2,0.3,0.3C36.6,91.7,36.6,91.5,36.5,91.4 M164.4,88.7c0.4,0,0.4-0.3,0.6-0.5
		C164.7,87.9,164.1,88.5,164.4,88.7 M62.9,63.4c-0.1,0.2-0.4,0.1-0.2,0.5H63C63,63.7,63.1,63.5,62.9,63.4 M17.3,79.9
		c0,0,0.1,0,0.1,0c0-0.1,0-0.1,0-0.2C17.4,79.8,17.4,79.8,17.3,79.9 M62.5,118.2c0,0,0,0.1,0,0.1c0.2,0,0.2-0.1,0.4-0.1
		c0-0.1,0-0.1,0-0.2C62.6,118,62.6,118.2,62.5,118.2 M27.9,91.5c0.4,0.5,1.3,0.7,1.5,1.4c1,0,2,0.1,3,0.3c0-0.1,0-0.2,0.3-0.2
		c-0.8-0.1,0.4-1.4,0.6-2.1c0.7,0.5,1.1-0.6,1.6-0.4c0.3-0.1-0.3-0.2-0.1-0.6c-0.5,0.1-0.7-0.3-0.8-0.6c0.2,0,0.3,0,0.4-0.1
		c0.3,0,0.1,0.3,0.4,0.4c0.4-0.4,0.6-0.2,1.1-0.4c-0.3-0.1-0.2-0.6,0-0.8c0.4-0.1,0.2,0.4,0.2,0.6c0.2,0,0.2-0.1,0.4-0.1
		c0-0.1-0.1-0.1-0.2-0.1c0.1-0.2,0.4-0.1,0.2-0.5c1.4,0.1,0.8,2.2-0.2,2.2c0,0.5-0.5,0.5-0.5,1c0.3,0,0.3-0.3,0.5-0.5
		c0.2,0.2,0.3,0.2,0.3,0.2c0,0,0-0.1-0.1-0.1c0-0.1,0-0.1,0.1-0.1c0,0,0,0,0-0.1c0.1,0,0.1,0,0.2,0.1c0.1,0,0.1-0.1,0-0.2
		c0.2,0.4,0.4,0.5,0.4,0.9c0.2,0.2,0.4,0.4,0.5,0.7c-0.3-0.1-0.2,0.2-0.4,0.4c-0.1-0.1-0.4-0.3-0.4,0.1c0,0,0,0.1,0,0.1
		c0.1-0.1,0.2-0.1,0.4-0.2c0-0.1,0.1-0.1,0.4-0.1c-0.3,0.3,0.1,0.4,0.5,0.4c0,0.1-0.1,0.1-0.2,0.1c-0.1,0-0.3,0.2-0.1,0.2
		c0,0.2-0.3,0.1-0.5,0.1c-0.4,0.2,0,0.9-0.4,1.2c0.1,0,0.2,0.1,0.3,0.1c0-0.1,0.1-0.2,0.1-0.3c0.1,0.1,0.1,0.2,0.2,0.4
		c0.5,0.2,1,0.5,1.6,0.8c0,0,0,0,0-0.1c0.5,0.1,0.8,0.1,1-0.4c0.5,0.2,0.7,0.5,0.5,1.1c-0.2,0-0.3,0-0.3,0c6.7,4.2,14,13,21.5,29
		h11.2c-0.2-1-0.6-2.6-1.1-4.8c0,0-0.1,0-0.1,0c-0.1-0.1-0.1-0.3,0-0.4c-0.3-1-0.6-2.1-0.9-3.3c0,0-0.1-0.1-0.1-0.1c0,0,0,0,0,0
		c-1-3.5-2.5-7.6-4.4-12c0,0,0,0,0,0c-0.1-0.1-0.1-0.2-0.1-0.3c-1.7-3.9-3.8-8-6.3-12c0,0.1,0,0.1-0.1,0.1c-0.4,0-0.3-0.3-0.2-0.5
		c-1.8-2.8-3.8-5.6-6.1-8.2c-0.2,0.4-0.1,0.5-0.2,1.1c-0.4,0.1-0.5-0.6-0.5,0.1c-0.2-0.2-0.3-0.5-0.2-0.8c0.4,0.5,0.7,0.4,0.6-0.5
		h0.2c-1-1.1-2-2.2-3.1-3.2c-0.5,0.3-1.2-0.3-1.4-0.6c-0.2,0.2-0.6,0.3-1,0.4c-0.1-0.2,0.1-0.9-0.2-1.2c0.1-0.2,0.4-0.2,0.5-0.4
		c-0.1-0.3-0.3,0.2-0.5-0.1v-0.4C40,71.3,30.1,67,17.6,67.7c0,0-0.1,0.1-0.1,0.1c0,0,0-0.1,0-0.1c-0.4,0-0.7,0-1.1,0.1
		c0,0-5.1,0.5-9.6,4c0,0.2,0.1,0.4,0,0.7c-0.4-0.1-0.2-0.1-0.6,0c0-0.1,0-0.1-0.1-0.2c-2.4,2-4.6,4.9-5.5,9.1c0,0,0,0,0,0
		c0,0.2,0.3,0.2,0.2,0.5c-0.1-0.1-0.3-0.1-0.4-0.1c-0.6,2.8-0.7,6.1,0,10c0.7,0.2,1-0.9,1.7-0.4c-0.2,0.4,0,0.7,0.4,0.8
		c-0.1,0.1-0.1,0.2-0.2,0.2c0.6,0.6,0.7,1.4,0.4,2.2c-0.5-0.1-0.4,0.4-0.8,0.2c0.1-0.1,0.1-0.2,0.1-0.4c-0.2,0.1-0.5,0.2-0.8,0.3
		c0.5,2,1.1,4.1,2,6.3c0.2-0.1,0.3-0.3,0.2-0.6c0.2,0,0.2,0.1,0.4,0.1c0,0.5-0.2,0.8,0.4,0.8c0,0.3-0.4,0.4-0.4,0.7
		c-0.1,0-0.1,0-0.2,0c0.2,0.6,0.5,1.2,0.8,1.8c0-0.1,0.1-0.2,0.2-0.3H5c-0.2,0.5,0.7,0.5,0.5,0c0.4,0.3-0.2,0.8-0.2,1.1
		c-0.2,0-0.2-0.4,0-0.4c0-0.1-0.2-0.1-0.2-0.2c-0.2,0.1-0.2,0.3-0.2,0.5c0.1,0.1,0.2,0.2,0.4,0.4c-0.1,0.1-0.3,0-0.5-0.1
		c0.6,1.4,1.3,2.8,2,4.3c0,0,3.9-6.9,10.3-11.8c-0.3-0.2-0.2-1-0.2-1.3c0.1,0.1,0.2,0.1,0.4,0.1c-0.4,0.3,0,0.6,0.2,0.7
		c0,0.2-0.3,0.2-0.3,0.4c0.9-0.7,1.9-1.4,2.9-1.9c0-0.2-0.1-0.3-0.3-0.4c0.2-0.3,0.5-0.5,0.5-1c0.1,0.4,0.5,0.5,0.6,0.9
		c2.1-1.1,4.4-1.9,6.9-2.2C27.4,92.5,27.6,91.8,27.9,91.5 M63.3,118c-0.4,0.1-0.3,0.7-0.7,0.7c0,0.2,0.1,0.3,0.2,0.4
		c-0.3,0.2-0.5-0.5-0.5-0.9c0,0,0,0-0.1,0c0,0,0,0,0.1,0c0-0.1,0-0.1,0-0.2c0,0,0.1,0,0.1,0.1c0.1-0.1,0.1-0.2,0.2-0.2
		c-0.2-0.1-0.4-0.1-0.4-0.4c0.2-0.2,0.2,0.1,0.5-0.1c-0.2-0.6-0.7,0.6-1.1,0.1c0.4-0.2,0.8-0.2,0.7-0.8c0.3-0.1,0.4,0.3,0.4-0.1
		c0.4-0.1,0.5,0,0.6,0.1c0.3-0.6,1-0.2,1.4,0v0.5c-0.2,0-0.2-0.1-0.1-0.1c-0.1-0.3-0.9,0.1-0.7-0.5c-0.4-0.1-0.3,0.4-0.6,0.2
		c0.1,0.2,0.1,0.4,0.6,0.2c0.2,0.3,0.2,0.8,0.5,1C64.2,118,63.9,118.1,63.3,118 M63,115.5c0.3,0,0.4-0.2,0.7-0.1
		C63.7,115.8,62.9,116.1,63,115.5 M64.6,115.8c-0.3,0.1-0.2-0.2-0.5-0.2c0.1-0.2,0.3-0.3,0.6-0.4C64.6,115.3,64.6,115.5,64.6,115.8
		 M64.3,119.6c0.4,0,0.5,0.4,0.6,0.7C64.5,120.3,64.1,120.1,64.3,119.6 M64.6,124.6c-0.2,0-0.1-0.3-0.1-0.5c0.2,0,0.3,0,0.4-0.1
		C65.2,124.2,64.6,124.4,64.6,124.6 M65.2,118.8c-0.1-0.1-0.2-0.1-0.2,0c-0.4-0.2-0.3-0.9,0.1-1c-0.2,0.1-0.4-0.5,0.1-0.5v0.5
		c0.2-0.1,0.3-0.3,0.6-0.2C65.5,118.4,65.6,118.1,65.2,118.8 M69.8,121c0.2,0.4,0.4,0.2,0.7,0.4c-0.6,0.2,0.1,1.1-0.6,1.3
		c0.1-0.5-0.3-0.4-0.4-0.6C69.5,121.6,70,121.6,69.8,121 M67.8,118.6c0.2,0.2,0.2-0.1,0.6,0c0.1,0.3,0.5,1.3-0.1,0.8
		c0.3,0,0.2-0.1-0.1-0.4c-0.3,0-0.1,0.5-0.1,0.7c0.3-0.3,0.6,0,0.8,0.1c0,0.3,0,0.6-0.4,0.6c-0.1,0.4,0.5,0.2,0.4,0.6
		c0.1,0,0.2,0,0.2-0.1c0.2,0.1,0.2,0.3,0.2,0.5c-0.1,0.1-0.3,0.1-0.5,0.1c0-0.3-0.2-0.4-0.4-0.6c-0.4,0.2,0.4,0.5,0,0.7
		c-0.1-0.1-0.2-0.2-0.2-0.4c-0.3,0,0.2,0.2,0,0.5c-0.4,0.1-0.1-0.6-0.4-0.6c0.1,0,0.4-0.3,0-0.8c-0.2,0.1-0.2,0.4-0.5,0.1
		c0.1-0.1,0.2-0.2,0.4-0.4c-0.1-0.2-0.2-0.4-0.5-0.4C67.4,119.3,67.6,119,67.8,118.6 M66.3,116.5c0-0.4,0.2-0.5,0.1-1
		c-0.2,0-0.2-0.1-0.2-0.2c0.5,0.1,0.3,0.8,0.6,1.1C66.6,116.4,66.5,116.6,66.3,116.5 M66.2,114c-0.2,0.4,0.1,0.7,0.4,1
		c-0.2,0.2-0.5,0.3-0.6,0.6c-0.4-0.6-0.3-0.9-0.6-1.5C65.6,114,65.7,114.1,66.2,114 M63.7,103.5c0,0.1,0.5,0.5,0.5,0
		c0,0.1,0.5,1.2,1,0.7c0.3,0.8,1.1,1.4,0.8,2.4c-0.6,0-0.8,0.4-0.6,1c-0.3,0-0.4-0.2-0.7-0.1C64.5,106.1,62.8,104.9,63.7,103.5
		 M61.4,103.5c0.3,0,0.3,0.4,0.6,0.5c0.3-0.4,0.4-0.3,1-0.4c0,0.1,0,0.2,0.1,0.2c-0.7,0.2-0.1,0.7,0,1.2c-0.4-0.1-0.1,0.4-0.6,0.2
		c0-0.3,0.2-0.3,0.1-0.6c-0.4-0.1,0,0.6-0.5,0.5c0.3-0.3-0.1-0.8,0.1-1c-0.2-0.3-0.6-0.1-0.8-0.2V103.5z M60.8,100.9
		c-0.1-0.2-0.6,0-0.5-0.5c0.4-0.1,0.3,0.4,0.7,0.2c0.1,0.4-0.3,0.2-0.2,0.6c-0.3,0-0.6,0-0.7-0.1C60.2,100.8,60.6,101.1,60.8,100.9
		 M59.4,94.3c0.2,0.2-0.2,0.4,0.2,0.5c-0.1,0.3-0.5-0.1-0.7-0.1C59,94.5,59,94.3,59.4,94.3 M58.8,100.5v0.4h0.2
		c0.3,0.5-0.7-0.5-0.5,0.1C58.3,100.9,58.6,100.4,58.8,100.5 M57.6,102c0.3,0,0.1,0.3,0.4,0.4c0.3-0.3-0.5-0.6-0.2-1.2
		c0.6,0.1,0.9,0.6,1.2,0c0.3,0,0.1,0.4,0.1,0.6c0.1,0,0.1-0.2,0.1-0.4c0.1,0.1,0.1,0.3,0.4,0.2c-0.2,0.4-0.2,0.5-0.1,1
		c0.4-0.2,0.1-1.1,0.7-1.1c0.2,0.3-0.2,0.8,0.2,0.7c0,0.4-0.7,0.2-0.6,0.7c-0.7,0.2-0.4-0.7-1-0.6C59.3,102.8,57.2,102.7,57.6,102
		 M57.1,101.3c0.1,0.1,0.1,0.3,0.4,0.2c0,0.3-0.2,0.4-0.5,0.4C57,101.6,57,101.4,57.1,101.3 M55.5,107.9c0.1-0.3,0.2-0.5-0.1-0.6
		C55.1,106.8,56.5,108,55.5,107.9 M55.1,106.5h0.6c0,0.2-0.2,0.3-0.4,0.5C55.2,107,55.1,106.8,55.1,106.5 M52.2,104.6
		c0-0.1,0-0.1-0.1-0.1c0.2-0.4,0.5,0.8-0.1,0.6C51.8,104.8,52.2,104.9,52.2,104.6 M51.7,105c0,0.3-0.1,0.5-0.2,0.7
		c-0.2,0-0.2-0.3-0.5-0.2C51.2,105.4,51.2,104.9,51.7,105 M49.9,94c-0.1,0.1-0.1,0.2-0.1,0.4h-0.5c0-0.3,0.1-0.7-0.2-0.7
		C49.4,93.2,49.5,94.1,49.9,94 M49.4,95.3c0.5,0.3-0.4,0.7,0,0.8c0,0.1-0.2,0.1-0.4,0.1C48.9,95.8,49.2,95.6,49.4,95.3 M38.4,95
		c-0.2-0.2-0.5-0.3-0.4-0.8h0.6C38.5,94.4,38.3,94.6,38.4,95 M38.3,92.4c0.2-0.3-0.2-1.1,0.7-1c0,0.1-0.2,0.1-0.4,0.1
		c0,0.4,0.3,0.4,0.5,0.6C38.9,92.3,38.6,92.3,38.3,92.4 M46,96.6c0,0.3-0.2-0.2-0.5,0v-0.5H46C46.1,96.3,45.6,96.5,46,96.6
		 M46.1,89.2c-0.5,0.1-0.5-0.6,0-0.5V89.2z M46.5,88.1C46.6,88,46.7,88,47,88c0.1,0.4,0,0.4,0.1,0.8C46.6,88.9,46.6,88.4,46.5,88.1
		 M48.3,89.8c-0.5-0.2-0.8-0.5-1.2-0.7c0-0.3,0.1-0.5,0.2-0.7C47.7,88.7,48.6,89.1,48.3,89.8 M45.3,84.1c0.4-0.1,0.1,0.4,0.5,0.2
		c0.3,0.1-0.1-0.6,0.2-0.5c-0.1-0.2-0.4-0.4-0.5-0.6c0.4-0.5,1.3,0.1,1.6,0.5c0.2-0.2,0.6-0.3,1-0.4c0.1,0.2-0.1,0.9,0.2,1.2
		c-0.1,0.2-0.4,0.2-0.5,0.4c0.1,0.3,0.3-0.2,0.5,0.1v0.5c-0.2,0.2-0.2-0.1-0.5,0.1c0.3,0.7-0.7,1.2-0.4,1.9
		c-0.2,0.1-0.3,0.3-0.6,0.2c0.3-1.1-1.5-1.2-0.6-1.8c-0.1-0.4-0.2,0.3-0.5,0.1C45.9,85,45.1,84.9,45.3,84.1 M43.8,85.2
		c-0.1,0.2-0.1-0.1-0.1-0.2c-0.2,0-0.3,0.1-0.5,0.1c-0.3-0.1,0.2-0.5-0.1-0.6C42.9,84.3,43.9,84.7,43.8,85.2 M43.2,84h0.5
		C43.8,84.4,43.1,84.4,43.2,84 M43.2,78.5c0.2,0.2,0.3,0.5,0.2,0.8c-0.4-0.5-0.7-0.4-0.6,0.5h-0.4c0,0,0-0.1,0-0.1
		c-0.1,0-0.2,0.1-0.2,0.2c-0.5-0.3,0.3-0.3,0.1-0.7c0.1,0,0.2,0.1,0.2,0.2c0-0.2,0-0.4,0.1-0.8C43.2,78.5,43.2,79.2,43.2,78.5
		 M43.2,76.1c-0.4,1-1.2,0.3-2.2,0H43.2z M41.7,92.6c-0.1,0.2-0.1,0.3-0.2,0.4c0,0.1,0,0.1,0,0.2c0.3,0,0.5,0,0.5-0.2
		c0.3,0.2-0.1,0.7-0.5,0.8c-0.4-0.1-0.2-0.3-0.1-0.6c-0.1,0.1-0.1,0.2-0.2,0.3c-0.3,0.1-0.4-0.5-0.6-0.1C40.4,93,41,92.4,41.7,92.6
		 M40.4,93.4c0.3,0.2,0.4,0.5,1,0.5c-0.1,0.1-0.1,0.2-0.1,0.4c-0.2-0.5-0.7-0.2-1.2-0.5C40,93.6,40.4,93.7,40.4,93.4 M39.9,81.8
		c0.1,0.3-0.2,0.3-0.1,0.6c-0.2,0-0.2-0.1-0.4-0.1C39.5,82,39.5,81.8,39.9,81.8 M38.6,83.1c0.5,0.2,0.6,0.3,1.1,0
		c0.2,0.4-0.4,0.9-0.8,1.1c-0.5-0.2-0.1-0.6-0.6-0.8c0-0.1,0.1-0.1,0.1,0C38.5,83.4,38.6,83.3,38.6,83.1 M36.9,74.4
		c0.3,0,0.3,0.3,0.2,0.6c-0.3,0.1-0.3-0.1-0.5-0.1C36.5,74.6,36.9,74.7,36.9,74.4 M37.1,76.1c0.2,0,0,0.4,0.2,0.4
		c0.2-0.4,0.6-0.4,1.1-0.5c-0.1,0.3-0.3,0.6-0.6,0.6v-0.4c-0.5,0.2-0.5,1.1-1.1,0.7c0,0.2,0.1,0.3,0.1,0.5c-0.2,0-0.3,0.1-0.4,0.2
		c-0.6-0.2,0.4-0.8,0-1.1C36.7,76.4,37,76.3,37.1,76.1 M37.4,77.8c-0.4-0.1-0.2-0.4-0.4-0.5c0-0.3,0.4-0.3,0.5-0.5
		C37.8,77,37.2,77.4,37.4,77.8 M36.3,71c0.5,0,0.1,0.6,0,0.7C36,71.7,36.2,71.1,36.3,71 M36.7,86.6c0.1-0.4-0.4-0.1-0.2-0.5
		c0.4,0.2,0.7-0.2,1.1,0c0,0.2-0.1,0.2-0.2,0.2c0.1,0.4,0.4,0,0.8,0.1c0,0.2,0,0.3,0.1,0.4c0,0.2-0.4,0.1-0.5,0.2
		c0.1,0.2,0.1,0.5,0.2,0.6c-0.2,0.2-0.4,0.4-0.5,0.7c-0.3,0-0.2-0.5-0.5-0.5c-1.3,0.4-2.1-0.4-2.8-1.2
		C35.1,86.3,35.9,86.6,36.7,86.6 M1.6,90H1.1c-0.2-0.3-0.1-0.9-0.6-0.8c-0.2-0.3,0-0.6,0.4-0.7C0.5,89.2,1.7,89.2,1.6,90 M2.7,83.4
		c0,0.2-0.1,0.2-0.2,0.2c0.3,0.6-0.3,0.5,0.1,1c-0.1-0.1-0.2-0.1-0.4-0.1C2.1,84,2.2,83.5,2.7,83.4 M3,87.1c-0.3,0-0.2,0.2-0.5,0
		C2.6,87,2.7,87,2.8,87c-0.1-0.1-0.2-0.2-0.4-0.2c0-0.3,0.3-0.3,0.6-0.2C2.8,86.7,3,86.8,3,87.1 M2.1,87.6c0.5-0.3,0.8,0.2,1.3,0.2
		c-0.1,0.8-0.5-0.1-0.8-0.1c-0.3,0.1,0.1,0.2-0.1,0.4C2.1,88.1,2,87.9,2.1,87.6 M2.8,90.9c-0.2-0.1-0.5,0.3-0.2,0.4
		c-0.1,0.2-0.5-0.2-0.5-0.5c0.4-0.1,0.7-0.1,1-0.2c0.2,0.4,0.4,0.8,0.5,1.3C3.1,91.7,2.8,91.5,2.8,90.9 M3.5,86.3
		C3,86.3,3,86,2.7,85.9c0.2-0.3,1.1,0,0.5-0.4c0.1-0.4,0.5,0.1,0.6,0.1C3.6,86,3.3,85.8,3.5,86.3 M4.1,103.6
		c-0.1-0.2-0.4-0.2-0.1-0.5c0.3,0,0.2,0.4,0.7,0.2C4.6,103.5,4.4,103.6,4.1,103.6 M4.1,102.7c0.1-0.1,0.1-0.2,0.1-0.4
		c0.4-0.1,0.2,0.3,0.6,0.2C4.7,102.8,4.3,102.9,4.1,102.7 M6.4,98.7c0.2,0,0.2,0.2,0.4,0.2c-0.3-0.6-0.2-1.6,0.6-1.7
		c0,0.8-0.2,1.1-0.1,1.5c0.1,0.2,0.2,0,0.4,0c-0.1-0.4-0.2-0.6,0.1-1C8.6,98.4,6.7,100.2,6.4,98.7 M9.6,73.8
		c-0.2-0.3,0.6-0.3,0.2-0.5c0-0.2,0.3-0.1,0.5-0.1C10.3,73.8,10.1,74.1,9.6,73.8 M29,89.8h-0.4c0-0.5,0.1-0.9,0.5-1
		C28.8,89.1,29.2,89.7,29,89.8 M28.8,83.9c0.1,0.2-0.4,0.7-0.8,0.4c0.1-0.3,0.3-0.4,0.4-0.6c-0.1-0.3-0.7-0.1-0.6,0.1
		c-0.3-0.2,0.4-0.4,0.4-0.6c0.6,0.5,1.1-0.2,1.7-0.1c-0.1,0.1-0.1,0.2-0.1,0.4c0,0.1,0.1,0.1,0.2,0.1c-0.2,0.2-0.6,0.2-0.6,0.6
		C29.2,83.9,28.8,84.1,28.8,83.9 M29.5,86.6c-0.2-0.2-0.2-0.6,0-0.7c0.3,0,0.3,0.4,0.5,0.6C29.9,86.6,29.7,86.6,29.5,86.6 M31,83.1
		c0.2,0,0.3,0,0.4-0.1c0.4,0.4-0.1,0.8,0.5,1c0.3,0,0.3-0.3,0.5-0.5c0.4,0.5,0.1,1.2,0.9,1.3c0,0,0,0,0.1,0c0,0,0,0-0.1,0
		c-0.1,0.1-0.1,1.2-0.3,1.7c0,0.2,0.3,0.1,0.5,0.1c-0.3,0.4,0,1.1,0.4,1.2c0,0.2-0.4,0.1-0.4,0.4c0-0.3-0.6-0.5-0.4-0.7
		c-0.3,0.3-0.9,0-1.2-0.1c0.4-0.4,0.1-0.9,0.1-1.3h0.6c0.1-0.1,0.2-0.2,0.2-0.4c-0.5-0.1-0.8-0.5-1.3-0.6c0,0.2,0,0.3,0.2,0.2
		c0,0.7-1,0.3-1,1c-0.1-0.3-0.1-0.6,0-0.9c-0.4,0.1-1-0.4-1.4-0.3c0.3-0.5,1.3-0.4,1.4,0.2c0.1-0.1,0.1-0.2,0.3-0.3
		C31.1,84,31.2,84.2,31,83.1 M30.7,82.6c0.2,0.5-0.3,0.7-0.2,1.5c-0.7,0,0-0.7-0.4-1C30.1,82.8,30.7,83,30.7,82.6 M29,81.7
		c0.3-0.3,0.8-0.3,1.1,0.1c0,0.1-0.1,0.1-0.1,0c-0.8,0.3-0.7,1-1.6,1.1c0.1-0.3,0.3-0.6,0.6-0.6c-0.1-0.4-0.3,0.1-0.5,0
		c0-0.3,0.2-0.4-0.2-0.4c0-0.2,0.4-0.1,0.5-0.2c0-0.4-0.7-0.1-0.6-0.6h0.6C28.9,81.2,28.9,81.5,29,81.7 M27.7,73.7
		c0.5,0.1,0.1,0.5,0.1,0.8C27.4,74.4,27.4,73.9,27.7,73.7 M28.2,76.5c-0.2-0.3-0.2-0.4,0-0.8c0.8,0.1-0.4,1.1,0.4,1.2
		c-0.3,0.5-0.6-0.4-1.1,0.1c0.1-0.7-0.4,0-0.6-0.4C27.2,76.2,27.7,76.2,28.2,76.5 M25.2,86C25.3,85.1,26.1,86,25.2,86 M24.8,79.7
		c0.5-0.2,0.7,0.7,0.5,1.3H25c0.2-0.2,0.1-0.3-0.2-0.2C24.9,80.4,25.2,80.2,24.8,79.7 M22.3,72c0.2,0,0.2,0.2,0.4,0.2
		c-0.1,0.5-0.7,0.6-0.2,1.1c-0.5,0-0.1,0.8-0.7,0.7C21.8,73.4,22,72.6,22.3,72 M21,74.9c0.3,0,0.4,0.2,0.7,0.1
		c0,0.2-0.5,0.1-0.5,0.4C21,75.4,20.9,75.2,21,74.9 M19.2,70.4c-0.2,0-0.3,0.1-0.5,0.1c0.1-0.4-0.3-0.2-0.2-0.6
		c0.1-0.1,0.3-0.1,0.5-0.1C18.7,70.3,19.2,70.1,19.2,70.4 M18.7,74.5c-0.2-0.1-0.3-0.4-0.2-0.7C18.8,74,18.8,74.2,18.7,74.5
		 M17.5,68.9c0.5,0.2,1,0.3,1.2,0.8c-0.5-0.3-0.5-0.2-1.3-0.2C17.3,69.2,17.6,69.2,17.5,68.9 M17.4,75.2c0.5-0.1,0.3,0.3,0.7,0.2
		c-0.3,0.2-0.5,0.3-1,0.5C17.2,75.6,17.5,75.5,17.4,75.2 M17.3,73.6c0.1,0.1,0.1,0.2,0.1,0.2c-0.3,0-0.5,0-0.6,0.2c0,0,0,0,0-0.1
		C17,73.8,17,73.6,17.3,73.6 M17.2,77.6c0,0.1,0,0.1,0,0.2c0.2-0.3,0.2-0.6,0.7-0.6c0-0.2-0.2-0.2-0.2-0.4c-0.4,0.2-0.7,0.3-0.7-0.4
		c0.1-0.1,0.3-0.1,0.4-0.1v-0.1c0.1,0,0.1,0,0.1,0.1c0.1,0,0.2,0,0.2-0.1c0.1-0.1,0.2-0.1,0.3-0.1c0,0,0.1,0,0.1-0.1c0,0,0,0,0,0
		c0.4,0,0.7,0,0.6-0.2c0.1-0.2,0.2,0,0.4,0c0,0.6-0.8,0.5-1,1c0,0,0,0-0.1,0c0,0,0,0,0,0c0.1,0.2,0.2,0,0.4,0
		c-0.3,0.5-0.1,1-0.3,1.6c0.4,0,0.7-0.5,1,0.1c0.4,0,0.1-0.6-0.2-0.6c0.2-0.2,0.2-0.6,0.7-0.5c-0.3,0.5,0.8,2.3-0.2,2.7
		c0.2,0.2,0,1,0.4,1.1c-0.2,0.3-1.1-0.4-0.5-0.5c-0.3-0.1-0.2-0.6-0.7-0.5c0.3-0.5-0.1-0.5-0.1-1.1C18.3,79,18.2,79,18,78.9
		c0,0.1-0.1,0.2-0.2,0.3c0.2,0.3,0.2,0.9,0.6,1c-0.3,0.3-0.4,0.9-0.4,1.6c-0.2,0-0.2,0.1-0.4,0.1c-1.2-0.7-1.2-1-1.5-2.1
		c0.2-0.1,0.4,0,0.6,0c0-0.2,0.1-0.5,0.1-0.8c0.4-0.1,0.6-0.3,0.6-0.5c-0.2-0.1-0.2-0.1-0.2,0.3c-0.1-0.1-0.2-0.1-0.2-0.2
		c0.1-0.3,0.3-0.4,0.1-0.5c-0.2,0.1-0.6-0.5-0.8-0.1c-0.2-0.1-0.2-0.3-0.2-0.5C16.7,77.4,16.8,77.6,17.2,77.6 M16,82.4
		c0.2,0.2,0.2,0.6,0.5,0.7c0,0.3-0.5,0.1-0.7,0.1C15.9,83.1,16,83.1,16,82.4 M16.4,84.6c0.4-0.2,0.2,0.6,0.4,0.8
		c-0.1-0.1-0.1-0.3-0.4-0.2C16.4,85,16.8,84.7,16.4,84.6 M16.8,78.6c0.2,0.2-0.1,0.7-0.6,0.6C16.3,78.8,16.3,78.5,16.8,78.6
		 M15.1,78.9c0.1,0,0.1,0.2,0.1,0.4c0.3,0,0.6,0,0.6-0.4c0.2,0.1,0.4,0.2,0.4,0.5c-0.2-0.2-0.7-0.1-0.6,0.4
		C15.2,79.7,15.1,79.4,15.1,78.9 M15.6,90.5v1c-0.1-0.4-0.5-0.5-0.5-1H15.6z M14.7,69c0,0.3,0,0.5-0.1,0.6
		C14.2,69.6,14.2,68.9,14.7,69 M13.5,70.4c0.3-0.4,0.7,0.3,0.6,0.7C13.7,71.1,13.9,70.5,13.5,70.4 M14.3,72.1C14,72,14,71.6,14,71.3
		c0.2,0,0.2,0.3,0.5,0.2C14.5,71.8,14.2,71.8,14.3,72.1 M15.7,96.4c-0.4-0.1-0.3-0.8-0.8-0.7c0.2-0.5,0-0.7-0.4-1
		c0-0.2,0.3-0.1,0.5-0.1c0,0.4,0.5,0.3,0.6,0.6c0.2,0,0.2-0.1,0.4-0.1c0-0.1-0.2-0.1-0.4-0.1c0.1-0.4,0.6-0.1,0.7,0.1
		C16.3,95.8,15.7,96,15.7,96.4 M16.1,87.6c0.1-0.1,0.3-0.1,0.2-0.4c0.4,0.2-0.2,0.5,0,0.8C15.7,88.2,16.5,87.7,16.1,87.6 M17,88.6
		c-0.1,0.1-0.1,0.2-0.1,0.4h-0.6C16.4,88.7,16.7,88.3,17,88.6 M16.8,95.7c-0.2,0-0.3-0.2-0.2-0.5c0.1,0.1,0.3,0.2,0.6,0.1
		C17.2,95.6,16.8,95.4,16.8,95.7 M17.3,87.4c0.1-0.2,0.3-0.4,0.5-0.6c-0.2-0.1-0.5-0.1-0.7-0.2c-0.2,0.3-0.5,0.3-0.6,0.6
		c-0.2,0-0.2-0.7-0.4-0.2c-0.2-0.1,0.3-0.5,0.4-0.7c0.2,0.3,0.4,0.2,0.7,0.1c0,0,0,0,0,0.1c0.1-0.1,0.2-0.1,0.2-0.3
		c-0.2,0-0.4-0.1-0.7-0.1c-0.4-0.3,0.9,0.1,0.6-0.5c0.2,0.1,0.4,0.2,0.5,0.3c-0.1-0.2-0.2-0.4,0-0.7c-0.2-0.2-0.4,0.1-0.6-0.2
		c0-0.3,0.9-0.3,0.8,0c0.4,0,0.3-0.8-0.1-0.7c0.2-0.2,0.3-0.6,0.6-0.6c0,0.5,0.2,1.1,0.4,1.9c0.2-0.3,0.2-0.5,0.4-1
		c0.3,0.1,0.6,0.2,1.1,0.1c-0.1,0.3,0.4,0.8,0.5,1c0.1,0.3-0.2,0.2-0.4,0.4c0,0.3,0.2,0.3,0.1,0.6c0.5-0.1,0.8-0.4,1.3-0.2
		c-0.4,0.4-0.3,0.8-0.8,1.5c-0.1-0.2-0.3-0.3-0.4-0.6c0.2,0,0.5,0.1,0.5-0.1c-0.4-0.2-0.7-0.4-1.2-0.2c0-0.4-0.1-0.7-0.4-0.8
		c-0.1,0.1-0.1,0.2-0.2,0.3c0.1,0.2,0.3,0.4,0.4,0.7c-0.3,0-0.3,0.2-0.6,0.1c-0.1-0.2-0.1-0.4-0.1-0.5c0,0,0,0,0,0
		c0,0.2,0,0.3,0.1,0.4C19.2,87.1,19,87,18.9,87c0,0.1-0.1,0.2-0.2,0.3c0,0.1,0,0.3,0,0.4c-0.1,0-0.2,0-0.2,0.1
		c-0.2-0.1-0.3-0.3-0.4-0.4c0,0,0,0,0,0c0,0,0,0,0,0C17.9,87.3,17.6,87.2,17.3,87.4 M19.3,90.1c-0.1,0-0.1,0.1-0.1,0.2h-0.4
		c0.3-0.1,0.3-0.6,0.7-0.5c-0.1,0.3-0.2,0.5,0.1,0.6c-0.1,0.2-0.3,0.2-0.5,0.2C19.3,90.6,19.3,90.4,19.3,90.1 M19.2,88.4
		c-0.3-0.2-0.4,0.4-0.1,0.4c0,0.3-0.3-0.2-0.5,0.1c0.3,0.1,0.2,0.7,0.2,1.1c-0.8-0.1-0.4-0.8-0.6-1.2c0.7-0.2,0.3-0.9,0.8-1.1
		C18.9,88.1,19.2,88.1,19.2,88.4 M18.9,90.4c0,0.3-0.6,0.3-0.7,0.1C18.2,90.3,18.7,90.5,18.9,90.4 M19.1,92.7
		c-0.5-0.2-0.3,0.3-0.5,0.5c-0.2,0-0.1-0.4-0.4-0.4c-0.3,0.1,0.2,0.3-0.1,0.5c-0.4-0.1-0.2-0.4-0.4-0.5c0.2-0.1,1-0.7,0.4-0.8
		c-0.1-0.6,0.8-0.4,0.7-1C19.5,91.5,18.5,92.3,19.1,92.7 M19.2,91.6c0.1-0.4,0.4-0.5,0.7-0.4c-0.1,0.2-0.2,0.3-0.2,0.5
		C19.4,91.7,19.4,91.6,19.2,91.6 M19.3,92.6c0.3,0.1,0.5,0.5,0.2,0.7C19.3,93.2,19.2,92.8,19.3,92.6 M19.9,94.6
		c-0.3,0-0.4-0.2-0.4-0.5C19.8,94.1,19.9,94.3,19.9,94.6 M20.4,88h-0.6c-0.1-0.4-0.1-0.4,0-0.7c0.1,0.1,0.4,0.1,0.7,0.1
		C20.6,87.7,20.3,87.6,20.4,88 M20.7,92.4c-0.1-0.2,0.5-0.3,0.1-0.4c0.1-0.3,0.6-0.4,1-0.5c0,0.2-0.9,0.4-0.2,0.5
		C21.3,92.3,21.1,92.8,20.7,92.4 M21.8,94.1c0.1-0.2,0.1-0.5-0.1-0.6c-0.1,0.1-0.1,0.3-0.1,0.4c-0.3,0.1-0.4-0.7-0.1-0.7
		c0,0,0,0,0.1,0c0.3-0.2,0.6-0.3,0.3-0.8c0.4,0,0.3,0.3,0.7,0.1C22.9,93.5,23,94.1,21.8,94.1 M23,81.2c0.3,0.1,0.3-0.2,0.6-0.1
		C23.8,81.6,22.9,81.7,23,81.2 M24.2,93.5c-0.3,0.1-0.4,0.2-0.7,0c0.2-0.5,0.4-1.8,1.3-1.5C24.7,92.6,24,93,24.2,93.5 M25.2,89.4
		c-0.3,0.3-0.7,0-1.2,0.2c0.1,0.1,0.2,0.2,0.4,0.2c-0.1,0.4-0.3-0.2-0.7,0.2c0.1-0.1,0.1-0.2-0.1-0.2c-0.1-0.3,0.2-0.2,0.2-0.4
		c0-0.1-0.4-0.4-0.4-0.1c-0.3-0.2,0.3-0.5,0.6-0.5c0-0.2,0.1-0.5-0.1-0.5c0-0.5,0.5,0,0.5-0.2c0.4,0.1-0.1,0.5-0.1,0.6
		C24.4,88.9,25.4,88.6,25.2,89.4 M25.8,88.7c-0.3,0.3-0.7,0-1-0.1C24.9,88.4,25.9,88.3,25.8,88.7 M26.8,78.4c-0.1,0-0.1-0.1,0-0.1
		c-0.3-0.2,0-0.4-0.2-0.6c0.1-0.2,0.4-0.2,0.5-0.5c0.3,0.2,0.4,0.6,0.5,1C27.4,78.3,27,78.2,26.8,78.4 M27,88.6
		c0.3-0.4,0.1-0.8,0.5-1.3c0.5,0.1-0.1,0.6,0.5,0.7v0.4C27.6,88.5,27.4,88.6,27,88.6 M2.1,93c0-0.3,0-0.5-0.2-0.5
		c0,0.3-0.3,0.1-0.4,0.4C1.7,93,1.8,93.1,2.1,93 M165.6,95.9c0.1-0.2,0.4-0.1,0.2-0.5h-0.4C165.5,95.6,165.4,95.9,165.6,95.9
		 M62.2,66.7c0,0-0.1,0-0.1,0C62.1,66.7,62.1,66.7,62.2,66.7C62.1,66.7,62.2,66.7,62.2,66.7 M34.9,93.3c0.4,0.2,0.7,0.3,1-0.1
		c-0.3-0.1-0.4-0.9-0.1-1.1c0.1,0,0.1,0,0.1-0.1c-0.3,0.1-0.7,0.1-1.2,0.1c0,0.2-0.1,0.3-0.1,0.4c0.3,0.3,0.5-0.1,0.7-0.2
		c0,0.2,0.1,0.3,0.1,0.4C35.3,92.9,34.8,92.9,34.9,93.3 M78.3,77.2c0,0-0.1,0-0.1,0c0,0-0.1,0-0.1,0.1
		C78.2,77.2,78.3,77.2,78.3,77.2C78.3,77.2,78.3,77.2,78.3,77.2 M59,177.8c0.3-0.5-0.3-0.5-0.6-0.7c0.2-0.5,1.1,0.2,1.1,0.2
		c0.9-0.4-0.8-0.5-0.6-1c-0.3,0.2-0.6,0.4-1,0.5c-0.5-0.4-0.7-0.8-0.4-1.6c0.2,0.1,0.1,0.4,0.5,0.2c0.1,0.5,0,0.4,0.1,0.7
		c0.9-0.2,1.7,0.6,2.5-0.1c-0.1,0.4-0.1,0.5,0.2,0.6c0,0.2-0.3,0.1-0.5,0.1c-0.1,0.1-0.2,0.2-0.2,0.4c0.1,0,0.2,0,0.4,0
		c4.5-3.4,7.6-7.9,9.6-12.1c0,0-0.1,0-0.1,0v-0.6c-0.2,0-0.4,0-0.5-0.1c0-0.1,0.1-0.1,0.2-0.1c-0.1-0.1-0.3-0.1-0.2-0.4
		c0.2-0.1,0.6,0,0.7-0.2c0.1,0,0.1,0.1,0.1,0.2c0.2-0.1,0.4-0.3,0.5-0.5c0,0,0.1,0.1,0.1,0.1c0.1-0.3,0.3-0.6,0.4-0.9
		c-0.7-0.1-0.6,0.6-1,0.8c0-0.3,0.1-0.7-0.2-0.7c-0.5,0.8-1-0.7-1.2-0.1c-0.1,0-0.1,0-0.1-0.1c0-0.1,0-0.1-0.1-0.1
		c0.1-0.2,0.8-0.4,1-0.1c0-0.1,0.3-0.5,0.7-0.7c0,0,0-0.1,0-0.1c0.1-0.2,0.5,0,0.5-0.2c0.2,0.1,0.2,0.2,0.1,0.2
		c0.1,0,0.1,0.1,0.2,0.1c0.2,0,0-0.4,0.2-0.4c0.3,0.4,0.4,0.2,0.5,0.2c0-0.1,0.1-0.2,0.1-0.2c0,0,0,0,0,0c0,0-0.1,0-0.1-0.1
		c0-0.1,0.1-0.1,0.2-0.1c0.3-0.7,0.5-1.5,0.7-2.1c0-0.2-0.1-0.4-0.1-0.7h0.3c0-0.1,0-0.1,0.1-0.2c-0.1-0.2-0.1-0.2,0-0.4
		c-0.1-0.1-0.2-0.2-0.3-0.3c-0.3,0.2-0.4,0.4-0.2,0.8c-0.2,0-0.3-0.1-0.5-0.1c-0.1-0.3,0.6-0.8-0.1-0.7c-0.1-0.4,0.3-0.3,0.4-0.5
		c0.1,0,0.1,0.1,0.1,0.1c0.2-0.2,0.4-0.6,0.6-0.8c0.2,0,0.3,0.3,0.4,0.6c0.2-0.8,0.4-1.4,0.5-1.9H62.4c-0.3,4.6-1.2,8.4-2.6,11.5
		c0.3,0,0.6-0.2,0.7-0.7c0.8,0.2,0.3-0.3,0.8-0.4c0.1,1.1-0.7,1.3-0.7,2.2c0.5,0,0.5-0.5,1-0.5v0.5c-0.5-0.4-0.4,0.5-0.7,0.6
		c-0.2-0.1,0-0.6-0.5-0.5c-0.3,0-0.1,0.4-0.1,0.6c0,0.2,0.2,0.3,0.5,0.2c-0.2,0.4-0.5,0.6-0.7,0.8c-0.2-0.2-0.4-0.3-0.4-0.7
		c0.5,0.1-0.2-0.3,0.4-0.2c0-0.1-0.2-0.1-0.4-0.1c0.5-0.2,0.3-0.9,0.6-0.7c-0.1-0.4,0.1-0.6,0.1-0.8c-0.4-0.1-0.2,0.4-0.2,0.6
		c-0.5-0.1-0.4-0.2-0.5-0.5c-0.3,0.7-0.7,1.4-1.1,2c0.2,0.2,0.4,0.4,0.7,0.7c-0.5,0.1-0.6-0.2-1-0.2c-3,4.8-7.3,7.5-11.9,9
		c0,0,0,0.1,0,0.2c-0.1,0-0.1-0.1-0.2-0.1c-0.9,0.3-1.8,0.5-2.7,0.7c0.1,0.2,0.1,0.3-0.1,0.4c-0.2-0.1-0.2-0.3-0.2-0.4
		c0,0-0.1,0-0.1,0c0,0.2,0,0.4-0.5,0.3c0,0.3,0.5,0.1,0.7,0.1c0.1,0.7-0.3,0.8-0.5,1.2H42c0,0.3,0,0.5,0.4,0.5
		c-0.1,0.2-0.4,0.1-0.2,0.5c-0.1-0.2-0.3-0.3-0.4-0.6c-0.5-0.1-0.3,0.3-0.7,0.2c-0.1-0.4,0.2-0.4,0.2-0.6c0-0.3-0.1-0.4-0.4-0.4
		c-0.3,0.1,0.2,0.3,0.1,0.6c-0.3-0.1-0.3-0.5-0.6-0.6c-0.2,0-0.2,0.7,0.1,0.5c-0.1,0.4-0.4,0.1-0.7,0.1c0-0.6-0.1-0.6-0.1-1.2
		c0.3,0.4,0.5-0.3,0.7,0c0.1,0.3-0.1,0.3-0.1,0.5h0.6v-0.7c0.3-0.1,0.7-0.1,0.8,0c0.1,0,0.2-0.1,0.2-0.2c-1.4,0.2-2.8,0.4-4.2,0.5
		c0.1,0.1,0.2,0.2,0.3,0.2c0.1,0.5-0.3,0.7,0.2,1c-0.2,0.1-0.3,0.3-0.6,0.4c-0.1-0.5-0.3-1.1-0.2-1.5c-7.1,0.4-12.9-1-12.9-1
		c16.7,6.9,27.9,4.5,35.4-0.9C59.6,177.6,59.4,177.4,59,177.8 M68.5,166.4c-0.1,0-0.5-0.3-0.5,0C67.6,166.1,68.7,165.8,68.5,166.4
		 M69.8,159.3c-0.2,0.2-0.3,0.6-0.7,0.6C69.1,159.5,69.3,159.3,69.8,159.3 M68.7,161.2c0.2,0,0.7-0.4,0.1-0.4
		c0.4-0.2,0.1-0.4,0.2-0.6c0.4,0,0.1,0.7,0.7,0.5c-0.1,0.1-0.2,0.2-0.4,0.2c0,0.3,0.5,0.1,0.7,0.1c0.1,0.5-0.7,0.5-0.7,0.1
		c-0.2,0.2-0.2,0.5-0.6,0.5C68.9,161.5,68.7,161.5,68.7,161.2 M68.4,163.1c0.4,0,0.4,0.9-0.1,0.7C68.4,163.4,68.7,163.5,68.4,163.1
		 M67.5,164.7c-0.3-0.2,0.1,0.1,0.2,0.1c0.3-0.2-0.1-0.7-0.1-1.1c0.2,0,0.2,0.3,0.5,0.2c-0.2,0.2-0.2,0.4,0,0.6
		c0.3,0.2,0.5-0.3,0.5,0c0.3,0-0.2-0.2,0-0.5c0.4,0.2,0.6,0,1-0.1c0,0.8-0.1,0-0.5,1c-0.5,0-1,0.2-1.2,0.5c0,0.1,0.2,0.1,0.2,0.2
		c0.2-0.1,0-0.2,0-0.4c0.3,0,0.4,0.1,0.4,0.4c-0.2,0.2-0.4,0.2-0.6,0c-0.2,0-0.1,0.4-0.4,0.4c0.1,0.1,0.2,0.2,0.4,0.2
		c-0.4,0.2-0.2,1.1-0.7,1.1c-0.1-0.3,0.2-0.9-0.1-1C67.6,166.3,67.4,165.6,67.5,164.7 M66.1,159.4c0.4-0.1,0.4,0.4,0.4,0.7
		C66.2,160.1,66.1,159.9,66.1,159.4 M63.2,160.8c0,0.5-0.2,0.4,0.4,0.7c0.2,0.9-1.1,0.7-1.2,0.6C62,161.5,62.4,160.6,63.2,160.8
		 M61.5,168.7c-0.2-0.4-0.5,0-0.8-0.2C60.8,168.2,61.7,168.3,61.5,168.7 M60.8,169.1h0.6c-0.2,0.5-0.1,0.7-0.2,1.3h-0.6
		C61,170,60.9,169.6,60.8,169.1 M33.7,180.5c0.2-0.4,0.4-0.3,0.8-0.2C34.5,180.7,33.9,180.7,33.7,180.5 M36.6,181.8
		c0.1-0.4,0-0.3,0.1-0.6c0.2,0.3,0.4,0.7,0.8,0.4c0,0.2,0,0.3,0.1,0.4C37.3,182.3,37.1,181.4,36.6,181.8 M41.3,182
		c0-0.2,0.1-0.2,0.2-0.2c-0.1-0.1-0.1-0.2-0.1-0.4c0.2,0,0.2,0.1,0.4,0.1C41.8,181.8,41.8,182.1,41.3,182 M45.2,179.4
		c-0.3,0-0.1-0.4-0.1-0.6c0.4-0.1,0.5,0.3,0.5,0.6C45.3,179.4,45.2,179.2,45.2,179.4 M46.5,181.3c-0.4-0.2,1.2-0.6,0.4-0.8
		c0.4-0.2,0.6-0.4,1-0.1c0,0.2-0.4,0-0.4,0.2c0.2,0.4,0.6,0.2,1,0.1C48.2,181.3,47,180.9,46.5,181.3 M50.2,181.8
		C49.5,182.5,49.3,180.8,50.2,181.8 M78.7,83.5c0,0-0.1,0-0.1,0c0,0.1,0,0.1,0,0.2C78.6,83.6,78.6,83.6,78.7,83.5 M94.1,70.8
		c0-0.3,0.3-0.1,0.4-0.4c-0.1-0.1-0.3-0.2-0.6-0.1C93.8,70.6,93.9,70.8,94.1,70.8 M77.3,92.8c-0.2,0-0.3,0.1-0.5,0.1
		c-0.1,0.4,0.4,0.1,0.2,0.6c0.2,0,0.4,0,0.5-0.1C77.6,93.1,77.2,93.2,77.3,92.8 M36.1,93.7c-0.1,0.1-0.3,0.2-0.5,0.3
		c0.3,0.1,0.7,0.3,1.1,0.4C36.7,93.9,36.1,94.1,36.1,93.7 M36.8,91.8h-0.2c0,0.1,0.1,0.2,0.1,0.3C36.7,92,36.8,91.9,36.8,91.8
		 M71.8,161.5C71.8,161.5,71.9,161.4,71.8,161.5C71.8,161.4,71.8,161.4,71.8,161.5 M71.5,141.3H71C71.1,141.4,71.2,141.5,71.5,141.3
		C71.5,141.3,71.5,141.3,71.5,141.3 M85.3,183.5c0.1,0.2,0.1,0.4,0.4,0.5c0,0,0,0.1,0,0.1c0,0,0.1-0.1,0.1-0.2c0.1,0,0.1,0,0.2,0
		c0-0.2,0-0.4-0.2-0.6C85.5,183.3,85.5,183.5,85.3,183.5 M59,191.3c0.1,0.1,0.2,0.2,0.2,0.4c0.2-0.1,0.4-0.2,0.7-0.2
		c-0.1-0.2-0.5-0.2-0.5-0.5c0,0,0,0-0.1,0c-0.3,0.2-0.5,0.3-0.8,0.5C58.8,191.5,58.9,191.6,59,191.3 M168.1,87.4
		c0.1,0,0.2,0,0.2-0.1c0-0.1,0-0.3,0-0.4C168.2,87,168.1,87.1,168.1,87.4 M72.8,157C72.8,157,72.8,157,72.8,157
		c-0.1-0.1-0.2-0.2-0.3-0.3C72.5,156.8,72.4,157,72.8,157 M100.4,149.5h6.2c2.7,0,4.8-1.8,4.8-4.1c0-2.3-2.2-4.1-4.8-4.1H102
		c-0.1,0.4-0.3,0.3-0.7,0.2c0.1-0.1,0.2-0.2,0.3-0.2H84.9c0,0,0,0,0,0c0,0,0,0,0,0h-12c-0.2,0.3-0.4,0.7-0.1,0.7
		c-0.2,0.3-0.6-0.2-0.7-0.4c-1.3,0.5-1.7,0.9-1.6,2.7c-0.3,0-0.3,0.2-0.6,0.1c0.1-0.4-0.3-0.2-0.2-0.6c0.3,0,0.4,0.2,0.6,0
		c-0.2-0.9,0.2-1.5,0.3-2.5H62c-2.7,0-4.8,1.8-4.8,4.1c0,0.1,0,0.1,0,0.2c0.1,0,0.1,0,0.2-0.1c0,0.2-0.1,0.4-0.1,0.7
		c0.5,1.9,2.4,3.3,4.7,3.3h0.4c0-0.1,0-0.2,0-0.3c0.2,0,0.2,0.1,0.2,0.3h0.1c0.1-0.5-0.2-0.8,0-1c-0.2-0.2-0.5,0.1-0.6-0.4
		c0.1-0.3,0.4-0.4,0.5-0.8c0.4,0.2,0.5,0,1,0c-0.1-0.2-0.1-0.3,0-0.5c0.3-0.1,0.3,0.2,0.6,0.1c0.1,0.5,0.1,0.5,0,1
		c-0.6,0-0.7,0.5-0.8,1c0.1,0.4,0.4-0.1,0.7,0c0,0.6-0.5,0.2-1,0.2c0,0.2,0,0.3,0,0.3h10c-0.1-0.1-0.2-0.1-0.4-0.2
		c0.1-0.1,0.1-0.2,0.1-0.4c0.4,0.1,0.6-0.1,1.1,0.1c0,0.2-0.1,0.3-0.2,0.5h3.2c0.2-0.2,0.5-0.4,0.4-0.9c0,0,0.3-0.1,0.6-0.3
		c0.1-0.1,0.1-0.2-0.1-0.2c0,0-0.1,0.1-0.1,0c0,0,0,0,0.1,0c0.1-0.2,0.5-0.9,0.9-0.9c-0.2,0.3-0.2,0.4-0.2,0.5c0,0,0,0,0,0
		c0.4-0.1,0.6,0.1,0.8,0.2c-0.2,0.4,0.1,1.3-0.7,1.5h13.8c0-0.1,0.1-0.2,0.1-0.2c0.1,0.1,0.1,0.2,0.1,0.2h7.3c0-0.1-0.1-0.3,0-0.5
		C100.1,149.2,100.2,149.3,100.4,149.5 M58.6,146.9c-0.1-0.1-0.3-0.1-0.5-0.1c0.1-0.3,0.4-0.4,0.8-0.4
		C58.8,146.5,58.6,146.6,58.6,146.9 M60.7,148.7c-0.1-0.4,0.2-0.4,0.4-0.5c-0.1-0.1-0.1-0.3-0.1-0.5c-0.6,0.3-0.9,0.3-1.7,0.4
		c0.2-0.3,0.9-0.4,1.1-0.4c0-0.3-0.2-0.3-0.1-0.6c0.3-0.1,0.4,0.5,0.6,0.1c0,0.2,0.2,0.3,0.5,0c0.1,0.2,0.1,0.4,0.2,0.8
		C61.1,148.4,61.1,148.5,60.7,148.7 M61.9,146.3c0.3-0.3,0.4,0.1,0.8,0C62.9,146.9,61.8,146.8,61.9,146.3 M65.2,148.8
		c-0.3-0.5-0.3-0.2-0.8-0.1c-0.1-0.2-0.3-0.3-0.2-0.6c0.2,0.1,0.8-0.2,0.5-0.2c0.1-0.3,0.5,0,0.7,0c-0.1,0.3-0.2,0.3-0.4,0.1
		C65.2,148.2,65.5,148.3,65.2,148.8 M69.4,142.6c0.3-0.1,0.3,0.1,0.5,0.1c0,0.2-0.2,0.3-0.5,0.2V142.6z M72.4,144.7
		c0.4-0.4-0.3-0.5-0.1-1.1c0.7,0-0.1,0.6,0.5,0.6C72.8,144.5,72.8,144.8,72.4,144.7 M73,143.2c-0.5-0.1-0.4-0.9-0.1-1.1
		c0.3,0,0.4,0.2,0.6,0.2C73.5,142.8,73.1,142.9,73,143.2 M73.2,142.2c0-0.2-0.1-0.3-0.2-0.4c0.2-0.3,0.4,0.3,0.7,0.2
		C73.7,142.2,73.4,142.1,73.2,142.2 M77.1,141.8c0,0.4-0.5,0.2-0.8,0C76.2,141.6,77.1,141.6,77.1,141.8 M75.1,149.5
		c-0.3-0.1,0.2-0.5,0.1-0.7c0.4,0.1,0.5-0.2,0.7,0C75.7,149.1,75.4,149.3,75.1,149.5 M76.5,149.3c-0.1-0.1-0.2-0.1-0.4-0.1
		c0.1-0.5-0.3-0.6,0.1-0.8c0.4-0.1,0.1,0.4,0.6,0.2c-0.1-0.1-0.2-0.2-0.4-0.2c0.1-0.2,0.3-0.3,0.6-0.2
		C77.3,148.9,76.4,148.5,76.5,149.3 M103.6,144.6c-0.3,0.1-0.2-0.2-0.2-0.4c-0.1,0-0.2,0-0.2,0.1c-0.4-0.5,0.5-0.4,0.6-0.1
		C103.7,144.3,103.6,144.4,103.6,144.6 M103.1,143c-0.4,0.3-0.2,0.4,0.2,0.2c-0.2-0.2,0-0.6-0.5-0.5c-0.1-0.1,0.7-0.4,1.1-0.4
		c-0.3,0.3,0.1,0.3,0,0.7c-0.5,0.2-0.9,0.7-1.5,0.5C102.5,143.2,102.7,143,103.1,143 M93.8,143.5c0.4-0.4,0.6,0.5,0.5,1.1
		c-0.5-0.1-0.6-0.6-0.8,0c-0.3,0.1-0.2-0.2-0.5-0.2C93,143.9,94,143.8,93.8,143.5 M93.5,145.6c-0.2,0-0.3-0.1-0.5-0.1
		c0.1-0.1,0.5-0.4,0.1-0.5c0.2,0.1,1.1-0.2,1.2,0.4C93.9,145.7,93.7,145,93.5,145.6 M94.9,145.8c-0.3,0-0.4,0.2-0.6,0
		c0.1-0.2,0.4-0.4,0.6-0.2V145.8z M97.2,148.1c-0.7-0.4-0.8-0.8-0.8-1.7c0.2,0,0.2-0.3,0.5-0.2c-0.1,0.5,0.3,0.3,0.2,0.7
		c-0.2,0.1-0.3,0.3-0.4,0.6c0,0.3,0.2-0.2,0.5,0C97.1,147.9,97.4,147.8,97.2,148.1 M97.9,148c-0.4,0.1-0.3-0.7,0.1-0.5
		C98,147.7,97.9,147.7,97.9,148 M99.4,147.1c-0.4-0.3-0.4,0.4-0.8,0.4c0.3-0.4,0.1-0.5,0.4-0.8c0.1,0,0.1,0.1,0,0.1
		C98.8,147.1,99.6,146.6,99.4,147.1 M99.7,145.9c0,0.3,0.2,0.2,0,0.5c-0.3,0.1-0.2-0.2-0.4-0.2c-0.3,0,0.2,0.2,0,0.5
		c-0.3,0-0.6,0-0.7-0.1c-0.1-0.3,0.2-0.2,0.2-0.5c-0.7-0.6-0.5,0.8-1.2,0.6c-0.1-0.4,0.4-0.2,0.4-0.5c-0.1-0.1-0.7,0.1-1-0.1
		c0.7-0.7,0.6-1.4-0.4-1.5c0.1-0.3,0.4,0.2,0.6-0.1c0.1-0.4-0.3-0.2-0.2-0.6c0.1-0.1,0.2-0.1,0.2-0.2c0.3,0.1,0.5,0.3,0.7,0.5
		c0.2-0.1,0-0.2,0-0.4c0.3,0,0.5,0,0.5,0.2c0.1-0.2,0-0.3,0.5-0.1c0.4-0.4,0.9-0.6,1.3-1c0,0.7,0.7,0.7,1.2,0.8
		c0.2-0.2,0.4-0.4,0.8-0.4c-0.2,0.1-0.3,0.3-0.6,0.4c-0.1,0.4,0.1,0.4,0.1,0.7c0.2-0.1,0.3-0.1,0.5,0c0.1,0.4-0.4,0.2-0.5,0.5
		c0,0.2,0.3,0.1,0.5,0.1c-0.1,0.3,0.1,0.3,0.1,0.6c0,0,0.1,0,0.1,0c-0.1,0.3-0.6,0-0.6-0.1c0-0.1,0.1-0.1,0.2-0.1
		c-0.1-0.1-0.1-0.2-0.2-0.2C102.3,146.2,100.5,145.9,99.7,145.9 M75.3,167.3c-0.2-0.3-0.2-0.3-0.3-0.3c0,0.1-0.1,0.2-0.1,0.4
		C75,167.3,75.1,167.3,75.3,167.3 M78.6,149c0-0.3,0-0.5,0.1-0.6C78.4,148.4,78.1,149.1,78.6,149 M71.3,161.6
		c-0.3,0.2,0.1,0.3,0.3,0.5c0.1-0.2,0.2-0.4,0.2-0.6c-0.1-0.1-0.1-0.2-0.2-0.2C71.6,161.4,71.6,162,71.3,161.6 M167,89.9
		c0,0.2,0.1,0.7,0.1,1.3h-0.5c0,0.2,0.5,0.1,0.4,0.5c-0.6,0.2-0.2,0.7-0.7,1c0.3-0.1,1-0.3,0.7-0.5c0.2-0.4,0.2,0.3,0.5,0.1
		c0,0.2-0.1,0.3-0.2,0.4c0.1,0.1,0.3,0.1,0.2,0.4c0.1,0,0.1-0.1,0.2-0.1c0.1-0.4,0.2-0.8,0.2-1.2c-0.1,0-0.1,0-0.2,0
		c0,0-0.1,0.1-0.1,0.1c0,0-0.1-0.1-0.1-0.1c0,0,0,0-0.1,0c0,0,0-0.1,0-0.1c0-0.1-0.1-0.3-0.3-0.4c0-0.3,0.5-0.1,0.6,0
		c0,0.1,0,0.1,0,0.1c0,0,0,0,0.1,0c0-0.2,0.1-0.4,0.1-0.6c0,0,0,0,0,0.1c-0.2-0.1-0.2-0.4-0.2-0.6c0.2,0,0.3,0,0.3,0.2
		c0-0.2,0-0.3,0.1-0.5C167.8,90.1,167.3,90.1,167,89.9 M0.5,92c0,0.2,0.1,0.5,0.1,0.7c0-0.1,0.1-0.1,0.3-0.1
		C0.9,92.3,0.6,92.2,0.5,92 M167.3,93.8c0.1,0.6-0.7,0.9-0.8,1.6c-0.1,0.4,0.6,0.1,0.6,0.4c0,0,0,0,0,0c0.1-0.5,0.3-1.1,0.4-1.6
		C167.4,94,167.4,93.8,167.3,93.8 M167.1,88.1c0,0.2-0.1,0.3-0.1,0.4c0.3,0.3,0.5-0.1,0.7-0.2c0,0.2,0.1,0.3,0.1,0.4
		c-0.1,0.3-0.5,0.3-0.5,0.7c0.3,0.1,0.6,0.3,0.8,0.1c0-0.1,0-0.2,0-0.3c-0.2-0.2-0.2-0.8,0-1c0,0,0,0,0.1,0c0,0,0-0.1,0-0.1
		C168,88.1,167.6,88.1,167.1,88.1 M0.8,93.4C0.8,93.4,0.8,93.4,0.8,93.4c0-0.2,0-0.3-0.1-0.4C0.7,93.1,0.7,93.3,0.8,93.4"/>
</g>
</svg>
