<?xml version="1.0" encoding="utf-8"?>
<!-- Generator: Adobe Illustrator 21.1.0, SVG Export Plug-In . SVG Version: 6.00 Build 0)  -->
<svg version="1.1" id="Layer_1" xmlns="http://www.w3.org/2000/svg" xmlns:xlink="http://www.w3.org/1999/xlink" x="0px" y="0px"
	 viewBox="0 0 302.6 302.6" style="enable-background:new 0 0 302.6 302.6;" xml:space="preserve">
<style type="text/css">
	.st0{opacity:0.12;}
	.st1{fill:#09343D;}
</style>
<g class="st0">
	<path class="st1" d="M73.5,72.4c0.9,0.7,1.5,1.6,1.9,2.4c0.4,0.9,0.6,1.8,0.6,2.7c0,0.9-0.2,1.9-0.5,2.8c-0.4,0.9-0.9,1.7-1.5,2.5
		l-6.4,7.5c-0.2,0.3-0.4,0.4-0.6,0.4c-0.2,0-0.4-0.1-0.5-0.3L49.3,75.8c-0.2-0.2-0.3-0.3-0.3-0.5s0-0.4,0.2-0.6l6-7.1
		c1.6-1.9,3.3-2.9,5.1-3.1c1.7-0.2,3.4,0.4,5,1.8c0.2,0.2,0.5,0.4,0.7,0.8c0.3,0.3,0.5,0.7,0.7,1.1c0.2,0.4,0.4,0.9,0.4,1.4
		c0.1,0.5,0.1,1.1-0.1,1.7l0.1,0.1c0.7-0.4,1.3-0.6,1.9-0.6c0.6,0,1.2,0.1,1.8,0.2c0.6,0.2,1.1,0.4,1.5,0.7S73.2,72.2,73.5,72.4
		 M61.7,71c-0.5-0.4-1-0.6-1.6-0.6c-0.6,0-1.2,0.4-1.8,1.1L56.1,74l3.4,2.9l2.3-2.7c0.5-0.6,0.7-1.2,0.7-1.7
		C62.4,71.9,62.2,71.4,61.7,71 M69.4,76.7c-0.6-0.5-1.2-0.7-1.9-0.8c-0.7,0-1.4,0.4-2,1.1l-2.4,2.9l4.1,3.5l2.4-2.9
		c0.7-0.8,1-1.5,0.9-2.2C70.3,77.8,70,77.2,69.4,76.7"/>
	<path class="st1" d="M86.2,69.7c0.1,0.4,0.2,0.7,0.1,0.9c-0.1,0.2-0.2,0.4-0.5,0.6l-3.3,2.4c-0.2,0.2-0.4,0.2-0.5,0.2
		c-0.1,0-0.3-0.3-0.4-0.7l-7.3-22.1c-0.1-0.3-0.1-0.6-0.1-0.9c0-0.2,0.2-0.5,0.6-0.8l3.7-2.7c0.4-0.3,0.7-0.4,1-0.3
		c0.2,0.1,0.5,0.2,0.8,0.4l19,13.8c0.2,0.2,0.4,0.4,0.4,0.5c0,0.1,0,0.3-0.3,0.5l-3.7,2.6c-0.3,0.2-0.6,0.3-0.8,0.3
		c-0.2-0.1-0.5-0.2-0.8-0.5l-3.5-2.8l-5.9,4.2L86.2,69.7z M83.7,55.7l-3.6-2.9L80,52.8l1.6,4.3l1.5,3.9l3.8-2.8L83.7,55.7z"/>
	<path class="st1" d="M109.5,35.5c0,0.2-0.2,0.3-0.5,0.5l-4.9,2.2l7.6,17c0.1,0.2,0.1,0.4,0.1,0.6c0,0.2-0.2,0.4-0.5,0.5l-3.8,1.7
		c-0.3,0.1-0.5,0.1-0.7,0.1c-0.2-0.1-0.3-0.2-0.4-0.5l-7.6-17l-4.9,2.2c-0.3,0.1-0.5,0.2-0.7,0.1c-0.1-0.1-0.3-0.2-0.4-0.4l-1.3-3
		c-0.1-0.2-0.1-0.4-0.1-0.6c0-0.2,0.2-0.3,0.5-0.5l15.1-6.7c0.5-0.2,0.8-0.1,1.1,0.4l1.3,3C109.5,35.1,109.5,35.3,109.5,35.5"/>
	<path class="st1" d="M140.2,35.7c0.3,1.4,0.4,2.8,0.5,4.3c0.1,1.5-0.1,2.9-0.6,4.3c-0.5,1.4-1.3,2.6-2.6,3.6
		c-1.2,1.1-3,1.8-5.3,2.2c-1.6,0.3-2.9,0.4-4.1,0.2c-1.2-0.2-2.2-0.5-3.1-1c-0.9-0.5-1.6-1.1-2.2-1.8c-0.6-0.8-1.1-1.6-1.5-2.5
		c-0.4-0.9-0.7-1.8-1-2.8c-0.3-1-0.5-1.9-0.6-2.8c-0.1-0.7-0.2-1.5-0.3-2.4c-0.1-0.9-0.1-1.8,0-2.7c0.1-0.9,0.3-1.8,0.6-2.8
		c0.3-0.9,0.8-1.8,1.4-2.6c0.6-0.8,1.5-1.5,2.5-2.1c1-0.6,2.3-1,3.8-1.3c2.2-0.4,4.1-0.4,5.6,0c1.5,0.5,2.7,1.2,3.7,2.2
		c1,1,1.7,2.2,2.2,3.6C139.6,32.9,140,34.3,140.2,35.7 M134.5,37.2c-0.5-2.6-1.1-4.4-2-5.4c-0.9-1.1-2.1-1.4-3.9-1.1
		c-1.6,0.3-2.6,1.1-3,2.4c-0.4,1.3-0.3,3.2,0.1,5.7c0.5,2.4,1.1,4.2,1.9,5.3c0.8,1.1,2,1.5,3.7,1.2c1.7-0.3,2.8-1.1,3.2-2.4
		C134.9,41.5,134.9,39.7,134.5,37.2"/>
	<path class="st1" d="M155.9,34.5l-0.1,0l-1,12.8c0,0.2-0.1,0.4-0.2,0.5c-0.1,0.1-0.3,0.2-0.6,0.2l-4-0.3c-0.6,0-0.8-0.3-0.8-0.8
		l1.7-22.6c0-0.2,0.1-0.4,0.2-0.6c0.1-0.1,0.3-0.2,0.6-0.2l3,0.2c0.6,0,0.9,0.2,1.1,0.4c0.2,0.2,0.4,0.5,0.5,0.8
		c0.2,0.3,0.4,0.8,0.8,1.5c0.4,0.7,0.8,1.5,1.3,2.3c0.5,0.9,1,1.8,1.5,2.7c0.5,1,1,1.9,1.5,2.7c0.5,0.9,0.9,1.7,1.3,2.3
		c0.4,0.7,0.6,1.2,0.8,1.5c0,0,0,0,0.1,0c0,0,0,0,0.1,0l1-12.8c0-0.2,0.1-0.4,0.2-0.6c0.1-0.2,0.3-0.2,0.7-0.2l4,0.3
		c0.3,0,0.5,0.1,0.6,0.3c0.1,0.2,0.1,0.4,0.1,0.6l-1.7,22.5c0,0.2-0.1,0.4-0.2,0.6c-0.1,0.1-0.3,0.2-0.6,0.2l-3-0.2
		c-0.4,0-0.7-0.1-0.9-0.3c-0.2-0.2-0.4-0.4-0.6-0.7c-0.8-1.4-1.6-2.9-2.5-4.3c-0.8-1.4-1.6-2.9-2.5-4.3L155.9,34.5z"/>
	<path class="st1" d="M205.4,61.8c0,0.3-0.1,0.5-0.2,0.6c-0.2,0.1-0.3,0.1-0.6,0l-4-1.9c-0.3-0.2-0.6-0.3-0.7-0.5
		c-0.2-0.2-0.2-0.5-0.2-0.8l0.3-9.2l-2.1-1l-3.7,7.6c-0.1,0.2-0.2,0.3-0.4,0.4c-0.2,0.1-0.4,0.1-0.7,0l-3.8-1.8
		c-0.3-0.1-0.5-0.3-0.5-0.5c0-0.2,0-0.4,0.1-0.6l9.8-20.4c0.1-0.2,0.2-0.3,0.4-0.4c0.2-0.1,0.4-0.1,0.7,0.1l8,3.9
		c0.9,0.4,1.7,1,2.4,1.7c0.7,0.7,1.3,1.5,1.7,2.3c0.4,0.9,0.6,1.8,0.6,2.9c0,1-0.3,2.1-0.8,3.3c-0.3,0.5-0.6,1.1-1,1.6
		c-0.4,0.5-0.9,1-1.4,1.4c-0.5,0.4-1.1,0.7-1.8,0.9c-0.7,0.2-1.4,0.3-2.2,0.3L205.4,61.8z M206.4,44.6c0.4-0.9,0.4-1.6,0.1-2.2
		c-0.3-0.6-0.9-1.1-1.7-1.5l-2.7-1.3l-2.4,4.9l2.6,1.3c0.3,0.1,0.6,0.3,1,0.3c0.4,0.1,0.7,0.1,1.1,0.1c0.4,0,0.7-0.2,1-0.4
		C205.8,45.6,206.1,45.2,206.4,44.6"/>
	<path class="st1" d="M233.4,69.2c-0.9,1.1-1.9,2.1-3,3.1c-1.1,1-2.4,1.8-3.7,2.3c-1.4,0.5-2.8,0.6-4.4,0.3
		c-1.6-0.3-3.3-1.2-5.1-2.7c-1.2-1-2.1-2-2.8-3c-0.6-1-1-2-1.2-3c-0.2-1-0.2-1.9,0-2.9c0.2-0.9,0.5-1.9,0.9-2.7
		c0.4-0.9,0.9-1.7,1.5-2.5c0.6-0.8,1.2-1.6,1.8-2.3c0.5-0.5,1-1.1,1.6-1.7c0.6-0.6,1.3-1.2,2.1-1.7c0.8-0.5,1.6-1,2.5-1.3
		c0.9-0.4,1.9-0.5,2.9-0.6c1,0,2.1,0.2,3.2,0.6c1.1,0.4,2.3,1.1,3.5,2.1c1.8,1.5,2.9,2.9,3.5,4.3c0.6,1.4,0.8,2.8,0.6,4.2
		c-0.2,1.4-0.6,2.7-1.4,4C235.2,66.9,234.3,68.1,233.4,69.2 M228.6,65.7c1.7-2,2.6-3.7,2.9-5c0.3-1.3-0.3-2.6-1.6-3.7
		c-1.2-1-2.5-1.3-3.8-0.7c-1.3,0.5-2.7,1.8-4.3,3.8c-1.6,1.9-2.5,3.5-2.9,4.8c-0.3,1.3,0.1,2.5,1.4,3.6c1.3,1.1,2.6,1.4,3.9,0.9
		C225.5,68.8,227,67.6,228.6,65.7"/>
	<path class="st1" d="M239.1,88.6c0.7,1,1.6,1.6,2.5,1.7c1,0.1,2.1-0.3,3.3-1.2l11.6-8.3c0.2-0.1,0.4-0.2,0.6-0.2
		c0.2,0,0.4,0.1,0.6,0.4l2.4,3.4c0.2,0.3,0.2,0.5,0.1,0.7c-0.1,0.2-0.2,0.3-0.4,0.4l-11.7,8.3c-0.6,0.4-1.2,0.8-1.8,1.1
		c-0.6,0.3-1.3,0.6-2.1,0.8c-0.9,0.2-1.9,0.3-2.7,0.1c-0.9-0.1-1.7-0.4-2.5-0.8c-0.8-0.4-1.5-0.9-2.2-1.6c-0.7-0.6-1.3-1.3-1.8-2.1
		c-0.9-1.2-1.5-2.5-1.8-3.7c-0.3-1.2-0.4-2.4-0.2-3.5c0.2-1.1,0.7-2.2,1.4-3.2c0.7-1,1.6-1.9,2.7-2.7l11.7-8.4
		c0.2-0.1,0.4-0.2,0.6-0.2c0.2,0,0.4,0.1,0.6,0.4l2.4,3.4c0.2,0.3,0.2,0.5,0.1,0.7c-0.1,0.2-0.2,0.3-0.4,0.4L240.6,83
		C238.1,84.7,237.6,86.6,239.1,88.6"/>
	<path class="st1" d="M257.5,106.2c-1,0.4-1.9,0.8-2.7,1.2c-0.8,0.4-1.4,0.9-1.9,1.5c-0.5,0.6-0.8,1.2-0.9,1.9
		c-0.1,0.7,0,1.5,0.4,2.5c0.2,0.4,0.3,0.8,0.6,1.2c0.2,0.4,0.4,0.8,0.6,1.1l4.1-1.6l-0.9-2.3c-0.1-0.3-0.1-0.6-0.1-0.7
		c0.1-0.2,0.2-0.3,0.5-0.4l2.9-1.1c0.2-0.1,0.4-0.1,0.6-0.1c0.2,0.1,0.3,0.2,0.4,0.6l2.6,6.7c0.1,0.2,0.1,0.5,0,0.7
		c-0.1,0.2-0.2,0.3-0.4,0.4c-1.3,0.5-2.7,1.1-4.3,1.7c-1.5,0.6-3.3,1.3-5.4,2.1c-0.4,0.2-0.8,0.2-1.1,0.2c-0.4,0-0.7-0.2-1.1-0.6
		c-0.4-0.5-0.8-1-1.2-1.5c-0.4-0.6-0.7-1.1-1.1-1.7c-0.3-0.6-0.6-1.2-0.9-1.8c-0.3-0.6-0.5-1.1-0.7-1.6c-0.8-2-1.1-3.7-1-5.2
		c0.1-1.5,0.6-2.8,1.4-4c0.8-1.1,1.8-2.1,3.1-2.9c1.3-0.8,2.7-1.5,4.2-2.1c1.4-0.5,2.8-0.9,4.3-1.2c1.5-0.3,2.9-0.3,4.3,0
		c1.4,0.3,2.7,0.9,3.9,1.9c1.2,1,2.2,2.5,3,4.6c0.4,1.1,0.8,2.2,1.1,3.4c0.3,1.2,0.4,2.3,0.4,3.4c0,0.4-0.1,0.7-0.2,1
		c-0.1,0.3-0.4,0.4-0.9,0.5l-2.2,0.3c-0.4,0.1-0.6,0-0.7-0.1c-0.1-0.1-0.2-0.4-0.4-0.8c-0.3-1-0.5-1.9-0.8-2.8
		c-0.3-0.9-0.5-1.7-0.8-2.4c-0.4-0.9-0.9-1.7-1.4-2.1c-0.6-0.5-1.3-0.8-2-0.9c-0.7-0.1-1.6-0.1-2.4,0.1
		C259.3,105.5,258.4,105.8,257.5,106.2"/>
	<path class="st1" d="M275.7,126.5c0.2,0,0.4,0,0.6,0.1c0.2,0.1,0.3,0.3,0.3,0.6l2,14.3c0.1,0.5-0.2,0.8-0.7,0.9l-3.3,0.4
		c-0.2,0-0.4,0-0.6-0.1c-0.2-0.1-0.3-0.3-0.3-0.6l-1.3-9.3l-4.4,0.6l1.1,8.2c0.1,0.6-0.1,0.9-0.6,0.9l-3.3,0.5c-0.2,0-0.4,0-0.6-0.1
		c-0.2-0.1-0.3-0.3-0.3-0.6l-1.1-8.2l-5.2,0.7l1.3,9.5c0.1,0.5-0.2,0.8-0.7,0.9l-3.3,0.5c-0.2,0-0.4,0-0.5-0.1
		c-0.1-0.1-0.2-0.3-0.3-0.6l-2-14.5c0-0.3,0-0.5,0.1-0.7c0.1-0.1,0.3-0.2,0.5-0.2L275.7,126.5z"/>
	<path class="st1" d="M39.4,202.7l4.2,8.9c0.2,0.4,0.1,0.7-0.3,0.9l-3.2,1.5c-0.2,0.1-0.4,0.1-0.5,0.1c-0.2,0-0.3-0.2-0.5-0.5
		l-6.3-13.2c-0.1-0.3-0.2-0.5-0.1-0.7c0.1-0.2,0.2-0.3,0.4-0.4l20.5-9.7c0.2-0.1,0.4-0.1,0.6-0.1c0.2,0,0.4,0.2,0.5,0.5l1.8,3.8
		c0.2,0.5,0.1,0.8-0.4,1.1L39.4,202.7z"/>
	<path class="st1" d="M67.1,231.1c-1.1,0.9-2.3,1.7-3.6,2.4c-1.3,0.8-2.7,1.2-4.1,1.4c-1.4,0.2-2.9,0-4.4-0.6
		c-1.5-0.6-3-1.8-4.5-3.7c-1-1.2-1.7-2.4-2.1-3.5c-0.4-1.1-0.6-2.2-0.6-3.2c0-1,0.2-1.9,0.6-2.8c0.4-0.9,0.9-1.7,1.5-2.5
		c0.6-0.8,1.3-1.5,2-2.2c0.7-0.7,1.5-1.3,2.2-1.9c0.6-0.4,1.2-0.9,2-1.4c0.7-0.5,1.6-0.9,2.4-1.2c0.9-0.3,1.8-0.6,2.7-0.8
		c1-0.2,1.9-0.1,2.9,0c1,0.2,2,0.6,3,1.2c1,0.6,2,1.6,3,2.8c1.4,1.8,2.3,3.5,2.6,5c0.3,1.5,0.2,2.9-0.2,4.2
		c-0.4,1.3-1.2,2.5-2.1,3.6C69.3,229.3,68.2,230.3,67.1,231.1 M63.1,226.7c2-1.6,3.3-3,3.9-4.3c0.5-1.2,0.3-2.6-0.8-3.9
		c-1-1.3-2.2-1.8-3.5-1.5c-1.3,0.3-3,1.2-5,2.8c-1.9,1.5-3.2,2.9-3.8,4.1c-0.6,1.2-0.4,2.5,0.7,3.8c1.1,1.4,2.3,1.9,3.6,1.7
		C59.5,229.2,61.1,228.3,63.1,226.7"/>
	<path class="st1" d="M76.2,249.1c1,0.8,2,1,2.9,0.9c1-0.2,1.9-0.9,2.8-2.1l8.6-11.3c0.1-0.2,0.3-0.3,0.5-0.4c0.2-0.1,0.4,0,0.7,0.2
		l3.3,2.6c0.3,0.2,0.4,0.4,0.3,0.6c0,0.2-0.1,0.4-0.2,0.5l-8.8,11.4c-0.4,0.6-0.9,1.1-1.4,1.6c-0.5,0.5-1.1,1-1.8,1.4
		c-0.8,0.5-1.7,0.8-2.6,0.9c-0.9,0.1-1.7,0.1-2.6-0.1c-0.9-0.2-1.7-0.4-2.5-0.8c-0.8-0.4-1.6-0.9-2.3-1.4c-1.2-0.9-2.2-1.9-2.8-3
		c-0.7-1.1-1.1-2.2-1.2-3.3c-0.1-1.1,0-2.3,0.4-3.5c0.4-1.2,1-2.3,1.8-3.4l8.8-11.4c0.1-0.2,0.3-0.3,0.5-0.4c0.2-0.1,0.4,0,0.7,0.2
		l3.3,2.6c0.3,0.2,0.4,0.4,0.3,0.6c0,0.2-0.1,0.4-0.2,0.5L76,243.3C74.2,245.7,74.2,247.6,76.2,249.1"/>
	<path class="st1" d="M101.6,243.4c0.1-0.2,0.2-0.4,0.4-0.5c0.2-0.1,0.4-0.1,0.6,0.1l3.8,1.9c0.3,0.2,0.5,0.3,0.4,0.5
		c0,0.2-0.1,0.4-0.1,0.6l-10.1,20.2c-0.1,0.2-0.2,0.3-0.4,0.4c-0.2,0.1-0.4,0.1-0.7-0.1l-3.8-1.9c-0.3-0.1-0.4-0.3-0.4-0.5
		c0-0.2,0-0.4,0.1-0.6L101.6,243.4z"/>
	<path class="st1" d="M113.8,274c-0.4-0.1-0.8-0.3-1.4-0.5c-0.5-0.2-1.1-0.4-1.7-0.7c-0.6-0.3-1.2-0.6-1.8-0.9
		c-0.6-0.3-1.1-0.7-1.6-1.1c-0.5-0.4-0.8-0.7-0.8-1c0-0.2,0.1-0.5,0.2-0.8l1-1.9c0.3-0.4,0.5-0.6,0.7-0.6c0.2,0,0.5,0.1,0.9,0.3
		c0.4,0.2,0.9,0.4,1.3,0.6c0.5,0.2,1,0.4,1.5,0.6c0.5,0.2,1,0.4,1.6,0.6c0.5,0.2,1,0.4,1.5,0.5c1.2,0.4,2.1,0.4,2.8,0.2
		c0.7-0.2,1.1-0.7,1.3-1.4c0.1-0.4,0.2-0.8,0.1-1.1c0-0.3-0.2-0.6-0.4-0.9c-0.2-0.3-0.5-0.5-0.9-0.8c-0.4-0.3-0.8-0.5-1.4-0.8
		c-0.9-0.5-1.8-1.1-2.7-1.7c-0.9-0.6-1.6-1.3-2.2-2s-1-1.6-1.3-2.6c-0.2-1-0.2-2.1,0.2-3.3c0.3-1.1,0.9-2.1,1.5-2.9
		c0.7-0.8,1.5-1.3,2.4-1.7c0.9-0.4,1.9-0.6,3.1-0.5c1.1,0,2.4,0.2,3.6,0.6c0.3,0.1,0.7,0.2,1.3,0.4c0.5,0.2,1.1,0.4,1.7,0.6
		c0.6,0.3,1.2,0.6,1.8,0.9c0.6,0.3,1.1,0.7,1.6,1.1c0.5,0.4,0.8,0.7,0.8,0.9c0,0.2-0.1,0.5-0.2,0.8l-1.1,1.9
		c-0.1,0.2-0.2,0.4-0.3,0.5c-0.1,0.1-0.2,0.1-0.3,0.1c-0.1,0-0.3,0-0.4-0.1c-0.2-0.1-0.4-0.1-0.6-0.2c-0.8-0.4-1.5-0.7-2.3-1
		c-0.8-0.3-1.7-0.6-2.8-1c-1-0.3-1.8-0.4-2.4-0.2c-0.6,0.2-1,0.6-1.2,1.4c-0.1,0.4-0.2,0.7-0.1,1c0,0.3,0.1,0.5,0.3,0.8
		c0.2,0.2,0.5,0.5,0.8,0.7c0.4,0.2,0.8,0.5,1.4,0.8c0.9,0.5,1.8,1.1,2.7,1.6c0.9,0.6,1.6,1.2,2.3,2c0.6,0.7,1,1.6,1.2,2.6
		c0.2,1,0.1,2.2-0.3,3.5c-0.4,1.4-1,2.4-1.8,3.2c-0.8,0.8-1.7,1.3-2.7,1.6c-1,0.3-2.1,0.4-3.3,0.3
		C116.1,274.6,114.9,274.3,113.8,274"/>
	<path class="st1" d="M136.2,254.8c0-0.2,0.1-0.4,0.2-0.6c0.1-0.1,0.3-0.2,0.6-0.2l4.2,0.5c0.3,0,0.5,0.2,0.6,0.3
		c0.1,0.2,0.1,0.4,0.1,0.6l-2.7,22.4c0,0.2-0.1,0.4-0.2,0.5c-0.1,0.2-0.3,0.2-0.7,0.2l-4.2-0.5c-0.3,0-0.5-0.1-0.6-0.3
		c-0.1-0.2-0.1-0.4-0.1-0.6L136.2,254.8z"/>
	<path class="st1" d="M154.7,278.3c-0.1,0.4-0.2,0.7-0.4,0.8c-0.2,0.2-0.4,0.2-0.8,0.3l-4,0.3c-0.3,0-0.5,0-0.6-0.1
		c-0.1-0.1-0.1-0.4,0-0.8l5.5-22.6c0.1-0.3,0.2-0.6,0.4-0.8c0.2-0.2,0.5-0.3,1-0.3l4.6-0.3c0.5,0,0.8,0,1,0.2
		c0.2,0.2,0.3,0.4,0.5,0.8l8.8,21.7c0.1,0.3,0.1,0.5,0.1,0.7c0,0.1-0.2,0.2-0.5,0.2l-4.5,0.3c-0.4,0-0.7,0-0.9-0.2
		c-0.2-0.2-0.3-0.4-0.5-0.8l-1.5-4.2l-7.2,0.5L154.7,278.3z M160,265.1l-1.5-4.4l-0.2,0l-0.9,4.5l-0.8,4.1l4.7-0.3L160,265.1z"/>
	<path class="st1" d="M182.4,261.5l-0.1,0l3.9,12.2c0.1,0.2,0.1,0.4,0,0.5c0,0.2-0.2,0.3-0.5,0.4l-3.9,1.2c-0.5,0.2-0.9,0-1-0.5
		l-6.9-21.5c-0.1-0.2-0.1-0.4,0-0.6c0.1-0.2,0.2-0.3,0.5-0.4l2.8-0.9c0.5-0.2,0.9-0.2,1.2-0.1c0.3,0.1,0.5,0.3,0.8,0.5
		c0.3,0.2,0.7,0.6,1.3,1.1c0.6,0.5,1.3,1.1,2.1,1.7c0.8,0.6,1.6,1.3,2.4,2c0.8,0.7,1.7,1.3,2.4,2c0.8,0.6,1.5,1.2,2.1,1.7
		c0.6,0.5,1,0.9,1.3,1.1c0,0,0,0,0,0c0,0,0,0,0,0l-3.9-12.2c-0.1-0.2-0.1-0.4,0-0.6c0-0.2,0.2-0.4,0.5-0.5l3.9-1.2
		c0.3-0.1,0.5-0.1,0.6,0c0.1,0.1,0.3,0.3,0.3,0.5l6.9,21.5c0.1,0.2,0.1,0.4,0,0.6c-0.1,0.2-0.2,0.3-0.5,0.4l-2.8,0.9
		c-0.4,0.1-0.7,0.2-1,0.1c-0.3-0.1-0.5-0.2-0.8-0.4c-1.3-1-2.6-2.1-3.9-3.1c-1.3-1-2.6-2.1-3.9-3.1L182.4,261.5z"/>
	<path class="st1" d="M213.7,262c0.1,0.4,0.1,0.7,0,0.9c-0.1,0.2-0.3,0.4-0.6,0.6l-3.4,2.1c-0.2,0.1-0.4,0.2-0.6,0.1
		c-0.1,0-0.3-0.3-0.4-0.7l-5.7-22.6c-0.1-0.4-0.1-0.7,0-0.9c0-0.2,0.3-0.5,0.7-0.7l3.9-2.4c0.4-0.3,0.8-0.4,1-0.3
		c0.2,0.1,0.5,0.2,0.8,0.5l17.9,15.1c0.2,0.2,0.3,0.4,0.4,0.5c0,0.1-0.1,0.3-0.3,0.4l-3.8,2.4c-0.4,0.2-0.6,0.3-0.9,0.2
		c-0.2-0.1-0.5-0.3-0.8-0.5l-3.3-3.1l-6.2,3.8L213.7,262z M212.2,247.8l-3.3-3.2l-0.2,0.1l1.3,4.4l1.2,4l4-2.5L212.2,247.8z"/>
	<path class="st1" d="M189.2,19.5C116.5-1.4,40.4,40.7,19.5,113.4c-20.9,72.7,21.2,148.8,93.9,169.7
		c72.7,20.9,148.8-21.2,169.7-93.9C304,116.5,261.9,40.4,189.2,19.5 M113.8,281.7C41.9,261,0.2,185.7,20.9,113.8
		c20.7-71.9,96-113.6,167.9-92.9c71.9,20.7,113.6,96,92.9,167.9C261,260.7,185.7,302.4,113.8,281.7"/>
	<path class="st1" d="M191.9,10.3C114.1-12.1,32.6,33,10.3,110.7S33,270,110.7,292.3S270,269.6,292.3,191.9
		C314.7,114.1,269.6,32.6,191.9,10.3 M112.4,286.6C37.8,265.1-5.4,187,16,112.4C37.5,37.8,115.6-5.4,190.2,16s117.8,99.6,96.4,174.2
		C265.1,264.8,187,308,112.4,286.6"/>
	<path class="st1" d="M193.1,5.9C112.9-17.1,29,29.3,5.9,109.5c-23.1,80.2,23.4,164.1,103.6,187.2c80.2,23.1,164.1-23.4,187.2-103.6
		C319.7,112.9,273.3,29,193.1,5.9 M109.9,295.3C30.5,272.4-15.5,189.3,7.3,109.9C30.1,30.5,113.3-15.5,192.7,7.3
		s125.4,106,102.6,185.4C272.4,272.1,189.3,318.1,109.9,295.3"/>
	<path class="st1" d="M177.7,59.6C127.1,45,74.1,74.3,59.6,124.9S74.3,228.5,124.9,243c50.6,14.5,103.6-14.8,118.1-65.4
		C257.6,127.1,228.3,74.1,177.7,59.6 M125.3,241.6C75.5,227.3,46.6,175.1,61,125.3S127.5,46.6,177.3,61s78.7,66.5,64.4,116.3
		S175.1,256,125.3,241.6"/>
	<path class="st1" d="M134.5,196.8l28.2,8.1l-0.1,0.2l3.6,1l-0.9,3.2l-3.6-1l-1.1,4l3.6,1l-0.9,3.2l-3.6-1l-1.1,4l3.6,1l-0.9,3.2
		l-3.6-1l-5.7,19.7c3.9,0,7.8-0.3,11.7-0.8l4.5-15.8l-3.8-1.1l0.9-3.2l3.8,1.1l1.1-4l-3.8-1.1l0.9-3.2l3.8,1.1l1.1-4l-3.8-1.1
		l0.9-3.2l3.8,1.1l2.4-8.4l-38.8-11.1L134.5,196.8z"/>
	<path class="st1" d="M167,178.1l0.4-1.5l-4.8-1.4l0.9-3.2l4.8,1.4l1.1-4l-4.8-1.4l0.9-3.2l4.8,1.4l1.1-4l-4.8-1.4l0.9-3.2l4.8,1.4
		l1.1-4l-4.8-1.4l0.9-3.2l4.8,1.4l1.1-4l-4.8-1.4l0.9-3.2l4.8,1.4l2.2-7.6l-1.1-0.3l-40.2-11.6l-1.1-0.3l-2.2,7.6l13.8,4l-0.9,3.2
		l-13.8-4l-1.1,4l13.8,4l-0.9,3.2l-13.8-4l-1.1,4l13.8,4l-0.9,3.2l-13.8-4l-1.1,4l13.8,4l-0.9,3.2l-13.8-4l-1.1,4l13.8,4l-0.9,3.2
		l-13.8-4l-5.7,19.7l6.8,1.9l-0.9,3.2l-6.8-1.9l-1.1,3.7l6.8,1.9l-0.9,3.2l-6.8-1.9l-1.1,3.7l6.8,1.9l-0.9,3.2l-6.8-1.9l-8.4,29.3
		c4.3,2.5,8.8,4.6,13.6,6.4l11.7-40.8l3.3-11.4l28.2,8.1L167,178.1z M159.4,174.3l-5.5-1.6l0.9-3.2l5.5,1.6L159.4,174.3z
		 M161.5,167.1l-5.5-1.6l0.9-3.2l5.5,1.6L161.5,167.1z M163.6,159.9l-5.5-1.6l0.9-3.2l5.5,1.6L163.6,159.9z M165.7,152.7l-5.5-1.6
		l0.9-3.2l5.5,1.6L165.7,152.7z M167.7,145.6l-5.5-1.6l0.9-3.2l5.5,1.6L167.7,145.6z"/>
	<path class="st1" d="M183.7,93.2l47.1,13.5c-1-1.9-2.1-3.7-3.3-5.5l-43.8-12.6C183.9,90.2,183.9,91.7,183.7,93.2"/>
	<path class="st1" d="M172.8,76.4c4.5,1.3,8,4.5,9.7,8.5l41.9,12c-11.5-15.5-28-27.5-47.9-33.2c-20-5.7-40.3-4.3-58.2,2.7l41.9,12
		C163.7,76,168.3,75.1,172.8,76.4"/>
	<path class="st1" d="M180.6,100.3l54.6,15.7c-0.7-1.8-1.5-3.5-2.4-5.2l-50.1-14.4C182.3,97.9,181.5,99.2,180.6,100.3"/>
	<path class="st1" d="M157.1,81.1l-43.8-12.6c-1.9,0.9-3.8,1.8-5.7,2.9l47.1,13.5C155.3,83.5,156.2,82.2,157.1,81.1"/>
	<path class="st1" d="M153.7,88.1l-50.1-14.4c-1.6,1-3.2,2-4.8,3.1l54.6,15.7C153.4,91.1,153.4,89.6,153.7,88.1"/>
	<path class="st1" d="M164.4,105.6c-4.8-1.4-8.4-5-10.1-9.4L95.5,79.3c-14.8,11.4-26.2,27.5-31.7,46.8c-1.2,4.1-2,8.1-2.6,12.2
		l6,1.7l3.4-11.8l16.8,4.8l3.7-13l10.7,3.1l3.4-11.9l3.2,0.9l-3.4,11.9l26.1,7.5l3.1-10.8l5.6,1.6l7.6-9.7l28.6,8.2l1.3,12.3
		l5.6,1.6l-5.4,18.8l21.2,6.1l2.9-10.1l7.4,2.1l3.1-10.9l3.2,0.9l-3.1,10.9l7.4,2.1l-2.9,10.1l-4.8,16.8l11.5,3.3l4.7-16.5l3.2,0.9
		l-4.7,16.5l8,2.3c1.7-3.8,3.1-7.7,4.3-11.7c5.6-19.3,4.4-39-2-56.5L177.9,103C174.2,105.9,169.3,107,164.4,105.6"/>
	<path class="st1" d="M115.7,138.9l-3.2-0.9l2.2-7.7l-3.8-1.1l-2.2,7.7l-3.2-0.9l2.2-7.7l-14.4-4.2l-2.8,9.8l10.5,3l-0.9,3.2
		l-10.5-3l-2.5,8.6l25.4,7.3l-2.4,8.3l-0.9,3.2l-16.3,56.6c3.2,2.7,6.6,5.1,10.2,7.4l12.1-42.2l-6.2-1.8l0.9-3.2l6.2,1.8l1.1-3.7
		l-6.2-1.8l0.9-3.2l6.2,1.8l1.1-3.7l-6.2-1.8l0.9-3.2l6.2,1.8l10-34.6l-12.1-3.5L115.7,138.9z"/>
	<path class="st1" d="M171.9,79.6c-6.3-1.8-12.9,1.8-14.7,8.1c-1.8,6.3,1.8,12.9,8.1,14.7c6.3,1.8,12.9-1.8,14.7-8.1
		C181.8,88,178.2,81.4,171.9,79.6"/>
	<path class="st1" d="M224.2,194.2l6.5,1.9c0.8-1.5,1.6-3,2.4-4.5l0.1-0.3l-7.5-2.1L224.2,194.2z"/>
	
		<rect x="202.2" y="183.7" transform="matrix(0.2764 -0.961 0.961 0.2764 -30.4146 331.4192)" class="st1" width="5.3" height="4.3"/>
	<rect x="217" y="188" transform="matrix(0.2764 -0.961 0.961 0.2764 -23.8278 348.6441)" class="st1" width="5.3" height="4.3"/>
	
		<rect x="194.9" y="181.6" transform="matrix(0.2764 -0.961 0.961 0.2764 -33.7093 322.8048)" class="st1" width="5.3" height="4.3"/>
	
		<rect x="185.9" y="177.3" transform="matrix(0.2764 -0.961 0.961 0.2764 -37.7377 312.272)" class="st1" width="5.3" height="7.8"/>
	<polygon class="st1" points="148.5,116.5 143.1,123.3 173.8,132.2 172.9,123.5 	"/>
	<path class="st1" d="M122.8,237.8c1.1,0.4,2.2,0.7,3.4,1c5.9,1.7,11.8,2.8,17.7,3.2l-9-2.6l0.9-3.2l13.4,3.9l1.1-4l-13.4-3.9
		l0.9-3.2l13.4,3.9l1.1-4l-13.4-3.9l0.9-3.2l13.4,3.9l1.1-4l-13.4-3.9l0.9-3.2l13.4,3.9l1.1-4l-13.4-3.9l0.9-3.2l13.4,3.9l1.2-4.2
		l-25-7.2L122.8,237.8z"/>
	<path class="st1" d="M212.5,167.1l-36-10.3l-6.4,22.3l-4.2,14.5l10.6,3l3.3-11.6l0.9-3.2l2.4-8.3l25.4,7.3L212.5,167.1z
		 M194.8,171.3l-9.9-2.9l0.9-3.2l9.9,2.9L194.8,171.3z"/>
	<rect x="73.8" y="131.6" transform="matrix(0.2764 -0.961 0.961 0.2764 -76.5348 175.5833)" class="st1" width="9" height="14.1"/>
	<rect x="205.1" y="152.8" transform="matrix(0.2764 -0.961 0.961 0.2764 -1.6162 315.468)" class="st1" width="7.2" height="12"/>
	<path class="st1" d="M171.9,225l22.5,6.5c4.7-2.5,9.1-5.4,13.3-8.7l1.8-6.2l4.1,1.2c1.4-1.3,2.7-2.6,4-4l-6.7-1.9l3.2-11l6.7,1.9
		l-3.2,11c4.2-4.5,8-9.4,11.3-14.7l-45.7-13.2L171.9,225z M202.7,197.5l6.7,1.9l-3.2,11l-6.7-1.9L202.7,197.5z M198.1,213.3l6.7,1.9
		l-3.2,11l-6.7-1.9L198.1,213.3z M189.9,193.8l6.7,1.9l-3.2,11l-6.7-1.9L189.9,193.8z M185.3,209.6l6.7,1.9l-3.2,11l-6.7-1.9
		L185.3,209.6z"/>
	<path class="st1" d="M167.3,241c2.7-0.5,5.5-1.1,8.1-1.8l1.4-4.9l7.1,2c2.1-0.8,4.1-1.7,6.1-2.6l-19.1-5.5L167.3,241z"/>
	
		<rect x="77.5" y="147.9" transform="matrix(0.2764 -0.961 0.961 0.2764 -86.1928 185.5786)" class="st1" width="5.3" height="4.3"/>
	
		<rect x="209.6" y="185.9" transform="matrix(0.2764 -0.961 0.961 0.2764 -27.1221 340.0307)" class="st1" width="5.3" height="4.3"/>
	<path class="st1" d="M78.5,206l7.1,2l-1.4,4.9c1.9,2,3.9,4,5.9,5.9l3.7-12.7l-19.1-5.5C75.9,202.4,77.1,204.2,78.5,206"/>
	<path class="st1" d="M61.9,169l3.2-11l6.7,1.9l-3.2,11L61.9,169c0.4,1.8,0.8,3.7,1.3,5.5l4.1,1.2l-1.8,6.2c1.8,5,4,9.9,6.7,14.5
		l22.5,6.5l11.3-39.2l-45.7-13.2C60.2,156.8,60.7,163,61.9,169 M89.3,164.9l6.7,1.9l-3.2,11l-6.7-1.9L89.3,164.9z M84.8,180.7
		l6.7,1.9l-3.2,11l-6.7-1.9L84.8,180.7z M76.5,161.2l6.7,1.9l-3.2,11l-6.7-1.9L76.5,161.2z M71.9,177l6.7,1.9l-3.2,11l-6.7-1.9
		L71.9,177z"/>
	<path class="st1" d="M68.2,143.8l-7.5-2.1l-0.1,0.3c-0.2,1.7-0.3,3.4-0.4,5.1l6.5,1.9L68.2,143.8z"/>
	<rect x="84.9" y="150" transform="matrix(0.2764 -0.961 0.961 0.2764 -82.9003 194.1901)" class="st1" width="5.3" height="4.3"/>
	<rect x="101.2" y="153" transform="matrix(0.2764 -0.961 0.961 0.2764 -75.5772 213.3372)" class="st1" width="5.3" height="7.8"/>
	
		<rect x="70.1" y="145.7" transform="matrix(0.2764 -0.961 0.961 0.2764 -89.4873 176.9647)" class="st1" width="5.3" height="4.3"/>
	<rect x="92.2" y="152.1" transform="matrix(0.2764 -0.961 0.961 0.2764 -79.606 202.8036)" class="st1" width="5.3" height="4.3"/>
</g>
</svg>
