<svg id="Layer_1" data-name="Layer 1" xmlns="http://www.w3.org/2000/svg" viewBox="0 0 168.49 206.6"><defs><style>.cls-1{opacity:0.09;}.cls-2{fill:#164750;}</style></defs><title>icon-spear</title><g class="cls-1"><path class="cls-2" d="M60.9,62.7c.1.2.1.2.2.2v-.3a.35.35,0,0,0-.2.1m16.7,54.2c0,.1,0,.1.1.1-.2-.2-.1-.7-.5-.7,0,.4.3.6,0,.8.2.1.2-.1.4-.2M83,134.8c0,.2-.1.3-.1.5.3-.1.2.2.5.2,0-.5-.1-.3,0-.7ZM79.6,133c-.1,0-.1,0-.1-.1.2,0,.2-.2.2-.4-.6-.1-.4.7-.1.5M61.2,71.3h.1c0-.2.1-.3.1-.4a.19.19,0,0,0-.3,0c.1.1.1.2.1.4m.3-3.6c.4-.1.3-.4.4-.7a.37.37,0,0,1-.3-.1c-.2.1-.3.2-.1.3-.2.4-.2-.3-.5-.1,0-.2.1-.3.2-.3l-.1-.1v-.1c-.1,0-.1-.1-.1-.2-.3.2-.4.2-.6.1.1.4.1.8.2,1.2H61c0,.2-.2.3-.4.3a5.9,5.9,0,0,1,.2,1.4,1.27,1.27,0,0,1,.6.1c0-.2-.1-.7-.1-1.3h.5c0-.3-.4-.2-.3-.5m104.3,29c-.1-.2-.4-.1-.1-.4a4.75,4.75,0,0,1-2.2.6c.5-.2.5-.4.4-1,.2-.1.3-.1.4-.2s.1-.2.2-.3.2,0,.2.1c.5-.3.7-.7.6-1.6.2,0,.2.1.4.1.2-.9-1.1-1.5-1.2-.5-.8.1-1.4.4-1.7-.6,0-.4.4-.4.6-.6a2.39,2.39,0,0,1,.1-1.3c.8.1.4-.6,1.1-.8h0c-.1,0-.2.1-.4.1.3-.8.4-1.4-.6-1.7-.1,0-.1.2-.1.4-1.2-.5-.4-1.3.1-1.8.8.2.7.5,1.5.6v.4c.2-.4.6-1,.7-1.3.7.5,1.1-.6,1.6-.4.3-.1-.3-.2-.1-.6-.5.1-.7-.3-.8-.6.2,0,.3,0,.4-.1.3,0,.1.3.4.4.4-.4.6-.2,1.1-.4-.3-.1-.2-.6,0-.8h0v-.5a3.23,3.23,0,0,1-1.4-1.2,2.54,2.54,0,0,1,1.2-.2c-2.3-13.3-16-14.7-16-14.7-15.5-1.2-27,5.1-35.5,14,0,.4.2.3-.1.5.1.4.3.2.6.1-.1.6.4.5.2,1.2-.3,0-.4.2-.7.1-.1-.1,0-.4-.4-.4a1,1,0,0,1,.2-.8c0-.3-.3.1-.6,0A72.38,72.38,0,0,0,106.3,96c0,.1,0,.2-.1.2a.1.1,0,0,1-.1.1c.1.1,0,.2-.1.4l-.1-.1a110.37,110.37,0,0,0-6.6,15.1h0c0,.1,0,.1-.1.2.1.1.4,0,.3.3h-.4a110.22,110.22,0,0,0-3.6,12.9h11.2c1.3-2.8,2.7-5.5,4-7.9,0-.4.2-.5.2-.7h.1c23.6-42.2,44.1-16.9,49.3-9.3a.35.35,0,0,0,.1-.2c.3.2.2.6.6.8,0,.1-.1.1-.2.1a6.41,6.41,0,0,1,.7,1.2,84.36,84.36,0,0,0,4.6-11h-.2l.3-.3a2.35,2.35,0,0,0,.2-.8h.1c.1-.5.3-1,.4-1.4-.6.2-.2,1.2-1.1,1.1m-.7-21c-.1.2-.3.3-.2.6-.2,0-.2-.6-.4-.2-.3-.2.4-.4.6-.4m-.6,9.8c.2.2.2,0,.5,0,.1.4-.4.2-.5.4.3.4.3.2,0,.6-.5-.2-.2-.9,0-1m-.6-4.8c.3,0-.1.7.4.5,0,.7-1,.3-1,1-.2-.7,0-1.3.6-1.5m-61.4,39c0-.5.5-.6.7-.2,0,.2-.4.2-.7.2m.6-7h.5c.1.4-.6.4-.5,0m2.1-3.3a.45.45,0,0,1-.4-.7c.3.1.4.3.4.7m1-4.5c.2-.3-.3-.9.5-.8,0,.4.1,1-.5.8m.3-8.2v-.5c.2.2.5.3.5.6a.75.75,0,0,0-.5-.1m2.6,12.8c0,.3.1.8-.1,1-.5-.6.1-1.4.5-2.1a.47.47,0,0,1,.5.5c-.9-.2-.2.6-.9.6m1.9-1.3c-.4,0-.4-.5-.6-.7.3.1.3-.2.6-.1.1.5.1.2,0,.8m1.8-15.7a1.25,1.25,0,0,1,.5-1.2,1.14,1.14,0,0,1,.5,1.3c.2.3.4.4.7.2v.5a.52.52,0,0,0,.4-.2c.3.2-.3.5-.2.8-.4,0-.5-.2-1-.1.4-.7-.2-.2,0-1-.2-.1-.4-.4-.9-.3m.7,14.8c0-.6.8-.8.8-.1-.2.1-.6.4-.8.1M114,98c.6-.2.7,0,1.1.2-.3.5-1.2.9-1.1-.2m18.2-12.7c-.1.1-.1.2-.1.4a.47.47,0,0,1-.5-.5c.3,0,.5,0,.6.1m-8.3,4.6c-.1.2-.3.2-.2.6-.4-.1-.5-.4-1-.4a2.39,2.39,0,0,1,.1-1.3c.6.1.5.7,1.1,1.1m-.9-8.7a.75.75,0,0,1,.5-.1c.2.2.2.6,0,.7-.4,0-.5-.2-.5-.6m-5.6,21.3c-.2,0-.2-.3-.5-.2.1-.2.2-.4.5-.4Zm-.1-16.8c.3-.1.6-.2.6.2-.2,0-.7.2-.6-.2m2.7,1.9a.56.56,0,0,1-.6.1c0,.3.2.3.1.6-.3.3-.3-.1-.7,0,.4-.2.4-.4.2-.8.3.3.4-.1.6.1,0-.1,0-.2.1-.2,0-.2-.5-.1-.4-.5a.75.75,0,0,0,.5.1c0,.4.2.3.2.6m.9,12.1a.41.41,0,1,1-.1-.8c.1.2.3.6.1.8m-.4-8.8c.5-.1.6.5.4.7-.4-.2-.2-.3-.4-.7m0-6.8c.4,0,.4.2.6.4-.1.3-.7,0-.6-.4m2,4.3c-.1,0-.2-.1-.3-.1a.92.92,0,0,1,1-.6c-.1.1-.1.4-.1.7H123c0,.1,0,.2-.1.2s-.2-.1-.4-.1v-.1m.9,7.9c.1-.6-.7-.5-.7-1,.5.3,1.5.2,1.6,1h-.9m2.3-11.4c-.5-.4-.3.5-.7.1-.1.5.6.3.4,1-.3.3-.6.2-1,0v-.6c.2.2.2,0,.5,0-.3-.3-.3-.9-.4-1.5a.78.78,0,0,0,.4-.4c.5.1.9.5.8,1.4m.4-4.8a14.48,14.48,0,0,1,1.7,1.8c-.4.8-.9.7-1.8.5-.2-.7-.8-1.9.1-2.3m.2,13.5V93c.4,0,.4.3.8.1.1.5-.6.3-.8.5m1.2-2.9a.57.57,0,0,1,.6-.4c0,.3-.3.3-.6.4m.9-5.5c-.4.1-.3-.2-.5-.2a.45.45,0,0,1,.6-.2c.1.2-.1.3-.1.4m1.2,8.8c-.1-.4.3-.3.4-.6.2.1-.1.7-.4.6m1.9-6.2c0-.6-1.1-.3-.4-.6-.3-.2-.7-.2-.6-.7.4.1.3,0,.7,0,.1-.3-.2-.3-.1-.6s.3.1.7,0c.1.1.1.3.2.4s-.2.3-.4.5c.3.4.4-.4.8-.2-.1.4-.4.6-.5,1.1.2,0,.2-.1.2-.2.8.5-.3-.1-.6.3m.7,5.2v-.4c.5,0,.2.5.7.2-.1.7-.3.1-.7.2m2.8-2.3a1.45,1.45,0,0,1,.7.2c0,.4-.8.2-.7-.2m.7-15.1c-.4-.1-.5-.4-.8-.6,0-.2.2-.1.2,0,.5-.2.4-.9,1-1-.2.2-.1.4.1.5-.2.3-.6.4-.5,1.1m.9-1.9c0-.2.1-.2.2-.2,0-.2-.1-.3-.1-.5s.3.5.5.6c0,.3-.4.1-.6.1m.6,17.6c.2-.4.3.3.6.2,0,.2-.2.3-.5.2,0-.2,0-.4-.1-.4m.2,1.2a1.45,1.45,0,0,1,.2-.7c.2,0,.1.3.1.5.1,0,.1,0,.1-.1.3,0,0,.4-.4.3m13.2-19.4c-.1.4.3.5.2.8-.5-.1-.6-.5-.8-.8Zm-.8,8.3c.4.2.7.3.8.7a8.87,8.87,0,0,1-1.5-.2c-.3-.2.9.1.7-.5m-.9-.8c.4-.2.2.6.4.8-.1-.1-.1-.3-.4-.2,0-.2.4-.5,0-.6m.4-6.1c.2.2-.1.7-.6.6.1-.3.1-.6.6-.6m-6.4-5.8a1.17,1.17,0,0,1,.7.2c.1.4-.4.2-.4.5a.56.56,0,0,1-.3-.7M139.6,78c.6-.1,1-.9,1.5-.7a2.33,2.33,0,0,1-1.5.7m2.5,11.6c-.4-.1-.1-.7.2-.6.1.4-.1.3-.2.6m-.2-14.4c0-.3.3-.3.6-.2.1.3-.1.3-.1.5-.2-.1-.1-.4-.5-.3m.8,10.3a.52.52,0,0,0-.2-.4c0-.3.3-.3.6-.2s0,.5.2.5c-.2.2-.3-.2-.6.1m1.7-8.1c-.1,0-.2,0-.2.1-.1-.2-.6-.9-.6-.4-.4-.2.3-.4.1-.8.3,0,.6,0,.7.1-.3.3,0,.6,0,1m-.7-7.5c-.1-.2.1-.6-.1-.6.1-.3.5-.4,1-.5.1.5-.5.9-.9,1.1m1.1,6.7h.5c.1.6-.7.7-.5,0m1.3.3c-.5-.2-.2.3-.6.2.2-.6-.5-.4-.4-1,.3.3,1.1.1,1,.8m1,10.1c-.5-.4-.5.4-.8.1,0-.3.4-.3.6-.5.1,0,.1.1.2.1Zm1-11.2c-.4-.1-.5-.4-.5-.8.1,0,.1.2.1.4.3,0,.6,0,.6-.4.2.1.4.2.4.5-.2-.3-.7-.2-.6.3m.1,3.5c.2-.2.3-.2.2-.8.2.2.2.6.5.7,0,.2-.5,0-.7.1m.4,4.3c.1-.1.3-.1.2-.4.4.2-.2.5,0,.8-.6.2.2-.4-.2-.4m.8,1.3h-.6c.1-.3.4-.7.7-.4,0,.2-.1.3-.1.4m-.5-1.8c-.2,0-.2-.7-.4-.2-.2-.1.3-.5.4-.7.2.3.4.2.7.1,0,.5-.5.5-.7.8m1.1-.9c.4,0,.4.3.7.2-.1.2-.4.2-.6.2,0-.1-.1-.2-.1-.4m1.6,6.5c-.5-.2-.3.3-.5.5-.2,0-.1-.4-.4-.4s.2.3-.1.5c-.4-.1-.2-.4-.4-.5.2-.1.8-.6.5-.8h-.2c-.1-.6.8-.4.7-1,.8.4-.2,1.2.4,1.7m.5.6c-.3-.1-.4-.6-.2-.7s.4.4.2.7m1.1-4.1c.3,0,.4.2.5-.1.2,0,.3.2.2.5-.5.1-.8-.4-.6.2-.4.1-.2-.5-.1-.6m.9,4.7c-.3.1-.4-.7-.1-.7.6,0,0,.4.1.7m.6-16.8c-.2-.1-.5-.1-.5-.5.3.1.2-.2.4-.4.2.3.3.7.1.9m4.8,12.8c-.1.6.7.4.6,1-.8.4-1.2-.9-1.8-.7.4-.4.7-.1,1.2-.3m-3-2.6c-.2-.2-.8-.2-.8.1-.4-.5.5-.8,1.1-.6-.1.2-.4.2-.3.5m2,20.8c-.5-.1-.9-.9-.1-1,0,.3.1.6.1,1m-.1-14.8c0-.2.1-.3.1-.5.3,0,.1.5.5.4.1.3-.4.1-.6.1m.9,5.6c.1-.7.7,0,1-.1-.1.2-.7,0-1,.1m1.1-10.6a1.5,1.5,0,0,1-1,.2c.3-.4.1-.8.5-1.3.5.1-.1.6.5.7Zm2.2,9.7c-.3,0-.3-.4-.5-.5.2-.3.9.3.5.5m-.4.9c.3.1.6.2.6.5h-.7a.75.75,0,0,0,.1-.5m-.6-10.1c-.3.3.1.8-.1,1h-.4c.1-.5.1-.9.5-1m-1,2c0-.1,0-.2-.1-.2.1-.2.4-.2.7-.2v.5c-.2-.3-.3-.1-.6-.1m.4,6.9c-.1-.7.4-.7.1-1.3.2.1.3.3.7.2-.3.2-.3.5.1.6-.5,0-.6.3-.1.7-.3.4-.3-.3-.8-.2m1.2,12.3H162c0-.1,0-.1-.1-.1v-.2c.1,0,.2,0,.2-.1.3,0,.1.1.1.4m.3-2.5c.1,0,.2,0,.2-.1.5.2,0,.5.5.6-.1.4-.7-.1-.7-.5m1.6.5c-.2-.3-.5-.7-.1-1a1.1,1.1,0,0,1-.8,0c-.1-.3.2-.3.1-.6a1.26,1.26,0,0,1,.8,1.6M60.5,61.4c-.2,0-.1.5-.5.4a.1.1,0,0,0-.1-.1,23.48,23.48,0,0,0,.1,2.6s.1.7.3,1.9c.1,0,.2.1.3.2.2-.2.2-.7.4-1.1.2,0,0,.4.2.4-.1-.6.7-.9.8-1.6.1-.4-.6-.1-.6-.4-.1.1,0,.5-.5.5-.1-.1-.2-.3-.3-.4h0v-.1a2.77,2.77,0,0,1-.3-1.3.85.85,0,0,0,.7-.8c0-.4-.3.1-.5-.2m16.6,46.9h-.3c.2.4.5.4.9.6v-.4c0-.2-.3-.2-.6-.2h0m7.5,63.6c.3,0,.4.2.7.1.2-.4-.7-.3-.7-.1m1.3-.6h-.3c-.1.2-.4.5,0,.6a.6.6,0,0,1,.1-.4c.1,0,.3.2.4,0l-.2-.2m-8.4-63.1c.1-.1.2-.1.2-.2a.76.76,0,0,1-.2-.4c-.1,0-.1.1-.2.1.2.1.4.2.2.5m8.1,62.7a.37.37,0,0,0,.1.3c0-.1-.1-.2-.1-.3M61.1,70.1A.1.1,0,0,1,61,70a.37.37,0,0,0,.1.3v-.2M91.4,193c.3.3.9-.2.6-.5a.79.79,0,0,0-.6.5M78.6,93.9c-.9-.1-.8,0-1.3-.2.2.5.7.6,1.2.8-.1-.3.2-.3.1-.6m-.1,1.7c-.2.4-1.5.8-.5,1.1-.3-.5.9-.4.5-1.1m.6-6.1h0c-.1.1-.3.1-.6.1,0,.1,0,.1.1.2a.62.62,0,0,0,.5-.3m-1.5.1c0-.3,0-.6-.2-.7-.2.3-.2.5.2.7m-17-29.8c.2,0,.3.1.5.1.2-.2,0-.8.6-.7,0-.5-.5-.4-.4-1,.2.1.5.4.6,0,.2.1,0,.2,0,.4a.88.88,0,0,0,.5-1.2c.6.2-.1,1,.2,1.3-.5.2-.8.6-1.3.8.1.3.2.4-.1.6.1.4.3,0,.5.2,0,.4-.7.1-.7.5a.76.76,0,0,1,.4.1,1.07,1.07,0,0,1,.5-.3V61h.5c-.1.2-.4.3-.5.4s-.1.3-.1.4a.22.22,0,0,0,.2.2c-.2.1-.2,0-.3-.1-.1.1-.2.1-.4.1s-.1.3-.2.4c.3,0,.2.2.4.2,0,.1-.1.1-.2.1-.2.2.1.5.1.7a.46.46,0,0,0,.5-.3,2.48,2.48,0,0,1-.1-.9.76.76,0,0,1,.2.5c.1-.1.2-.2.6-.2.1.2.4.1.1.4a4.75,4.75,0,0,1,2.2-.6c-.5.2-.5.4-.4,1-1.1.4-1.6.6-1.5,1.9-.2,0-.2-.1-.4-.1-.2.9,1.1,1.5,1.2.5.8-.1,1.4-.4,1.7.6,0,.4-.4.4-.6.6a2.39,2.39,0,0,1-.1,1.3c-.8-.1-.4.6-1.1.8v.2a1.45,1.45,0,0,1,.7-.2,2.09,2.09,0,0,1-.6.4c.1.3.1.5-.3.5-.1-.3.1-.3.1-.4a.37.37,0,0,1-.3.1c.1.2.3.7-.1.6.8.1-.4,1.4-.6,2.1-.5-.3-.8.1-1.1.3.1.3.1.5.2.8.2.1.2.3.3.5h-.2c.3,1.3.6,2.7,1,4.2a5.9,5.9,0,0,1,.2-1.4c0-.2-.3-.1-.5-.1a.84.84,0,0,0-.4-1.2c0-.2.4-.1.4-.4,0,.3.6.5.4.7.3-.3.9,0,1.2.1-.4.4-.1.9-.1,1.3h-.6a.52.52,0,0,0-.2.4c.5.1.8.5,1.3.6,0-.2,0-.3-.2-.2,0-.7,1-.3,1-1a1.39,1.39,0,0,1,0,.9c.4-.1,1,.4,1.4.3-.3.5-1.3.4-1.4-.2-.1.1-.1.2-.3.3a3.78,3.78,0,0,0,.1,1.8c-.2,0-.3,0-.4.1-.4-.4.1-.8-.5-1-.3,0-.3.3-.5.5-.3-.4-.1-1.1-.8-1.3a162.47,162.47,0,0,0,5.9,18.2S73,107.7,75.5,117a.1.1,0,0,1,.1-.1c.1.2.4.1.6.2.1-.3.2-.6-.3-.5.2-.2.2-.6.7-.5,0-.4-.6-.2-.5-.7.2,0,.3.1.5.1s.3-.2.2-.5-.3.2-.6,0c-.1-.3.2-.2.2-.5.4,0,.3.3.7.1a2.51,2.51,0,0,0-.4-.7c-.3.3-.5.2-.6,0h-.2c.1,0,.1-.1.1-.2a1.21,1.21,0,0,0-.5-.5c.5-.3.2-.7.1-1.2,0-.2.4-.1.5-.2a2,2,0,0,1,0-1.5c.3.2.7.2.7.6a1.05,1.05,0,0,1,1.2,0c-.1.6,0,.6-.2,1-.2-.2-.6-.2-.7,0a1,1,0,0,1,.7.8c0,.3-.2.4-.4.5v.1h.1c.1.3.2.7.7.7a2.26,2.26,0,0,1-.6,1.3c0,.2.4.1.5.2-.2.1-.4.9,0,1,0,.3-.5.1-.4.5,0,.1.1.1.1,0,.2,0,.1.3.1.5.5-.3.8.2,1.2,0a1.45,1.45,0,0,1-.2.7c-.1,0-.1-.2-.1-.4-.6.1-.4.4-.4,1,.5,0,.1-.4.1-.6.2.1.1.4.5.2,0,.3-.2.3-.1.6-.3,0-.2-.2-.5,0,.3.2.4.2.2.7-.2-.1-.7-.5-.4-.8-.1-.1-.7.1-.5-.6a.55.55,0,0,1-1-.4.9.9,0,0,0-.6.6c-.7-.3.9-1.3-.1-1.5.1.1.1.2.1.4-.3-.3-.5-.2-.8-.1a10.46,10.46,0,0,1,.4,1.7,1.61,1.61,0,0,1,.7.4c-.1.2-.5.1-.7-.1a50.57,50.57,0,0,1,1.1,5.3,2.77,2.77,0,0,1,.9.1h.1c.3-.3.9,0,1.4-.1v.1h.1a.14.14,0,0,1,.2,0c0-.1-.2-.1-.1-.3.2.1.3,0,.5-.1,0-.1-.1-.4.1-.5s0,.1.1.2c.4-.1.9-.4,1.4-.2.1,0-.1-.2.1-.3s.5,0,.5.2c.2-.1.2-.1.1-.3.2,0,.2.1.5.1.1.1,0,.1-.1.3.2.2.3.1.5.4.2,0,0-.3.1-.3s.2.3.3.5c-.2-.2-.2.2-.5.1v.1h.3l.1-.1c.2,0,.2,0,.2.1h6.7c.8-3.2,4.7-19.2,8.4-28.2,0,0,8.5-19.1,8.8-34.9,0,0,.5-6.1-1.5-15.9h-.1c0,.4.4.7.1,1-.3.1-.2-.2-.4-.4-.4-.1,0,.6-.5.5,0-.3.2-.4.2-.6.2,0,.2.1.4.1a2,2,0,0,0-.5-1.3c.1-.2.3-.3.5-.5C103.2,33,97.3,16.8,83.7-.7a85,85,0,0,0-9.4,12.6c.2.1.3.2.2.5-.1-.1-.2-.2-.3-.2q-1.65,2.7-3.3,5.7v.2h-.1a108.3,108.3,0,0,0-6.3,14c0,.2.1.3.2.6-.2,0-.3,0-.4-.1a79.65,79.65,0,0,0-4.7,27.9c.5.2.8-.3,1-.7m4.3,24.3h-.4c.1-.2,0-.5.4-.5Zm40.8-35.9a.56.56,0,0,1,.6-.1,1.7,1.7,0,0,0,0,1c-.3.3-.3.1-.7.2.4-.4.1-.5.1-1.1M66.5,77.5c-.3,0-.3-.4-.5-.6a.75.75,0,0,1,.5-.1.85.85,0,0,1,0,.7m.2,1.8c.1.2.5,0,.5.2-.1-.2.4-.7.8-.4-.1.3-.3.4-.4.6.1.3.7.1.6-.1.3.2-.4.4-.4.6-.6-.5-1.1.2-1.7.1.1-.1.1-.2.1-.4s-.1-.1-.2-.1c.4-.1.7-.1.7-.5m.3-5.7h.4c0,.5-.1.9-.5,1,.3-.3-.1-.9.1-1m1.1,1.8V75a1.5,1.5,0,0,1,1-.2c-.3.4-.1.8-.5,1.3-.6-.1,0-.6-.5-.7m-2.8,5.4c-.2-.5.3-.7.2-1.5.7,0,0,.7.4,1,0,.3-.6.1-.6.5m1.7.9a.71.71,0,0,1-1.1-.1c0-.1.1-.1.1,0,.8-.3.7-1,1.6-1.1-.1.3-.3.6-.6.6.1.4.3-.1.5,0,0,.3-.2.4.2.4,0,.2-.4.1-.5.2,0,.4.7.1.6.6h-.6c-.1-.1-.1-.4-.2-.6m1.3,8c-.5-.1-.1-.5-.1-.8a.47.47,0,0,1,.1.8m-.5-2.8c.2.3.2.4,0,.8-.8-.1.4-1.1-.4-1.2.3-.5.6.4,1.1-.1-.1.7.4,0,.6.4a.92.92,0,0,1-1.3.1m1.1-.7a1.6,1.6,0,0,1-.5-1c.2-.1.6,0,.7-.2.1,0,.1.1,0,.1.3.2,0,.4.2.6,0,.2-.4.2-.4.5m.8-23.5c-.2,0-.1-.5-.5-.4.1-.3.1-.7.6-.6,0,.6-.4.3.1.6.2.3-.1.3-.2.4m.5,12c.3-.3.7,0,1,.1-.1.2-1.1.3-1-.1m.6,2.7c-.1.9-.9,0,0,0m-.1,4.9H71c-.2.2-.1.3.2.2-.1.4-.5.6-.1,1.1-.5.3-.6-.6-.4-1.3m0,12.8c.3-.1.2-.5.6-.5.4.4-.2.9-.6.5m.9-19.9c-.4-.1.1-.5.1-.6-.2-.1-1.2.2-1-.6.3-.3.7,0,1.2-.2a.52.52,0,0,0-.4-.2c.1-.4.3.2.7-.2-.1.1-.1.2.1.2.1.3-.2.2-.2.4s.4.4.4.1c.3.2-.3.5-.6.5,0,.2-.1.5.1.5.1.3-.4-.1-.4.1m.2-5.3c.3-.1.4-.2.7,0-.2.5-.4,1.8-1.3,1.5.1-.6.8-1,.6-1.5m2.5,0a.6.6,0,0,0,.1-.4c.3-.1.4.7.1.7h-.1c-.3.2-.6.3-.3.8-.4,0-.3-.3-.7-.1-.3-1-.4-1.5.8-1.6a.47.47,0,0,0,.1.6m.1-16.7c.3-.1.3.1.5.1,0-.2-.1-.3-.1-.5.2.4.4,0,.8,0,0,.4-.5.5-.6.8-.2-.3-.5.2-.7-.1.1,0,.1-.1.1-.3m-.1-14.8c0-.3.4-.6.6-.4-.1.3-.2.5-.6.4m.4,25.4c.3-.3,0-.5,0-.8.5.1.3.5.6,1-.4,0-.4-.2-.6-.2.8.4.3,1.7,1.3,1.9-.1.1-.1.2,0,.2-.1.4-.2-.3-.5-.1-.2,0-.1.3-.1.5,1.4-.2.1,1.3,1,1.8-.2.3-.5.5-.5,1-.2-.4-.5-.5-.6-1-.2.2-.3,0-.6,0,.7-.8.4-1.5.5-2.3-.2,0-.2.1-.2.2-.3-.3.1-1,.2-1.2-.1-.6-1-.4-.8-1.2,0,.1.2.2.3.2m2.4-3c0,.1-.1.2-.1.4-.6-.1-.3-.3-.8,0-.2-.2-.2-.5-.4-.5,0-.2.3-.1.5-.1,0,.1,0,.1-.1.1.2.5.5-.2.9.1m1.1-2.9a3.73,3.73,0,0,1,.6,2.9H78c-.1-.6-.3-.5-.1-1.1.3,0,.4.2.6,0-.2-.8-.6-1.3-.3-1.8m3.3,10.8c0,.2-.3.1-.5.1,0-.4-.5-.3-.6-.6-.2,0-.2.1-.4.1,0,.1.2.1.4.1-.1.4-.6.1-.7-.1,0-.7.7-.9.6-1.3.4.1.3.8.8.7-.2.5,0,.7.4,1m.7,17.2c-.1.1-.2.3,0,.4-.1.1-.9-.2-1.2-.2.1-.6.9-.4,1.2-.2m-.3-34.3a1.06,1.06,0,0,1,.6-.7c0,.5-.1.7-.6.7m.4,38.2c-.1.4-.4-.1-.6,0-.1-.4.2-.4.2-.6.3.1.1.7.4.6m-4.1-3.5c0,.2.2.2.2.4.4-.2.7-.3.7.4a.6.6,0,0,1-.4.1v.1c-.1,0-.1,0-.1-.1s-.2,0-.2.1a.37.37,0,0,1-.3.1.1.1,0,0,0-.1.1h0c-.4,0-.7,0-.6.2-.1.2-.2,0-.4,0,0-.6.8-.5,1-1h.1c-.1-.2-.2,0-.4,0,.3-.5.1-1,.3-1.6-.4,0-.7.5-1-.1-.4,0-.1.6.2.6-.2.2-.2.6-.7.5.3-.5-.8-2.3.2-2.7-.2-.2,0-1-.4-1.1.2-.3,1.1.4.5.5.3.1.2.6.7.5-.3.5.1.5.1,1.1a.52.52,0,0,0,.4.2c0-.1.1-.2.2-.3-.2-.3-.2-.9-.6-1a2.36,2.36,0,0,0,.4-1.6c.2,0,.2-.1.4-.1,1.2.7,1.2,1,1.5,2.1-.2.1-.4,0-.6,0,0,.2-.1.5-.1.8-.4.1-.6.3-.6.5.2.1.2.1.2-.3.1.1.2.1.2.2-.1.3-.3.4-.1.5.2-.1.6.5.8.1.2.1.2.3.2.5-.5.1-.6-.1-1-.1v-.2c-.3.2-.3.6-.7.6m.4,1.9c-.5.1-.3-.3-.7-.2a4.61,4.61,0,0,1,1-.5c-.2.3-.4.4-.3.7m-3.1-9.4c.1-.3-.4-.8-.5-1s.3-.2.4-.4-.2-.3-.1-.6c-.5.1-.8.4-1.3.2.4-.4.3-.8.8-1.5.1.2.3.3.4.6-.2,0-.5-.1-.5.1a1.28,1.28,0,0,0,1.2.2c0,.4.1.7.4.8.1-.1.1-.2.2-.3a4.35,4.35,0,0,1-.4-.7c.3,0,.3-.2.6-.1a1.09,1.09,0,0,1,.1.5h0c0-.2,0-.3-.1-.4.1-.2.2-.1.3-.1s.1-.2.2-.3v-.4c.1,0,.2,0,.2-.1.2.1.3.3.4.4h0c.2.2.4.2.8.1a2.65,2.65,0,0,1-.5.6c.2.1.5.1.7.2.2-.3.5-.3.6-.6.2,0,.2.7.4.2.2.1-.3.5-.4.7-.2-.3-.4-.2-.7-.1v-.1c-.1.1-.2.1-.2.3.2,0,.4.1.7.1.4.3-.9-.1-.6.5a2.19,2.19,0,0,1-.5-.3.6.6,0,0,1,0,.7c.2.2.4-.1.6.2,0,.3-.9.3-.8,0-.4,0-.3.8.1.7-.2.2-.3.6-.6.6a9.25,9.25,0,0,0-.4-1.9,5.13,5.13,0,0,0-.4,1,1.82,1.82,0,0,1-1.1.2m.2,8.5c0,.2-.2.3-.5.2-.1-.3.1-.3.1-.5.2.1.2.2.4.3m-2.1,2.8c.5,0,.1-.8.7-.7a8.3,8.3,0,0,1-.6,2.1c-.2,0-.2-.2-.4-.2.2-.7.8-.7.3-1.2m.7-1.7c0-.2.5-.1.5-.4.2,0,.3.2.2.5-.3,0-.3-.2-.7-.1m.2-17.1c.2-.2.4-.7.8-.4.1.2-.5.3-.1.4-.1.3-.6.4-1,.5,0-.2.9-.4.3-.5m1,4.1h.6a.85.85,0,0,1,0,.7c-.1-.1-.4-.1-.7-.1,0-.3.2-.2.1-.6m1.4-4.7c.5.2.3-.3.5-.5.2,0,.1.4.4.4s-.2-.3.1-.5c.4.1.2.4.4.5-.2.1-1,.7-.4.8.1.6-.8.4-.7,1-.8-.5.3-1.3-.3-1.7m-.1,4.2c.3.2.4-.4.1-.4,0-.3.3.2.5-.1-.3-.1-.2-.7-.2-1.1.8.1.4.8.6,1.2-.7.2-.3.9-.8,1.1,0-.3-.3-.3-.2-.7m.4-1.9c-.3.1-.3.6-.7.5.1-.3.2-.5-.1-.6.1-.2.3-.2.5-.2a.56.56,0,0,0-.1.6c.1,0,.1-.1.1-.2h.3Zm-1.1-.8c.1-.2.2-.3.2-.5.2,0,.3.1.5.1a.51.51,0,0,1-.7.4m.5-1.4c-.3-.1-.5-.5-.2-.7a.44.44,0,0,1,.2.7m-.1-1.5c-.3,0-.4-.2-.4-.5.3-.1.4.2.4.5m3.4,6.5c-.1.1-.3.1-.2.4-.4-.2.2-.5,0-.8.6-.2-.2.3.2.4m-1-1c.1-.1.1-.2.1-.4h.6c0,.3-.3.7-.7.4m.5-6.6a.56.56,0,0,0-.6-.1c0-.2.4-.1.4-.4.2,0,.3.2.2.5m.1,10.6c-.4.2-.2-.6-.4-.8.1.1.1.3.4.2.1.2-.3.5,0,.6m-.3,6c-.2-.2.1-.7.6-.6-.1.4-.1.7-.6.6m.3-4.6c0-.3.5-.1.7-.1-.1.2-.2.2-.2.9-.2-.2-.2-.6-.5-.8m.9,3.4c.4.1.5.4.5.8-.1,0-.1-.2-.1-.4-.3,0-.6,0-.6.4-.2-.1-.4-.2-.4-.5.2.3.7.2.6-.3m-.5-21c-.1,0-.1-.1-.1-.2s-.3.2-.1.2c-.2.3-.7-.1-.6-.4.2,0,.2-.1.2-.2h.5c0,.2.1.3.1.6m-.7,4.5c0-.1-.1-.1-.3-.1.4-.3,0-.6-.2-.7,0-.2.3-.2.4-.5.3.2.2,1,.1,1.3M77.6,51.5c0-.3,0-.5-.2-.5,0-.3.5-.1.6,0,0,.3-.1.5-.4.5m.1,1.3c-.2.7,0,1.2-.2,1.7-.7-.5-.2-.9-.2-1.8.1,0,.1.2.4.1m-.5,7.5c-.2-.3-.2.2-.6.1,0-.1,0-.2-.1-.2s.1-.1.1,0c.2,0,.7-.4.6.1m-3.4-5.7c-.3,0-.3-.4-.6-.4.3-.3-.1-.6,0-1.1.4.2.4-.2,1-.1.2,1.1-.6.9-.4,1.6m-.4,43.7c0,.1,0,.2.1.2,0,.2-.4,0-.4.2-.1-.3-.5-.3-.5-.6.4,0,.4.3.8.2M73,82.2c-.3-.1-.3.2-.6.1-.2-.6.7-.6.6-.1M71.8,105c.1-.4.4.1.7,0,0,.3-.1.8.4.6-.2.5-1-.2-1.1-.6m1.2-5c.2-.2.8-.1,1.1-.2-.3.3-.1.5-.2.7-.5,0-.3-.6-.9-.5m1.3,6.4c-.1,0-.1.2-.1.4-.3-.1-.4-.3-.8-.2-.1-.3.1-.3.1-.5.5.2.6.1,1,.4a.35.35,0,0,1-.2-.1m3.7,4.3c0,.1,0,.1.1.1-.2.3-.7-.7-.4-1,.1.1.2.1.4.1,0,.3-.3.5.1.6.1.2-.1.2-.2.2m1.1,7c-.3,0-.5,0-.5-.4.1,0,.1,0,.1-.1.4,0,.5.2.4.5m-.1-5.4v.5c-.5.1-.5-.6,0-.5m1.1-.8a1.55,1.55,0,0,1,.2-.8c.6,0,.2.8-.2.8m-.4-4.1c0-.4.4-.3.6-.4.1.4-.2.4-.6.4m1.1-7.8c-.5.2-.5.6-1,1,.2.6.6,0,1,0,.2.8-.6.2-.5.6-.3-.1-.8,0-.7-.5-.2.6.3.3-.1,1.1-.2,0-.3-.1-.5-.1s-.4.4-.2.6c.3,0,.1-.5.5-.4a7,7,0,0,1-1.5,1.9c0,.3.1.4.4.4-.3.2-.3.7-.8.6.1.3.1.7.4.7q-.3.15-.3.3c-.1.5.3.4.2.7a.35.35,0,0,0-.2.1,2,2,0,0,1-.1.7h.3c.1-.3.5-.6.5-.9.6,0,.5.6.8.8.2-.2.1-.8.6-.7,0,.2-.2.3-.4.5.4.1.6.6.7,1.1a.35.35,0,0,0,.2-.1c-.4.6.2.8.1,1.5a1,1,0,0,1-.8-.4c-.1.1-.1.2-.1.4-.3-.4-.2-.8-1-.5,0,.3.6-.1.4.4-.5,0-.4.4-1,.4v-.4h-.2c0,.3.2.3.1.6-.5-.3-.4.1-1,.1,0-.1-.1-.1-.2-.1.1-.4-.2-1-.5-.6-.5-.2.3-.2.2-.4-.8-.7,0-1.2-.5-1.9.2-.2.3-.4.6-.5,0-.3-.5,0-.6-.2.1-.3.1-.7.6-.6a2.09,2.09,0,0,1-1.5-1.3,8.06,8.06,0,0,1,1.2-1.8,24.24,24.24,0,0,1,0-2.7c-.2,0,0,.6-.5.4.7-1.2.2-1.1.6-2.3,0-.3-.3-.3-.6-.2-.2-1.5-.8-2.3,0-3.4-.1-.4-.9-.5-.5-1-.6-.1-.8-.7-1-1.2.1-.1.1-.3.4-.2-.5-.2-.3-.4-.5-1a1.1,1.1,0,0,1,.8,0,1.4,1.4,0,0,1,0-1.1c.4.1.4-.2.6-.2-.4-.7,1.1-1,1.1-1.6.2.1.1.6.6.5,0-.3-.1-.4-.4-.4,0-.2.3-.4.2,0,.3,0,.3-.2.6-.1a1.48,1.48,0,0,0,1,1.2v.1a.3.3,0,0,1,.4,0c0-.1-.1-.3,0-.5.1,0,.2,0,.2-.1.4-.1.1.6.4.6a.52.52,0,0,1-.4.2c.2.2.6.3.8.5-.8.8-.1,2.3,0,3.3-.2,0-.4,0-.4-.2-.6.2-.5.5-.4,1,.2-.3,0-.3.2-.6.2,0,.4.5.5.1.4.4-.1.8-.2,1.1-.2-.2-.6-.2-.6.1s.2,0,.2-.1c.2.5,0,.9.2,1.5-.3,0-.1-.3-.4-.4-.4.3.3.5.2.8-.4.2-1.1.1-1.2.5.1.3.6.1.5-.2.3.1.3.3.7.2-.1.4.3.5.2.8a1,1,0,0,1,.8.2c-.1.4-.2-.1-.4-.1-.4.6.5.3.7.7s-.3.4-.4.7c.4.1.4-.2.7-.1.2.3.1,1-.4,1,.8-.6.8-.8.6-.9m.6-5.8c.4,0,.3.7-.1.6,0-.3,0-.5.1-.6m.2,15.2c-.4,0-.3-.2-.2-.5.4.1.3.2.2.5m.2-17c-.1,0-.1-.1-.2-.1h-.1v-.1a1.45,1.45,0,0,1-.2-.7c-.4-.1-.2.3-.6.2-.3-.3.1-.3,0-.7.2-.1.4.4.5,0,.2.1.2.5.6.4h0c-.1-.3-.5-.5-.4-1.1a.81.81,0,0,1,.4,1.1h0l-.1.1c0,.1.3.5.4.2.1.1-.1.6.1.8H82v.1c-.1-.1-.1-.2-.2-.2m.1.2c.4.1.2.7.6.7-.3.4-.7-.2-.6-.7m.6-42.6c-.4-.2.3-.4.6-.4,0,.6-.6.3-.6.4m.4,1c.1-.1.1-.3.1-.6.4.1.5.7-.1.6m.2-26.7h.5v.5c-.2-.1-.6,0-.5-.5m1.3,83.3c-.3,0-.3-.3-.2-.6a.52.52,0,0,0,.4-.2c.1,0,.4.3.1.4.1.1.3.1.2.4-.2-.1-.5-.2-.5,0m.8,10.1a1.59,1.59,0,0,1-.4-1.2c.2,0,.3,0,.4-.1a1.56,1.56,0,0,1,.6.8c-.4-.2-.7-.1-.6.5m-.6-9.6c.1-.2.5-.2.5-.5.5.1-.2.9-.5.5m0,11.6v-.8c.5.1.4-.8.8-.4-.6,0-.1,1.3-.8,1.2m.2-1.6c.4-.5.9-1.2,1.5-.6-.1.6-1,.8-1.5.6m2.5,7.4c-.2,0-.2-.1-.4-.1,0-.3.2-.5.6-.5a.5.5,0,0,0-.2.6m1.4-60.4c-.1-.2-.2,0-.4,0,.1.4.2.6-.1,1-.8-.7,1-2.5,1.3-1-.2,0-.2-.2-.4-.2.3.6.2,1.6-.6,1.7.1-.9.3-1.1.2-1.5m1,21.1c-.3.1-.3-.1-.5-.1.1-.1.1-.2.1-.4.2.1.4.2.4.5m-.4,27.5c-.4-.1-.2-.6-.1-.8.5,0,.5.5.1.8m.1-10.3c0-.1,0-.2-.1-.2s.2-.1.4-.1v-.4c.3.1.2.7-.3.7m2.2,12.4c.3-.9-.3-.8-.7-1.1.3-.3-.1-.5-.1-.8.5.1.4,0,1,0a.75.75,0,0,0-.1.5.45.45,0,0,0-.5,0c.4-.2,1.8,1.3.4,1.4m.9-55.2c-.1,0-.2,0-.2-.1v-.2c.3.1.3-.2.6-.1.1.4-.6-.1-.4.4m-.2,1c.6-.2.4.6,1.1.6-.3.5-.8.5-.7,1.1-.2,0-.2-.1-.4-.1,0-.5.2-.8-.4-.8.1-.4.4-.5.4-.8m1.1,11c.1-.2.5.2.5.5-.4.1-.7.1-1,.2a5,5,0,0,1-.5-1.3.84.84,0,0,1,.7,1c.3,0,.6-.4.3-.4M93,76.3c.3,0,.2-.2.5,0,0,.1-.1.1-.2.1a.52.52,0,0,0,.4.2c0,.3-.3.3-.6.2.1-.1-.1-.2-.1-.5m.4,2.5c.1.1.2.1.4.1a.85.85,0,0,1-.5,1.1c0-.2.1-.2.2-.2-.2-.6.3-.6-.1-1m-.8-3.2c.1-.8.5.1.8.1s-.1-.2.1-.4c.3,0,.4.2.4.5-.5.3-.7-.2-1.3-.2M92,60.3c-.3,0-.2-.4-.7-.2a.45.45,0,0,1,.6-.2c0,.2.3.2.1.4m-.1.4c-.1.1-.1.2-.1.4-.4.1-.2-.3-.6-.2a.44.44,0,0,1,.7-.2m-.7,30.4c.5,0,.2.8-.2.6.1-.1.1-.4.2-.6m1.4-3.2c-.2,0-.3.1-.5.1v-.7c.3,0,.6.1.5.6m-.4-10.2c.1-.3.5-.2.2-.6.5-.1.5.3.8.4-.2.3-1.1,0-.5.4,0,.3-.3-.1-.5-.2m.6,19.4a1.08,1.08,0,0,1,1.5-.7c0,.8-.8.9-1.5.7m1.1.9c.1,0,.1.1,0,.1,0,.2.3.2.2.5-.5.1-.3-.5-.6-.5,0-.4.4.3.4-.1m-.4,5.2c0-.6.5-.3.7-.5,0,.5.3.3.4,1-.5,0-.7-.3-1.1-.5m1-10.6c.1-.4-.2-.4-.4-.5-.4.1-.1.2-.1.5-.3-.3-.3-.1-.8-.1.1-.7.8-.2,1.2-.7-.6-.6-1.2-.1-1.5.2-.2-.4.5-.8.8-1.1-.1.6,1.3-.1.8-.7.2.3.3.7.6.8-.2.3-.2.9-.7.6a.56.56,0,0,1,.1.6c.4-.1.7-.1,1.2-.2a1.45,1.45,0,0,1-.2.7c-.6.2-.6-.3-1-.1M97,92a1.21,1.21,0,0,1-.5-.5c-.1-.4.2-.4.2-.6.2.1.3.2.5.2-.6.2,0,.6-.2.9m-.4,1.9c0,.2-.5,0-.5.4-.1,0-.1-.2-.1-.4a.64.64,0,0,1,.6,0m.1-11.8c-.5,0,0-.1-.1-.4a4.23,4.23,0,0,0-1.2.4c0-.2-.3-.2-.2-.5.7.4.7-.5,1.5-.1-.1.1.2.6,0,.6m-1,13.3c-.1.4-.3.3-.1.8-.6,0-.4-.7-.6-1,.3-.3.2.3.7.2m0,3.2a.47.47,0,0,1-.5-.5c.2-.3.9-.2.6-.7.4-.2.1.4.4.4-.2.2-.6.3-.5.8M97,97.1c-.2-.3-1.3-.4-1-1,.4-.1.2.4.5.4s0-.2,0-.4-.4,0-.6-.2a.76.76,0,0,1,.2-.5c.4,0,.2.7.7.6,0,.3,0,.6-.1.7.4-.2.4,0,.8,0,.1.3-.4.1-.5.4m1.2-1a.75.75,0,0,1-.5.1c0-.1.1-.1.2-.1-.1-.5.1-.5-.4-.6v-.2c.3,0,.5,0,.6.1,0,.4.1.3.1.7m2.4-35.4c-.2,0-.2-.2-.4-.2,0-.2.2-.2.2-.4.5.1.3.3.2.6m1.9,17.8c-.2-.1-.4-.2-.4-.5.1,0,.2,0,.2.1a.92.92,0,0,0,.4-.6h.2c0,.1,0,.1.1.1-.2.5-.3.4-.5.9m2.9-17c-.2-.1-.3-.2-.5-.2.1,0,.1-.6,0-.2-.3-.3.1-.7.6-.6a3.08,3.08,0,0,1-.1,1m-1.1-12.1h.3a.64.64,0,0,1,0-.6c.1.1.2.1.4.1-.1.5.1.8.4.8,0,.3-.5.1-.4.5l-.3-.6a.59.59,0,0,0-.2.5c-.5.1-.1-.2-.2-.7m-1,3.8a4.12,4.12,0,0,0-1.2.1c.1.4.2.7.5.8.1-.3.4-.4.5-.7.5.1.5.6.8.7-.3.4-.2,1.2-.4,1.7-.5.3-1-.7-1,.1-.4-.1-.6-.4-1.1-.5-.1-.8,0-1.3-.7-1.6-.2-.3.3-.9-.5-.8.1-.4.5-.4.5.1.6-.4.7,0,1.5,0,.1-.5,1.2-.8,1.1.1m-3.1-22.5h.5c-.2.8.2.9,0,1.8-.8-.3-.5-.8-.5-1.8m.5,9c.5-.1.4.4.8.2-.7.2-.1.7,0,1.2-.3-.2-.7-.4-.7-1-.1.1-.4.1-.7.1,0-.7.7.4.6-.5M99.5,89.1c.3,0,.2.4.7.2-.2.2-.6.1-.6.5-.4,0-.3-.6-.1-.7m-.3,5.4c-.1.3-.5,0-.7,0s.3.6.2.7a8.66,8.66,0,0,0-1-.2l.6-.6c-.1-.3-.5-.3-.2-.6.7-.1.4.8,1.1.7m-.5-32.8c.3,0,.1.5.1.7-.4.1-.4-.2-.6-.2.1-.3.6-.1.5-.5m-.5,1.6c.3-.1.2.2.5.2-.2.1-.2.4-.5.4Zm-.5,11.2c-.4.7.4.6.5,1.2-.5,0-.7-.3-1,.1-.2,0,0-.5-.4-.5.4-.2.6-.3.2-.7.5.1.4-.2.7-.1m-.3-43.3a2.43,2.43,0,0,0,0,1.2c-.2,0-.3-.1-.5-.1.1-.2.2-.3.2-.5-.4.2-.6-.1-.6-.6.5.2.5,0,.9,0m-1.8-6.7c-.1.4.2.4,0,.6-.2,0-.2-.1-.4-.1.1-.2.1-.5.4-.5m-.3,5.7c.3.3.4-.1.8,0-.2.5.3.2.2.6-.4-.1-.3.4-.7.2.1-.4-.4-.3-.3-.8m.4,25.2c-.2,0-.1-.5-.4-.5.2-.3.5.1.7.1.1.3-.5-.1-.3.4M94.2,68.5c-.1.1-.1.2-.1.4.5-.2,1.5-.7,1.8-.4,0-.3.1-.3.5-.4,0-.2-.4-.6-.1-.6,0-.1-.5-.1-.5,0-.3-.3.5-.4.5-.2a1.57,1.57,0,0,0,.4-1.2c.5,0,.6,0,.8.1-.4.5.1.6,0,1.3-.4-.1-.2.3-.6.2.2.7-.4.5-.1,1.2-.3-.7-.5.1-.8-.1,0,.1,0,.2-.1.2.1.3.5-.2.7.1-.4.1-.6,1-1.3.7,0,.5.5.7-.1.8.1.4.5.4.5.8-.7-.2-1,.9-1.7.4a.52.52,0,0,0-.4-.8c.1-.1.1-.2.2-.2a2,2,0,0,1-.4-2.2c.5.3.4-.2.8-.1M90.8,31.4c.2-.1.7.2.6-.2.3.4.7-.2.8-.8.2,0,.2.1.2.2.4-.2-.3-.6.1-.8.4.1,0,1,.8.7-.1.7-1.2.7-1.1,1.3-.5-.4-1,.7-1.5.2-.3-.2.1.1.4,0,.3-.4-.5,0-.3-.6m0,27.1c.2,0,.2.4,0,.4,0,.1.2.1.2.2.2-.1.2-.3.2-.5l-.4-.4c.2-.2.7.3,1.1.4,0,.1-.1.1-.1,0-.5.6.2.3-.2,1H91c.2-.5-.7-.5-.5,0-.3-.3.2-.8.3-1.1m-.4,33.3c-.2.3-.5.5-.3.9a1.51,1.51,0,0,1-.8-1.3.1.1,0,0,1-.1-.1l.1-.1V91h.1c.1-.1.1-.2.3-.2V91h.2a2.19,2.19,0,0,0,.3.5.6.6,0,0,1,.1-.4c.5.1.5.7.1.7m-1.2-63a.92.92,0,0,1-.6.4c-.3,0,.7-.5.2-.2-.4-.3.3-.5.4-.2m-.9-18.2c.3,0,.2.6-.1.6a1.27,1.27,0,0,1,.1-.6m.5,2.9a.43.43,0,0,1-.8.2c.1-.3.4-.2.8-.2M87.3,29.7c.5.1.7-.1.8.2.2-.2.5-.3.6-.6.3.1.6.1.6.5-.1.2-.2.2-.5.2v.5c.6-.5.5.2,1.1.2-.2.4,0,.6.2.8-.2.3-.6.5-.1.7-.1.4-.7.3-.8.6s.4.3.5.6c-.2.3-.9,0-.7.6-.4-.1-.5.2-1,.1.4-.5-.1-.6-.6-.8.1-.2.4-.2.5-.5-.5.2-.6-.1-.6.2-.4-.1-.3-1.6.1-1.5-.5-.3-.4-1.1-.1-1.8m-.2,55.6c-.3,0-.5,0-.5-.4-.2,0-.2.6.1.4.1.3-.2.3-.1.6-.6-.2-.1-1.4-.8-1.3,0-.1.1-.1.1-.2s.1,0,.1-.1c.1.3.4.3.8.2.1.4.4.4.3.8M86,49.2a1,1,0,0,1,.8-.4c0,.4-.3.5-.8.4M86.6,35c-.2.5,0,1.1-.2,1.7-.1-.1-.2-.1-.4-.1a1.82,1.82,0,0,0-.2-1.1c.1-.3.4-.4.8-.5m-.2,54.6c.2.3-.6.3-.2.5,0,.2-.3.1-.5.1,0-.6.2-.9.7-.6M85,31.6a.57.57,0,0,0-.2.7c-.7-.3.2-1.3-.5-1.4,0-.5.2-.2.6-.2-.1.7.5,1.2.4,1.5-.4,0-.2-.3-.3-.6m-.1-9c.2,0,.3.2.2.5h-.4c.1-.3.2-.3.2-.5m-.1-.7c.3-.3.2-.3.1-.7.1-.1.3.7.5.8-.1-.1-.3-.1-.6-.1m.2-8.6c.2.2,0,.8,0,1.5-.5-.5,0-1.3-.7-1.6.3-.5.6.4.7.1m-.7,10.8c.2,0,.2.2.4.2-.2.2-.7.4-.6-.1.1,0,.2,0,.2-.1m.1,14.2c.5,0,.3-.6,1-.5,0,.6-.6.9-.1,1.3h-.5c-.2-.5,0-.8-.6-.7,0-.2,0-.3-.1-.4,0-.3.4,0,.3.3m-.3,3.1c.3.1,0,.7.1,1-.3-.1-.2-.6-.1-1m-.7,68.8c.2-.2,0-.4,0-.7.5,0,.3,0,.2-.4.2,0,.2.1.4.1-.3.6-.1.9-.6,1M83,18.1c.4-.1.2.5.2.7-.2,0-.2-.3-.2-.7m-.1,1c0,.1,0,.1.1.1,0,.2-.4.1-.5.2.2.3.7.3,1.1.1-.1.3.2.9-.2.8,0,.1,0,.1.1.1-.1.3-.3-.3-.4-.4-.2.5-.7.1-.8-.2a3,3,0,0,1,.4-1c0,.2.1.3.2.3M80.7,8.7a.56.56,0,0,1,.1.6c-.3,0-.2-.4-.6-.4,0-.2.2-.2.5-.2m-1.8,8.1c1.1.4,1.7,0,2.8,0a.28.28,0,0,0,.2.5.73.73,0,0,0,.6,1.1c-.4.4-.2,1.4-1.1,1.3.3-.3-.1-.3,0-.7-.3.4-.6.9-1.3.8-.5-.5.1-.6.1-1.2-.5-.2-.3-.3-.2-.8-.3,0-.1.5-.5.4-.2-.4-.2-.6-.6-.6,0-.5-.2-.4,0-.8m.2,1.9c.1,0,.1.2.1.4a.38.38,0,0,1-.6,0c.1-.2.6,0,.5-.4m0,2.7h-.5c-.1-.5.6-.5.5,0m-1.3-4.8c.2,0,.2.3.5.2v.5c-.3.1-.5.3-.8.2.4-.2.1-.5.3-.9m.2,6.9c.1.1.1.3.4.2-.1.4-.3.1-.5,0s-.1.2-.2.2c.3.5,1.2.8.8,1.6-.5-.2-.5-.6-.8-1.5-.5-.2,0,.5-.5.4a.38.38,0,0,0-.1-.6c.3-.2.6,0,.9-.3m-3.6,5.3c.9.1,1-.7,1.2-1.3.3,0,.4-.2.7-.1-.6-.6.3-.6.5-1.1-.3-.3-.8-.4-1-.8.1-.3.1-.6.2-.8.6,0,.5-.1,1,0,0,.8.2.8.6,1.2a1,1,0,0,1-.2.8c.4,0,.5-.1.4.7-.3,0-.3-.2-.6-.1a1.56,1.56,0,0,1-.7,1.8c.1-.3-.1-.3-.1-.5-.2.1-.4.1-.5.4-.3-.2.1-.7.1-.8.3-.1.2.2.4.2s.2-.1.2-.2c-.9-.4-1.5.7-1.8,1.3.1.1.1.2.2.2s.3-.5.1-.5c.8-.1,0,1,.4,1.2-.4.4-.9-.5-1.3.1-.1-.6.3-.9.2-1.7m-1.8,9c.3.3.5.5.8.5-.3.6-.8-.3-1.2-.1,0-.3.4-.1.4-.4m-.8-20.1c.1.1.2.1.4.1.1.4-.4.3-.4.7-.5-.1,0-.3,0-.8m-.4,8.8c.4-.1.1.4.6.2-.2.4-.5.2-.8.1,0-.1.2-.1.2-.3m.2,4.7c-.2,0,0-.5-.4-.5.4-.3.9.3.4.5m-.5,23.4c-.4,0-.3-.4-.4-.6a.37.37,0,0,1,.4.6m.8-.3c.3-.1.3.1.5.1,0,.6-.8.4-.5,1.1-.4,0-.3-.2-.2-.5-.3,0-.3.2-.6.1,0,.2.1.2.2.2-.1.2-.3.2-.5.2-.1-.2-.1-.5-.2-.6.8-.1,1,.1,1.3-.6m-.8,2.8c.1.3-.5.1-.5.4-.6-.2.3-.7.5-.4m-.3.6c0,.3,0,.5-.4.5.1-.2.1-.3-.1-.4.1-.2.4-.1.5-.1m.2,1.1c0,.3-.4.3-.5.5s.4,0,.4.2c-.1.6-1,.3-1.3.6-.3-.2.7-1.7,1.4-1.3M69.9,46.1c-.3.3.1.3,0,.7-.3.1-.2-.2-.5-.2.2-.1,0-.6.5-.5m-.6,9.3c.3,0,.5,0,.5.4-.4,0-.6-.1-.5-.4m-.9-8.9c-.2.4-.7.5-1,.7-.2,0,.1-.2-.1-.2.2-.1.7-.4,0-.4.5-.3.7.4,1.1-.1m-.8,7.7v-.6c.4.4.5,0,.8-.2.3.3-.5.6-.8.8m-.7-8.4a.75.75,0,0,0,.1-.5c0-.1,0-.1-.1-.1.2-.2.5.4.7.6-.1.2-.3.2-.5.2,0-.1,0-.1.1-.1s-.2-.1-.3-.1m-.5-16.1c.2,0,.3.1.5.1,0,.8.3,1.3.8,1.2-.5.2-.2.5-.5,1-.6.2-.6-.8-.2-.5,0-.3-.1-.4-.4-.4.5-.3.1-.9-.4-.8a.85.85,0,0,1,.2-.6m-.9,30.6c-.3.3.1.3,0,.7.2-.3.3-.3.5,0,.1,0,.1-.2.1-.4s-.6.1-.4-.4c.5.1,1.1.1,1.2-.5.6.2,1-.2,1.6,0-.2.4.1.5.4.7.1,0,.1-.1.1-.2.4-.1.2.3.6.2-.1.2-.4.3-.4.6-.3.1-.3-.1-.5-.1-.1.3.2.3.1.6-.3,0-.6,0-.4-.2-.6-.1-.2.7-.7.6.1-.3-.2-.3-.1-.6-.3.3-.3.2-.7.1-.2.1-.2.5-.4.6h-.4c-.2-.3.1-.5-.1-.8-.8.4-1.2-.4-1.9-.5.7-.1.8-.3,1.4-.4m10.7,47.8a4.35,4.35,0,0,0,.6.7c0-.3-.3-1-.6-.7m13.9,46.4H77.9c-.1.1-.1.2-.1.4h-.1c0,.2-.1.4-.1.6h0c.2-.1.1-.5.6-.4-.2.3-.2.8-.7.7h0c.4.4-.1.2,0,.8a.1.1,0,0,1-.1-.1,75.53,75.53,0,0,1-2.3,9.7h.3c-.2,1.1.3,1.1.5,2.1.2.2.7.1.8.4-.6-.1-.5.6-.3,1.2.1,0,.1-.1.1-.3H77v.5a.76.76,0,0,0-.4-.1c0,.1,0,.1.1.2.2.4.4.8,1.1.7a5.78,5.78,0,0,0-.6,1.7c-.3.1-.3-.3-.4-.2v0c.1-.3-.3-.9-.4-1.3h-.1c-.2,0-.2-.1-.4-.1-.1-.3.2-.2.4-.2a.1.1,0,0,0-.1-.1c-.1,0-.2.1-.3,0v-.1c-.1.1-.3.4-.1.3-.7.3-.6-.5-1.5-.4,0-.5.6-.4,0-.6a.45.45,0,0,1,.6-.2c-.1.4.4.3.4.7.5-.2-.1-.9-.5-1,.3-.2.3-.8.5-1.2a.52.52,0,0,0-.4-.2v-.3c-2.6,8.3-7.2,18-15.1,23,0,.5.9.1,1.1.1-.5.8.4.8.1,1.6-.2.2-.2-.1-.5-.1-.1.2.1.7-.2,1a2.29,2.29,0,0,1-.6-1.5c.2,0,.2.2.4.2s.1-.1.2-.1c0-.2-.2-.2-.2-.4-.3.1-.7.2-.8.5-.1-.5-.8,0-.8-.5-.1.1-.2.1-.3.2s.3.2.3.5c-.3.1-.3-.1-.5-.1,0-.1.1-.2.1-.3h0a22.92,22.92,0,0,1-4.6,1.7s12.5,4.8,20.3-.4c-.5,0-.2-.4-.1-.6a.48.48,0,0,1,.2.6,15.76,15.76,0,0,0,1.5-1.2,2.37,2.37,0,0,1-.3-1c1.4-.8,2.4.5,1.5,1.6-.5-.1-.5-.5-1.1-.2-.1,2.4,0,13.6,9.1,13.6,0,0,9.2.5,8.9-12.2l-.3.3c-.8-.2-.7-.5-1.5-.6a2.77,2.77,0,0,0-.5-1.6,1.55,1.55,0,0,1,1.3-1c-.3.8-.4,1.4.6,1.7.1,0,.1-.2.1-.4h.1a1.7,1.7,0,0,0-.1-.7,21,21,0,0,0,10.2,4,.1.1,0,0,0-.1-.1c.2-.1.3,0,.3.2a20.7,20.7,0,0,0,11-1.9c-.3.1-20.5-4.8-24.5-39.1M76.9,165.4c.1-.3.5-.3.7-.4-.1.5-.3.4-.7.4m.3,5.5c0-.2.1-.3.1-.5h.4a.47.47,0,0,1-.5.5M61.4,193.6c-.4.4-1,.7-1.5.1,0-.1.1-.1.1,0,.2.1.5-.3.2-.4.4-.3.3.3.4.6.2-.2.5-.7.8-.4.1.3,0,.2,0,.1m.4-1.1h-.2c-.1-.1-.1-.2-.1-.4.2,0,.3,0,.4-.1.2.1-.2.3-.1.5m26.8-34.9c.4,0,.3.4.2.7-.4.2-.1-.4-.2-.7m-1.7,4.6v.5c-.5.1-.5-.6,0-.5m-3-7c.3.2.2.3.6.1a.57.57,0,0,1-.6.4.45.45,0,0,1,0-.5m.1,8.7c.2,0,.2.1.4.1.1.3-.2.2-.2.5-.4,0-.2-.4-.2-.6m-.5-7.6c.1,0,.2,0,.2.1,0-.1,0-.3.1-.3s.2.1.4.1c0,.2-.1.3-.1.5-.2,0-.3-.1-.3-.2,0,.1-.1.3,0,.3s-.2.1-.4.1c0-.1,0-.2-.1-.2,0-.2.2-.2.2-.4m-1,7c.2,0,.2.1.1.1.5.2-.1.6.5.4,0,.2-.2.3-.5.2.1-.3-.2-.3-.1-.7m.1-3.3c.3.1.2.6.4.8-.2.2-.4-.1-.6-.1-.1-.3.3-.2.2-.7m-.5,32.2a.57.57,0,0,1-.6.4c-.1-.4-.1-.2,0-.6.2,0,.2.3.6.2m-.6-29.1c-.1.1-.1.2,0,.2-.1,0-.7.3-.6-.2Zm-1.4-2.3c.4.2-.4.7-.6.4,0-.4.5-.2.6-.4m-1,2.1c.4-.2.7.5,1.2.4,0-.4-.2-.3-.5-.2,0-.3-.3-.4-.4-.7.2-.1.2,0,.4,0,.1-.5-.6-.5-.2-1a14.31,14.31,0,0,0,1.6,2.4c-.2.2-.8-.2-1.1-.4-.1,0-.1.1-.2.1.4.4-.2.8-.7,1-.2-.4-.1-.7-.2-1,.1-.2.4-.2.6-.2a1.76,1.76,0,0,0-.5-.4m-.3,18.4c.1-.4.3.1.5.1a.38.38,0,0,1-.6.1c0-.1.1-.1.2-.1s0-.1-.1-.1m.6-8.1c.5,0,.2.7.7.6-.1.4-.7-.2-.5.4-.3.4-.3-.4-.6-.4.4-.1.6.1.4-.6m-.2,3.2c0-.1.2-.1.4-.1v-.5c.3.1.4.5.6.6,0,.1-.1.1-.1,0-.4,0-.7.3-.9,0m.3-7.1c-.1.3-.1.6-.2.8-.3,0-.4-.9.2-.8m0,3.2c.2.2,0,.3,0,.6a5.16,5.16,0,0,0-1.1-.2c.1-.1.1-.2.1-.4.6-.2.8.5,1,0M78.3,171c.1.2.4.2.4.5-.4.1-.6-.2-.4-.5m-1,2.7c.5,0,.4.6,1,.6-.2.5-.7-.5-1,0-.2,0,0-.5,0-.6M74,170.9c.1.2.1.6.5.8,0,.6-1.5-.7-.5-.8m-.5,1.3c.2,0,.1.4.2.5,0-.2.1-.4,0-.6a1,1,0,0,1,.4.5c.2-.1.3-.1.5.1.3,0,.3-.3.2-.6.3-.1.2.2.5.2,0,.4-.3.4-.2.7-.4-.3-.7.2-.8-.2-.1.1-.1.2-.2.2v.3c-.2,0-.2-.1-.4-.1v-.1c-.2,0-.3-.1-.5,0-.4-.7.4-.2.3-.9m.1,5.8c-.3-.2-.4-.6,0-.7.4.1-.1.4,0,.7m-7.1,11.9c-.2-.1-.5-.1-.4-.5.3-.1.3.1.5.1-.1.1-.1.2-.1.4m2.7-6.5c.3,0,.4.2.6.2,0,.3-.1.6-.5.5.1-.4-.2-.4-.1-.7m1.2,7.3c-.3.1-.6.2-.6-.2.4,0,.6-.3.6.2m-1.1,1c.5-.1.7.1,1.2-.1-.3.2-1,.7-1.2.1m.9-11.4a.53.53,0,0,1,.6-.6c.1.5-.3.6-.6.6m1.3-.1c0-.2.1-.3.1-.5.3,0,.1.3.4.4,0,.2-.3.1-.5.1m.7,13.3a.52.52,0,0,1-.2-.4c.2-.2.6-.2.7,0-.1.3-.5.1-.5.4m.3-17c.1-.4.3-.6.4-1.1.4.4.2.6.2,1.3-.4.1-.2-.3-.6-.2m.4,6.5c.3-.4.8.2,1.1.2-.5.5-.8.3-1.1-.2m1-5.7c.1-.3.7,0,1-.1-.4.4-.5.3-1,.1m.9,4c0-.3-.1-.4-.4-.4.2-.5.4.2,1,0a.55.55,0,0,1-.6.4m.7-9.9c.5-.1.5.3.8.4a1.61,1.61,0,0,1-.4.7h-.4c0-.3-.2-.9,0-1.1M77,188.8c-.2,0,0-.7.4-.6-.3-.4-.5-.5-.5-1-.3.2-.2.3-.1.6-.9-.2.3-.7,0-1.3.3.3.3-.3.7-.1s.1.9.6.8c-.1.2-.1.5-.5.4a1.17,1.17,0,0,0,.2.7c-.1.3-.3.5-.4.8-.2.1-.1-.8-.4-.3m1.3-3.1c0,.3-.4.1-.6.1-.1-.2-.1-.5-.4-.5.1-.2.3-.2.4-.5.7,0,.3.5.8.5.3.5-.6.3-.2.4m.6,1.7c0,.1-.2.1-.2.2-.4-.3-.3-.3-.4-.8.6-.2.4.5.6.6m-1,5.5a.76.76,0,0,1-.5-.2c.4-.3,0-.8.6-.8,0-.1-.1-.1-.1-.2-.2,0-.2.3-.5.2,0-.1.1-.1.2-.1-.1-.1-.1-.2-.2-.2.5-.6,1.3-.1,1.8-.5.6.4.1,1,.6,1.5-.4.2-2-.3-1.9.3m1.7-2.4c-.3,0-.6-.3-.4-.5.3,0,.4.2.4.5m-.1-6.3v-.5c.2.3.5-.2.7.1a1.61,1.61,0,0,1-.7.4m.8,3.1h-.4c.1-.2.1-.6.6-.5,0,.3-.3.2-.2.5m-1.6-3.7c.6-.2.2-.8.7-1-.2-.4-.6-.4-1.1-.4a.46.46,0,0,1-.5.4v-.4a1.42,1.42,0,0,1-.6-.2.22.22,0,0,1,.2-.2v-.1c-.1-.1-.3.2-.6.1-.2-.3,0-.2-.1-.6-.4.1-.6.3-1,.4-.3-.2.4-.2.2-.6a1,1,0,0,1,.8.2c.1-.5.3-.4.5-.5h0a.35.35,0,0,1,.2-.1l.1-.1a.1.1,0,0,0,.1.1.44.44,0,0,0,.3-.6c.2.1.2.5.6.5,0,.1,0,.1-.1.1v.2c-.3-.2-.2-.3-.6-.1h0c.2.2.5.2.7.4-.3.7.5.4.4,1,.3,0,.4-.3.5-.6.5,0,.6-.2,1,0-.3.2.1.4.2.6.1,0,.1-.2.1-.4a.57.57,0,0,1,.4.6c-.7-.1-.4.2-.4.6-.6-.1-.9.6-2,.7m2.5.4c.4-.1.4.2.6.2,0,.1-.1.1-.1,0a.85.85,0,0,0-.6.2c-.4-.1.3-.1.1-.4m.7,17.4c-.5.1-.2,1-.5,1.3-.5.2,0-.6-.4-.6.7-.5.3-1.8,1.6-1.9.1.5-.5.3-.4.8s.3-.1.5,0c.1.5-.5.6-.8.4m1.5,4.4c-.3-.3-.4.1-.8,0-.1-.5.4-.4.1-.8.1,0,.2,0,.2-.1.1.3.4.3.4.7.3,0,.1-.5.5-.4,0,.4-.5.2-.4.6m1.4-18.9a1.5,1.5,0,0,0-1-.2c0-.4.5-.4.7-.6-.2.4-.4.5.2.4v.4Zm.8.8c-.2-.1-.2-.4-.2-.6.1,0,.2,0,.2-.1.4.1-.1.4,0,.7m1.1.6c.2-.4-.1-.4.1-.7.2.1.2.4.2.7Zm.6-.1c.4-.1.1.7.4.7-.3.1-.6-.3-.4-.7m.2-3.1a.5.5,0,0,1-.5.8c.1-.3-.1-.3-.1-.5-.3.1-.4.4-.5.6-.6,0-.5-.1-1,0-.1-.3-.3-.5-.4-.8a.27.27,0,0,0,.3-.3v-.3h0v-.1c-.1-.3-.3.2-.6.1v-.1h-.2c.4-.5-.1-.8-.6-.6-.1-.4.3-1.1-.4-1,0-.8.4-.5.5-1.2.4.5,1.2.6,1.5,1.3.6.1.5-.3,1-.2,0,.3.8.8,1,.4.3.4-.1.9.1,1.5-.4-.1-.3.3-.5.5h-.7c-.1.1-.1.2-.1.4.7-.1.7-.6,1.2-.5m-2.5-8c.2-.2.6,0,.7.2-.1.3-.9.2-.7-.2m2.5-5c-.2.9.4,2.2-.4,3.4a.52.52,0,0,1-.4-.2.48.48,0,0,1-.8.2c0,.1,0,.2.1.2-.1.2-.3-.1-.6.1a.75.75,0,0,0,.1-.5c-.3.2-.2.4-.1.7-.4.2-.4.1-.8.4.1-.6-.5-.5-.5-1-.4.1-.2.8-.7.8-.3-.2.3-.6-.1-.8a.52.52,0,0,1,.4-.2c-.6-1.1,0-1.7,0-2.5.6.4,1.1-.1,1.5,0,0-.3-.4-.4-.4-.7h-.6c.8-.4.3-1.2.9-1.8a.76.76,0,0,1-.2-.5c.4-.3.1-.9.6-1.3.5.5.8,1.2,1.5,1.6-.1.4-.4-.1-.6.2.1.1.1.2.1.4.2,0,.2-.3.5-.2.1.3-.2.3-.1.6a4.33,4.33,0,0,1-.5-.1c0,.2.2.2.5.2,0,.3.2.3.1.6.1-.1.2-.2.1-.4.5,0,.3-.1.7,0,0,.3-.2.4-.2.6s.1.2.3.4c-.3,0-.4-.1-.4-.2m.4,12.3c0-.2.1-.3.1-.5a2.51,2.51,0,0,1,.7.4c-.2.2-.6.4-.8.1m.6,5.6c-.1-.4.2-.4.2-.6.1.1,0,.5.4.6,0,.3-.5.1-.6,0m3.4,5.5c-.3-.4-.3-.2,0-.6.4.1.2.8,0,1-.2-.2-.2,0-.5,0-.1-.5.4-.3.5-.4m.2-10.4c0,.3,0,.6-.2.7-.4,0-.1-.7-.7-.5.1-.4.4-.3.9-.2m-.8,5.3c.1-.4.2-.1.5-.1,0-.3-.3-.3-.6-.2.1-.2-.1-.7.1-.7.5.1.2.8.7.8.1.3-.5.3-.7.2m.2-1.8c.1-.1.3-.1.2-.4a.47.47,0,0,1,.5.5c-.2-.2-.4-.1-.7-.1m1.6-9.7a1.13,1.13,0,0,1-.8-1.6c.2.3.5.7.1,1a1.1,1.1,0,0,1,.8,0c.1.3-.2.3-.1.6m0-1.6c.1-.5.7.1.7.5-.1,0-.2,0-.2.1-.5-.1-.1-.5-.5-.6m.7,9.9c.3,0,.3.4.5.5-.3.4-.9-.2-.5-.5m.3-.8c-.3-.1-.6-.2-.6-.5h.7a4.33,4.33,0,0,0-.1.5m.2-10.7c-.4-.1-.1-.2-.1-.5h.2c0,.1,0,.1.1.1v.2l-.2.2m.9,13.2c-.2-.1-.3-.3-.7-.2.3-.2.3-.5-.1-.6.5,0,.6-.3.1-.7.4-.3.4.4.8.2.1.7-.4.7-.1,1.3m.9-2.4c.1-.3.7,0,1-.1-.2.7-.7,0-1,.1m1.7,5.9c-.3,0-.1-.5-.5-.4,0-.3.4-.1.6-.1,0,.3-.1.3-.1.5m11.5,1.8c.5.4.5-.4.8-.1,0,.3-.4.3-.6.5-.1,0-.1-.1-.2-.1Zm-4-1.8c.4.2-.1.8.4.8-.1.4-.3-.1-.5,0-.1-.3.4-.5-.1-.5,0-.1.2-.1.2-.3m-8.5-62.6c-.1,0-.2.1-.4,0H87.7c0,.1,0,.2-.1.2l-.2-.2H84.3c-.1.1-.3.1-.6.1v-.1H79.2a2.08,2.08,0,0,1-.1,1.1c-.3-.1.1-.8-.5-.6v-.5H61v.1c-.1,0-.1,0-.2-.1a4.29,4.29,0,0,0-4,4c0,2.3,2.2,4.1,4.8,4.1h5.2c-.1-.2.2-.6.4-.7.4.1.1.5-.1.7h39.1a7.72,7.72,0,0,0,1.5-.2.75.75,0,0,1,.1-.5c.2,0,.3.2.4.4a4.42,4.42,0,0,0,2.6-2.4.19.19,0,0,0-.3,0c0-.2.2-.3,0-.4.2-.3.3-.2.5-.1a2.2,2.2,0,0,0,.1-.8c-.1,0-.1,0-.2-.1a1.42,1.42,0,0,1,.2-.6.76.76,0,0,0-.1-.4h-.1l.1-.1a4.88,4.88,0,0,1-.3-.7c-.1.1-.2.1-.4.1,0-.1.1-.2.3-.2h0c-.1-.1-.2-.3-.3-.4v.1c-1,.5-.9-.1-.8-.9a5.78,5.78,0,0,0-3.2-1h-3c0,.3-.3.1-.4.4-.2,0-.3-.2-.2-.4H96.8Zm-32,3.3c-.4-.2-.9-.4-1-1,.4.1.4-.3.4-.6.3,0,.1.3.4.4a1,1,0,0,0,.4-.8c.6.9-.7,1.1-.2,2m.5,1.7c.1-.6-.4-1.2.4-1.3,0,.4-.4.9.1,1-.5-.1-.1.1-.5.3m.8.5c.3-.3-.1-.3,0-.7.3.1.3-.2.6-.1-.2.2-.1.7-.6.8m1.5-1.7c-.2-.2-.7-.1-.7-.5.3.2.9-.1.7.5m18.9-2.4c.2,0,.2-.1.2-.2.4.1.1.2.1.6-.2,0-.2-.1-.4-.1v-.3Zm-17,3.9c-.2,0-.3-.2-.2-.5h.4c0,.3-.2.4-.2.5m2.4,2.7c-.4-.1.1-.4,0-.6a.47.47,0,0,1,.5.5c-.2,0-.5-.1-.5.1m.9-3.9c-.3-.6-.9.5-1.2-.1-.1,0-.1.2-.1.4a.85.85,0,0,0-.7,0c0-.2-.1-.2-.2-.2.1-.5.5-.6.1-1l.8-.8c.3.2,0,.6-.2.6,0,.1.1.1.1.2.1-.3.7-.1.7-.5a.75.75,0,0,0,.5.1c-.6.7.4.4.2,1.3m2.7,2.6c-.4,0-.4-.3-.7-.2.3-.4.4-.3.8-.6-.2.2.3.5-.1.8M80,133c-.5,0-.1.9-.1,1.1a.75.75,0,0,1-.5.1c.2-.5-.1-.5,0-.8-.2-.3-.9-.1-1,.1-.1-.2.1-.7-.6-.6-.1-.4.4-.2.5-.5a.52.52,0,0,1,.2.4c.2-.4.1-1,.6-1.1.1-.4-.6-.3-.2-.6.5-.1.3.5.6.6s0-.4-.1-.4c.2-.3.4-.2.6,0-.6.5-.2,1,0,1.7m2.6,3.7c-.3.2-.2,0-.6.1-.1-.4.5-.2.4-.6a2.41,2.41,0,0,0,.6.8c-.3.4-.6,0-.4-.3m1.2,1c-.3,0-.3-.2-.6-.1.1-.7.7-.1,1.3-.4-.1.8-.7-.3-.7.5m.5-1.1c-.6.2-.9.6-1.3.2a.52.52,0,0,1,.4-.2c-.1-.2-.4-.2-.6-.2,0-.5.2-.7,0-1.1-.1,0-.2,0-.2.1-.1-.3.2-.5-.1-1.1.4,0,.4-.2.8-.4.1.3.4.3.5.6a.52.52,0,0,1-.2.4c.4-.2.4.7.6.6s-.1.3-.2.4c.1.1.1.2.1.4.5,0,.3-.1.7,0-.1.1-.9.1-.5.3m.4-4c-.4-.1-.2-.1-.6,0,.1-.4-.2-.4-.1-.7.3,0,.3.4.8.2,0,.2-.1.3-.1.5m-.7-1.4c.1-.5.5-.7,1-.8a2,2,0,0,1-1,.8m1.4,3.3c-.3.1-.2-.2-.2-.4-.1,0-.1,0-.1.1-.2-.1.2-.5.2-.7.2,0,.2.2.4.2-.1.4-.3.5-.3.8m2,2.8a.61.61,0,0,1,.1-.8c.5-.1.3,1-.1.8m1.3-2.3h-.3a1.21,1.21,0,0,1-.7.7.37.37,0,0,0,.1.3c-.2.2-.6.2-.7,0,.1-.3.1-.3,0-.5a1.55,1.55,0,0,1-.2-.8c.2,0,.3,0,.4-.1-.1-.3-.2-.5-.6-.5a.37.37,0,0,0,.1.3.56.56,0,0,0-.6-.1c0,.1.2.1.4.1a.56.56,0,0,0-.1.6c-.4-.1-.2-.7-.6-.7.1-.5.6.1.6-.4.2,0,.3.1.3.2a.75.75,0,0,0,.1-.5.33.33,0,0,0,.5,0l-.1-.1a.37.37,0,0,1,.3-.1v-.1c.1,0,.1.1.1.2s.1.1.2.1c.5-.2-.1-.4.1-.8h.4c-.3.3.4,1.2-.4,1.2l.3.3c.1,0,.1,0,.1-.1s.1.1,0,.1c-.1.5.4.3.3.7m.7-2.9c.3.1.5.2.5.6-.4.4-1-.3-.5-.6m5,1.3c.4.2,0,.4.2.7-.5.1-.3-.4-.2-.7m14.9,2c.4-.1.2.3.6.2.1-.3-.2-.2-.4-.2,0-.2.4-.1.4-.4.2.2-.2.3.4.1a2.35,2.35,0,0,1,.2.8c-.4.6-1,0-1.6.4-.2.1.1-.6.4-.9m-.7.7c.2.3.3.8.8.5-.2.4-.2.8-.7.8-.3-.6-.3-.6-.1-1.3m-10,.4c0-.3-.2-.4-.1-.7.4-.1.8.7.1.7M139,179.4v-.2a54.82,54.82,0,0,1-9.4.3c0,.3-.4.5-.2,1-.4.2-.4.2-1.1.1.1-.4-.2-.4-.1-.7.3.2.3-.2.5-.5a28.44,28.44,0,0,1-14.6-5.4c-.1,0-.2.1-.5.3a1.37,1.37,0,0,0-.6-1c-.2-.1,0,.5.1.5-.3.4-.6-.3-.7-.5.2.1.3-.1.5-.3-4-3.8-7-9.6-7.5-18.3H93.9a46.85,46.85,0,0,0,4.6,12.1c.1-.1.1-.1.1-.3.2.1.1.3,0,.5a37.91,37.91,0,0,0,2.9,4.5c.1.1.1-.1.4-.1-.1.1-.2.2-.2.3a27.49,27.49,0,0,0,19.1,11c0-.3-.3-.3-.3-.6.5-.3.4-.5.7-.8.4.2.5-.1,1.1,0-.5.5,0,.4,0,.8a1.08,1.08,0,0,1-.3.7c5.8.4,12.8-.7,21.1-4.2a32.68,32.68,0,0,1-3.8.7.44.44,0,0,1-.3.1M97.8,160.2c-.5.2,0-.5-.4-.5.3-.3.7.2.4.5m-1.7-1.9a.88.88,0,0,1,.7-.6c.1-.5-.3-.3-.2-.7.4-.6.9-.3,1.3-.7-.2,1-1,1.5-1.8,2m8.4,7.5c.3.2.1.7.1,1-.5,0-.2-.8-.1-1m-2.7-10.1v-.5h.7c-.2.2-.2.5-.7.5m1.8,9.8c.5.1.3.8.5,1.1-.6-.7-1.2-.4-.5-1.1m.5,2.1c-.1,0-.1.1-.1.2-.4.1-.2-.3-.6-.2,0-.2.5-.4.1-.5.2-.2.4.1.5-.4.4.5.5.2,1,0,.1.7-.7.8-.2,1.5-.2-.2-.7-.2-.7-.6m.8,3.1c-.4-.1-.3.4-.7.2.3-.8,0-1.5.6-1.9-.1.4.1.5.4.6-.4.3-.2.5-.3,1.1m1.3-2.2c-.4.1-.1-.4-.5-.2s.1.4,0,.6h-.4c.3-.5-.1-.6-.2-1,.6.3.5-.2,1.1-.2.3,0,.1.5.5.5,0,.2-.3.2-.5.3m.8,4.5c.1-.3.8-.1.8.1-.2.4-.5-.2-.8-.1m2.1,1.9c-.1-.2-.4-.2-.4-.5.2.2.8,0,.7.4-.1-.2-.2-.2-.3.1m1.5-.2c.5-.2.2.3.6.2-.3.2-.9.3-.6-.2m2.8-.2c-.5-.1-.6.1-1,.1-.1.4.1.5.4.6-.3,0-.1.5-.5.5.1-.6-.3-.5-.6-.4-.2-.8-.8-1-1.7-.8.3-.3-.2-.2-.1-.6-.2,0-.1.4-.4.4-.8-.4-1-1.9-.1-2.2a.55.55,0,0,1-.4.6c.5.4.3,1.1,1.2,1.3.1,0,.1-.2.1-.4.4.2.9.3,1,.8.3,0,.5-.2.5-.6.3,0,.2.5.5.6a.67.67,0,0,1,.7-.6c-.2.4.1.2.4.1Zm4.2,6.1c-.4-.2-.5.1-1.1,0a1.64,1.64,0,0,1-.1-1c.6.1,1-.7,1.8-.7a8.51,8.51,0,0,1-.6,1.7m10.8,1.8c-.4,0-.2-.6-.6-.6s0,.5.1.5c-.2.2-.6-.3-.6-.7a.64.64,0,0,0,.8-.5c.4.3.7.8.3,1.3M36.6,86.9c0,.1-.2.1-.4.1v.5c.3,0,.6-.5.4-.6m84.6,95.7h.2c-.1-.1-.2-.1-.2,0m-11.1-51.4h0c0,.2.1.2.2.2l-.2-.2m-92.4-45h.1a.1.1,0,0,0,.1-.1.31.31,0,0,1-.2.1h0m18.8,5.2a.37.37,0,0,1-.3.1q.3.15.3.3a.3.3,0,0,0,0-.4m127.9-2.7c.4,0,.4-.3.6-.5-.3-.3-.9.3-.6.5M62.9,63.4c-.1.2-.4.1-.2.5H63c0-.2.1-.4-.1-.5M17.3,79.9h.1v-.2c0,.1,0,.1-.1.2m45.2,38.3v.1c.2,0,.2-.1.4-.1V118c-.3,0-.3.2-.4.2M27.9,91.5c.4.5,1.3.7,1.5,1.4a15.26,15.26,0,0,1,3,.3c0-.1,0-.2.3-.2-.8-.1.4-1.4.6-2.1.7.5,1.1-.6,1.6-.4.3-.1-.3-.2-.1-.6-.5.1-.7-.3-.8-.6.2,0,.3,0,.4-.1.3,0,.1.3.4.4.4-.4.6-.2,1.1-.4-.3-.1-.2-.6,0-.8.4-.1.2.4.2.6.2,0,.2-.1.4-.1,0-.1-.1-.1-.2-.1.1-.2.4-.1.2-.5,1.4.1.8,2.2-.2,2.2,0,.5-.5.5-.5,1,.3,0,.3-.3.5-.5.2.2.3.2.3.2a.1.1,0,0,0-.1-.1c0-.1,0-.1.1-.1v-.1c.1,0,.1,0,.2.1s.1-.1,0-.2c.2.4.4.5.4.9a1.79,1.79,0,0,1,.5.7c-.3-.1-.2.2-.4.4-.1-.1-.4-.3-.4.1V93c.1-.1.2-.1.4-.2,0-.1.1-.1.4-.1-.3.3.1.4.5.4,0,.1-.1.1-.2.1s-.3.2-.1.2c0,.2-.3.1-.5.1-.4.2,0,.9-.4,1.2.1,0,.2.1.3.1s.1-.2.1-.3c.1.1.1.2.2.4.5.2,1,.5,1.6.8v-.1c.5.1.8.1,1-.4a.76.76,0,0,1,.5,1.1h-.3c6.7,4.2,14,13,21.5,29H73.1c-.2-1-.6-2.6-1.1-4.8h-.1a.3.3,0,0,1,0-.4q-.45-1.5-.9-3.3l-.1-.1h0a101.39,101.39,0,0,0-4.4-12h0a.37.37,0,0,1-.1-.3,92.58,92.58,0,0,0-6.3-12c0,.1,0,.1-.1.1-.4,0-.3-.3-.2-.5a67,67,0,0,0-6.1-8.2c-.2.4-.1.5-.2,1.1-.4.1-.5-.6-.5.1a.78.78,0,0,1-.2-.8c.4.5.7.4.6-.5h.2c-1-1.1-2-2.2-3.1-3.2-.5.3-1.2-.3-1.4-.6a2.32,2.32,0,0,1-1,.4c-.1-.2.1-.9-.2-1.2.1-.2.4-.2.5-.4-.1-.3-.3.2-.5-.1v-.4A41,41,0,0,0,17.6,67.7l-.1.1v-.1a4.1,4.1,0,0,0-1.1.1,20.64,20.64,0,0,0-9.6,4,1.63,1.63,0,0,1,0,.7c-.4-.1-.2-.1-.6,0,0-.1,0-.1-.1-.2A15.93,15.93,0,0,0,.6,81.4h0c0,.2.3.2.2.5a.6.6,0,0,0-.4-.1,25.71,25.71,0,0,0,0,10c.7.2,1-.9,1.7-.4a.52.52,0,0,0,.4.8c-.1.1-.1.2-.2.2a2,2,0,0,1,.4,2.2c-.5-.1-.4.4-.8.2.1-.1.1-.2.1-.4a6.89,6.89,0,0,1-.8.3,45.41,45.41,0,0,0,2,6.3.45.45,0,0,0,.2-.6c.2,0,.2.1.4.1,0,.5-.2.8.4.8,0,.3-.4.4-.4.7H3.6a14.17,14.17,0,0,0,.8,1.8c0-.1.1-.2.2-.3H5c-.2.5.7.5.5,0,.4.3-.2.8-.2,1.1-.2,0-.2-.4,0-.4,0-.1-.2-.1-.2-.2-.2.1-.2.3-.2.5l.4.4c-.1.1-.3,0-.5-.1.6,1.4,1.3,2.8,2,4.3A44.21,44.21,0,0,1,17.1,97.3c-.3-.2-.2-1-.2-1.3.1.1.2.1.4.1-.4.3,0,.6.2.7,0,.2-.3.2-.3.4a18.08,18.08,0,0,1,2.9-1.9c0-.2-.1-.3-.3-.4.2-.3.5-.5.5-1,.1.4.5.5.6.9a20,20,0,0,1,6.9-2.2c-.4-.1-.2-.8.1-1.1M63.3,118c-.4.1-.3.7-.7.7a.52.52,0,0,0,.2.4c-.3.2-.5-.5-.5-.9h0V118a.1.1,0,0,1,.1.1c.1-.1.1-.2.2-.2-.2-.1-.4-.1-.4-.4.2-.2.2.1.5-.1-.2-.6-.7.6-1.1.1.4-.2.8-.2.7-.8.3-.1.4.3.4-.1.4-.1.5,0,.6.1.3-.6,1-.2,1.4,0v.5c-.2,0-.2-.1-.1-.1-.1-.3-.9.1-.7-.5-.4-.1-.3.4-.6.2.1.2.1.4.6.2.2.3.2.8.5,1a3.76,3.76,0,0,1-1.1,0m-.3-2.5c.3,0,.4-.2.7-.1,0,.4-.8.7-.7.1m1.6.3c-.3.1-.2-.2-.5-.2a.92.92,0,0,1,.6-.4c-.1.1-.1.3-.1.6m-.3,3.8c.4,0,.5.4.6.7-.4,0-.8-.2-.6-.7m.3,5c-.2,0-.1-.3-.1-.5.2,0,.3,0,.4-.1.3.2-.3.4-.3.6m.6-5.8c-.1-.1-.2-.1-.2,0a.57.57,0,0,1,.1-1c-.2.1-.4-.5.1-.5v.5c.2-.1.3-.3.6-.2a4.49,4.49,0,0,1-.6,1.2m4.6,2.2c.2.4.4.2.7.4-.6.2.1,1.1-.6,1.3.1-.5-.3-.4-.4-.6,0-.5.5-.5.3-1.1m-2-2.4c.2.2.2-.1.6,0,.1.3.5,1.3-.1.8.3,0,.2-.1-.1-.4-.3,0-.1.5-.1.7.3-.3.6,0,.8.1,0,.3,0,.6-.4.6-.1.4.5.2.4.6.1,0,.2,0,.2-.1.2.1.2.3.2.5a.75.75,0,0,1-.5.1c0-.3-.2-.4-.4-.6-.4.2.4.5,0,.7a.52.52,0,0,1-.2-.4c-.3,0,.2.2,0,.5-.4.1-.1-.6-.4-.6.1,0,.4-.3,0-.8-.2.1-.2.4-.5.1l.4-.4c-.1-.2-.2-.4-.5-.4a8.79,8.79,0,0,0,.6-1m-1.5-2.1c0-.4.2-.5.1-1-.2,0-.2-.1-.2-.2.5.1.3.8.6,1.1-.2,0-.3.2-.5.1m-.1-2.5c-.2.4.1.7.4,1-.2.2-.5.3-.6.6-.4-.6-.3-.9-.6-1.5.2-.1.3,0,.8-.1m-2.5-10.5c0,.1.5.5.5,0,0,.1.5,1.2,1,.7.3.8,1.1,1.4.8,2.4-.6,0-.8.4-.6,1-.3,0-.4-.2-.7-.1-.2-1.4-1.9-2.6-1-4m-2.3,0c.3,0,.3.4.6.5.3-.4.4-.3,1-.4,0,.1,0,.2.1.2-.7.2-.1.7,0,1.2-.4-.1-.1.4-.6.2,0-.3.2-.3.1-.6-.4-.1,0,.6-.5.5.3-.3-.1-.8.1-1-.2-.3-.6-.1-.8-.2Zm-.6-2.6c-.1-.2-.6,0-.5-.5.4-.1.3.4.7.2.1.4-.3.2-.2.6-.3,0-.6,0-.7-.1.1-.3.5,0,.7-.2m-1.4-6.6c.2.2-.2.4.2.5-.1.3-.5-.1-.7-.1.1-.2.1-.4.5-.4m-.6,6.2v.4H59c.3.5-.7-.5-.5.1-.2-.1.1-.6.3-.5M57.6,102c.3,0,.1.3.4.4.3-.3-.5-.6-.2-1.2.6.1.9.6,1.2,0,.3,0,.1.4.1.6.1,0,.1-.2.1-.4.1.1.1.3.4.2a1.15,1.15,0,0,0-.1,1c.4-.2.1-1.1.7-1.1.2.3-.2.8.2.7,0,.4-.7.2-.6.7-.7.2-.4-.7-1-.6.5.5-1.6.4-1.2-.3m-.5-.7c.1.1.1.3.4.2,0,.3-.2.4-.5.4,0-.3,0-.5.1-.6m-1.6,6.6c.1-.3.2-.5-.1-.6-.3-.5,1.1.7.1.6m-.4-1.4h.6c0,.2-.2.3-.4.5-.1,0-.2-.2-.2-.5m-2.9-1.9c0-.1,0-.1-.1-.1.2-.4.5.8-.1.6-.2-.3.2-.2.2-.5m-.5.4a1.45,1.45,0,0,1-.2.7c-.2,0-.2-.3-.5-.2.2-.1.2-.6.7-.5M49.9,94c-.1.1-.1.2-.1.4h-.5c0-.3.1-.7-.2-.7.3-.5.4.4.8.3m-.5,1.3c.5.3-.4.7,0,.8,0,.1-.2.1-.4.1-.1-.4.2-.6.4-.9m-11-.3c-.2-.2-.5-.3-.4-.8h.6a1,1,0,0,0-.2.8m-.1-2.6c.2-.3-.2-1.1.7-1,0,.1-.2.1-.4.1,0,.4.3.4.5.6-.2.2-.5.2-.8.3M46,96.6c0,.3-.2-.2-.5,0v-.5H46c.1.2-.4.4,0,.5m.1-7.4c-.5.1-.5-.6,0-.5Zm.4-1.1c.1-.1.2-.1.5-.1.1.4,0,.4.1.8-.5.1-.5-.4-.6-.7m1.8,1.7a12.75,12.75,0,0,1-1.2-.7,1.45,1.45,0,0,1,.2-.7c.4.3,1.3.7,1,1.4m-3-5.7c.4-.1.1.4.5.2.3.1-.1-.6.2-.5-.1-.2-.4-.4-.5-.6.4-.5,1.3.1,1.6.5a2.32,2.32,0,0,1,1-.4c.1.2-.1.9.2,1.2-.1.2-.4.2-.5.4.1.3.3-.2.5.1v.5c-.2.2-.2-.1-.5.1.3.7-.7,1.2-.4,1.9-.2.1-.3.3-.6.2.3-1.1-1.5-1.2-.6-1.8-.1-.4-.2.3-.5.1.2-1-.6-1.1-.4-1.9m-1.5,1.1c-.1.2-.1-.1-.1-.2-.2,0-.3.1-.5.1s.2-.5-.1-.6.8.2.7.7M43.2,84h.5c.1.4-.6.4-.5,0m0-5.5a.78.78,0,0,1,.2.8c-.4-.5-.7-.4-.6.5h-.4v-.1a.22.22,0,0,0-.2.2c-.5-.3.3-.3.1-.7a.22.22,0,0,1,.2.2,2.81,2.81,0,0,1,.1-.8c.6-.1.6.6.6-.1m0-2.4c-.4,1-1.2.3-2.2,0ZM41.7,92.6c-.1.2-.1.3-.2.4v.2c.3,0,.5,0,.5-.2.3.2-.1.7-.5.8-.4-.1-.2-.3-.1-.6-.1.1-.1.2-.2.3-.3.1-.4-.5-.6-.1-.2-.4.4-1,1.1-.8m-1.3.8c.3.2.4.5,1,.5-.1.1-.1.2-.1.4-.2-.5-.7-.2-1.2-.5-.1-.2.3-.1.3-.4m-.5-11.6c.1.3-.2.3-.1.6-.2,0-.2-.1-.4-.1.1-.3.1-.5.5-.5m-1.3,1.3c.5.2.6.3,1.1,0,.2.4-.4.9-.8,1.1-.5-.2-.1-.6-.6-.8,0-.1.1-.1.1,0s.2-.1.2-.3m-1.7-8.7c.3,0,.3.3.2.6-.3.1-.3-.1-.5-.1-.1-.3.3-.2.3-.5m.2,1.7c.2,0,0,.4.2.4.2-.4.6-.4,1.1-.5-.1.3-.3.6-.6.6v-.4c-.5.2-.5,1.1-1.1.7,0,.2.1.3.1.5a.52.52,0,0,0-.4.2c-.6-.2.4-.8,0-1.1.3-.1.6-.2.7-.4m.3,1.7c-.4-.1-.2-.4-.4-.5,0-.3.4-.3.5-.5.3.2-.3.6-.1,1M36.3,71c.5,0,.1.6,0,.7-.3,0-.1-.6,0-.7m.4,15.6c.1-.4-.4-.1-.2-.5.4.2.7-.2,1.1,0,0,.2-.1.2-.2.2.1.4.4,0,.8.1,0,.2,0,.3.1.4s-.4.1-.5.2c.1.2.1.5.2.6a1.79,1.79,0,0,0-.5.7c-.3,0-.2-.5-.5-.5-1.3.4-2.1-.4-2.8-1.2a7,7,0,0,1,2.5,0M1.6,90H1.1c-.2-.3-.1-.9-.6-.8-.2-.3,0-.6.4-.7-.4.7.8.7.7,1.5m1.1-6.6c0,.2-.1.2-.2.2.3.6-.3.5.1,1-.1-.1-.2-.1-.4-.1-.1-.5,0-1,.5-1.1M3,87.1c-.3,0-.2.2-.5,0a.37.37,0,0,1,.3-.1.52.52,0,0,0-.4-.2c0-.3.3-.3.6-.2-.2.1,0,.2,0,.5m-.9.5c.5-.3.8.2,1.3.2-.1.8-.5-.1-.8-.1s.1.2-.1.4c-.4,0-.5-.2-.4-.5m.7,3.3c-.2-.1-.5.3-.2.4-.1.2-.5-.2-.5-.5.4-.1.7-.1,1-.2a5,5,0,0,1,.5,1.3c-.5-.2-.8-.4-.8-1m.7-4.6c-.5,0-.5-.3-.8-.4.2-.3,1.1,0,.5-.4.1-.4.5.1.6.1-.2.4-.5.2-.3.7m.6,17.3c-.1-.2-.4-.2-.1-.5.3,0,.2.4.7.2a.6.6,0,0,1-.6.3m0-.9c.1-.1.1-.2.1-.4.4-.1.2.3.6.2a.44.44,0,0,1-.7.2m2.3-4c.2,0,.2.2.4.2-.3-.6-.2-1.6.6-1.7,0,.8-.2,1.1-.1,1.5.1.2.2,0,.4,0-.1-.4-.2-.6.1-1,.8.7-1.1,2.5-1.4,1M9.6,73.8c-.2-.3.6-.3.2-.5,0-.2.3-.1.5-.1,0,.6-.2.9-.7.6M29,89.8h-.4c0-.5.1-.9.5-1-.3.3.1.9-.1,1m-.2-5.9c.1.2-.4.7-.8.4.1-.3.3-.4.4-.6-.1-.3-.7-.1-.6.1-.3-.2.4-.4.4-.6.6.5,1.1-.2,1.7-.1-.1.1-.1.2-.1.4s.1.1.2.1c-.2.2-.6.2-.6.6-.2-.3-.6-.1-.6-.3m.7,2.7c-.2-.2-.2-.6,0-.7s.3.4.5.6a.75.75,0,0,1-.5.1M31,83.1c.2,0,.3,0,.4-.1.4.4-.1.8.5,1,.3,0,.3-.3.5-.5.4.5.1,1.2.9,1.3h0c-.1.1-.1,1.2-.3,1.7,0,.2.3.1.5.1a.84.84,0,0,0,.4,1.2c0,.2-.4.1-.4.4,0-.3-.6-.5-.4-.7-.3.3-.9,0-1.2-.1.4-.4.1-.9.1-1.3h.6a.52.52,0,0,0,.2-.4c-.5-.1-.8-.5-1.3-.6,0,.2,0,.3.2.2,0,.7-1,.3-1,1a1.39,1.39,0,0,1,0-.9c-.4.1-1-.4-1.4-.3.3-.5,1.3-.4,1.4.2.1-.1.1-.2.3-.3a4.06,4.06,0,0,0,0-1.9m-.3-.5c.2.5-.3.7-.2,1.5-.7,0,0-.7-.4-1,0-.3.6-.1.6-.5M29,81.7a.71.71,0,0,1,1.1.1c0,.1-.1.1-.1,0-.8.3-.7,1-1.6,1.1.1-.3.3-.6.6-.6-.1-.4-.3.1-.5,0,0-.3.2-.4-.2-.4,0-.2.4-.1.5-.2,0-.4-.7-.1-.6-.6h.6c.1.1.1.4.2.6m-1.3-8c.5.1.1.5.1.8a.44.44,0,0,1-.1-.8m.5,2.8c-.2-.3-.2-.4,0-.8.8.1-.4,1.1.4,1.2-.3.5-.6-.4-1.1.1.1-.7-.4,0-.6-.4a.92.92,0,0,1,1.3-.1m-3,9.5c.1-.9.9,0,0,0m-.4-6.3c.5-.2.7.7.5,1.3H25c.2-.2.1-.3-.2-.2.1-.4.4-.6,0-1.1M22.3,72c.2,0,.2.2.4.2-.1.5-.7.6-.2,1.1-.5,0-.1.8-.7.7a4.92,4.92,0,0,1,.5-2M21,74.9c.3,0,.4.2.7.1,0,.2-.5.1-.5.4-.2,0-.3-.2-.2-.5m-1.8-4.5c-.2,0-.3.1-.5.1.1-.4-.3-.2-.2-.6a.75.75,0,0,1,.5-.1c-.3.5.2.3.2.6m-.5,4.1a.57.57,0,0,1-.2-.7c.3.2.3.4.2.7m-1.2-5.6c.5.2,1,.3,1.2.8-.5-.3-.5-.2-1.3-.2-.1-.3.2-.3.1-.6m-.1,6.3c.5-.1.3.3.7.2a4.61,4.61,0,0,1-1,.5c.1-.3.4-.4.3-.7m-.1-1.6a.31.31,0,0,1,.1.2c-.3,0-.5,0-.6.2v-.1c.2-.1.2-.3.5-.3m-.1,4v.2c.2-.3.2-.6.7-.6,0-.2-.2-.2-.2-.4-.4.2-.7.3-.7-.4a.6.6,0,0,1,.4-.1v-.1c.1,0,.1,0,.1.1s.2,0,.2-.1a.37.37,0,0,1,.3-.1.1.1,0,0,0,.1-.1h0c.4,0,.7,0,.6-.2.1-.2.2,0,.4,0,0,.6-.8.5-1,1H18c.1.2.2,0,.4,0-.3.5-.1,1-.3,1.6.4,0,.7-.5,1,.1.4,0,.1-.6-.2-.6.2-.2.2-.6.7-.5-.3.5.8,2.3-.2,2.7.2.2,0,1,.4,1.1-.2.3-1.1-.4-.5-.5-.3-.1-.2-.6-.7-.5.3-.5-.1-.5-.1-1.1-.2-.1-.3-.1-.5-.2,0,.1-.1.2-.2.3.2.3.2.9.6,1a2.36,2.36,0,0,0-.4,1.6c-.2,0-.2.1-.4.1-1.2-.7-1.2-1-1.5-2.1.2-.1.4,0,.6,0,0-.2.1-.5.1-.8.4-.1.6-.3.6-.5-.2-.1-.2-.1-.2.3-.1-.1-.2-.1-.2-.2.1-.3.3-.4.1-.5-.2.1-.6-.5-.8-.1-.2-.1-.2-.3-.2-.5.6-.1.7.1,1.1.1M16,82.4c.2.2.2.6.5.7,0,.3-.5.1-.7.1.1-.1.2-.1.2-.8m.4,2.2c.4-.2.2.6.4.8-.1-.1-.1-.3-.4-.2,0-.2.4-.5,0-.6m.4-6c.2.2-.1.7-.6.6.1-.4.1-.7.6-.6m-1.7.3c.1,0,.1.2.1.4.3,0,.6,0,.6-.4.2.1.4.2.4.5a.37.37,0,0,0-.6.4c-.4-.1-.5-.4-.5-.9m.5,11.6v1c-.1-.4-.5-.5-.5-1ZM14.7,69c0,.3,0,.5-.1.6a.31.31,0,1,1,.1-.6m-1.2,1.4c.3-.4.7.3.6.7-.4,0-.2-.6-.6-.7m.8,1.7c-.3-.1-.3-.5-.3-.8.2,0,.2.3.5.2,0,.3-.3.3-.2.6m1.4,24.3c-.4-.1-.3-.8-.8-.7.2-.5,0-.7-.4-1,0-.2.3-.1.5-.1,0,.4.5.3.6.6.2,0,.2-.1.4-.1,0-.1-.2-.1-.4-.1.1-.4.6-.1.7.1,0,.7-.6.9-.6,1.3m.4-8.8c.1-.1.3-.1.2-.4.4.2-.2.5,0,.8-.6.2.2-.3-.2-.4m.9,1c-.1.1-.1.2-.1.4h-.6c.1-.3.4-.7.7-.4m-.2,7.1c-.2,0-.3-.2-.2-.5a.56.56,0,0,0,.6.1c0,.3-.4.1-.4.4m.5-8.3a2.65,2.65,0,0,1,.5-.6c-.2-.1-.5-.1-.7-.2-.2.3-.5.3-.6.6-.2,0-.2-.7-.4-.2-.2-.1.3-.5.4-.7.2.3.4.2.7.1v.1c.1-.1.2-.1.2-.3-.2,0-.4-.1-.7-.1-.4-.3.9.1.6-.5a2.19,2.19,0,0,1,.5.3.6.6,0,0,1,0-.7c-.2-.2-.4.1-.6-.2,0-.3.9-.3.8,0,.4,0,.3-.8-.1-.7.2-.2.3-.6.6-.6a9.25,9.25,0,0,0,.4,1.9,5.13,5.13,0,0,0,.4-1,1.89,1.89,0,0,0,1.1.1c-.1.3.4.8.5,1s-.2.2-.4.4c0,.3.2.3.1.6.5-.1.8-.4,1.3-.2-.4.4-.3.8-.8,1.5-.1-.2-.3-.3-.4-.6.2,0,.5.1.5-.1a1.28,1.28,0,0,0-1.2-.2c0-.4-.1-.7-.4-.8-.1.1-.1.2-.2.3a4.35,4.35,0,0,1,.4.7c-.3,0-.3.2-.6.1a1.09,1.09,0,0,1-.1-.5h0c0,.2,0,.3.1.4a.32.32,0,0,0-.3-.3c0,.1-.1.2-.2.3v.4c-.1,0-.2,0-.2.1-.2-.1-.3-.3-.4-.4h0a.76.76,0,0,0-.8,0m2,2.7c-.1,0-.1.1-.1.2h-.4c.3-.1.3-.6.7-.5-.1.3-.2.5.1.6-.1.2-.3.2-.5.2.2,0,.2-.2.2-.5m-.1-1.7c-.3-.2-.4.4-.1.4,0,.3-.3-.2-.5.1.3.1.2.7.2,1.1-.8-.1-.4-.8-.6-1.2.7-.2.3-.9.8-1.1-.1.4.2.4.2.7m-.3,2c0,.3-.6.3-.7.1s.5,0,.7-.1m.2,2.3c-.5-.2-.3.3-.5.5-.2,0-.1-.4-.4-.4s.2.3-.1.5c-.4-.1-.2-.4-.4-.5.2-.1,1-.7.4-.8-.1-.6.8-.4.7-1,.7.5-.3,1.3.3,1.7m.1-1.1a.51.51,0,0,1,.7-.4c-.1.2-.2.3-.2.5-.3,0-.3-.1-.5-.1m.1,1c.3.1.5.5.2.7a.62.62,0,0,1-.2-.7m.6,2c-.3,0-.4-.2-.4-.5.3,0,.4.2.4.5m.5-6.6h-.6a.85.85,0,0,1,0-.7c.1.1.4.1.7.1.1.3-.2.2-.1.6m.3,4.4c-.1-.2.5-.3.1-.4.1-.3.6-.4,1-.5,0,.2-.9.4-.2.5-.3.3-.5.8-.9.4m1.1,1.7c.1-.2.1-.5-.1-.6a.6.6,0,0,0-.1.4c-.3.1-.4-.7-.1-.7h.1c.3-.2.6-.3.3-.8.4,0,.3.3.7.1.3,1,.4,1.6-.8,1.6M23,81.2c.3.1.3-.2.6-.1.2.5-.7.6-.6.1m1.2,12.3c-.3.1-.4.2-.7,0,.2-.5.4-1.8,1.3-1.5-.1.6-.8,1-.6,1.5m1-4.1c-.3.3-.7,0-1.2.2a.52.52,0,0,0,.4.2c-.1.4-.3-.2-.7.2.1-.1.1-.2-.1-.2-.1-.3.2-.2.2-.4s-.4-.4-.4-.1c-.3-.2.3-.5.6-.5,0-.2.1-.5-.1-.5,0-.5.5,0,.5-.2.4.1-.1.5-.1.6s1.1-.1.9.7m.6-.7c-.3.3-.7,0-1-.1.1-.2,1.1-.3,1,.1m1-10.3c-.1,0-.1-.1,0-.1-.3-.2,0-.4-.2-.6.1-.2.4-.2.5-.5a1.6,1.6,0,0,1,.5,1c-.2.1-.6,0-.8.2M27,88.6c.3-.4.1-.8.5-1.3.5.1-.1.6.5.7v.4a3.55,3.55,0,0,1-1,.2M2.1,93c0-.3,0-.5-.2-.5,0,.3-.3.1-.4.4a.61.61,0,0,0,.6.1m163.5,2.9c.1-.2.4-.1.2-.5h-.4c.1.2,0,.5.2.5M62.2,66.7h0M34.9,93.3c.4.2.7.3,1-.1-.3-.1-.4-.9-.1-1.1.1,0,.1,0,.1-.1a4.12,4.12,0,0,1-1.2.1c0,.2-.1.3-.1.4.3.3.5-.1.7-.2,0,.2.1.3.1.4s-.6.2-.5.6M78.3,77.2h-.1a.1.1,0,0,0-.1.1.31.31,0,0,1,.2-.1h0M59,177.8c.3-.5-.3-.5-.6-.7.2-.5,1.1.2,1.1.2.9-.4-.8-.5-.6-1a3.13,3.13,0,0,1-1,.5,1.2,1.2,0,0,1-.4-1.6c.2.1.1.4.5.2.1.5,0,.4.1.7.9-.2,1.7.6,2.5-.1-.1.4-.1.5.2.6,0,.2-.3.1-.5.1a.52.52,0,0,0-.2.4h.4A32.78,32.78,0,0,0,70.1,165H70v-.6a.75.75,0,0,1-.5-.1c0-.1.1-.1.2-.1-.1-.1-.3-.1-.2-.4.2-.1.6,0,.7-.2.1,0,.1.1.1.2a1.21,1.21,0,0,0,.5-.5l.1.1c.1-.3.3-.6.4-.9-.7-.1-.6.6-1,.8,0-.3.1-.7-.2-.7-.5.8-1-.7-1.2-.1-.1,0-.1,0-.1-.1s0-.1-.1-.1c.1-.2.8-.4,1-.1a1.48,1.48,0,0,1,.7-.7v-.1c.1-.2.5,0,.5-.2.2.1.2.2.1.2.1,0,.1.1.2.1s0-.4.2-.4c.3.4.4.2.5.2a.35.35,0,0,1,.1-.2h0a.1.1,0,0,1-.1-.1c0-.1.1-.1.2-.1.3-.7.5-1.5.7-2.1,0-.2-.1-.4-.1-.7H73c0-.1,0-.1.1-.2-.1-.2-.1-.2,0-.4l-.3-.3a.52.52,0,0,0-.2.8c-.2,0-.3-.1-.5-.1-.1-.3.6-.8-.1-.7-.1-.4.3-.3.4-.5a.1.1,0,0,1,.1.1c.2-.2.4-.6.6-.8.2,0,.3.3.4.6.2-.8.4-1.4.5-1.9H62.4a33.08,33.08,0,0,1-2.6,11.5c.3,0,.6-.2.7-.7.8.2.3-.3.8-.4.1,1.1-.7,1.3-.7,2.2.5,0,.5-.5,1-.5v.5c-.5-.4-.4.5-.7.6-.2-.1,0-.6-.5-.5-.3,0-.1.4-.1.6s.2.3.5.2a2.85,2.85,0,0,1-.7.8c-.2-.2-.4-.3-.4-.7.5.1-.2-.3.4-.2,0-.1-.2-.1-.4-.1.5-.2.3-.9.6-.7-.1-.4.1-.6.1-.8-.4-.1-.2.4-.2.6-.5-.1-.4-.2-.5-.5a12.81,12.81,0,0,1-1.1,2l.7.7c-.5.1-.6-.2-1-.2a21.28,21.28,0,0,1-11.9,9v.2c-.1,0-.1-.1-.2-.1a26.81,26.81,0,0,1-2.7.7c.1.2.1.3-.1.4a.4.4,0,0,1-.2-.4h-.1c0,.2,0,.4-.5.3,0,.3.5.1.7.1.1.7-.3.8-.5,1.2H42c0,.3,0,.5.4.5-.1.2-.4.1-.2.5-.1-.2-.3-.3-.4-.6-.5-.1-.3.3-.7.2-.1-.4.2-.4.2-.6s-.1-.4-.4-.4.2.3.1.6c-.3-.1-.3-.5-.6-.6s-.2.7.1.5c-.1.4-.4.1-.7.1,0-.6-.1-.6-.1-1.2.3.4.5-.3.7,0s-.1.3-.1.5h.6v-.7a1.07,1.07,0,0,1,.8,0,.22.22,0,0,0,.2-.2c-1.4.2-2.8.4-4.2.5.1.1.2.2.3.2.1.5-.3.7.2,1-.2.1-.3.3-.6.4a4.14,4.14,0,0,1-.2-1.5,49.31,49.31,0,0,1-12.9-1c16.7,6.9,27.9,4.5,35.4-.9-.3-.2-.5-.4-.9,0m9.5-11.4c-.1,0-.5-.3-.5,0-.4-.3.7-.6.5,0m1.3-7.1c-.2.2-.3.6-.7.6,0-.4.2-.6.7-.6m-1.1,1.9c.2,0,.7-.4.1-.4.4-.2.1-.4.2-.6.4,0,.1.7.7.5a.52.52,0,0,1-.4.2c0,.3.5.1.7.1.1.5-.7.5-.7.1-.2.2-.2.5-.6.5.2-.1,0-.1,0-.4m-.3,1.9c.4,0,.4.9-.1.7.1-.4.4-.3.1-.7m-.9,1.6c-.3-.2.1.1.2.1.3-.2-.1-.7-.1-1.1.2,0,.2.3.5.2a.38.38,0,0,0,0,.6c.3.2.5-.3.5,0,.3,0-.2-.2,0-.5.4.2.6,0,1-.1,0,.8-.1,0-.5,1a1.5,1.5,0,0,0-1.2.5c0,.1.2.1.2.2.2-.1,0-.2,0-.4.3,0,.4.1.4.4a.38.38,0,0,1-.6,0c-.2,0-.1.4-.4.4a.52.52,0,0,0,.4.2c-.4.2-.2,1.1-.7,1.1-.1-.3.2-.9-.1-1,.5,0,.3-.7.4-1.6m-1.4-5.3c.4-.1.4.4.4.7-.3,0-.4-.2-.4-.7m-2.9,1.4c0,.5-.2.4.4.7.2.9-1.1.7-1.2.6a.81.81,0,0,1,.8-1.3m-1.7,7.9c-.2-.4-.5,0-.8-.2.1-.3,1-.2.8.2m-.7.4h.6a5.07,5.07,0,0,0-.2,1.3h-.6c.4-.4.3-.8.2-1.3M33.7,180.5c.2-.4.4-.3.8-.2,0,.4-.6.4-.8.2m2.9,1.3c.1-.4,0-.3.1-.6.2.3.4.7.8.4,0,.2,0,.3.1.4-.3.3-.5-.6-1-.2m4.7.2c0-.2.1-.2.2-.2-.1-.1-.1-.2-.1-.4.2,0,.2.1.4.1,0,.3,0,.6-.5.5m3.9-2.6c-.3,0-.1-.4-.1-.6.4-.1.5.3.5.6-.3,0-.4-.2-.4,0m1.3,1.9c-.4-.2,1.2-.6.4-.8.4-.2.6-.4,1-.1,0,.2-.4,0-.4.2.2.4.6.2,1,.1-.3.6-1.5.2-2,.6m3.7.5c-.7.7-.9-1,0,0M78.7,83.5h-.1v.2c0-.1,0-.1.1-.2M94.1,70.8c0-.3.3-.1.4-.4a.56.56,0,0,0-.6-.1c-.1.3,0,.5.2.5m-16.8,22c-.2,0-.3.1-.5.1-.1.4.4.1.2.6a.75.75,0,0,0,.5-.1c.1-.3-.3-.2-.2-.6m-41.2.9a2.19,2.19,0,0,1-.5.3c.3.1.7.3,1.1.4,0-.5-.6-.3-.6-.7m.7-1.9h-.2c0,.1.1.2.1.3,0-.1.1-.2.1-.3m35,69.7h0m-.3-20.2H71c.1.1.2.2.5,0h0m13.8,42.2c.1.2.1.4.4.5v.1a.35.35,0,0,0,.1-.2H86a.73.73,0,0,0-.2-.6c-.3,0-.3.2-.5.2M59,191.3a.52.52,0,0,1,.2.4,1.45,1.45,0,0,1,.7-.2c-.1-.2-.5-.2-.5-.5h-.1c-.3.2-.5.3-.8.5.3,0,.4.1.5-.2M168.1,87.4c.1,0,.2,0,.2-.1v-.4a.59.59,0,0,0-.2.5M72.8,157h0l-.3-.3c0,.1-.1.3.3.3m27.6-7.5h6.2c2.7,0,4.8-1.8,4.8-4.1s-2.2-4.1-4.8-4.1H102c-.1.4-.3.3-.7.2.1-.1.2-.2.3-.2H72.9c-.2.3-.4.7-.1.7-.2.3-.6-.2-.7-.4-1.3.5-1.7.9-1.6,2.7-.3,0-.3.2-.6.1.1-.4-.3-.2-.2-.6.3,0,.4.2.6,0-.2-.9.2-1.5.3-2.5H62c-2.7,0-4.8,1.8-4.8,4.1v.2c.1,0,.1,0,.2-.1,0,.2-.1.4-.1.7a4.72,4.72,0,0,0,4.7,3.3h.4v-.3c.2,0,.2.1.2.3h.1c.1-.5-.2-.8,0-1-.2-.2-.5.1-.6-.4.1-.3.4-.4.5-.8.4.2.5,0,1,0a.45.45,0,0,1,0-.5c.3-.1.3.2.6.1a1.7,1.7,0,0,1,0,1c-.6,0-.7.5-.8,1,.1.4.4-.1.7,0,0,.6-.5.2-1,.2v.3h10c-.1-.1-.2-.1-.4-.2.1-.1.1-.2.1-.4.4.1.6-.1,1.1.1,0,.2-.1.3-.2.5h3.2c.2-.2.5-.4.4-.9a2.83,2.83,0,0,0,.6-.3c.1-.1.1-.2-.1-.2,0,0-.1.1-.1,0h.1c.1-.2.5-.9.9-.9-.2.3-.2.4-.2.5h0a1,1,0,0,1,.8.2c-.2.4.1,1.3-.7,1.5H92.4a.35.35,0,0,1,.1-.2.31.31,0,0,1,.1.2h7.3c0-.1-.1-.3,0-.5a2.1,2.1,0,0,0,.5.7m-41.8-2.6a.75.75,0,0,0-.5-.1c.1-.3.4-.4.8-.4a.62.62,0,0,0-.3.5m2.1,1.8c-.1-.4.2-.4.4-.5a.75.75,0,0,1-.1-.5,4.26,4.26,0,0,1-1.7.4c.2-.3.9-.4,1.1-.4,0-.3-.2-.3-.1-.6.3-.1.4.5.6.1,0,.2.2.3.5,0a4.54,4.54,0,0,1,.2.8c-.5.4-.5.5-.9.7m1.2-2.4c.3-.3.4.1.8,0,.2.6-.9.5-.8,0m3.3,2.5c-.3-.5-.3-.2-.8-.1-.1-.2-.3-.3-.2-.6.2.1.8-.2.5-.2.1-.3.5,0,.7,0-.1.3-.2.3-.4.1.2.2.5.3.2.8m4.2-6.2c.3-.1.3.1.5.1,0,.2-.2.3-.5.2Zm3,2.1c.4-.4-.3-.5-.1-1.1.7,0-.1.6.5.6,0,.3,0,.6-.4.5m.6-1.5c-.5-.1-.4-.9-.1-1.1.3,0,.4.2.6.2,0,.5-.4.6-.5.9m.2-1a.52.52,0,0,0-.2-.4c.2-.3.4.3.7.2,0,.2-.3.1-.5.2m3.9-.4c0,.4-.5.2-.8,0-.1-.2.8-.2.8,0m-2,7.7c-.3-.1.2-.5.1-.7.4.1.5-.2.7,0a2.7,2.7,0,0,1-.8.7m1.4-.2c-.1-.1-.2-.1-.4-.1.1-.5-.3-.6.1-.8s.1.4.6.2a.52.52,0,0,0-.4-.2.45.45,0,0,1,.6-.2c.3.7-.6.3-.5,1.1m27.1-4.7c-.3.1-.2-.2-.2-.4-.1,0-.2,0-.2.1-.4-.5.5-.4.6-.1a.52.52,0,0,0-.2.4m-.5-1.6c-.4.3-.2.4.2.2-.2-.2,0-.6-.5-.5-.1-.1.7-.4,1.1-.4-.3.3.1.3,0,.7-.5.2-.9.7-1.5.5a.67.67,0,0,1,.7-.5m-9.3.5c.4-.4.6.5.5,1.1-.5-.1-.6-.6-.8,0-.3.1-.2-.2-.5-.2,0-.5,1-.6.8-.9m-.3,2.1c-.2,0-.3-.1-.5-.1.1-.1.5-.4.1-.5.2.1,1.1-.2,1.2.4-.4.3-.6-.4-.8.2m1.4.2c-.3,0-.4.2-.6,0,.1-.2.4-.4.6-.2Zm2.3,2.3c-.7-.4-.8-.8-.8-1.7.2,0,.2-.3.5-.2-.1.5.3.3.2.7a.92.92,0,0,0-.4.6c0,.3.2-.2.5,0-.1.4.2.3,0,.6m.7-.1c-.4.1-.3-.7.1-.5,0,.2-.1.2-.1.5m1.5-.9c-.4-.3-.4.4-.8.4.3-.4.1-.5.4-.8.1,0,.1.1,0,.1-.2.3.6-.2.4.3m.3-1.2c0,.3.2.2,0,.5-.3.1-.2-.2-.4-.2s.2.2,0,.5c-.3,0-.6,0-.7-.1-.1-.3.2-.2.2-.5-.7-.6-.5.8-1.2.6-.1-.4.4-.2.4-.5-.1-.1-.7.1-1-.1.7-.7.6-1.4-.4-1.5.1-.3.4.2.6-.1s-.3-.2-.2-.6c.1-.1.2-.1.2-.2a1.79,1.79,0,0,1,.7.5c.2-.1,0-.2,0-.4.3,0,.5,0,.5.2.1-.2,0-.3.5-.1.4-.4.9-.6,1.3-1,0,.7.7.7,1.2.8a1,1,0,0,1,.8-.4c-.2.1-.3.3-.6.4-.1.4.1.4.1.7a.45.45,0,0,1,.5,0c.1.4-.4.2-.5.5s.3.1.5.1c-.1.3.1.3.1.6h.1c-.1.3-.6,0-.6-.1s.1-.1.2-.1c-.1-.1-.1-.2-.2-.2.5,1-1.3.7-2.1.7M75.3,167.3c-.2-.3-.2-.3-.3-.3s-.1.2-.1.4c.1-.1.2-.1.4-.1M78.6,149c0-.3,0-.5.1-.6-.3,0-.6.7-.1.6m-7.3,12.6c-.3.2.1.3.3.5a1.42,1.42,0,0,0,.2-.6c-.1-.1-.1-.2-.2-.2s0,.7-.3.3M167,89.9c0,.2.1.7.1,1.3h-.5c0,.2.5.1.4.5-.6.2-.2.7-.7,1,.3-.1,1-.3.7-.5.2-.4.2.3.5.1a.52.52,0,0,1-.2.4c.1.1.3.1.2.4.1,0,.1-.1.2-.1a5,5,0,0,0,.2-1.2h-.2l-.1.1-.1-.1h-.1v-.1a.54.54,0,0,0-.3-.4c0-.3.5-.1.6,0v.1h.1c0-.2.1-.4.1-.6v.1c-.2-.1-.2-.4-.2-.6.2,0,.3,0,.3.2a.9.9,0,0,1,.1-.5,1.42,1.42,0,0,1-1.1-.1M.5,92c0,.2.1.5.1.7,0-.1.1-.1.3-.1,0-.3-.3-.4-.4-.6m166.8,1.8c.1.6-.7.9-.8,1.6-.1.4.6.1.6.4h0c.1-.5.3-1.1.4-1.6-.1-.2-.1-.4-.2-.4m-.2-5.7c0,.2-.1.3-.1.4.3.3.5-.1.7-.2,0,.2.1.3.1.4-.1.3-.5.3-.5.7.3.1.6.3.8.1v-.3a.91.91,0,0,1,0-1h.1v-.1h-1.1M.8,93.4h0c0-.2,0-.3-.1-.4a.6.6,0,0,0,.1.4" transform="translate(0.09 0.7)"/></g></svg>