<?xml version="1.0" encoding="utf-8"?>
<!-- Generator: Adobe Illustrator 21.1.0, SVG Export Plug-In . SVG Version: 6.00 Build 0)  -->
<svg version="1.1" xmlns="http://www.w3.org/2000/svg" xmlns:xlink="http://www.w3.org/1999/xlink" x="0px" y="0px"
	 viewBox="0 0 122.6 92.3" style="enable-background:new 0 0 122.6 92.3;" xml:space="preserve">
<style type="text/css">
	.st0{fill:#A97C51;}
</style>
<g id="_x36_4_x2A_64">
</g>
<g id="icons">
	<polygon class="st0" points="61.5,92.3 61.5,92.3 61.5,92.3 	"/>
	<path class="st0" d="M93.9,69.2l0.2-0.4h27.2c0.5,0,0.9-0.2,1.1-0.6c0.2-0.4,0.3-0.9,0.1-1.3l-8-15.9l8-15.9
		c0.2-0.4,0.2-0.9-0.1-1.3c-0.2-0.4-0.7-0.6-1.1-0.6h-19.3v-6.9c0-0.7-0.6-1.3-1.3-1.3h-2.8V9.6c0-0.7-0.6-1.3-1.3-1.3
		c-13.1,0-25.4,0-34.2-7.9c-0.5-0.5-1.3-0.5-1.8,0c-8.9,7.9-21.2,7.9-34.2,7.9c-0.7,0-1.3,0.6-1.3,1.3v15.2H22
		c-0.7,0-1.3,0.6-1.3,1.3v6.9H1.3c-0.5,0-0.9,0.2-1.1,0.6C0,34.1-0.1,34.6,0.1,35l8,15.9l-8,15.9c-0.2,0.4-0.2,0.9,0.1,1.3
		c0.2,0.4,0.7,0.6,1.1,0.6h27.2l0.2,0.4C38,88.6,60.9,91.5,61.1,91.6h0.3C61.7,91.5,84.6,88.6,93.9,69.2z M93.8,61.5
		c-5.1,20.3-24.5,25.8-30.3,27l-0.9,0.2V60.6H94L93.8,61.5z M101.5,60.2c0.3-0.3,0.4-0.6,0.4-1V35.8h17.2l-7.3,14.6
		c-0.2,0.4-0.2,0.8,0,1.2l7.3,14.6H95.5L101.5,60.2z M62.6,4.2l1.1,0.7c8.5,5.6,18.9,6,30.6,6l0.7,0v13.8H62.6V4.2z M27.5,11l0.7,0
		c11.7,0,22.1-0.5,30.6-6l1.1-0.7v20.6H27.5V11z M3.5,66.1l7.3-14.6c0.2-0.4,0.2-0.8,0-1.2L3.5,35.8h17.2v23.5c0,0.4,0.1,0.7,0.4,1
		l6,6H3.5z M59.9,88.7l-0.9-0.2c-5.8-1.2-25.2-6.7-30.3-27l-0.2-0.9h31.4V88.7z M23.4,57.9V27.5h75.9v30.4H23.4z"/>
</g>
</svg>
