<?xml version="1.0" encoding="utf-8"?>
<!-- Generator: Adobe Illustrator 21.1.0, SVG Export Plug-In . SVG Version: 6.00 Build 0)  -->
<svg version="1.1" id="icons" xmlns="http://www.w3.org/2000/svg" xmlns:xlink="http://www.w3.org/1999/xlink" x="0px" y="0px"
	 viewBox="0 0 104.9 102.7" style="enable-background:new 0 0 104.9 102.7;" xml:space="preserve">
<style type="text/css">
	.st0{fill:#A97C51;}
</style>
<path class="st0" d="M104.5,0.4c-0.5-0.5-1.4-0.6-2,0l-50,46l-0.5-0.5L2.4,0.4c-0.6-0.5-1.4-0.5-2,0c-0.5,0.5-0.6,1.4,0,2l45.7,49.8
	L23,73.4l-0.5-0.2c-3.5-1.7-6.6-3.8-9-6.2c-0.6-0.6-1.5-0.6-2,0c-0.3,0.3-0.4,0.6-0.4,1c0,0.4,0.2,0.7,0.4,1c5,5,6,12.7,6.2,15.8
	l0,0.4L7.2,95.6l-0.4-0.1c-0.4-0.1-0.7-0.1-0.9-0.1c-2,0-3.7,1.6-3.7,3.7s1.6,3.7,3.7,3.7s3.7-1.6,3.7-3.7c0-0.3,0-0.6-0.1-0.9
	l-0.1-0.4l10.5-10.5l0.4,0c3.1,0.2,10.8,1.2,15.8,6.2c0.3,0.3,0.6,0.4,1,0.4c0.8,0,1.5-0.6,1.5-1.4c0-0.5-0.2-0.9-0.6-1.2
	c-2.4-2.5-4.4-5.4-6.1-8.8l-0.2-0.5l21-22.8l21,22.8l-0.2,0.5c-1.7,3.5-3.8,6.6-6.2,9c-0.3,0.3-0.4,0.6-0.4,1s0.2,0.7,0.4,1
	c0.5,0.5,1.5,0.5,2,0c5-5,12.7-6,15.8-6.2l0.4,0l10.5,10.5l-0.1,0.4c-0.1,0.4-0.1,0.7-0.1,0.9c0,2,1.6,3.7,3.7,3.7
	c2,0,3.7-1.6,3.7-3.7s-1.6-3.7-3.7-3.7c-0.3,0-0.6,0-0.9,0.1l-0.4,0.1L87.2,85.2l0-0.4c0.2-3.1,1.2-10.8,6.2-15.8
	c0.3-0.3,0.4-0.6,0.4-1c0-0.4-0.2-0.7-0.4-1c-0.6-0.6-1.5-0.6-2,0c-2.4,2.4-5.4,4.5-9,6.2l-0.5,0.2L58.8,52.2l45.7-49.8
	C105.1,1.8,105,1,104.5,0.4L104.5,0.4z M38,39.1l-9.5-11L39.1,38l11.2,10.3l-2.1,1.9L38,39.1z M28.8,86c-3-1-5.8-1.4-7.6-1.6
	l-0.6-0.1l-0.1-0.6c-0.2-1.8-0.6-4.6-1.6-7.6l-0.6-1.8l1.7,0.9c2.7,1.4,5,2.2,6.5,2.7l0.4,0.1l0.1,0.4c0.5,1.5,1.3,3.8,2.7,6.5
	l0.9,1.7L28.8,86z M84.9,75.2l1.7-0.9L86,76.1c-1,3-1.4,5.8-1.6,7.6l-0.1,0.6l-0.6,0.1c-1.8,0.2-4.6,0.6-7.6,1.6l-1.8,0.6l0.9-1.7
	c1.4-2.7,2.3-5,2.7-6.5L78,78l0.4-0.1C79.9,77.4,82.2,76.6,84.9,75.2z M79,74.7l-1.3,0.4c-0.8,0.3-1.2,0.4-1.3,0.4
	c-0.5,0.1-0.9,0.5-1,1c0,0-0.1,0.5-0.4,1.2L74.7,79L54.4,57l2.4-2.6L79,74.7z M30.2,79l-0.4-1.3c-0.2-0.8-0.4-1.2-0.4-1.2
	c-0.1-0.5-0.5-0.9-1-1c0,0-0.5-0.1-1.2-0.4l-1.3-0.4L65.8,38l10.9-10l-9.8,11.1L30.2,79z"/>
</svg>
