<?xml version="1.0" encoding="utf-8"?>
<!-- Generator: Adobe Illustrator 21.1.0, SVG Export Plug-In . SVG Version: 6.00 Build 0)  -->
<svg version="1.1" id="Layer_1" xmlns="http://www.w3.org/2000/svg" xmlns:xlink="http://www.w3.org/1999/xlink" x="0px" y="0px"
	 viewBox="0 0 52.6 60.6" style="enable-background:new 0 0 52.6 60.6;" xml:space="preserve">
<style type="text/css">
	.st0{fill:none;stroke:#AD7D45;stroke-width:2;}
</style>
<g>
	<path class="st0" d="M17.9,41.5c0,1.2-1,2.2-2.2,2.2H7.7c-1.2,0-2.2-1-2.2-2.2V8.9c0-1.2,1-2.2,2.2-2.2h7.9c1.2,0,2.2,1,2.2,2.2
		V41.5z"/>
	<path class="st0" d="M15.6,52.7h33.7c1.2,0,2.2-1,2.2-2.2V3.2c0-1.2-1-2.2-2.2-2.2H46H23.5H3.2C2,1,1,2,1,3.2v47.2
		c0,1.2,1,2.2,2.2,2.2h3.4"/>
	<rect x="22.4" y="6.6" class="st0" width="24.7" height="10.1"/>
	<line class="st0" x1="22.4" y1="23.5" x2="25.7" y2="23.5"/>
	<line class="st0" x1="28" y1="23.5" x2="31.4" y2="23.5"/>
	<line class="st0" x1="33.6" y1="23.5" x2="37" y2="23.5"/>
	<line class="st0" x1="22.4" y1="28" x2="25.7" y2="28"/>
	<line class="st0" x1="28" y1="28" x2="31.4" y2="28"/>
	<line class="st0" x1="33.6" y1="28" x2="37" y2="28"/>
	<line class="st0" x1="22.4" y1="32.5" x2="25.7" y2="32.5"/>
	<line class="st0" x1="28" y1="32.5" x2="31.4" y2="32.5"/>
	<line class="st0" x1="33.6" y1="32.5" x2="37" y2="32.5"/>
	<line class="st0" x1="22.4" y1="37" x2="25.7" y2="37"/>
	<line class="st0" x1="28" y1="37" x2="31.4" y2="37"/>
	<line class="st0" x1="33.6" y1="37" x2="37" y2="37"/>
	<line class="st0" x1="22.4" y1="41.5" x2="25.7" y2="41.5"/>
	<line class="st0" x1="28" y1="41.5" x2="31.4" y2="41.5"/>
	<line class="st0" x1="33.6" y1="41.5" x2="37" y2="41.5"/>
	<line class="st0" x1="41.5" y1="23.5" x2="46" y2="23.5"/>
	<line class="st0" x1="41.5" y1="28" x2="46" y2="28"/>
	<line class="st0" x1="41.5" y1="32.5" x2="46" y2="32.5"/>
	<line class="st0" x1="41.5" y1="37" x2="46" y2="37"/>
	<line class="st0" x1="41.5" y1="41.5" x2="46" y2="41.5"/>
	<line class="st0" x1="11.1" y1="43.7" x2="11.1" y2="49.4"/>
	<line class="st0" x1="14.5" y1="57.2" x2="14.5" y2="60.6"/>
	<line class="st0" x1="16.1" y1="56.6" x2="18.5" y2="59"/>
	<line class="st0" x1="12.9" y1="53.4" x2="10.5" y2="51"/>
	<line class="st0" x1="12.2" y1="55" x2="8.9" y2="55"/>
	<line class="st0" x1="12.9" y1="56.6" x2="10.5" y2="59"/>
</g>
</svg>
