<?xml version="1.0" encoding="utf-8"?>
<!-- Generator: Adobe Illustrator 21.1.0, SVG Export Plug-In . SVG Version: 6.00 Build 0)  -->
<svg version="1.1" id="Layer_1" xmlns="http://www.w3.org/2000/svg" xmlns:xlink="http://www.w3.org/1999/xlink" x="0px" y="0px"
	 viewBox="0 0 349.5 25.1" style="enable-background:new 0 0 349.5 25.1;" xml:space="preserve">
<style type="text/css">
	.st0{fill:#FFFFFF;}
</style>
<g>
	<path class="st0" d="M72.4,6.9v11.3c0,1.1,0.6,1.6,1.6,1.6h1.3V5.5H74C73,5.4,72.4,5.9,72.4,6.9z"/>
	<path class="st0" d="M72.4,1.6V3h1.3c1.1,0,1.6-0.6,1.6-1.6V0H74C73,0.1,72.4,0.7,72.4,1.6z"/>
	<path class="st0" d="M81.9,15.1V0.1h-1.3c-1.1,0-1.6,0.6-1.6,1.6v13.4c0,1.2,0.2,2.2,0.7,2.8c0.5,0.7,1.1,1.3,2,1.6
		c0.5,0.2,1.1,0.2,1.4,0.1c0.6-0.1,0.8-0.6,0.8-1.2V17c-0.6,0-1.1-0.1-1.4-0.5C82.2,16.4,81.9,15.9,81.9,15.1z"/>
	<path class="st0" d="M97.1,6.5c-1.4-1.2-2.9-1.9-4.7-1.9c-2,0-3.4,0.6-4.7,1.9c-1.4,1.2-2.2,2.4-2.2,4.2V14c0,1.9,0.7,3,2.2,4.2
		c1.4,1.2,2.8,1.9,4.7,1.9c1.6,0,3.3-0.5,4.3-1.6c0.5,0.7,0.8,1.2,1.6,1.2h0.8v-9C99.5,9.2,98.6,7.6,97.1,6.5z M96.8,14.1
		c0,0.8-0.5,1.6-1.2,2.2c-0.8,0.7-2,1.1-2.9,1.1c-1.2,0-2.2-0.2-2.9-1.1c-0.8-0.6-1.3-1.3-1.3-2.2v-3.4c0-0.8,0.5-1.6,1.2-2.2
		c0.8-0.7,2-1.1,2.9-1.1c1.2,0,2.2,0.2,2.9,1.1c0.7,0.6,1.2,1.3,1.2,2.2v3.4H96.8z"/>
	<path class="st0" d="M120.1,6.9L120.1,6.9v7.2c0,1.2-0.2,2-0.7,2.3c-0.5,0.5-1.2,0.7-2.2,0.7c-0.8,0-1.6-0.2-2.2-0.7
		c-0.6-0.6-0.8-1.3-0.8-2.3V5.4h-1.3c-1.1,0-1.6,0.6-1.6,1.6v7.2c0,1.1-0.2,1.9-0.8,2.3c-0.6,0.6-1.3,0.7-2.2,0.7
		c-1.1,0-1.9-0.2-2.2-0.7c-0.2-0.5-0.7-1.3-0.7-2.3V5.5H104c-1.1,0-1.6,0.6-1.6,1.6v7.2c0,2,0.6,3.3,1.6,4.2
		c1.1,1.2,2.4,1.6,4.2,1.6c2,0,3.3-0.6,4.2-2c1.2,1.3,2.4,2,4.2,2c2,0,3-0.6,4.2-1.6c1.1-1.1,1.6-2.4,1.6-4.2V5.7h-1.3
		C120.6,5.4,120.1,5.9,120.1,6.9z"/>
	<path class="st0" d="M135.4,6.4l-3.7,10.7l0,0l-4.2-11.9h-2c-0.5,0-0.7,0.1-0.8,0.5c-0.1,0.2-0.1,0.6,0,0.8l4.2,11.9
		c0.2,0.7,0.8,1.2,1.9,1.4l-0.6,1.4c-0.1,0.2-0.2,0.6-0.7,0.7c-0.2,0.1-0.6,0.2-1.1,0.2v1.2c0,0.7,0.2,1.1,0.8,1.2
		c0.5,0.1,1.1,0,1.4-0.1c0.7-0.2,1.3-0.8,1.6-1.4c0.1-0.2,0.2-0.6,0.5-1.1c0.1-0.5,0.2-0.7,0.5-1.2l5.7-15.9l0,0h-2.2
		C136.2,5.4,135.7,5.8,135.4,6.4z"/>
	<path class="st0" d="M150.1,16.1c-0.1,0.1-0.2,0.2-0.5,0.2c-0.5,0.2-0.8,0.5-1.4,0.6c-0.7,0.1-1.4,0.2-2.2,0.1
		c-0.7,0-1.4-0.2-2.2-0.6c-0.7-0.5-1.1-1.1-1.1-1.6v-1.1c0.1,0.1,0.2,0.1,0.5,0.2c0.1,0,0.2,0,0.6,0h3.4c0.7,0,1.3-0.1,2-0.2
		c0.8-0.1,1.4-0.5,2-0.8c0.6-0.5,0.8-0.8,1.3-1.4c0.2-0.7,0.6-1.4,0.5-2.2c0-0.8-0.2-1.9-0.8-2.4c-0.5-0.6-1.2-1.2-2-1.6
		c-1.2-0.6-2.4-0.7-3.7-0.7s-2.3,0.2-3.3,0.7c-1.2,0.8-2.2,1.6-2.4,2.4c-0.2,0.7-0.5,1.4-0.5,2.2v4.5c0,0.8,0.1,1.9,0.6,2.4
		c0.5,0.8,0.8,1.4,1.6,2c0.6,0.5,1.3,0.7,2.2,0.8c0.6,0.1,1.4,0.2,2.2,0.2c1.1,0,2.2-0.1,2.8-0.5c1.1-0.2,2-0.8,2.4-1.4
		c0.5-0.5,0.8-1.1,1.2-1.6l-1.4-0.8C151,15.5,150.5,15.7,150.1,16.1z M143.3,9.9c0-0.6,0.2-1.1,0.7-1.4c0.5-0.2,0.8-0.6,1.4-0.7
		c0.6-0.1,1.4-0.1,2.2-0.1c0.7,0.1,1.7,0.2,2.2,0.7c0.5,0.2,0.6,0.8,0.6,1.3c-0.5,0.6-0.6,1.1-1.2,1.2c-0.5,0.2-0.8,0.2-1.4,0.2
		h-4.6L143.3,9.9L143.3,9.9z"/>
	<path class="st0" d="M157.4,6.4c-1.2,0.8-1.9,2.3-1.9,3.7l0,0v7.7c0,1.1,0.6,1.6,1.7,1.6h1.3v-9c0-0.7,0.2-1.3,0.7-1.9
		c0.5-0.2,0.8-0.5,1.4-0.5h0.5c1.1,0,1.4-0.6,1.4-1.6v-1h-2C159.3,5.4,158.3,5.8,157.4,6.4z"/>
	<path class="st0" d="M178.9,4.8c-1.6,0-2.8,0.5-3.7,1.3c-0.1,0.1-0.2,0.2-0.6,0.6c-0.2-0.2-0.5-0.5-0.6-0.6
		c-1.1-0.8-2.3-1.3-3.6-1.3c-2,0-3.3,0.6-4.2,1.9c-1.1,1.2-1.7,2.4-1.7,4.2v7.2c0,1.1,0.6,1.6,1.7,1.6h1.3v-8.7c0-1.1,0.2-2,0.7-2.4
		s1.2-0.7,2.2-0.7c0.8,0,1.7,0.2,2.2,0.8c0.6,0.6,0.8,1.4,0.8,2.3v7.2c0,1.1,0.6,1.6,1.7,1.6h1.3v-8.7c0-1.1,0.2-1.9,0.8-2.3
		c0.5-0.6,1.2-0.8,2.2-0.8c1.1,0,1.9,0.2,2.2,0.7c0.5,0.6,0.7,1.3,0.7,2.4v7.2c0,1.1,0.6,1.6,1.6,1.6h1.3v-8.7c0-2-0.6-3.3-1.7-4.2
		C182.1,5.5,180.8,4.8,178.9,4.8z"/>
	<path class="st0" d="M199.2,6.5c-1.4-1.2-2.9-1.9-4.7-1.9c-2,0-3.4,0.6-4.7,1.9c-1.4,1.2-2.2,2.4-2.2,4.2V14c0,1.9,0.7,3,2.2,4.2
		c1.3,1.2,2.8,1.9,4.7,1.9c1.7,0,3.3-0.5,4.3-1.6c0.5,0.7,0.8,1.2,1.6,1.2h0.8v-9C201.1,9.2,200.6,7.6,199.2,6.5z M198.3,14.1
		c0,0.8-0.5,1.6-1.2,2.2c-0.8,0.7-2,1.1-2.9,1.1c-1.2,0-2.2-0.2-2.9-1.1c-0.7-0.6-1.2-1.3-1.2-2.2v-3.4c0-0.8,0.5-1.6,1.2-2.2
		c0.8-0.7,2-1.1,2.9-1.1c1.2,0,2.2,0.2,2.9,1.1c0.7,0.6,1.2,1.3,1.2,2.2V14.1z"/>
	<path class="st0" d="M205.9,6.4c-1.2,0.8-1.9,2.3-1.9,3.7v7.7c0,1.1,0.6,1.6,1.6,1.6h1.3v-9c0-0.7,0.2-1.3,0.7-1.9
		c0.5-0.2,0.8-0.5,1.4-0.5h0.5c1.1,0,1.4-0.6,1.4-1.6v-1h-2C208.1,5.4,207,5.8,205.9,6.4z"/>
	<path class="st0" d="M221.4,11.8c0.1-0.1,0.5-0.5,0.6-0.8l3.4-5.7h-2.3c-0.7,0-1.3,0.2-1.9,1.1l-2.4,4.3c-0.4,0.5-1,0.5-1.6,0.5
		h-1.1V0.1h-1.3c-1.1,0-1.6,0.6-1.6,1.6l0,0v16.4c0,1.1,0.6,1.6,1.6,1.6h1.3V14h3c0.7,0,1.3,0.5,1.7,1.2l1.6,3.5
		c0.2,0.6,0.8,0.8,1.9,0.8h2l-2.4-5.7C223.3,12.9,222.4,12.1,221.4,11.8z"/>
	<path class="st0" d="M237.5,16.1c-0.1,0.1-0.2,0.2-0.5,0.2c-0.5,0.2-0.8,0.5-1.4,0.6c-0.7,0.1-1.4,0.2-2.2,0.1
		c-0.7,0-1.4-0.2-2.2-0.6c-0.7-0.5-1.1-1.1-1.1-1.6v-1.1c0.1,0.1,0.2,0.1,0.5,0.2c0.1,0,0.2,0,0.6,0h3.4c0.7,0,1.3-0.1,2-0.2
		c0.7-0.1,1.3-0.5,1.9-0.8c0.6-0.5,0.8-0.8,1.3-1.4c0.2-0.7,0.6-1.4,0.5-2.2c0-0.8-0.2-1.9-0.8-2.4c-0.5-0.6-1.2-1.2-2-1.6
		c-1.2-0.6-2.4-0.7-3.7-0.7c-1.3,0-2.3,0.2-3.3,0.7c-1.1,0.8-2,1.6-2.3,2.4s-0.5,1.3-0.5,1.9v4.7c0,0.8,0.1,1.9,0.6,2.4
		c0.5,0.8,0.8,1.4,1.7,2c0.6,0.5,1.3,0.7,2.2,0.8c0.6,0.1,1.4,0.2,2.3,0.2c1.1,0,2.2-0.1,2.8-0.5c1.1-0.2,2-0.8,2.4-1.4
		c0.5-0.5,0.8-1.1,1.2-1.6l-1.4-0.7C238.4,15.5,237.9,15.7,237.5,16.1z M230.6,9.9c0-0.6,0.2-1.1,0.7-1.4c0.5-0.2,0.8-0.6,1.4-0.7
		c0.6-0.1,1.4-0.1,2.2-0.1c0.7,0.1,1.6,0.2,2.2,0.7c0.5,0.2,0.6,0.8,0.6,1.3c-0.1,0.6-0.2,1.1-0.8,1.2c-0.5,0.2-0.8,0.2-1.4,0.2
		h-4.7V9.9H230.6z"/>
	<path class="st0" d="M246.1,0.1h-1.2c-1.1,0-1.6,0.6-1.6,1.6v13.4c0,1.2,0.2,2.2,0.7,2.8c0.5,0.7,1.1,1.3,2,1.6
		c0.6,0.2,1.1,0.2,1.4,0.1c0.6-0.1,0.8-0.6,0.8-1.2V17c-0.6,0-1.1-0.1-1.3-0.5c-0.5-0.5-0.7-1.1-0.7-1.9V8.3h2
		c1.1,0,1.7-0.6,1.7-1.6V5.5h-3.3V0.1H246.1z"/>
	<path class="st0" d="M251.9,6.9v11.3c0,1.1,0.6,1.6,1.6,1.6h1.3V5.5h-1.3C252.5,5.4,251.9,5.9,251.9,6.9z"/>
	<path class="st0" d="M251.9,1.6V3h1.3c1.1,0,1.7-0.6,1.7-1.6V0h-1.3C252.5,0.1,251.9,0.7,251.9,1.6z"/>
	<path class="st0" d="M264.7,4.8c-1.9,0-3.3,0.6-4.6,1.6c-1.4,1.2-2.2,2.4-2.2,4.1V18c0,1.1,0.6,1.6,1.7,1.6h1.3v-9
		c0-0.7,0.2-1.4,1.1-2.2c0.8-0.6,1.9-1.1,2.7-1.1c1.2,0,2.2,0.2,2.7,1.1c0.7,0.6,1.1,1.2,1.1,2.2v7.6c0,1.1,0.6,1.6,1.6,1.6h1.3
		v-9.2c0-1.6-0.7-2.9-2.2-4.1C268,5.5,266.4,4.8,264.7,4.8z"/>
	<path class="st0" d="M285.8,6.5c-1.4-1.2-2.9-1.9-4.7-1.9c-2,0-3.4,0.6-4.7,1.9c-1.4,1.2-2.2,2.4-2.2,4.2V14c0,1.9,0.7,3,2.2,4.2
		c1.3,1.2,2.8,1.9,4.7,1.9c1.7,0,2.8-0.5,4-1.2v0.6c0,1.3-0.7,2.2-2.2,2.4c-0.7,0.1-1.7,0.2-2.4,0.2c-1.1,0-2-0.1-2.4-0.5l-0.2,1.2
		c-0.1,0.6-0.1,0.8,0,1.2c0.2,0.2,0.7,0.6,1.3,0.7c0.7,0.1,1.4,0.2,2.3,0.2s1.9-0.1,2.4-0.2c1.4-0.5,2.8-1.4,3.5-2.8
		c0.5-0.7,0.6-1.6,0.6-2.4v-8.9C287.8,9.2,287,7.6,285.8,6.5z M285.1,14.1c0,0.8-0.5,1.6-1.2,2.2c-0.8,0.7-2,1.1-2.9,1.1
		c-1.2,0-2.2-0.2-2.9-1.1c-0.7-0.6-1.2-1.3-1.2-2.2v-3.4c0-0.8,0.5-1.6,1.2-2.2c0.8-0.7,2-1.1,2.9-1.1c1.2,0,2.2,0.2,2.9,1.1
		c0.7,0.6,1.2,1.3,1.2,2.2V14.1z"/>
	<path class="st0" d="M291.1,18.1V20h1.3c1.1,0,1.7-0.6,1.7-1.6v-2h-1.3C291.7,16.4,291.1,16.9,291.1,18.1z"/>
	<path class="st0" d="M301.1,8.7c0.7-0.6,1.9-1.1,2.7-1.1c1.2,0,2.2,0.2,2.7,1.1c0.1,0.1,0.1,0.1,0.5,0.5c0.6,0.6,1.2,0.7,2,0.2
		l1.3-0.7c-0.2-0.8-0.8-1.6-1.9-2.3c-1.3-1.2-2.8-1.6-4.6-1.6c-1.9,0-3.3,0.6-4.6,1.6c-1.4,1.2-2.2,2.4-2.2,4.1v3.7
		c0,1.6,0.7,2.9,2.2,4.1c1.3,1.1,2.7,1.6,4.6,1.6c2,0,3.3-0.6,4.6-1.6c0.7-0.7,1.3-1.4,1.9-2.3l-1.3-0.7c-0.7-0.5-1.4-0.2-2,0.2
		c-0.1,0.1-0.2,0.2-0.5,0.5c-0.7,0.6-1.9,0.8-2.7,0.8c-1.2,0-2.2-0.2-2.7-0.8c-0.7-0.6-1.1-1.2-1.1-2.2v-3.6
		C300.1,9.9,300.4,9.3,301.1,8.7z"/>
	<path class="st0" d="M323.9,6.5c-1.4-1.2-2.9-1.9-4.7-1.9c-2,0-3.4,0.6-4.7,1.9c-1.4,1.2-2.2,2.4-2.2,4.2V14c0,1.9,0.7,3,2.2,4.2
		c1.3,1.2,2.8,1.9,4.7,1.9c1.9,0,3.4-0.6,4.7-1.9c1.4-1.2,2.2-2.4,2.2-4.2v-3.3C325.8,9.2,325.1,7.6,323.9,6.5z M323.1,14.1
		c0,0.8-0.5,1.6-1.2,2.2c-0.8,0.7-2,1.1-2.9,1.1c-1.2,0-2.2-0.2-2.9-1.1c-0.7-0.6-1.2-1.3-1.2-2.2v-3.4c0-0.8,0.5-1.6,1.2-2.2
		c0.8-0.7,2-1.1,2.9-1.1c1.2,0,2.2,0.2,2.9,1.1c0.7,0.6,1.2,1.3,1.2,2.2V14.1z"/>
	<path class="st0" d="M347.5,6.4c-1.1-1.2-2.4-1.9-4.2-1.9c-1.6,0-2.8,0.5-3.7,1.3c-0.1,0.1-0.2,0.2-0.6,0.6
		c-0.2-0.2-0.5-0.5-0.6-0.6c-1.1-0.8-2.3-1.3-3.6-1.3c-2,0-3.3,0.6-4.2,1.9c-1,1.2-1.7,2.4-1.7,4.2v7.2c0,1.1,0.6,1.6,1.7,1.6h1.3
		v-8.7c0-1.1,0.2-2,0.7-2.4c0.5-0.5,1.2-0.7,2.2-0.7c0.8,0,1.7,0.2,2.2,0.8c0.6,0.6,0.8,1.4,0.8,2.3V18c0,1.1,0.6,1.6,1.6,1.6h1.3
		V11c0-1.1,0.2-1.9,0.8-2.3c0.5-0.6,1.2-0.8,2.2-0.8c1,0,1.9,0.2,2.2,0.7c0.5,0.6,0.7,1.3,0.7,2.4v7.2c0,1.1,0.6,1.6,1.6,1.6h1.3
		v-8.7C348.9,9,348.4,7.5,347.5,6.4z"/>
	<path class="st0" d="M4.1,11.6c-0.8-0.6-1.4-1-1.4-2.2c0-1.1,0.6-1.3,1.4-1.3c1.4,0,1.6,1.3,1.6,2.4h2.4c0-1.4,0.1-4.6-4-4.6
		c-2.7,0.4-4,1.3-4,4c0,0.7,0.2,1.4,0.7,2.2c1.1,1.4,2.7,2.2,4.1,3C5.7,15.5,6,16.1,6,17c0,1.1-0.6,1.6-1.6,1.6
		c-1.3,0-1.9-1.1-1.6-2.3v-0.8H0v1.1c0,2.4,1.2,4.1,4.1,4.1c2.4,0,4.2-1.4,4.2-4c0-1.2-0.2-2.2-1.2-2.8C6.5,13.1,5.1,11.9,4.1,11.6z
		"/>
	<rect x="11.3" y="6.5" class="st0" width="2.4" height="13.9"/>
	<polygon class="st0" points="16.3,8.6 19.2,8.6 19.2,20.2 21.8,20.2 21.8,8.6 24.8,8.6 24.8,6.5 16.3,6.5 	"/>
	<polygon class="st0" points="26.9,20.2 34.5,20.2 34.5,18.3 29.6,18.3 29.6,14 33.9,14 33.9,11.9 29.6,11.9 29.6,8.6 34.5,8.6 
		34.5,6.5 26.9,6.5 	"/>
	<path class="st0" d="M48.4,12.9L48.4,12.9c1.4-0.6,1.9-1.9,1.9-2.9s-0.2-1.8-0.8-2.4c-0.7-1.1-2-1.1-2.9-1.1h-4.1v13.9H47
		c2,0,2.8-0.7,3.4-2.4c0.1-0.6,0.1-1.2,0.1-1.9C50.4,14.5,49.8,13.1,48.4,12.9z M44.9,8.6h1.2c1.2,0,1.4,0.6,1.4,1.6
		c0,0.7,0,1.2-0.2,1.4c-0.5,0.6-1.3,0.5-2,0.5h-0.5C44.9,12.1,44.9,8.6,44.9,8.6z M47,18.2c-0.5,0.1-1.1,0.1-1.6,0.1l0,0h-0.6v-4.1
		h1.1c1.6,0,2,0.6,2,2.2C47.8,16.9,47.7,17.7,47,18.2z"/>
	<path class="st0" d="M58.2,9.8c-0.2,0.7-0.7,1.6-0.8,2.4l0,0c-0.1-0.7-0.2-1.4-0.6-2.2l-1.6-3.5h-2.8l3.5,7.8v5.9h2.4v-5.8l3.6-7.8
		H59L58.2,9.8z"/>
</g>
</svg>
