<?xml version="1.0" encoding="utf-8"?>
<!-- Generator: Adobe Illustrator 21.1.0, SVG Export Plug-In . SVG Version: 6.00 Build 0)  -->
<svg version="1.1" id="Layer_1" xmlns="http://www.w3.org/2000/svg" xmlns:xlink="http://www.w3.org/1999/xlink" x="0px" y="0px"
	 viewBox="0 0 218.1 45.2" style="enable-background:new 0 0 218.1 45.2;" xml:space="preserve">
<polygon points="38,45.2 38,37.8 39.5,37.8 39.5,43.7 43.7,43.7 43.7,45.2 "/>
<path d="M62.8,45.2l-0.7-1.6h-4.3L57,45.2h-1.7l3.6-7.4h2l3.6,7.4H62.8z M59.9,39.3l-1.4,2.9h2.9L59.9,39.3z"/>
<polygon points="85.3,45.2 83.3,45.2 81.9,39.8 80.5,45.2 78.5,45.2 76.2,37.8 77.8,37.8 79.5,43.3 81,37.8 82.9,37.8 84.4,43.3 
	86.1,37.8 87.7,37.8 "/>
<polygon points="110.7,39.3 110.7,40.7 113.4,40.7 113.4,42.1 110.7,42.1 110.7,45.2 109.3,45.2 109.3,37.8 115.8,37.8 115.8,39.3 
	"/>
<rect x="129.9" y="37.8" width="1.5" height="7.4"/>
<path d="M152.1,45.2l-1.9-3h-2.4v3h-1.5v-7.4h5.1c0.6,0,1,0.1,1.4,0.4c0.6,0.4,0.9,1.1,0.9,1.8c0,1.1-0.6,1.8-1.7,2.1l1.9,3H152.1z
	 M151.1,39.3h-3.3v1.4h3.6c0.4,0,0.8-0.2,0.8-0.7C152.2,39.4,151.6,39.3,151.1,39.3"/>
<polygon points="174.5,45.2 174.5,40.5 171.9,44.2 169.2,40.5 169.2,45.2 167.8,45.2 167.8,37.8 169.3,37.8 171.9,41.5 174.5,37.8 
	175.9,37.8 175.9,45.2 "/>
<g>
	<path d="M19.1,22.1v-1.4c1.9,0,2.9-0.7,2.9-2.2L21.7,4.7l-6.5,17.4h-3L5.1,4.8L5,18c0,1.8,1.1,2.6,3.2,2.6v1.4H0v-1.4
		c1,0,1.8-0.2,2.3-0.7c0.5-0.5,0.8-1.2,0.8-2.2L3.4,3.3c0-0.3,0-0.5,0-0.7c0-0.2-0.2-0.4-0.4-0.5C2.8,1.9,2.4,1.8,2,1.7
		C1.5,1.6,0.9,1.6,0.1,1.6V0.1H9l6.4,16l6.2-16h7.8v1.5c-0.7,0-1.2,0-1.6,0.1C27.4,1.8,27,2,26.8,2.1c-0.2,0.2-0.4,0.3-0.4,0.5
		c-0.1,0.2-0.1,0.4-0.1,0.6l0.4,15c0,1.6,1,2.4,2.9,2.4v1.4H19.1z"/>
	<path d="M63.7,4.2c0-1.7-1.1-2.6-3.3-2.6V0.1h8v1.5c-1.8,0-2.7,0.9-2.7,2.6v9.9c0,1.3-0.1,2.4-0.4,3.5c-0.2,1-0.7,1.9-1.3,2.7
		c-0.7,0.7-1.5,1.3-2.6,1.7c-1.1,0.4-2.5,0.6-4.2,0.6c-1.3,0-2.5-0.2-3.6-0.5c-1.1-0.4-2-0.9-2.8-1.5c-0.8-0.6-1.4-1.4-1.8-2.3
		c-0.4-0.9-0.7-1.9-0.7-2.9V3.7c0-1.4-1-2.1-3.1-2.1V0.1h11.6v1.5c-2.1,0-3.1,0.7-3.1,2.1v10.8c0,0.7,0.1,1.4,0.2,2.2
		c0.1,0.7,0.4,1.4,0.7,2s0.8,1.1,1.4,1.5c0.6,0.4,1.4,0.6,2.4,0.6c1.9,0,3.3-0.5,4.1-1.6c0.8-1.1,1.3-2.6,1.3-4.6V4.2z"/>
	<path d="M106.5,18.8c0,0.3-0.1,0.7-0.3,1.1s-0.5,0.8-0.9,1.2c-0.4,0.4-0.8,0.7-1.4,1c-0.5,0.3-1.1,0.4-1.8,0.4
		c-1.4,0-2.4-0.2-3-0.6c-0.6-0.4-1.1-0.9-1.3-1.6c-0.5-1.3-0.9-2.5-1.2-3.5c-0.4-1.1-0.7-2-1.1-2.7c-0.4-0.8-0.8-1.3-1.3-1.8
		c-0.5-0.4-1.1-0.6-1.9-0.6c-0.4,0-0.7,0.1-0.8,0.2v6.9c0,1.3,1,1.9,2.9,1.9v1.4H83v-1.4c1.9,0,2.8-0.6,2.8-1.9V3.4
		c0-1.2-1-1.9-3.1-1.9V0.1H88c0.7,0,1.3,0,1.9,0c0.5,0,1,0,1.6,0c0.6,0,1.2,0,1.9,0C94,0,94.9,0,96,0c1.1,0,2.1,0.1,2.9,0.4
		c0.8,0.3,1.5,0.7,2,1.2c0.5,0.5,0.9,1.1,1.1,1.8c0.2,0.7,0.3,1.4,0.3,2.2c0,1.5-0.6,2.7-1.7,3.7c-1.1,0.9-2.7,1.5-4.7,1.8
		c0.8,0.1,1.5,0.2,2.1,0.4c0.6,0.2,1.1,0.4,1.5,0.6c0.4,0.3,0.7,0.6,1,0.9c0.3,0.4,0.5,0.8,0.7,1.3c0.3,0.7,0.6,1.4,0.7,2.1
		c0.2,0.7,0.4,1.3,0.5,1.9c0.2,0.6,0.4,1,0.6,1.3c0.2,0.3,0.6,0.5,1,0.5c0.5,0,0.9-0.5,1.1-1.5L106.5,18.8z M92.8,9.9
		c0.6,0,1.1,0,1.6-0.1c0.5-0.1,0.9-0.3,1.2-0.5C96,9,96.2,8.6,96.4,8c0.2-0.6,0.3-1.3,0.3-2.3c0-0.8-0.1-1.4-0.3-1.9
		c-0.2-0.5-0.4-0.9-0.8-1.2C95.3,2.3,95,2.1,94.5,2c-0.4-0.1-0.9-0.2-1.4-0.2h-0.7c-0.7,0-1,0.5-1,1.6v6.1c0.1,0.2,0.2,0.3,0.5,0.3
		H92.8z"/>
	<path d="M120.3,22.1v-1.4c2,0,2.9-0.7,2.9-2.2V3.3c0-1.1-1-1.7-3.1-1.7V0.1h7.5c0.8,0,1.5,0,2.1,0c0.6,0,1.2,0,1.9,0
		c2.9,0,5,0.5,6.4,1.6c1.3,1.1,2,2.7,2,4.9c0,0.8-0.1,1.6-0.4,2.4c-0.3,0.8-0.8,1.4-1.5,2c-0.7,0.6-1.6,1-2.6,1.3
		c-1.1,0.3-2.4,0.5-4,0.5c-0.7,0-1.2,0-1.6-0.1c-0.4,0-0.8-0.1-1.2-0.2v6c0,0.7,0.3,1.3,0.8,1.7c0.6,0.4,1.4,0.6,2.4,0.6v1.4H120.3z
		 M128.7,10.7c0.4,0.1,0.9,0.2,1.3,0.2c0.4,0,1,0.1,1.6,0.1c0.7,0,1.2-0.1,1.6-0.4c0.4-0.3,0.7-0.6,0.9-1c0.2-0.4,0.3-0.9,0.3-1.5
		c0-0.6,0.1-1.1,0.1-1.7c0-0.8-0.1-1.5-0.2-2.1c-0.1-0.6-0.4-1.1-0.7-1.5c-0.3-0.4-0.8-0.7-1.4-0.9c-0.6-0.2-1.3-0.3-2.2-0.3
		c-0.8,0-1.2,0.5-1.2,1.5V10.7z"/>
	<path d="M169.4,22.1v-1.4c2.2,0,3.2-0.7,3.2-2V12c-0.2-0.1-0.5-0.2-0.9-0.3c-0.4-0.1-0.8-0.1-1.4-0.1h-4c-0.8,0-1.5,0.1-2.2,0.4
		v6.7c0,1.3,1,2,3,2v1.4h-11.7v-1.4c2.2,0,3.3-0.7,3.3-2V4.2c0-1.7-1.1-2.6-3.3-2.6V0.1h11.7v1.5c-2,0-3,0.9-3,2.6v5.4
		c0.3,0.1,0.7,0.2,1,0.2c0.3,0,0.7,0.1,1.2,0.1h4c1.1,0,1.9-0.1,2.3-0.3V4.2c0-1.7-1.1-2.6-3.2-2.6V0.1h11.7v1.5c-2,0-3,0.9-3,2.6
		v14.5c0,1.3,1,2,3,2v1.4H169.4z"/>
	<path d="M200.6,22.1v-1.4c2.2,0,3.3-0.4,3.3-1.3v-6.3l-5.4-8.9c-1.1-1.7-2.2-2.6-3.6-2.6V0.1h11v1.5c-1.6,0-2.3,0.3-2.3,0.9
		c0,0.2,0.2,0.6,0.5,1.2l4.3,7.2l4-7.1c0.1-0.3,0.2-0.8,0.2-1.3c0-0.5-0.9-0.8-2.6-0.8V0.1h8v1.5c-1.2,0-2.1,0.4-2.6,1.1l-6,10.3
		v6.5c0,0.8,1.1,1.2,3.2,1.2v1.4H200.6z"/>
</g>
</svg>
