<svg id="phone" data-name="Layer 1" xmlns="http://www.w3.org/2000/svg" viewBox="0 0 52.5 60.6"><defs><style>.phone-cls-1{fill:none;stroke:#ad7d45;stroke-width:2px;}</style></defs><title>icon-phone</title><path class="phone-cls-1" d="M17.9,41.5a2.22,2.22,0,0,1-2.2,2.2h-8a2.22,2.22,0,0,1-2.2-2.2V8.9A2.22,2.22,0,0,1,7.7,6.7h7.9a2.22,2.22,0,0,1,2.2,2.2V41.5Z"/><path class="phone-cls-1" d="M15.6,52.7H49.3a2.22,2.22,0,0,0,2.2-2.2V3.2A2.22,2.22,0,0,0,49.3,1H3.2A2.22,2.22,0,0,0,1,3.2V50.4a2.22,2.22,0,0,0,2.2,2.2H6.6"/><rect class="phone-cls-1" x="22.4" y="6.6" width="24.7" height="10.1"/><line class="phone-cls-1" x1="22.4" y1="23.5" x2="25.7" y2="23.5"/><line class="phone-cls-1" x1="28" y1="23.5" x2="31.4" y2="23.5"/><line class="phone-cls-1" x1="33.6" y1="23.5" x2="37" y2="23.5"/><line class="phone-cls-1" x1="22.4" y1="28" x2="25.7" y2="28"/><line class="phone-cls-1" x1="28" y1="28" x2="31.4" y2="28"/><line class="phone-cls-1" x1="33.6" y1="28" x2="37" y2="28"/><line class="phone-cls-1" x1="22.4" y1="32.5" x2="25.7" y2="32.5"/><line class="phone-cls-1" x1="28" y1="32.5" x2="31.4" y2="32.5"/><line class="phone-cls-1" x1="33.6" y1="32.5" x2="37" y2="32.5"/><line class="phone-cls-1" x1="22.4" y1="37" x2="25.7" y2="37"/><line class="phone-cls-1" x1="28" y1="37" x2="31.4" y2="37"/><line class="phone-cls-1" x1="33.6" y1="37" x2="37" y2="37"/><line class="phone-cls-1" x1="22.4" y1="41.5" x2="25.7" y2="41.5"/><line class="phone-cls-1" x1="28" y1="41.5" x2="31.4" y2="41.5"/><line class="phone-cls-1" x1="33.6" y1="41.5" x2="37" y2="41.5"/><line class="phone-cls-1" x1="41.5" y1="23.5" x2="46" y2="23.5"/><line class="phone-cls-1" x1="41.5" y1="28" x2="46" y2="28"/><line class="phone-cls-1" x1="41.5" y1="32.5" x2="46" y2="32.5"/><line class="phone-cls-1" x1="41.5" y1="37" x2="46" y2="37"/><line class="phone-cls-1" x1="41.5" y1="41.5" x2="46" y2="41.5"/><line class="phone-cls-1" x1="11.1" y1="43.7" x2="11.1" y2="49.4"/><line class="phone-cls-1" x1="14.5" y1="57.2" x2="14.5" y2="60.6"/><line class="phone-cls-1" x1="16.1" y1="56.6" x2="18.5" y2="59"/><line class="phone-cls-1" x1="12.9" y1="53.4" x2="10.5" y2="51"/><line class="phone-cls-1" x1="12.2" y1="55" x2="8.9" y2="55"/><line class="phone-cls-1" x1="12.9" y1="56.6" x2="10.5" y2="59"/></svg>