<svg id="email" data-name="Layer 1" xmlns="http://www.w3.org/2000/svg" viewBox="0 0 55.3 40.6"><defs><style>.email-cls-1,.email-cls-2{fill:none;stroke:#ad7d45;stroke-width:2px;}.email-cls-2{stroke-linejoin:bevel;}</style></defs><title>icon-mail</title><path class="email-cls-1" d="M47.3,37.6a9.92,9.92,0,0,1-6.1,2,10.1,10.1,0,1,1,7.9-16.5"/><path class="email-cls-1" d="M44.4,24.8s-4.2-1-6.6,1.3c-2.9,2.7-2.3,7,.4,7.8a3,3,0,0,0,4-2.2C42.6,30.8,44.4,24.8,44.4,24.8Z"/><path class="email-cls-1" d="M44.1,25.8s-1.8,6.3-.5,7.4c3.6,3.3,12-5.3,3.8-11.7"/><polyline class="email-cls-1" points="29.3 35.4 1 35.4 1 1 54.3 1 54.3 35.4 50.8 35.4"/><path class="email-cls-2" d="M25.1,19.1a4.39,4.39,0,0,0,5.7,0L54.3,1.4V1.1H1.2Z"/><line class="email-cls-2" x1="19.1" y1="19.9" x2="5.1" y2="31.2"/><line class="email-cls-1" x1="28.5" y1="3.6" x2="28.5" y2="5.3"/><line class="email-cls-1" x1="28.5" y1="7" x2="28.5" y2="8.7"/><line class="email-cls-1" x1="28.5" y1="10.4" x2="28.5" y2="12.2"/></svg>