<svg id="louis" data-name="Layer 1" xmlns="http://www.w3.org/2000/svg" viewBox="0 0 302.62 302.62"><defs><style>.louis-cls-1{opacity:0.12;}.louis-cls-2{fill:#09343d;}</style></defs><title>icon-baton-rouge</title><g class="louis-cls-1"><path class="louis-cls-2" d="M73.5,72.4a6.94,6.94,0,0,1,1.9,2.4,6.6,6.6,0,0,1,.6,2.7,9.18,9.18,0,0,1-.5,2.8A12.75,12.75,0,0,1,74,82.8l-6.4,7.5a.72.72,0,0,1-.6.4.55.55,0,0,1-.5-.3L49.3,75.8c-.2-.2-.3-.3-.3-.5a.73.73,0,0,1,.2-.6l6-7.1a7.86,7.86,0,0,1,5.1-3.1,6.38,6.38,0,0,1,5,1.8,2.85,2.85,0,0,1,.7.8,4.13,4.13,0,0,1,.7,1.1,3.26,3.26,0,0,1,.4,1.4,3.34,3.34,0,0,1-.1,1.7l.1.1a3.81,3.81,0,0,1,1.9-.6,11,11,0,0,1,1.8.2,5.23,5.23,0,0,1,1.5.7c.4.3.9.5,1.2.7M61.7,71a2.45,2.45,0,0,0-1.6-.6,2.56,2.56,0,0,0-1.8,1.1L56.1,74l3.4,2.9,2.3-2.7a2.7,2.7,0,0,0,.7-1.7,2.24,2.24,0,0,0-.8-1.5m7.7,5.7a3.55,3.55,0,0,0-1.9-.8,2.73,2.73,0,0,0-2,1.1l-2.4,2.9,4.1,3.5,2.4-2.9a2.77,2.77,0,0,0,.9-2.2,3.85,3.85,0,0,0-1.1-1.6" transform="translate(0.03 -0.01)"/><path class="louis-cls-2" d="M86.2,69.7c.1.4.2.7.1.9a1.33,1.33,0,0,1-.5.6l-3.3,2.4a.65.65,0,0,1-.5.2c-.1,0-.3-.3-.4-.7L74.3,51a2.77,2.77,0,0,1-.1-.9c0-.2.2-.5.6-.8l3.7-2.7a1.07,1.07,0,0,1,1-.3,5.9,5.9,0,0,1,.8.4l19,13.8c.2.2.4.4.4.5a.54.54,0,0,1-.3.5l-3.7,2.6a1.6,1.6,0,0,1-.8.3,2.51,2.51,0,0,1-.8-.5l-3.5-2.8-5.9,4.2Zm-2.5-14-3.6-2.9H80l1.6,4.3L83.1,61l3.8-2.8Z" transform="translate(0.03 -0.01)"/><path class="louis-cls-2" d="M109.5,35.5c0,.2-.2.3-.5.5l-4.9,2.2,7.6,17a1.27,1.27,0,0,1,.1.6c0,.2-.2.4-.5.5L107.5,58a2,2,0,0,1-.7.1.7.7,0,0,1-.4-.5l-7.6-17-4.9,2.2c-.3.1-.5.2-.7.1s-.3-.2-.4-.4l-1.3-3a1.27,1.27,0,0,1-.1-.6c0-.2.2-.3.5-.5L107,31.7a.76.76,0,0,1,1.1.4l1.3,3c.1,0,.1.2.1.4" transform="translate(0.03 -0.01)"/><path class="louis-cls-2" d="M140.2,35.7a29.75,29.75,0,0,1,.5,4.3,10.45,10.45,0,0,1-.6,4.3,7.61,7.61,0,0,1-2.6,3.6,10.38,10.38,0,0,1-5.3,2.2,11.72,11.72,0,0,1-4.1.2,9.42,9.42,0,0,1-3.1-1,7.87,7.87,0,0,1-2.2-1.8,12.75,12.75,0,0,1-1.5-2.5,23.07,23.07,0,0,1-1-2.8,15.67,15.67,0,0,1-.6-2.8q-.15-1-.3-2.4a12.19,12.19,0,0,1,0-2.7,15.67,15.67,0,0,1,.6-2.8,9.39,9.39,0,0,1,1.4-2.6,8.72,8.72,0,0,1,2.5-2.1,12.09,12.09,0,0,1,3.8-1.3,13.1,13.1,0,0,1,5.6,0,9.13,9.13,0,0,1,3.7,2.2,9.46,9.46,0,0,1,2.2,3.6,45,45,0,0,1,1,4.4m-5.7,1.5c-.5-2.6-1.1-4.4-2-5.4s-2.1-1.4-3.9-1.1a3.49,3.49,0,0,0-3,2.4,13.71,13.71,0,0,0,.1,5.7,14.47,14.47,0,0,0,1.9,5.3,3.42,3.42,0,0,0,3.7,1.2,3.65,3.65,0,0,0,3.2-2.4,13.41,13.41,0,0,0,0-5.7" transform="translate(0.03 -0.01)"/><path class="louis-cls-2" d="M155.9,34.5h-.1l-1,12.8a.76.76,0,0,1-.2.5.85.85,0,0,1-.6.2l-4-.3c-.6,0-.8-.3-.8-.8l1.7-22.6a1.42,1.42,0,0,1,.2-.6.85.85,0,0,1,.6-.2l3,.2a1.42,1.42,0,0,1,1.1.4,2.18,2.18,0,0,1,.5.8c.2.3.4.8.8,1.5s.8,1.5,1.3,2.3l1.5,2.7q.75,1.5,1.5,2.7c.5.9.9,1.7,1.3,2.3s.6,1.2.8,1.5h.2l1-12.8a1.42,1.42,0,0,1,.2-.6c.1-.2.3-.2.7-.2l4,.3a.6.6,0,0,1,.6.3,1.27,1.27,0,0,1,.1.6L168.6,48a1.42,1.42,0,0,1-.2.6.85.85,0,0,1-.6.2l-3-.2a1.22,1.22,0,0,1-.9-.3,4.35,4.35,0,0,1-.6-.7c-.8-1.4-1.6-2.9-2.5-4.3s-1.6-2.9-2.5-4.3Z" transform="translate(0.03 -0.01)"/><path class="louis-cls-2" d="M205.4,61.8a.85.85,0,0,1-.2.6.63.63,0,0,1-.6,0l-4-1.9c-.3-.2-.6-.3-.7-.5a1.08,1.08,0,0,1-.2-.8L200,50l-2.1-1-3.7,7.6a.78.78,0,0,1-.4.4.85.85,0,0,1-.7,0l-3.8-1.8c-.3-.1-.5-.3-.5-.5a1.27,1.27,0,0,1,.1-.6l9.8-20.4a.78.78,0,0,1,.4-.4.63.63,0,0,1,.7.1l8,3.9a8.07,8.07,0,0,1,2.4,1.7,9.12,9.12,0,0,1,1.7,2.3,6.84,6.84,0,0,1,.6,2.9,8.8,8.8,0,0,1-.8,3.3,14,14,0,0,1-1,1.6,9.27,9.27,0,0,1-1.4,1.4,5.08,5.08,0,0,1-1.8.9,7.8,7.8,0,0,1-2.2.3Zm1-17.2a2.46,2.46,0,0,0,.1-2.2,3.63,3.63,0,0,0-1.7-1.5l-2.7-1.3-2.4,4.9,2.6,1.3a2.93,2.93,0,0,0,1,.3,4.1,4.1,0,0,0,1.1.1,1.78,1.78,0,0,0,1-.4,2.47,2.47,0,0,0,1-1.2" transform="translate(0.03 -0.01)"/><path class="louis-cls-2" d="M233.4,69.2a29.12,29.12,0,0,1-3,3.1,12,12,0,0,1-3.7,2.3,8.13,8.13,0,0,1-4.4.3,11.56,11.56,0,0,1-5.1-2.7,15.37,15.37,0,0,1-2.8-3,9.43,9.43,0,0,1-1.2-3,7.08,7.08,0,0,1,0-2.9,12.24,12.24,0,0,1,.9-2.7,12.75,12.75,0,0,1,1.5-2.5c.6-.8,1.2-1.6,1.8-2.3.5-.5,1-1.1,1.6-1.7a13.75,13.75,0,0,1,4.6-3,9.37,9.37,0,0,1,2.9-.6,9.48,9.48,0,0,1,3.2.6,12,12,0,0,1,3.5,2.1,11.83,11.83,0,0,1,3.5,4.3,7.72,7.72,0,0,1,.6,4.2,10.1,10.1,0,0,1-1.4,4,28,28,0,0,1-2.5,3.5m-4.8-3.5a12.75,12.75,0,0,0,2.9-5,3.77,3.77,0,0,0-1.6-3.7,3.42,3.42,0,0,0-3.8-.7c-1.3.5-2.7,1.8-4.3,3.8a14.43,14.43,0,0,0-2.9,4.8,3.46,3.46,0,0,0,1.4,3.6,3.7,3.7,0,0,0,3.9.9,13.63,13.63,0,0,0,4.4-3.7" transform="translate(0.03 -0.01)"/><path class="louis-cls-2" d="M239.1,88.6a3.69,3.69,0,0,0,2.5,1.7,4.82,4.82,0,0,0,3.3-1.2l11.6-8.3a1.42,1.42,0,0,1,.6-.2.72.72,0,0,1,.6.4l2.4,3.4a.63.63,0,0,1,.1.7.78.78,0,0,1-.4.4l-11.7,8.3a17.39,17.39,0,0,1-1.8,1.1,10.23,10.23,0,0,1-2.1.8,6.21,6.21,0,0,1-2.7.1A7.32,7.32,0,0,1,239,95a8.23,8.23,0,0,1-2.2-1.6,9.09,9.09,0,0,1-1.8-2.1,10.54,10.54,0,0,1-1.8-3.7,8.39,8.39,0,0,1-.2-3.5,8.25,8.25,0,0,1,1.4-3.2,11.53,11.53,0,0,1,2.7-2.7l11.7-8.4a1.42,1.42,0,0,1,.6-.2.72.72,0,0,1,.6.4l2.4,3.4a.63.63,0,0,1,.1.7.78.78,0,0,1-.4.4L240.6,83c-2.5,1.7-3,3.6-1.5,5.6" transform="translate(0.03 -0.01)"/><path class="louis-cls-2" d="M257.5,106.2q-1.5.6-2.7,1.2a5.75,5.75,0,0,0-1.9,1.5,3.72,3.72,0,0,0-.9,1.9,4.81,4.81,0,0,0,.4,2.5,6.72,6.72,0,0,0,.6,1.2,10.91,10.91,0,0,0,.6,1.1l4.1-1.6-.9-2.3a2.25,2.25,0,0,1-.1-.7.7.7,0,0,1,.5-.4l2.9-1.1a1.27,1.27,0,0,1,.6-.1c.2.1.3.2.4.6l2.6,6.7a.85.85,0,0,1,0,.7.78.78,0,0,1-.4.4c-1.3.5-2.7,1.1-4.3,1.7s-3.3,1.3-5.4,2.1a2.34,2.34,0,0,1-1.1.2,1.54,1.54,0,0,1-1.1-.6l-1.2-1.5c-.4-.6-.7-1.1-1.1-1.7l-.9-1.8c-.3-.6-.5-1.1-.7-1.6a11.89,11.89,0,0,1-1-5.2,8,8,0,0,1,1.4-4,10.81,10.81,0,0,1,3.1-2.9,27.44,27.44,0,0,1,4.2-2.1,30.3,30.3,0,0,1,4.3-1.2,10.38,10.38,0,0,1,4.3,0,8.88,8.88,0,0,1,3.9,1.9,10.82,10.82,0,0,1,3,4.6,33.82,33.82,0,0,1,1.1,3.4,13.69,13.69,0,0,1,.4,3.4,3,3,0,0,1-.2,1c-.1.3-.4.4-.9.5l-2.2.3c-.4.1-.6,0-.7-.1a5.56,5.56,0,0,1-.4-.8c-.3-1-.5-1.9-.8-2.8s-.5-1.7-.8-2.4a5.89,5.89,0,0,0-1.4-2.1,4,4,0,0,0-2-.9,6.55,6.55,0,0,0-2.4.1,12.31,12.31,0,0,0-2.9.9" transform="translate(0.03 -0.01)"/><path class="louis-cls-2" d="M275.7,126.5a1.27,1.27,0,0,1,.6.1.6.6,0,0,1,.3.6l2,14.3c.1.5-.2.8-.7.9l-3.3.4a1.27,1.27,0,0,1-.6-.1.6.6,0,0,1-.3-.6l-1.3-9.3-4.4.6,1.1,8.2q.15.9-.6.9l-3.3.5a1.27,1.27,0,0,1-.6-.1.6.6,0,0,1-.3-.6l-1.1-8.2-5.2.7,1.3,9.5c.1.5-.2.8-.7.9l-3.3.5a.75.75,0,0,1-.5-.1,1.63,1.63,0,0,1-.3-.6l-2-14.5a1.48,1.48,0,0,1,.1-.7.76.76,0,0,1,.5-.2Z" transform="translate(0.03 -0.01)"/><path class="louis-cls-2" d="M39.4,202.7l4.2,8.9a.59.59,0,0,1-.3.9L40.1,214a1.09,1.09,0,0,1-.5.1c-.2,0-.3-.2-.5-.5l-6.3-13.2c-.1-.3-.2-.5-.1-.7a.78.78,0,0,1,.4-.4l20.5-9.7a1.27,1.27,0,0,1,.6-.1c.2,0,.4.2.5.5l1.8,3.8a.76.76,0,0,1-.4,1.1Z" transform="translate(0.03 -0.01)"/><path class="louis-cls-2" d="M67.1,231.1a22.55,22.55,0,0,1-3.6,2.4,10.54,10.54,0,0,1-4.1,1.4,8.57,8.57,0,0,1-4.4-.6,11.33,11.33,0,0,1-4.5-3.7,12,12,0,0,1-2.1-3.5,9.48,9.48,0,0,1-.6-3.2,6.71,6.71,0,0,1,.6-2.8,12.75,12.75,0,0,1,1.5-2.5,20.89,20.89,0,0,1,2-2.2c.7-.7,1.5-1.3,2.2-1.9.6-.4,1.2-.9,2-1.4a10.78,10.78,0,0,1,2.4-1.2,27.59,27.59,0,0,1,2.7-.8,8.11,8.11,0,0,1,5.9,1.2,12.81,12.81,0,0,1,3,2.8,12.67,12.67,0,0,1,2.6,5,8.44,8.44,0,0,1-.2,4.2,11,11,0,0,1-2.1,3.6,16.36,16.36,0,0,1-3.3,3.2m-4-4.4a13.31,13.31,0,0,0,3.9-4.3,3.69,3.69,0,0,0-.8-3.9,3.33,3.33,0,0,0-3.5-1.5,13.61,13.61,0,0,0-5,2.8,13.74,13.74,0,0,0-3.8,4.1,3.3,3.3,0,0,0,.7,3.8,3.71,3.71,0,0,0,3.6,1.7c1.3-.2,2.9-1.1,4.9-2.7" transform="translate(0.03 -0.01)"/><path class="louis-cls-2" d="M76.2,249.1a3.83,3.83,0,0,0,2.9.9,4.85,4.85,0,0,0,2.8-2.1l8.6-11.3a1,1,0,0,1,.5-.4c.2-.1.4,0,.7.2L95,239q.45.3.3.6a.76.76,0,0,1-.2.5l-8.8,11.4a10.7,10.7,0,0,1-1.4,1.6,8.62,8.62,0,0,1-1.8,1.4,6.22,6.22,0,0,1-2.6.9,7.58,7.58,0,0,1-2.6-.1,10.43,10.43,0,0,1-2.5-.8,17.61,17.61,0,0,1-2.3-1.4,9.85,9.85,0,0,1-2.8-3,7.38,7.38,0,0,1-1.2-3.3,8.6,8.6,0,0,1,.4-3.5,12.39,12.39,0,0,1,1.8-3.4l8.8-11.4a1,1,0,0,1,.5-.4c.2-.1.4,0,.7.2l3.3,2.6q.45.3.3.6a.76.76,0,0,1-.2.5L76,243.3c-1.8,2.4-1.8,4.3.2,5.8" transform="translate(0.03 -0.01)"/><path class="louis-cls-2" d="M101.6,243.4a1,1,0,0,1,.4-.5.47.47,0,0,1,.6.1l3.8,1.9c.3.2.5.3.4.5s-.1.4-.1.6L96.6,266.2a.78.78,0,0,1-.4.4.63.63,0,0,1-.7-.1l-3.8-1.9a.51.51,0,0,1-.4-.5,1.27,1.27,0,0,1,.1-.6Z" transform="translate(0.03 -0.01)"/><path class="louis-cls-2" d="M113.8,274c-.4-.1-.8-.3-1.4-.5s-1.1-.4-1.7-.7l-1.8-.9a9.06,9.06,0,0,1-1.6-1.1c-.5-.4-.8-.7-.8-1a3.09,3.09,0,0,1,.2-.8l1-1.9c.3-.4.5-.6.7-.6a2.3,2.3,0,0,1,.9.3c.4.2.9.4,1.3.6l1.5.6c.5.2,1,.4,1.6.6a8.8,8.8,0,0,0,1.5.5,4.68,4.68,0,0,0,2.8.2,1.85,1.85,0,0,0,1.3-1.4,2.16,2.16,0,0,0,.1-1.1,1.8,1.8,0,0,0-.4-.9,3.63,3.63,0,0,0-.9-.8,8.7,8.7,0,0,0-1.4-.8c-.9-.5-1.8-1.1-2.7-1.7a10.72,10.72,0,0,1-2.2-2,7.07,7.07,0,0,1-1.3-2.6,6.3,6.3,0,0,1,.2-3.3,8.86,8.86,0,0,1,1.5-2.9,6.6,6.6,0,0,1,2.4-1.7,6.16,6.16,0,0,1,3.1-.5,11.8,11.8,0,0,1,3.6.6c.3.1.7.2,1.3.4s1.1.4,1.7.6l1.8.9a9.06,9.06,0,0,1,1.6,1.1c.5.4.8.7.8.9a3.09,3.09,0,0,1-.2.8l-1.1,1.9a2.19,2.19,0,0,1-.3.5.37.37,0,0,1-.3.1.6.6,0,0,1-.4-.1c-.2-.1-.4-.1-.6-.2a22.88,22.88,0,0,0-2.3-1c-.8-.3-1.7-.6-2.8-1a4.17,4.17,0,0,0-2.4-.2,1.75,1.75,0,0,0-1.2,1.4,1.8,1.8,0,0,0-.1,1,1.33,1.33,0,0,0,.3.8,5.72,5.72,0,0,0,.8.7c.4.2.8.5,1.4.8.9.5,1.8,1.1,2.7,1.6a11,11,0,0,1,2.3,2,5.68,5.68,0,0,1,1.2,2.6,7.26,7.26,0,0,1-.3,3.5,7.08,7.08,0,0,1-1.8,3.2,6.27,6.27,0,0,1-2.7,1.6,8.85,8.85,0,0,1-3.3.3,8.52,8.52,0,0,1-3.6-.4" transform="translate(0.03 -0.01)"/><path class="louis-cls-2" d="M136.2,254.8a1.42,1.42,0,0,1,.2-.6.85.85,0,0,1,.6-.2l4.2.5a.85.85,0,0,1,.6.3,1.27,1.27,0,0,1,.1.6l-2.7,22.4a.76.76,0,0,1-.2.5c-.1.2-.3.2-.7.2l-4.2-.5a.6.6,0,0,1-.6-.3,1.27,1.27,0,0,1-.1-.6Z" transform="translate(0.03 -0.01)"/><path class="louis-cls-2" d="M154.7,278.3c-.1.4-.2.7-.4.8s-.4.2-.8.3l-4,.3c-.3,0-.5,0-.6-.1s-.1-.4,0-.8l5.5-22.6a2,2,0,0,1,.4-.8,1.33,1.33,0,0,1,1-.3l4.6-.3c.5,0,.8,0,1,.2a2.77,2.77,0,0,1,.5.8l8.8,21.7a2,2,0,0,1,.1.7c0,.1-.2.2-.5.2l-4.5.3c-.4,0-.7,0-.9-.2a2.77,2.77,0,0,1-.5-.8l-1.5-4.2-7.2.5Zm5.3-13.2-1.5-4.4h-.2l-.9,4.5-.8,4.1,4.7-.3Z" transform="translate(0.03 -0.01)"/><path class="louis-cls-2" d="M182.4,261.5h-.1l3.9,12.2a.45.45,0,0,1,0,.5c0,.2-.2.3-.5.4l-3.9,1.2a.67.67,0,0,1-1-.5l-6.9-21.5a.64.64,0,0,1,0-.6.7.7,0,0,1,.5-.4l2.8-.9a1.73,1.73,0,0,1,1.2-.1,3.51,3.51,0,0,1,.8.5c.3.2.7.6,1.3,1.1s1.3,1.1,2.1,1.7,1.6,1.3,2.4,2,1.7,1.3,2.4,2,1.5,1.2,2.1,1.7,1,.9,1.3,1.1h0l-3.9-12.2a.64.64,0,0,1,0-.6c0-.2.2-.4.5-.5l3.9-1.2q.45-.15.6,0a.85.85,0,0,1,.3.5l6.9,21.5a.64.64,0,0,1,0,.6.7.7,0,0,1-.5.4l-2.8.9a1.8,1.8,0,0,1-1,.1,3,3,0,0,1-.8-.4c-1.3-1-2.6-2.1-3.9-3.1s-2.6-2.1-3.9-3.1Z" transform="translate(0.03 -0.01)"/><path class="louis-cls-2" d="M213.7,262a1.35,1.35,0,0,1,0,.9,1.7,1.7,0,0,1-.6.6l-3.4,2.1a.66.66,0,0,1-.6.1c-.1,0-.3-.3-.4-.7L203,242.4a1.35,1.35,0,0,1,0-.9c0-.2.3-.5.7-.7l3.9-2.4a1.13,1.13,0,0,1,1-.3,2.51,2.51,0,0,1,.8.5l17.9,15.1c.2.2.3.4.4.5a.54.54,0,0,1-.3.4l-3.8,2.4c-.4.2-.6.3-.9.2a9.22,9.22,0,0,1-.8-.5l-3.3-3.1-6.2,3.8Zm-1.5-14.2-3.3-3.2-.2.1,1.3,4.4,1.2,4,4-2.5Z" transform="translate(0.03 -0.01)"/><path class="louis-cls-2" d="M189.2,19.5C116.5-1.4,40.4,40.7,19.5,113.4s21.2,148.8,93.9,169.7,148.8-21.2,169.7-93.9S261.9,40.4,189.2,19.5M113.8,281.7C41.9,261,.2,185.7,20.9,113.8S116.9.2,188.8,20.9s113.6,96,92.9,167.9-96,113.6-167.9,92.9" transform="translate(0.03 -0.01)"/><path class="louis-cls-2" d="M191.9,10.3C114.1-12.1,32.6,33,10.3,110.7S33,270,110.7,292.3,270,269.6,292.3,191.9,269.6,32.6,191.9,10.3M112.4,286.6C37.8,265.1-5.4,187,16,112.4S115.6-5.4,190.2,16,308,115.6,286.6,190.2,187,308,112.4,286.6" transform="translate(0.03 -0.01)"/><path class="louis-cls-2" d="M193.1,5.9C112.9-17.1,29,29.3,5.9,109.5S29.3,273.6,109.5,296.7s164.1-23.4,187.2-103.6S273.3,29,193.1,5.9M109.9,295.3C30.5,272.4-15.5,189.3,7.3,109.9S113.3-15.5,192.7,7.3s125.4,106,102.6,185.4-106,125.4-185.4,102.6" transform="translate(0.03 -0.01)"/><path class="louis-cls-2" d="M177.7,59.6A95.43,95.43,0,0,0,59.6,124.9C45.1,175.5,74.3,228.5,124.9,243A95.42,95.42,0,0,0,177.7,59.6m-52.4,182A94,94,0,0,1,61,125.3C75.4,75.5,127.5,46.6,177.3,61a94,94,0,1,1-52,180.6" transform="translate(0.03 -0.01)"/><path class="louis-cls-2" d="M134.5,196.8l28.2,8.1-.1.2,3.6,1-.9,3.2-3.6-1-1.1,4,3.6,1-.9,3.2-3.6-1-1.1,4,3.6,1-.9,3.2-3.6-1L152,242.4a92,92,0,0,0,11.7-.8l4.5-15.8-3.8-1.1.9-3.2,3.8,1.1,1.1-4-3.8-1.1.9-3.2,3.8,1.1,1.1-4-3.8-1.1.9-3.2,3.8,1.1,2.4-8.4-38.8-11.1Z" transform="translate(0.03 -0.01)"/><path class="louis-cls-2" d="M167,178.1l.4-1.5-4.8-1.4.9-3.2,4.8,1.4,1.1-4-4.8-1.4.9-3.2,4.8,1.4,1.1-4-4.8-1.4.9-3.2,4.8,1.4,1.1-4-4.8-1.4.9-3.2,4.8,1.4,1.1-4-4.8-1.4.9-3.2,4.8,1.4,2.2-7.6-1.1-.3-40.2-11.6-1.1-.3-2.2,7.6,13.8,4-.9,3.2-13.8-4-1.1,4,13.8,4-.9,3.2-13.8-4-1.1,4,13.8,4-.9,3.2L129,150l-1.1,4,13.8,4-.9,3.2-13.8-4-1.1,4,13.8,4-.9,3.2-13.8-4-5.7,19.7,6.8,1.9-.9,3.2-6.8-1.9-1.1,3.7,6.8,1.9-.9,3.2-6.8-1.9-1.1,3.7,6.8,1.9-.9,3.2-6.8-1.9L106,230.4a89.14,89.14,0,0,0,13.6,6.4L131.3,196l3.3-11.4,28.2,8.1Zm-7.6-3.8-5.5-1.6.9-3.2,5.5,1.6Zm2.1-7.2-5.5-1.6.9-3.2,5.5,1.6Zm2.1-7.2-5.5-1.6.9-3.2,5.5,1.6Zm2.1-7.2-5.5-1.6.9-3.2,5.5,1.6Zm2-7.1-5.5-1.6.9-3.2,5.5,1.6Z" transform="translate(0.03 -0.01)"/><path class="louis-cls-2" d="M183.7,93.2l47.1,13.5a61.55,61.55,0,0,0-3.3-5.5L183.7,88.6a17.7,17.7,0,0,1,0,4.6" transform="translate(0.03 -0.01)"/><path class="louis-cls-2" d="M172.8,76.4a15,15,0,0,1,9.7,8.5l41.9,12A90.92,90.92,0,0,0,118.3,66.4l41.9,12a14.94,14.94,0,0,1,12.6-2" transform="translate(0.03 -0.01)"/><path class="louis-cls-2" d="M180.6,100.3,235.2,116a49,49,0,0,0-2.4-5.2L182.7,96.4a10.5,10.5,0,0,1-2.1,3.9" transform="translate(0.03 -0.01)"/><path class="louis-cls-2" d="M157.1,81.1,113.3,68.5c-1.9.9-3.8,1.8-5.7,2.9l47.1,13.5a16.34,16.34,0,0,1,2.4-3.8" transform="translate(0.03 -0.01)"/><path class="louis-cls-2" d="M153.7,88.1,103.6,73.7c-1.6,1-3.2,2-4.8,3.1l54.6,15.7a22.21,22.21,0,0,1,.3-4.4" transform="translate(0.03 -0.01)"/><path class="louis-cls-2" d="M164.4,105.6a15.54,15.54,0,0,1-10.1-9.4L95.5,79.3a90,90,0,0,0-31.7,46.8,88.49,88.49,0,0,0-2.6,12.2l6,1.7,3.4-11.8L87.4,133l3.7-13,10.7,3.1,3.4-11.9,3.2.9L105,124l26.1,7.5,3.1-10.8,5.6,1.6,7.6-9.7,28.6,8.2,1.3,12.3,5.6,1.6-5.4,18.8,21.2,6.1,2.9-10.1,7.4,2.1,3.1-10.9,3.2.9-3.1,10.9,7.4,2.1-2.9,10.1-4.8,16.8,11.5,3.3,4.7-16.5,3.2.9-4.7,16.5,8,2.3a96.32,96.32,0,0,0,4.3-11.7,90.6,90.6,0,0,0-2-56.5l-59-16.8a15,15,0,0,1-13.5,2.6" transform="translate(0.03 -0.01)"/><path class="louis-cls-2" d="M115.7,138.9l-3.2-.9,2.2-7.7-3.8-1.1-2.2,7.7-3.2-.9,2.2-7.7-14.4-4.2-2.8,9.8,10.5,3-.9,3.2-10.5-3-2.5,8.6,25.4,7.3-2.4,8.3-.9,3.2L92.9,221.1a94.85,94.85,0,0,0,10.2,7.4l12.1-42.2-6.2-1.8.9-3.2,6.2,1.8,1.1-3.7-6.2-1.8.9-3.2,6.2,1.8,1.1-3.7-6.2-1.8.9-3.2,6.2,1.8,10-34.6L118,131.2Z" transform="translate(0.03 -0.01)"/><path class="louis-cls-2" d="M171.9,79.6A11.87,11.87,0,1,0,180,94.3a11.87,11.87,0,0,0-8.1-14.7" transform="translate(0.03 -0.01)"/><path class="louis-cls-2" d="M224.2,194.2l6.5,1.9,2.4-4.5.1-.3-7.5-2.1Z" transform="translate(0.03 -0.01)"/><rect class="louis-cls-2" x="202.16" y="183.78" width="5.3" height="4.3" transform="translate(-30.46 331.35) rotate(-73.95)"/><rect class="louis-cls-2" x="216.97" y="187.97" width="5.3" height="4.3" transform="translate(-23.77 348.62) rotate(-73.95)"/><rect class="louis-cls-2" x="194.83" y="181.6" width="5.3" height="4.3" transform="translate(-33.67 322.73) rotate(-73.95)"/><rect class="louis-cls-2" x="185.86" y="177.26" width="5.3" height="7.8" transform="translate(-37.67 312.24) rotate(-73.95)"/><polygon class="louis-cls-2" points="148.53 116.49 143.13 123.29 173.83 132.19 172.93 123.49 148.53 116.49"/><path class="louis-cls-2" d="M122.8,237.8a33.74,33.74,0,0,0,3.4,1,84.53,84.53,0,0,0,17.7,3.2l-9-2.6.9-3.2,13.4,3.9,1.1-4-13.4-3.9.9-3.2,13.4,3.9,1.1-4L138.9,225l.9-3.2,13.4,3.9,1.1-4-13.4-3.9.9-3.2,13.4,3.9,1.1-4-13.4-3.9.9-3.2,13.4,3.9,1.2-4.2-25-7.2Z" transform="translate(0.03 -0.01)"/><path class="louis-cls-2" d="M212.5,167.1l-36-10.3-6.4,22.3-4.2,14.5,10.6,3,3.3-11.6.9-3.2,2.4-8.3,25.4,7.3Zm-17.7,4.2-9.9-2.9.9-3.2,9.9,2.9Z" transform="translate(0.03 -0.01)"/><rect class="louis-cls-2" x="73.85" y="131.61" width="9" height="14.1" transform="translate(-76.54 175.62) rotate(-73.95)"/><rect class="louis-cls-2" x="205.08" y="152.8" width="7.2" height="12" transform="translate(-1.59 315.44) rotate(-73.95)"/><path class="louis-cls-2" d="M171.9,225l22.5,6.5a89.44,89.44,0,0,0,13.3-8.7l1.8-6.2,4.1,1.2c1.4-1.3,2.7-2.6,4-4l-6.7-1.9,3.2-11,6.7,1.9-3.2,11a95.63,95.63,0,0,0,11.3-14.7l-45.7-13.2Zm30.8-27.5,6.7,1.9-3.2,11-6.7-1.9Zm-4.6,15.8,6.7,1.9-3.2,11-6.7-1.9Zm-8.2-19.5,6.7,1.9-3.2,11-6.7-1.9Zm-4.6,15.8,6.7,1.9-3.2,11-6.7-1.9Z" transform="translate(0.03 -0.01)"/><path class="louis-cls-2" d="M167.3,241c2.7-.5,5.5-1.1,8.1-1.8l1.4-4.9,7.1,2c2.1-.8,4.1-1.7,6.1-2.6l-19.1-5.5Z" transform="translate(0.03 -0.01)"/><rect class="louis-cls-2" x="77.51" y="147.88" width="5.3" height="4.3" transform="translate(-86.16 185.58) rotate(-73.95)"/><rect class="louis-cls-2" x="209.61" y="185.89" width="5.3" height="4.3" transform="translate(-27.09 340.04) rotate(-73.95)"/><path class="louis-cls-2" d="M78.5,206l7.1,2-1.4,4.9c1.9,2,3.9,4,5.9,5.9l3.7-12.7-19.1-5.5c1.2,1.8,2.4,3.6,3.8,5.4" transform="translate(0.03 -0.01)"/><path class="louis-cls-2" d="M61.9,169l3.2-11,6.7,1.9-3.2,11L61.9,169c.4,1.8.8,3.7,1.3,5.5l4.1,1.2-1.8,6.2a86.55,86.55,0,0,0,6.7,14.5l22.5,6.5L106,163.7,60.3,150.5A87.25,87.25,0,0,0,61.9,169m27.4-4.1,6.7,1.9-3.2,11-6.7-1.9Zm-4.5,15.8,6.7,1.9-3.2,11-6.7-1.9Zm-8.3-19.5,6.7,1.9-3.2,11-6.7-1.9ZM71.9,177l6.7,1.9-3.2,11L68.7,188Z" transform="translate(0.03 -0.01)"/><path class="louis-cls-2" d="M68.2,143.8l-7.5-2.1-.1.3c-.2,1.7-.3,3.4-.4,5.1l6.5,1.9Z" transform="translate(0.03 -0.01)"/><rect class="louis-cls-2" x="84.86" y="149.96" width="5.3" height="4.3" transform="translate(-82.83 194.16) rotate(-73.95)"/><rect class="louis-cls-2" x="101.26" y="153" width="5.3" height="7.8" transform="translate(-75.58 213.38) rotate(-73.95)"/><rect class="louis-cls-2" x="70.05" y="145.77" width="5.3" height="4.3" transform="translate(-89.52 176.89) rotate(-73.95)"/><rect class="louis-cls-2" x="92.19" y="152.14" width="5.3" height="4.3" transform="translate(-79.62 202.78) rotate(-73.95)"/></g></svg>