<svg id="shield" data-name="Layer 1" xmlns="http://www.w3.org/2000/svg" viewBox="0 0 122.68 91.57"><defs><style>.shield-cls-1{fill:#a97c51;}</style></defs><title>icon-shield-xp</title><g id="icons"><path class="shield-cls-1" d="M61.5,92.3Z" transform="translate(0.04 -0.03)"/><path class="shield-cls-1" d="M93.9,69.2l.2-.4h27.2a1.15,1.15,0,0,0,1.1-.6,1.5,1.5,0,0,0,.1-1.3l-8-15.9,8-15.9a1.23,1.23,0,0,0-.1-1.3,1.25,1.25,0,0,0-1.1-.6H102V26.3a1.32,1.32,0,0,0-1.3-1.3H97.9V9.6a1.32,1.32,0,0,0-1.3-1.3c-13.1,0-25.4,0-34.2-7.9a1.27,1.27,0,0,0-1.8,0C51.7,8.3,39.4,8.3,26.4,8.3a1.32,1.32,0,0,0-1.3,1.3V24.8H22a1.32,1.32,0,0,0-1.3,1.3V33H1.3a1.15,1.15,0,0,0-1.1.6A1.74,1.74,0,0,0,.1,35l8,15.9L.1,66.8a1.23,1.23,0,0,0,.1,1.3,1.25,1.25,0,0,0,1.1.6H28.5l.2.4C38,88.6,60.9,91.5,61.1,91.6h.3C61.7,91.5,84.6,88.6,93.9,69.2Zm-.1-7.7c-5.1,20.3-24.5,25.8-30.3,27l-.9.2V60.6H94Zm7.7-1.3a1.28,1.28,0,0,0,.4-1V35.8h17.2l-7.3,14.6a1.28,1.28,0,0,0,0,1.2l7.3,14.6H95.5ZM62.6,4.2l1.1.7c8.5,5.6,18.9,6,30.6,6H95V24.7H62.6ZM27.5,11h.7c11.7,0,22.1-.5,30.6-6l1.1-.7V24.9H27.5ZM3.5,66.1l7.3-14.6a1.27,1.27,0,0,0,0-1.2L3.5,35.8H20.7V59.3a1.28,1.28,0,0,0,.4,1l6,6H3.5ZM59.9,88.7l-.9-.2c-5.8-1.2-25.2-6.7-30.3-27l-.2-.9H59.9ZM23.4,57.9V27.5H99.3V57.9Z" transform="translate(0.04 -0.03)"/></g></svg>