<svg id="sword" xmlns="http://www.w3.org/2000/svg" viewBox="0 0 104.93 102.81"><defs><style>.sword-cls-1{fill:#a97c51;}</style></defs><title>icon-sword-record</title><path class="sword-cls-1" d="M104.5.4a1.42,1.42,0,0,0-2,0l-50,46-.5-.5L2.4.4a1.52,1.52,0,0,0-2,0,1.42,1.42,0,0,0,0,2L46.1,52.2,23,73.4l-.5-.2a33.35,33.35,0,0,1-9-6.2,1.34,1.34,0,0,0-2,0,1.28,1.28,0,0,0-.4,1,1.78,1.78,0,0,0,.4,1c5,5,6,12.7,6.2,15.8v.4L7.2,95.6l-.4-.1a3.44,3.44,0,0,0-.9-.1,3.69,3.69,0,0,0-3.7,3.7,3.63,3.63,0,0,0,3.7,3.7,3.63,3.63,0,0,0,3.7-3.7,2.77,2.77,0,0,0-.1-.9l-.1-.4L19.9,87.3h.4c3.1.2,10.8,1.2,15.8,6.2a1.28,1.28,0,0,0,1,.4,1.45,1.45,0,0,0,1.5-1.4,1.43,1.43,0,0,0-.6-1.2,35.31,35.31,0,0,1-6.1-8.8l-.2-.5,21-22.8L73.7,82l-.2.5a33.35,33.35,0,0,1-6.2,9,1.28,1.28,0,0,0-.4,1,1.78,1.78,0,0,0,.4,1,1.52,1.52,0,0,0,2,0c5-5,12.7-6,15.8-6.2h.4L96,97.8l-.1.4a3.44,3.44,0,0,0-.1.9,3.7,3.7,0,0,0,7.4,0,3.63,3.63,0,0,0-3.7-3.7,2.77,2.77,0,0,0-.9.1l-.4.1-11-10.4v-.4c.2-3.1,1.2-10.8,6.2-15.8a1.28,1.28,0,0,0,.4-1,1.78,1.78,0,0,0-.4-1,1.34,1.34,0,0,0-2,0,31.85,31.85,0,0,1-9,6.2l-.5.2L58.8,52.2,104.5,2.4a1.42,1.42,0,0,0,0-2ZM38,39.1l-9.5-11L39.1,38,50.3,48.3l-2.1,1.9ZM28.8,86a37,37,0,0,0-7.6-1.6l-.6-.1-.1-.6a37,37,0,0,0-1.6-7.6l-.6-1.8,1.7.9a43.54,43.54,0,0,0,6.5,2.7l.4.1.1.4a43.54,43.54,0,0,0,2.7,6.5l.9,1.7ZM84.9,75.2l1.7-.9L86,76.1a37,37,0,0,0-1.6,7.6l-.1.6-.6.1A37,37,0,0,0,76.1,86l-1.8.6.9-1.7a34.84,34.84,0,0,0,2.7-6.5L78,78l.4-.1A43.54,43.54,0,0,0,84.9,75.2ZM79,74.7l-1.3.4a6.32,6.32,0,0,1-1.3.4,1.28,1.28,0,0,0-1,1,6.74,6.74,0,0,1-.4,1.2L74.7,79,54.4,57l2.4-2.6ZM30.2,79l-.4-1.3a6.45,6.45,0,0,0-.4-1.2,1.28,1.28,0,0,0-1-1,6.74,6.74,0,0,1-1.2-.4l-1.3-.4L65.8,38,76.7,28,66.9,39.1Z" transform="translate(0.01 0.01)"/></svg>